<svg width="245" height="40" viewBox="0 0 245 40" fill="none" xmlns="http://www.w3.org/2000/svg">
<path d="M55.6281 0.384735H50.9905V18.3139H55.6281V0.384735Z" fill="#03428D"/>
<path fill-rule="evenodd" clip-rule="evenodd" d="M68.4724 0.384735H73.082V18.3111H69.5073L63.1104 9.29675V18.3111H58.4755V0.384735H62.0754L68.4724 9.39909V0.384735Z" fill="#03428D"/>
<path fill-rule="evenodd" clip-rule="evenodd" d="M84.7096 18.6956C81.9815 18.6956 79.7243 17.804 77.9378 16.0209C76.1514 14.2377 75.2582 12.0139 75.2582 9.3493C75.2582 6.68473 76.1514 4.46087 77.9378 2.67773C79.7243 0.894591 81.9815 0.00302117 84.7096 0.00302117C86.3047 -0.00851213 87.8755 0.388876 89.2689 1.15644C90.6238 1.88482 91.7589 2.95576 92.5583 4.25988L88.5445 6.53905C88.1913 5.90009 87.6552 5.37854 87.0033 5.03989C86.2984 4.6664 85.5092 4.47605 84.7096 4.48669C83.2607 4.48669 82.0906 4.9357 81.1993 5.83373C80.3079 6.73175 79.8632 7.90545 79.865 9.35483C79.865 10.8061 80.3098 11.9798 81.1993 12.8759C82.0888 13.7721 83.2589 14.2193 84.7096 14.2174C85.5093 14.2287 86.2987 14.0383 87.0033 13.6642C87.6604 13.3212 88.1975 12.79 88.5445 12.1402L92.5583 14.4443C91.7692 15.7538 90.6377 16.8287 89.2829 17.556C87.883 18.3186 86.3078 18.7111 84.7096 18.6956Z" fill="#03428D"/>
<path fill-rule="evenodd" clip-rule="evenodd" d="M99.1092 12.8345C99.566 13.2882 100.112 13.645 100.713 13.8828C101.314 14.1206 101.958 14.2345 102.606 14.2175C103.253 14.2337 103.897 14.1194 104.498 13.8817C105.099 13.6439 105.645 13.2876 106.102 12.8345C106.566 12.3782 106.929 11.8322 107.17 11.2306C107.411 10.629 107.523 9.9848 107.5 9.33825C107.523 8.6917 107.411 8.04748 107.17 7.4459C106.929 6.84432 106.566 6.29831 106.102 5.84204C105.644 5.38903 105.099 5.03282 104.498 4.79506C103.896 4.5573 103.253 4.44297 102.606 4.45904C101.958 4.442 101.314 4.55588 100.713 4.79369C100.112 5.03151 99.566 5.38824 99.1092 5.84204C98.6454 6.29831 98.2818 6.84432 98.0411 7.4459C97.8005 8.04748 97.688 8.6917 97.7106 9.33825C97.688 9.9848 97.8005 10.629 98.0411 11.2306C98.2818 11.8322 98.6454 12.3782 99.1092 12.8345ZM109.352 15.9849C108.472 16.8641 107.419 17.557 106.26 18.0215C105.1 18.4861 103.857 18.7126 102.606 18.6873C101.354 18.7126 100.111 18.4861 98.9515 18.0215C97.7917 17.557 96.7395 16.8641 95.8589 15.9849C94.9628 15.125 94.2555 14.0918 93.781 12.9497C93.3065 11.8076 93.075 10.581 93.101 9.34654C93.075 8.11206 93.3065 6.88551 93.781 5.74339C94.2555 4.60126 94.9628 3.56805 95.8589 2.70817C96.7395 1.82903 97.7917 1.13613 98.9515 0.671574C100.111 0.207016 101.354 -0.0194966 102.606 0.00579848C103.857 -0.0194966 105.1 0.207016 106.26 0.671574C107.419 1.13613 108.472 1.82903 109.352 2.70817C110.248 3.56805 110.956 4.60126 111.43 5.74339C111.905 6.88551 112.136 8.11206 112.11 9.34654C112.137 10.5824 111.906 11.8105 111.432 12.9542C110.957 14.0978 110.249 15.1324 109.352 15.9932V15.9849Z" fill="#03428D"/>
<path fill-rule="evenodd" clip-rule="evenodd" d="M128.893 18.6956C126.165 18.6956 123.907 17.804 122.121 16.0209C120.335 14.2377 119.441 12.0139 119.441 9.3493C119.441 6.68473 120.335 4.46087 122.121 2.67773C123.907 0.894591 126.165 0.00302117 128.893 0.00302117C130.488 -0.00851213 132.059 0.388876 133.452 1.15644C134.806 1.88468 135.941 2.9557 136.739 4.25988L132.725 6.53905C132.372 5.89958 131.836 5.37786 131.184 5.03989C130.48 4.66674 129.691 4.47639 128.893 4.48669C127.442 4.48669 126.272 4.9357 125.382 5.83373C124.493 6.73175 124.048 7.90545 124.048 9.35483C124.048 10.8061 124.493 11.9798 125.382 12.8759C126.272 13.7721 127.442 14.2193 128.893 14.2174C129.692 14.2283 130.48 14.038 131.184 13.6642C131.841 13.3219 132.379 12.7905 132.725 12.1402L136.739 14.4443C135.949 15.755 134.815 16.8302 133.458 17.556C132.06 18.317 130.488 18.7094 128.893 18.6956Z" fill="#03428D"/>
<path fill-rule="evenodd" clip-rule="evenodd" d="M148.137 0.384735H152.747V18.3111H148.137V11.4238H143.035V18.3111H138.397V0.384735H143.035V7.01758H148.137V0.384735Z" fill="#03428D"/>
<path fill-rule="evenodd" clip-rule="evenodd" d="M160.257 14.01H167.275V18.3111H155.619V0.384735H167.146V4.66095H160.257V7.14481H166.497V11.3712H160.257V14.01Z" fill="#03428D"/>
<path fill-rule="evenodd" clip-rule="evenodd" d="M187.968 0.384735V18.3111H183.358V8.65781L178.955 15.8549H178.488L174.114 8.6827V18.3111H169.476V0.384735H174.114L178.723 8.04099L183.358 0.384735H187.968Z" fill="#03428D"/>
<path d="M195.481 0.384735H190.843V18.3139H195.481V0.384735Z" fill="#03428D"/>
<path fill-rule="evenodd" clip-rule="evenodd" d="M207.083 18.6956C204.355 18.6956 202.098 17.804 200.311 16.0209C198.525 14.2377 197.631 12.0129 197.629 9.34652C197.629 6.68195 198.522 4.4581 200.309 2.67496C202.095 0.891814 204.352 0.000244075 207.08 0.000244075C208.675 -0.0112892 210.246 0.386099 211.64 1.15366C212.995 1.88259 214.13 2.95457 214.929 4.25987L210.915 6.53075C210.562 5.89158 210.026 5.36996 209.374 5.03158C208.67 4.65832 207.882 4.46797 207.083 4.47838C205.632 4.47838 204.462 4.9274 203.573 5.82542C202.683 6.72344 202.239 7.89714 202.239 9.34652C202.239 10.7977 202.683 11.9714 203.573 12.8676C204.462 13.7638 205.632 14.2137 207.083 14.2174C207.882 14.2283 208.67 14.038 209.374 13.6642C210.031 13.3214 210.569 12.7902 210.915 12.1402L214.929 14.4442C214.14 15.7539 213.009 16.8289 211.654 17.556C210.255 18.3179 208.68 18.7104 207.083 18.6956Z" fill="#03428D"/>
<path fill-rule="evenodd" clip-rule="evenodd" d="M222.025 11.7806H225.676L223.838 5.69543L222.025 11.7806ZM227.871 18.3111L227.004 15.7249H220.834L220.051 18.3111H215.033L220.811 0.387497H226.646L232.643 18.3111H227.871Z" fill="#03428D"/>
<path fill-rule="evenodd" clip-rule="evenodd" d="M238.601 13.8828H244.841V18.3111H233.963V0.384735H238.601V13.8828Z" fill="#03428D"/>
<path fill-rule="evenodd" clip-rule="evenodd" d="M50.9905 36.9539C51.7793 36.9539 52.1569 36.2928 52.2604 35.3607C52.4142 34.0883 52.6212 30.7498 52.7918 25.9342H57.9525V37.8003H56.8896V26.9161H53.8128C53.6589 30.6612 53.5051 34.0551 53.2981 35.5128C53.1107 37.023 52.3555 37.9552 50.9989 37.9552L50.9905 36.9539Z" fill="#03428D"/>
<path fill-rule="evenodd" clip-rule="evenodd" d="M66.0781 25.9314L63.06 35.6815C62.6488 37.0036 61.9104 37.9524 60.4363 37.9524H60.0251V36.9539H60.4363C61.3622 36.9539 61.8069 36.2762 62.081 35.3607L62.4754 34.1049L59.3986 25.9314H60.5314L62.9313 32.5698L64.9732 25.9314H66.0781Z" fill="#03428D"/>
<path fill-rule="evenodd" clip-rule="evenodd" d="M73.2779 25.9314V37.8003H72.201V33.1202C71.6439 33.3655 71.0429 33.4981 70.4332 33.5102C68.285 33.5102 66.8865 32.2406 66.8865 29.9338V25.9314H67.9522V29.9338C67.9522 31.6819 68.9284 32.5117 70.4556 32.5117C71.0593 32.5103 71.6553 32.3772 72.201 32.1217V25.9314H73.2779Z" fill="#03428D"/>
<path fill-rule="evenodd" clip-rule="evenodd" d="M75.9127 25.9342H76.9784V36.8183H80.8356V25.9342H81.8985V36.8183H85.7557V25.9342H86.8186V37.803H75.9127V25.9342Z" fill="#03428D"/>
<path fill-rule="evenodd" clip-rule="evenodd" d="M93.7247 34.0717L92.4912 29.1538C92.3038 28.4263 92.1303 27.5772 92.08 27.2895H92.0464C91.9933 27.5661 91.8227 28.4263 91.6353 29.1538L90.4017 34.0717H93.7247ZM93.9652 35.0204H90.1584L89.4563 37.8003H88.3375L91.4926 25.9314H92.659L95.8141 37.8003H94.6953L93.9652 35.0204Z" fill="#03428D"/>
<path fill-rule="evenodd" clip-rule="evenodd" d="M101.814 32.1217V26.9161H100.172C98.628 26.9161 97.8393 27.7984 97.8393 29.494C97.8393 31.1895 98.628 32.1217 100.138 32.1217H101.814ZM99.3805 33.0372C97.7022 32.7606 96.7568 31.4412 96.7568 29.5438C96.7568 27.2535 98.0434 25.9314 100.169 25.9314H102.88V37.8003H101.814V33.0981H100.547L97.7022 37.8003H96.4659L99.3805 33.0372Z" fill="#03428D"/>
<path fill-rule="evenodd" clip-rule="evenodd" d="M114.776 26.9161H112.133V37.803H111.072V26.9161H108.432V25.9342H114.776V26.9161Z" fill="#03428D"/>
<path fill-rule="evenodd" clip-rule="evenodd" d="M122.18 36.8349V37.803H116.401V25.9342H121.99V26.8995H117.464V31.2919H121.699V32.2572H117.464V36.8349H122.18Z" fill="#03428D"/>
<path fill-rule="evenodd" clip-rule="evenodd" d="M126.104 32.0221L125.245 33.1728V37.803H124.182V25.9342H125.245V31.5962L126.224 30.2049L129.293 25.9342H130.613L126.789 31.1038L131.094 37.803H129.824L126.104 32.0221Z" fill="#03428D"/>
<path fill-rule="evenodd" clip-rule="evenodd" d="M131.743 34.4451V29.2893C131.743 26.9991 133.063 25.7267 134.951 25.7267C136.909 25.7267 138.157 26.9465 138.277 29.151H137.248C137.127 27.4721 136.305 26.6755 134.951 26.6755C133.665 26.6755 132.772 27.5219 132.772 29.2866V34.4451C132.772 36.2098 133.698 37.0562 135.01 37.0562C136.381 37.0562 137.169 36.2264 137.34 34.5668H138.369C138.196 36.7381 136.971 37.9939 135.013 37.9939C133.097 38.005 131.743 36.7326 131.743 34.4451Z" fill="#03428D"/>
<path fill-rule="evenodd" clip-rule="evenodd" d="M145.594 26.9161H142.954V37.803H141.891V26.9161H139.25V25.9342H145.594V26.9161Z" fill="#03428D"/>
<path fill-rule="evenodd" clip-rule="evenodd" d="M147.222 25.9314H148.285V33.4438C148.285 34.0357 148.268 35.1228 148.232 35.7147L148.285 35.7313C148.439 35.3247 148.8 34.4755 149.124 33.7951L152.621 25.9259H153.821V37.8003H152.758V29.9836L152.775 28.0003L152.741 27.9838C152.637 28.2604 152.279 29.0901 152.106 29.5106L148.386 37.8085H147.219L147.222 25.9314Z" fill="#03428D"/>
<path fill-rule="evenodd" clip-rule="evenodd" d="M155.141 36.9539C155.93 36.9539 156.307 36.2928 156.411 35.3607C156.565 34.0883 156.772 30.7498 156.942 25.9342H162.1V37.8003H161.037V26.9161H157.96C157.807 30.6612 157.653 34.0551 157.446 35.5128C157.256 37.023 156.503 37.9552 155.149 37.9552L155.141 36.9539Z" fill="#03428D"/>
<path fill-rule="evenodd" clip-rule="evenodd" d="M167.809 36.8183C169.163 36.8183 170.125 35.9526 170.125 34.293C170.125 32.697 169.163 31.8672 167.809 31.8672H165.803V36.8183H167.809ZM164.732 25.9342H165.795V30.8825H167.801C169.806 30.8825 171.196 32.1549 171.196 34.293C171.196 36.5058 169.798 37.803 167.801 37.803H164.724L164.732 25.9342Z" fill="#03428D"/>
<path fill-rule="evenodd" clip-rule="evenodd" d="M179.294 25.9342V37.803H178.231V32.2572H173.963V37.803H172.897V25.9342H173.963V31.2753H178.231V25.9342H179.294Z" fill="#03428D"/>
<path fill-rule="evenodd" clip-rule="evenodd" d="M186.203 34.0717L184.966 29.1538C184.776 28.4263 184.606 27.5772 184.555 27.2895H184.522C184.469 27.5661 184.298 28.4263 184.111 29.1538L182.877 34.0717H186.203ZM186.443 35.0204H182.634L181.932 37.8003H180.813L183.968 25.9314H185.134L188.281 37.8003H187.162L186.443 35.0204Z" fill="#03428D"/>
<path fill-rule="evenodd" clip-rule="evenodd" d="M194.292 32.1217V26.9161H192.644C191.1 26.9161 190.312 27.7984 190.312 29.494C190.312 31.1895 191.1 32.1217 192.608 32.1217H194.292ZM191.856 33.0262C190.177 32.7496 189.232 31.4302 189.232 29.5327C189.232 27.2425 190.519 25.9203 192.644 25.9203H195.355V37.8003H194.292V33.0981H193.036L190.189 37.8003H188.941L191.856 33.0262Z" fill="#03428D"/>
<path fill-rule="evenodd" clip-rule="evenodd" d="M206.787 37.803L204.457 32.6306L202.124 37.803H200.941L203.839 31.6293L201.095 25.9342H202.278L204.457 30.664L206.633 25.9342H207.816L205.072 31.6293L207.97 37.803H206.787Z" fill="#03428D"/>
<path fill-rule="evenodd" clip-rule="evenodd" d="M209.615 25.9314H210.677V33.4438C210.677 34.0357 210.661 35.1228 210.624 35.7147L210.677 35.7313C210.831 35.3247 211.192 34.4755 211.517 33.7951L215.013 25.9259H216.213V37.8003H215.15V29.9836L215.167 28.0003L215.133 27.9838C215.03 28.2604 214.669 29.0901 214.498 29.5106L210.778 37.8085H209.615V25.9314Z" fill="#03428D"/>
<path fill-rule="evenodd" clip-rule="evenodd" d="M227.393 25.9314V37.8003H226.322V31.527C226.322 30.274 226.355 29.2229 226.425 28.1718L226.355 28.1553C226.048 29.0044 225.566 30.1385 225.122 31.2753L223.648 35.0038H222.585L221.116 31.2725C220.671 30.1357 220.19 29.0016 219.888 28.1525L219.821 28.1691C219.888 29.2202 219.925 30.2712 219.925 31.5242V37.8003H218.862V25.9314H219.981L222.126 31.054C222.436 31.8174 222.864 33.0372 223.088 33.6983H223.158C223.382 33.0372 223.81 31.8174 224.118 31.054L226.26 25.9342L227.393 25.9314Z" fill="#03428D"/>
<path fill-rule="evenodd" clip-rule="evenodd" d="M230.031 25.9314H231.094V33.4438C231.094 34.0357 231.074 35.1228 231.043 35.7147L231.094 35.7313C231.247 35.3247 231.605 34.4755 231.933 33.7951L235.432 25.9259H236.632V37.8003H235.569V29.9836L235.589 28.0003L235.552 27.9838C235.449 28.2604 235.091 29.0901 234.917 29.5106L231.197 37.8085H230.031V25.9314Z" fill="#03428D"/>
<path fill-rule="evenodd" clip-rule="evenodd" d="M243.778 32.1217V26.9161H242.134C240.59 26.9161 239.801 27.7984 239.801 29.494C239.801 31.1895 240.59 32.1217 242.097 32.1217H243.778ZM241.345 33.0262C239.667 32.7496 238.721 31.4302 238.721 29.5327C238.721 27.2425 240.008 25.9203 242.134 25.9203H244.841V37.8003H243.778V33.0981H242.511L239.664 37.8003H238.43L241.345 33.0262Z" fill="#03428D"/>
<path fill-rule="evenodd" clip-rule="evenodd" d="M20.0217 26.6616L12.3268 19.0219L13.0597 18.2972L20.7545 25.9369L20.0217 26.6616Z" fill="#03428D"/>
<path d="M27.0357 18.3036L19.299 25.9516L20.0307 26.6754L27.7674 19.0274L27.0357 18.3036Z" fill="#03428D"/>
<path d="M20.5363 25.6658H19.5518V30.0001H20.5363V25.6658Z" fill="#03428D"/>
<path d="M14.6988 33.6014H10.3157V34.575H14.6988V33.6014Z" fill="#03428D"/>
<path d="M29.8256 33.6014H25.4425V34.575H29.8256V33.6014Z" fill="#03428D"/>
<path d="M10.3346 24.2185L5.28236 33.1725L6.14216 33.6469L11.1944 24.6929L10.3346 24.2185Z" fill="#03428D"/>
<path d="M29.6751 24.215L28.816 24.6906L33.8808 33.6376L34.74 33.162L29.6751 24.215Z" fill="#03428D"/>
<path d="M21.8054 9.71199L20.9431 10.1876L25.9937 19.1425L26.8561 18.6669L21.8054 9.71199Z" fill="#03428D"/>
<path d="M17.9982 10.281L12.9426 19.2299L13.8021 19.7048L18.8577 10.7558L17.9982 10.281Z" fill="#03428D"/>
<path d="M19.5294 13.0142C22.6051 13.0142 25.0984 10.5486 25.0984 7.50709C25.0984 4.46561 22.6051 2 19.5294 2C16.4537 2 13.9604 4.46561 13.9604 7.50709C13.9604 10.5486 16.4537 13.0142 19.5294 13.0142Z" fill="#E3000F"/>
<path d="M12.6961 26.1582C15.7718 26.1582 18.2651 23.6925 18.2651 20.6511C18.2651 17.6096 15.7718 15.144 12.6961 15.144C9.62038 15.144 7.12703 17.6096 7.12703 20.6511C7.12703 23.6925 9.62038 26.1582 12.6961 26.1582Z" fill="#FFD131"/>
<path d="M27.0228 26.1582C30.0985 26.1582 32.5919 23.6925 32.5919 20.6511C32.5919 17.6096 30.0985 15.144 27.0228 15.144C23.9471 15.144 21.4538 17.6096 21.4538 20.6511C21.4538 23.6925 23.9471 26.1582 27.0228 26.1582Z" fill="#FFD131"/>
<path fill-rule="evenodd" clip-rule="evenodd" d="M11.0682 33.9776C11.0682 34.701 10.924 35.4174 10.644 36.0857C10.3639 36.754 9.95348 37.3613 9.43605 37.8727C8.91862 38.3841 8.30435 38.7897 7.62836 39.0663C6.95236 39.3429 6.2279 39.485 5.49633 39.4847C4.17494 39.4847 2.8966 39.0201 1.88972 38.1739C0.882846 37.3277 0.213041 36.1551 0 34.8655V33.0897C0.213041 31.8001 0.882846 30.6275 1.88972 29.7813C2.8966 28.9351 4.17494 28.4705 5.49633 28.4705C6.2279 28.4702 6.95236 28.6123 7.62836 28.8889C8.30435 29.1655 8.91862 29.5711 9.43605 30.0825C9.95348 30.5939 10.3639 31.2012 10.644 31.8695C10.924 32.5378 11.0682 33.2542 11.0682 33.9776Z" fill="#00963F"/>
<path d="M19.8231 39.4847C22.8988 39.4847 25.3922 37.0191 25.3922 33.9776C25.3922 30.9361 22.8988 28.4705 19.8231 28.4705C16.7474 28.4705 14.2541 30.9361 14.2541 33.9776C14.2541 37.0191 16.7474 39.4847 19.8231 39.4847Z" fill="#00963F"/>
<path d="M34.038 39.4847C37.1137 39.4847 39.6071 37.0191 39.6071 33.9776C39.6071 30.9361 37.1137 28.4705 34.038 28.4705C30.9623 28.4705 28.469 30.9361 28.469 33.9776C28.469 37.0191 30.9623 39.4847 34.038 39.4847Z" fill="#00963F"/>
</svg>
