<svg width="24" height="23" viewBox="0 0 24 23" fill="none" xmlns="http://www.w3.org/2000/svg">
<path fill-rule="evenodd" clip-rule="evenodd" d="M7.71318 18.4632C7.26407 18.9123 6.53593 18.9123 6.08683 18.4632L0.336827 12.7132C-0.112276 12.2641 -0.112276 11.5359 0.336827 11.0868L6.08683 5.33685C6.53593 4.88774 7.26407 4.88774 7.71318 5.33685C8.16228 5.78595 8.16228 6.51405 7.71318 6.96316L2.77635 11.9L7.71318 16.8368C8.16228 17.286 8.16228 18.0141 7.71318 18.4632Z" fill="#2B3035"/>
<path fill-rule="evenodd" clip-rule="evenodd" d="M23.1 11.9C23.1 12.5351 22.5851 13.05 21.95 13.05L1.15 13.05C0.514873 13.05 5.53557e-06 12.5351 5.48004e-06 11.9C5.42452e-06 11.2649 0.514873 10.75 1.15 10.75L21.95 10.75C22.5851 10.75 23.1 11.2649 23.1 11.9Z" fill="#2B3035"/>
</svg>
