<svg width="23" height="23" viewBox="0 0 23 23" fill="none" xmlns="http://www.w3.org/2000/svg">
<path fill-rule="evenodd" clip-rule="evenodd" d="M21.85 13.8C22.4851 13.8 23 14.3149 23 14.95L23 19.55C23 20.465 22.6365 21.3425 21.9895 21.9895C21.3425 22.6365 20.465 23 19.55 23L3.45 23C2.535 23 1.65746 22.6365 1.01046 21.9895C0.363456 21.3425 -4.70925e-06 20.465 -4.66925e-06 19.55L-4.46818e-06 14.95C-4.44042e-06 14.3149 0.514869 13.8 1.15 13.8C1.78512 13.8 2.29999 14.3149 2.29999 14.95L2.29999 19.55C2.29999 19.855 2.42117 20.1475 2.63684 20.3632C2.85251 20.5788 3.145 20.7 3.45 20.7L19.55 20.7C19.855 20.7 20.1475 20.5788 20.3632 20.3632C20.5788 20.1475 20.7 19.855 20.7 19.55L20.7 14.95C20.7 14.3149 21.2149 13.8 21.85 13.8Z" fill="#2B3035"/>
<path fill-rule="evenodd" clip-rule="evenodd" d="M18.0632 8.38683C18.5123 8.83593 18.5123 9.56407 18.0632 10.0132L12.3132 15.7632C11.8641 16.2123 11.1359 16.2123 10.6868 15.7632L4.93684 10.0132C4.48774 9.56407 4.48774 8.83593 4.93684 8.38683C5.38594 7.93772 6.11405 7.93772 6.56315 8.38683L11.5 13.3237L16.4368 8.38683C16.8859 7.93772 17.6141 7.93772 18.0632 8.38683Z" fill="#2B3035"/>
<path fill-rule="evenodd" clip-rule="evenodd" d="M11.5 -5.02681e-07C12.1351 -4.74919e-07 12.65 0.514872 12.65 1.15L12.65 14.95C12.65 15.5851 12.1351 16.1 11.5 16.1C10.8649 16.1 10.35 15.5851 10.35 14.95L10.35 1.15C10.35 0.514872 10.8649 -5.30443e-07 11.5 -5.02681e-07Z" fill="#2B3035"/>
</svg>
