<svg width="12" height="13" viewBox="0 0 12 13" fill="none" xmlns="http://www.w3.org/2000/svg">
<path d="M10.846 8.584C10.846 9.86 9.802 10.904 8.584 10.904H3.422C2.146 10.904 1.16 9.86 1.16 8.584V3.422C1.16 2.146 2.204 1.102 3.422 1.102H8.584C9.86 1.102 10.846 2.146 10.846 3.422V8.584ZM8.468 0H3.422C1.508 0 0 1.566 0 3.48V8.526C0 10.44 1.566 12.006 3.422 12.006H7.366H8.468C10.382 12.006 11.89 10.44 11.89 8.526V3.48C11.948 1.566 10.382 0 8.468 0ZM5.974 8.004C4.872 8.004 3.944 7.076 3.944 5.974C3.944 4.872 4.814 3.944 5.974 3.944C7.134 3.944 8.004 4.872 8.004 5.974C8.004 7.134 7.076 8.004 5.974 8.004ZM5.974 2.9C4.292 2.9 2.9 4.292 2.9 6.032C2.9 7.772 4.292 9.164 5.974 9.164C7.656 9.164 9.048 7.772 9.048 6.032C9.048 4.292 7.656 2.9 5.974 2.9ZM9.164 2.03C8.758 2.03 8.468 2.378 8.468 2.726C8.468 3.074 8.816 3.422 9.164 3.422C9.57 3.422 9.86 3.074 9.86 2.726C9.86 2.378 9.57 2.03 9.164 2.03Z"/>
</svg>
