<svg width="19" height="23" viewBox="0 0 19 23" fill="none" xmlns="http://www.w3.org/2000/svg">
<path fill-rule="evenodd" clip-rule="evenodd" d="M9.5 1.91668C7.48435 1.91668 5.55127 2.72442 4.126 4.16221C2.70072 5.6 1.9 7.55007 1.9 9.58341C1.9 12.5524 3.81495 15.4334 5.91465 17.6692C6.94508 18.7664 7.97873 19.6646 8.75584 20.2889C9.04506 20.5212 9.29767 20.7147 9.5 20.8656C9.70233 20.7147 9.95494 20.5212 10.2442 20.2889C11.0213 19.6646 12.0549 18.7664 13.0853 17.6692C15.1851 15.4334 17.1 12.5524 17.1 9.58341C17.1 7.55007 16.2993 5.6 14.874 4.16221C13.4487 2.72442 11.5156 1.91668 9.5 1.91668ZM9.5 22.0419C8.97303 22.8392 8.97252 22.8389 8.97252 22.8389L8.96981 22.8371L8.96348 22.8328L8.94171 22.8179C8.92321 22.8053 8.89682 22.787 8.86308 22.7635C8.7956 22.7163 8.69865 22.6476 8.57641 22.5586C8.33203 22.3805 7.98604 22.1207 7.57228 21.7883C6.74627 21.1248 5.64242 20.1662 4.53535 18.9874C2.36005 16.6711 0 13.3228 0 9.58341C5.66244e-08 7.04173 1.0009 4.60418 2.78249 2.80694C4.56409 1.0097 6.98044 0 9.5 0C12.0196 0 14.4359 1.0097 16.2175 2.80694C17.9991 4.60418 19 7.04173 19 9.58341C19 13.3228 16.6399 16.6711 14.4647 18.9874C13.3576 20.1662 12.2537 21.1248 11.4277 21.7883C11.014 22.1207 10.668 22.3805 10.4236 22.5586C10.3014 22.6476 10.2044 22.7163 10.1369 22.7635C10.1032 22.787 10.0768 22.8053 10.0583 22.8179L10.0365 22.8328L10.0302 22.8371L10.0282 22.8384C10.0282 22.8384 10.027 22.8392 9.5 22.0419ZM9.5 22.0419L10.027 22.8392C9.70786 23.0538 9.29163 23.0535 8.97252 22.8389L9.5 22.0419Z" fill="#2B3035"/>
<path fill-rule="evenodd" clip-rule="evenodd" d="M9.5 7.66673C8.45066 7.66673 7.6 8.52486 7.6 9.58341C7.6 10.642 8.45066 11.5001 9.5 11.5001C10.5493 11.5001 11.4 10.642 11.4 9.58341C11.4 8.52486 10.5493 7.66673 9.5 7.66673ZM5.7 9.58341C5.7 7.4663 7.40132 5.75005 9.5 5.75005C11.5987 5.75005 13.3 7.4663 13.3 9.58341C13.3 11.7005 11.5987 13.4168 9.5 13.4168C7.40132 13.4168 5.7 11.7005 5.7 9.58341Z" fill="#2B3035"/>
</svg>
