<svg width="154" height="24" viewBox="0 0 154 24" fill="none" xmlns="http://www.w3.org/2000/svg">
<path d="M34.9889 0.233846H32.0719V11.1317H34.9889V0.233846Z" fill="white"/>
<path fill-rule="evenodd" clip-rule="evenodd" d="M43.0677 0.233846H45.967V11.13H43.7186L39.6951 5.65084V11.13H36.7799V0.233846H39.0441L43.0677 5.71305V0.233846Z" fill="white"/>
<path fill-rule="evenodd" clip-rule="evenodd" d="M53.2806 11.3637C51.5646 11.3637 50.1449 10.8218 49.0212 9.73797C47.8976 8.65412 47.3358 7.30239 47.3358 5.68279C47.3358 4.06318 47.8976 2.71145 49.0212 1.6276C50.1449 0.543753 51.5646 0.00182953 53.2806 0.00182953C54.2838 -0.00518077 55.2718 0.236364 56.1482 0.702912C57.0004 1.14565 57.7144 1.7966 58.2172 2.58928L55.6926 3.97463C55.4705 3.58625 55.1332 3.26923 54.7232 3.06339C54.2799 2.83637 53.7835 2.72067 53.2806 2.72714C52.3692 2.72714 51.6332 3.00007 51.0726 3.54591C50.512 4.09176 50.2322 4.80517 50.2334 5.68615C50.2334 6.56824 50.5131 7.28166 51.0726 7.82638C51.6321 8.37111 52.368 8.64291 53.2806 8.64179C53.7835 8.64863 54.28 8.53291 54.7232 8.30554C55.1365 8.097 55.4744 7.77414 55.6926 7.37917L58.2172 8.77965C57.7209 9.57561 57.0092 10.229 56.157 10.6711C55.2765 11.1346 54.2858 11.3732 53.2806 11.3637Z" fill="white"/>
<path fill-rule="evenodd" clip-rule="evenodd" d="M62.3375 7.80117C62.6249 8.077 62.9682 8.29384 63.3463 8.43839C63.7245 8.58294 64.1295 8.65215 64.5367 8.6418C64.9438 8.65166 65.3487 8.58222 65.7268 8.43769C66.1049 8.29317 66.4482 8.0766 66.7358 7.80117C67.0276 7.52383 67.2562 7.19195 67.4076 6.82629C67.559 6.46063 67.6297 6.06906 67.6155 5.67607C67.6297 5.28307 67.559 4.8915 67.4076 4.52584C67.2562 4.16018 67.0276 3.8283 66.7358 3.55096C66.4481 3.27561 66.1048 3.05909 65.7267 2.91458C65.3486 2.77006 64.9438 2.70057 64.5367 2.71034C64.1295 2.69998 63.7245 2.7692 63.3463 2.91375C62.9682 3.0583 62.6249 3.27513 62.3375 3.55096C62.0458 3.8283 61.8171 4.16018 61.6658 4.52584C61.5144 4.8915 61.4436 5.28307 61.4579 5.67607C61.4436 6.06906 61.5144 6.46063 61.6658 6.82629C61.8171 7.19195 62.0458 7.52383 62.3375 7.80117ZM68.7802 9.71612C68.2263 10.2505 67.5645 10.6717 66.835 10.954C66.1055 11.2364 65.3236 11.3741 64.5367 11.3587C63.7498 11.3741 62.9678 11.2364 62.2384 10.954C61.5089 10.6717 60.8471 10.2505 60.2932 9.71612C59.7296 9.19346 59.2847 8.56544 58.9862 7.87122C58.6878 7.177 58.5422 6.43147 58.5585 5.68111C58.5422 4.93075 58.6878 4.18522 58.9862 3.491C59.2847 2.79678 59.7296 2.16876 60.2932 1.6461C60.8471 1.11174 61.5089 0.690569 62.2384 0.408196C62.9678 0.125824 63.7498 -0.0118574 64.5367 0.00351774C65.3236 -0.0118574 66.1055 0.125824 66.835 0.408196C67.5645 0.690569 68.2263 1.11174 68.7802 1.6461C69.3438 2.16876 69.7887 2.79678 70.0872 3.491C70.3856 4.18522 70.5312 4.93075 70.5149 5.68111C70.5319 6.43231 70.3867 7.17881 70.0882 7.87394C69.7897 8.56908 69.3445 9.19792 68.7802 9.72116V9.71612Z" fill="white"/>
<path fill-rule="evenodd" clip-rule="evenodd" d="M81.0708 11.3637C79.3549 11.3637 77.9351 10.8218 76.8115 9.73797C75.6879 8.65412 75.1261 7.30239 75.1261 5.68279C75.1261 4.06318 75.6879 2.71145 76.8115 1.6276C77.9351 0.543753 79.3549 0.00182953 81.0708 0.00182953C82.0741 -0.00518077 83.062 0.236364 83.9385 0.702912C84.7903 1.14556 85.5037 1.79656 86.0057 2.58928L83.4811 3.97463C83.2594 3.58594 82.922 3.26882 82.5117 3.06339C82.0689 2.83658 81.5732 2.72088 81.0708 2.72714C80.1583 2.72714 79.4223 3.00007 78.8629 3.54591C78.3034 4.09176 78.0237 4.80517 78.0237 5.68615C78.0237 6.56824 78.3034 7.28166 78.8629 7.82638C79.4223 8.37111 80.1583 8.64291 81.0708 8.64179C81.5732 8.64842 82.0691 8.5327 82.5117 8.30554C82.9253 8.09743 83.2633 7.77446 83.4811 7.37917L86.0057 8.77965C85.5088 9.57637 84.7958 10.2299 83.942 10.6711C83.063 11.1336 82.0742 11.3721 81.0708 11.3637Z" fill="white"/>
<path fill-rule="evenodd" clip-rule="evenodd" d="M93.1749 0.233846H96.0743V11.13H93.1749V6.94373H89.9659V11.13H87.049V0.233846H89.9659V4.26549H93.1749V0.233846Z" fill="white"/>
<path fill-rule="evenodd" clip-rule="evenodd" d="M100.798 8.5157H105.212V11.13H97.8811V0.233846H105.131V2.83306H100.798V4.34283H104.723V6.91178H100.798V8.5157Z" fill="white"/>
<path fill-rule="evenodd" clip-rule="evenodd" d="M118.228 0.233846V11.13H115.328V5.26247L112.559 9.6371H112.265L109.514 5.27761V11.13H106.597V0.233846H109.514L112.413 4.88756L115.328 0.233846H118.228Z" fill="white"/>
<path d="M122.953 0.233846H120.036V11.1317H122.953V0.233846Z" fill="white"/>
<path fill-rule="evenodd" clip-rule="evenodd" d="M130.251 11.3637C128.535 11.3637 127.115 10.8218 125.992 9.73797C124.868 8.65412 124.306 7.30183 124.304 5.6811C124.304 4.0615 124.866 2.70977 125.99 1.62592C127.113 0.542072 128.533 0.000148356 130.249 0.000148356C131.252 -0.00686194 132.24 0.234683 133.117 0.701231C133.969 1.1443 134.683 1.79588 135.186 2.58928L132.661 3.96959C132.439 3.58108 132.102 3.26403 131.692 3.05835C131.249 2.83147 130.753 2.71577 130.251 2.7221C129.338 2.7221 128.602 2.99502 128.043 3.54087C127.483 4.08672 127.204 4.80013 127.204 5.6811C127.204 6.5632 127.483 7.27661 128.043 7.82134C128.602 8.36607 129.338 8.63955 130.251 8.64179C130.753 8.64842 131.249 8.5327 131.692 8.30554C132.105 8.09718 132.443 7.77427 132.661 7.37917L135.186 8.77965C134.69 9.57571 133.978 10.2291 133.126 10.6711C132.246 11.1342 131.256 11.3727 130.251 11.3637Z" fill="white"/>
<path fill-rule="evenodd" clip-rule="evenodd" d="M139.649 7.16061H141.945L140.789 3.46185L139.649 7.16061ZM143.326 11.13L142.781 9.55808H138.9L138.407 11.13H135.251L138.886 0.235528H142.556L146.328 11.13H143.326Z" fill="white"/>
<path fill-rule="evenodd" clip-rule="evenodd" d="M150.075 8.43836H154V11.13H147.158V0.233846H150.075V8.43836Z" fill="white"/>
<path fill-rule="evenodd" clip-rule="evenodd" d="M32.0719 22.4617C32.5681 22.4617 32.8056 22.0599 32.8706 21.4933C32.9674 20.7199 33.0976 18.6906 33.2049 15.7636H36.4509V22.9762H35.7823V16.3604H33.8471C33.7503 18.6368 33.6536 20.6997 33.5234 21.5858C33.4055 22.5037 32.9305 23.0703 32.0772 23.0703L32.0719 22.4617Z" fill="white"/>
<path fill-rule="evenodd" clip-rule="evenodd" d="M41.5617 15.7619L39.6634 21.6883C39.4048 22.492 38.9403 23.0686 38.0131 23.0686H37.7545V22.4617H38.0131C38.5955 22.4617 38.8752 22.0498 39.0476 21.4933L39.2957 20.73L37.3604 15.7619H38.073L39.5825 19.7969L40.8668 15.7619H41.5617Z" fill="white"/>
<path fill-rule="evenodd" clip-rule="evenodd" d="M46.0902 15.7619V22.9762H45.4129V20.1315C45.0625 20.2806 44.6844 20.3612 44.301 20.3685C42.9498 20.3685 42.0702 19.5968 42.0702 18.1947V15.7619H42.7405V18.1947C42.7405 19.2572 43.3545 19.7616 44.3151 19.7616C44.6948 19.7608 45.0697 19.6798 45.4129 19.5245V15.7619H46.0902Z" fill="white"/>
<path fill-rule="evenodd" clip-rule="evenodd" d="M47.7475 15.7636H48.4178V22.3793H50.8439V15.7636H51.5124V22.3793H53.9385V15.7636H54.6071V22.9778H47.7475V15.7636Z" fill="white"/>
<path fill-rule="evenodd" clip-rule="evenodd" d="M58.9508 20.7098L58.175 17.7206C58.0571 17.2784 57.948 16.7622 57.9164 16.5874H57.8952C57.8618 16.7555 57.7545 17.2784 57.6366 17.7206L56.8608 20.7098H58.9508ZM59.1021 21.2865H56.7077L56.2661 22.9762H55.5624L57.5469 15.7619H58.2805L60.2651 22.9762H59.5613L59.1021 21.2865Z" fill="white"/>
<path fill-rule="evenodd" clip-rule="evenodd" d="M64.0388 19.5245V16.3604H63.0061C62.0349 16.3604 61.5388 16.8967 61.5388 17.9274C61.5388 18.958 62.0349 19.5245 62.985 19.5245H64.0388ZM62.5082 20.081C61.4526 19.9129 60.858 19.111 60.858 17.9576C60.858 16.5655 61.6672 15.7619 63.0043 15.7619H64.7091V22.9762H64.0388V20.118H63.2418L61.4526 22.9762H60.675L62.5082 20.081Z" fill="white"/>
<path fill-rule="evenodd" clip-rule="evenodd" d="M72.1915 16.3604H70.5289V22.9778H69.8622V16.3604H68.2014V15.7636H72.1915V16.3604Z" fill="white"/>
<path fill-rule="evenodd" clip-rule="evenodd" d="M76.8484 22.3894V22.9778H73.2137V15.7636H76.7288V16.3503H73.8822V19.0202H76.5458V19.6069H73.8822V22.3894H76.8484Z" fill="white"/>
<path fill-rule="evenodd" clip-rule="evenodd" d="M79.3167 19.464L78.7766 20.1634V22.9778H78.1081V15.7636H78.7766V19.2051L79.3924 18.3594L81.3224 15.7636H82.1528L79.7478 18.9058L82.4554 22.9778H81.6566L79.3167 19.464Z" fill="white"/>
<path fill-rule="evenodd" clip-rule="evenodd" d="M82.8636 20.9368V17.8029C82.8636 16.4109 83.694 15.6375 84.8815 15.6375C86.113 15.6375 86.8977 16.3789 86.9733 17.7189H86.3259C86.2503 16.6984 85.733 16.2142 84.8815 16.2142C84.0722 16.2142 83.511 16.7286 83.511 17.8013V20.9368C83.511 22.0094 84.0933 22.5239 84.9184 22.5239C85.7805 22.5239 86.2766 22.0195 86.384 21.0108H87.0314C86.9223 22.3306 86.1517 23.0939 84.9202 23.0939C83.7151 23.1006 82.8636 22.3272 82.8636 20.9368Z" fill="white"/>
<path fill-rule="evenodd" clip-rule="evenodd" d="M91.5757 16.3604H89.9149V22.9778H89.2464V16.3604H87.5856V15.7636H91.5757V16.3604Z" fill="white"/>
<path fill-rule="evenodd" clip-rule="evenodd" d="M92.5997 15.7619H93.2682V20.3282C93.2682 20.688 93.2577 21.3487 93.2348 21.7085L93.2682 21.7186C93.365 21.4714 93.5919 20.9553 93.796 20.5417L95.9952 15.7585H96.7499V22.9762H96.0814V18.2249L96.0919 17.0195L96.0708 17.0094C96.0057 17.1775 95.7805 17.6819 95.6714 17.9374L93.3315 22.9812H92.5979L92.5997 15.7619Z" fill="white"/>
<path fill-rule="evenodd" clip-rule="evenodd" d="M97.5803 22.4617C98.0764 22.4617 98.3139 22.0599 98.379 21.4933C98.4758 20.7199 98.606 18.6906 98.7133 15.7636H101.957V22.9762H101.289V16.3604H99.3537C99.2569 18.6368 99.1602 20.6997 99.03 21.5858C98.9103 22.5037 98.4371 23.0703 97.5856 23.0703L97.5803 22.4617Z" fill="white"/>
<path fill-rule="evenodd" clip-rule="evenodd" d="M105.548 22.3793C106.4 22.3793 107.005 21.8531 107.005 20.8443C107.005 19.8742 106.4 19.3699 105.548 19.3699H104.287V22.3793H105.548ZM103.613 15.7636H104.282V18.7713H105.543C106.804 18.7713 107.679 19.5447 107.679 20.8443C107.679 22.1893 106.799 22.9778 105.543 22.9778H103.608L103.613 15.7636Z" fill="white"/>
<path fill-rule="evenodd" clip-rule="evenodd" d="M112.772 15.7636V22.9778H112.104V19.6069H109.419V22.9778H108.748V15.7636H109.419V19.0101H112.104V15.7636H112.772Z" fill="white"/>
<path fill-rule="evenodd" clip-rule="evenodd" d="M117.118 20.7098L116.34 17.7206C116.22 17.2784 116.113 16.7622 116.081 16.5874H116.06C116.027 16.7555 115.919 17.2784 115.802 17.7206L115.026 20.7098H117.118ZM117.269 21.2865H114.873L114.431 22.9762H113.727L115.712 15.7619H116.445L118.425 22.9762H117.721L117.269 21.2865Z" fill="white"/>
<path fill-rule="evenodd" clip-rule="evenodd" d="M122.206 19.5245V16.3604H121.169C120.198 16.3604 119.702 16.8967 119.702 17.9274C119.702 18.958 120.198 19.5245 121.146 19.5245H122.206ZM120.673 20.0743C119.618 19.9062 119.023 19.1042 119.023 17.9509C119.023 16.5588 119.832 15.7552 121.169 15.7552H122.874V22.9762H122.206V20.118H121.416L119.625 22.9762H118.84L120.673 20.0743Z" fill="white"/>
<path fill-rule="evenodd" clip-rule="evenodd" d="M130.064 22.9778L128.599 19.8339L127.132 22.9778H126.387L128.21 19.2253L126.484 15.7636H127.228L128.599 18.6385L129.968 15.7636H130.712L128.986 19.2253L130.809 22.9778H130.064Z" fill="white"/>
<path fill-rule="evenodd" clip-rule="evenodd" d="M131.843 15.7619H132.512V20.3282C132.512 20.688 132.501 21.3487 132.478 21.7085L132.512 21.7186C132.608 21.4714 132.835 20.9553 133.039 20.5417L135.239 15.7585H135.993V22.9762H135.325V18.2249L135.335 17.0195L135.314 17.0094C135.249 17.1775 135.022 17.6819 134.915 17.9374L132.575 22.9812H131.843V15.7619Z" fill="white"/>
<path fill-rule="evenodd" clip-rule="evenodd" d="M143.025 15.7619V22.9762H142.352V19.1631C142.352 18.4015 142.373 17.7626 142.417 17.1237L142.373 17.1136C142.179 17.6298 141.876 18.3191 141.597 19.0101L140.67 21.2764H140.001L139.077 19.0084C138.798 18.3174 138.495 17.6281 138.305 17.1119L138.263 17.122C138.305 17.7609 138.328 18.3998 138.328 19.1614V22.9762H137.659V15.7619H138.363L139.713 18.8756C139.908 19.3396 140.177 20.081 140.318 20.4829H140.362C140.502 20.081 140.772 19.3396 140.965 18.8756L142.313 15.7636L143.025 15.7619Z" fill="white"/>
<path fill-rule="evenodd" clip-rule="evenodd" d="M144.684 15.7619H145.353V20.3282C145.353 20.688 145.341 21.3487 145.321 21.7085L145.353 21.7186C145.45 21.4714 145.675 20.9553 145.881 20.5417L148.082 15.7585H148.836V22.9762H148.168V18.2249L148.18 17.0195L148.157 17.0094C148.092 17.1775 147.867 17.6819 147.758 17.9374L145.418 22.9812H144.684V15.7619Z" fill="white"/>
<path fill-rule="evenodd" clip-rule="evenodd" d="M153.331 19.5245V16.3604H152.297C151.326 16.3604 150.83 16.8967 150.83 17.9274C150.83 18.958 151.326 19.5245 152.274 19.5245H153.331ZM151.801 20.0743C150.745 19.9062 150.151 19.1042 150.151 17.9509C150.151 16.5588 150.96 15.7552 152.297 15.7552H154V22.9762H153.331V20.118H152.534L150.743 22.9762H149.968L151.801 20.0743Z" fill="white"/>
<path fill-rule="evenodd" clip-rule="evenodd" d="M12.5932 16.2057L7.75332 11.5621L8.21427 11.1216L13.0542 15.7652L12.5932 16.2057Z" fill="white"/>
<path d="M17.0049 11.1255L12.1387 15.7742L12.5989 16.2141L17.4651 11.5654L17.0049 11.1255Z" fill="white"/>
<path d="M12.9169 15.6005H12.2976V18.235H12.9169V15.6005Z" fill="white"/>
<path d="M9.24523 20.424H6.48837V21.0158H9.24523V20.424Z" fill="white"/>
<path d="M18.7596 20.424H16.0028V21.0158H18.7596V20.424Z" fill="white"/>
<path d="M6.50025 14.7208L3.32249 20.1633L3.86329 20.4516L7.04104 15.0091L6.50025 14.7208Z" fill="white"/>
<path d="M18.665 14.7186L18.1246 15.0077L21.3103 20.446L21.8507 20.1569L18.665 14.7186Z" fill="white"/>
<path d="M13.7151 5.90324L13.1727 6.19233L16.3495 11.6354L16.8919 11.3463L13.7151 5.90324Z" fill="white"/>
<path d="M11.3205 6.24908L8.14059 11.6885L8.68123 11.9772L11.8611 6.5377L11.3205 6.24908Z" fill="white"/>
<path d="M12.2836 7.91041C14.2181 7.91041 15.7864 6.41174 15.7864 4.56303C15.7864 2.71433 14.2181 1.21566 12.2836 1.21566C10.349 1.21566 8.78077 2.71433 8.78077 4.56303C8.78077 6.41174 10.349 7.91041 12.2836 7.91041Z" fill="white"/>
<path d="M7.98556 15.8997C9.92011 15.8997 11.4884 14.4011 11.4884 12.5524C11.4884 10.7036 9.92011 9.20498 7.98556 9.20498C6.05102 9.20498 4.48275 10.7036 4.48275 12.5524C4.48275 14.4011 6.05102 15.8997 7.98556 15.8997Z" fill="white"/>
<path d="M16.9968 15.8997C18.9313 15.8997 20.4996 14.4011 20.4996 12.5524C20.4996 10.7036 18.9313 9.20498 16.9968 9.20498C15.0622 9.20498 13.494 10.7036 13.494 12.5524C13.494 14.4011 15.0622 15.8997 16.9968 15.8997Z" fill="white"/>
<path fill-rule="evenodd" clip-rule="evenodd" d="M6.96164 20.6526C6.96164 21.0924 6.87097 21.5278 6.69483 21.934C6.51869 22.3402 6.26052 22.7093 5.93507 23.0202C5.60962 23.331 5.22326 23.5776 4.79807 23.7457C4.37289 23.9138 3.91722 24.0002 3.45707 24C2.62595 24 1.8219 23.7176 1.18859 23.2033C0.555291 22.6889 0.133998 21.9762 0 21.1923V20.1129C0.133998 19.3291 0.555291 18.6163 1.18859 18.102C1.8219 17.5876 2.62595 17.3052 3.45707 17.3053C3.91722 17.305 4.37289 17.3915 4.79807 17.5596C5.22326 17.7277 5.60962 17.9742 5.93507 18.2851C6.26052 18.5959 6.51869 18.965 6.69483 19.3713C6.87097 19.7775 6.96164 20.2129 6.96164 20.6526Z" fill="white"/>
<path d="M12.4683 24C14.4029 24 15.9711 22.5013 15.9711 20.6526C15.9711 18.8039 14.4029 17.3053 12.4683 17.3053C10.5338 17.3053 8.96551 18.8039 8.96551 20.6526C8.96551 22.5013 10.5338 24 12.4683 24Z" fill="white"/>
<path d="M21.4092 24C23.3437 24 24.912 22.5013 24.912 20.6526C24.912 18.8039 23.3437 17.3053 21.4092 17.3053C19.4746 17.3053 17.9064 18.8039 17.9064 20.6526C17.9064 22.5013 19.4746 24 21.4092 24Z" fill="white"/>
</svg>
