<svg width="23" height="23" viewBox="0 0 23 23" fill="none" xmlns="http://www.w3.org/2000/svg">
<path fill-rule="evenodd" clip-rule="evenodd" d="M3.13643 4.11111C2.56382 4.11111 2.09098 4.58852 2.09098 5.16667V17.8333C2.09098 18.4115 2.56382 18.8889 3.13643 18.8889H19.8636C20.4362 18.8889 20.909 18.4115 20.909 17.8333V5.16667C20.909 4.58852 20.4362 4.11111 19.8636 4.11111H3.13643ZM8.55335e-05 5.16667C8.55335e-05 3.42259 1.40905 2 3.13643 2H19.8636C21.5909 2 22.9999 3.42259 22.9999 5.16667V17.8333C22.9999 19.5774 21.5909 21 19.8636 21H3.13643C1.40905 21 8.55335e-05 19.5774 8.55335e-05 17.8333V5.16667Z" fill="#2B3035"/>
<path fill-rule="evenodd" clip-rule="evenodd" d="M0.189072 4.56132C0.52018 4.08373 1.17205 3.96763 1.64507 4.30194L11.5 11.2671L21.3549 4.30194C21.828 3.96763 22.4798 4.08373 22.8109 4.56132C23.142 5.03891 23.027 5.69708 22.554 6.03139L12.0995 13.4203C11.7396 13.6747 11.2604 13.6747 10.9005 13.4203L0.446015 6.03139C-0.0269969 5.69708 -0.142036 5.03891 0.189072 4.56132Z" fill="#2B3035"/>
</svg>
