<svg width="23" height="23" viewBox="0 0 23 23" fill="none" xmlns="http://www.w3.org/2000/svg">
<path d="M19.053 23C18.9522 23 18.8514 23 18.7506 23C15.5246 22.6 12.2988 21.5 9.5769 19.8C7.05666 18.2 4.83885 16 3.2259 13.5C1.41133 10.8 0.302428 7.59996 0 4.39996C0 3.59996 0.201616 2.79995 0.705663 2.19995C1.20971 1.59995 1.91538 1.19998 2.72185 1.09998C2.82266 1.09998 2.92347 1.09998 3.02428 1.09998H6.04857C7.56071 1.09998 8.87123 2.19995 9.07285 3.69995C9.17366 4.59995 9.37527 5.49999 9.6777 6.29999C10.0809 7.39999 9.77851 8.6 8.97204 9.5L8.26637 10.2C9.47609 12 10.9882 13.6 12.9036 14.8L13.6093 14.1C14.4158 13.3 15.7263 13 16.8352 13.4C17.6417 13.7 18.5489 13.9 19.4562 14C20.9684 14.2 22.0773 15.5 22.0773 17V20C22.0773 20.8 21.7748 21.6 21.17 22.1C20.5651 22.6 19.8595 23 19.053 23ZM6.04857 3.09998H3.02428C2.72186 3.09998 2.41942 3.3 2.21781 3.5C2.117 3.7 2.01619 3.89995 2.01619 4.19995C2.31862 7.09995 3.32671 9.89996 4.93966 12.4C6.4518 14.7 8.36718 16.7 10.6858 18.1C13.206 19.7 16.0287 20.7 18.9522 21C19.3554 21 19.557 20.9 19.7586 20.7C19.9603 20.5 20.0611 20.3 20.0611 20V17C20.0611 16.5 19.6578 16.1 19.1538 16C18.1457 15.9 17.1376 15.6 16.1295 15.2C15.7263 15.1 15.323 15.1 15.0206 15.4L13.7101 16.7C13.4076 17 12.9036 17.1 12.5004 16.9C9.77851 15.4 7.56071 13.2 6.04857 10.5C5.94776 10.1 6.04857 9.59999 6.351 9.29999L7.66151 8C7.86313 7.8 7.96395 7.3 7.86314 7C7.4599 6 7.25828 5 7.05666 4C7.05666 3.5 6.55262 3.09998 6.04857 3.09998ZM18.0449 10.1C17.5408 10.1 17.1376 9.79999 17.0368 9.29999C16.7344 7.69999 15.4238 6.49998 13.8109 6.09998C13.3068 5.99998 12.9036 5.49996 13.0044 4.89996C13.1052 4.39996 13.6093 3.99998 14.2141 4.09998C16.6336 4.59998 18.5489 6.39999 18.9522 8.79999C19.053 9.29999 18.7506 9.9 18.1457 10C18.1457 10 18.1457 10.1 18.0449 10.1ZM22.0773 10C21.5732 10 21.17 9.59998 21.0692 9.09998C20.6659 5.39998 17.7425 2.5 13.9117 2C13.4077 1.9 13.0044 1.39996 13.0044 0.899963C13.0044 0.399963 13.6093 0 14.1133 0C18.8514 0.5 22.4805 4.09999 22.9846 8.79999C23.0854 9.29999 22.6821 9.79996 22.0773 9.89996C22.1781 9.99996 22.0773 10 22.0773 10Z" fill="white"/>
</svg>
