<svg width="23" height="23" viewBox="0 0 23 23" fill="none" xmlns="http://www.w3.org/2000/svg">
<path fill-rule="evenodd" clip-rule="evenodd" d="M11.5 2.09091C6.3035 2.09091 2.09091 6.3035 2.09091 11.5C2.09091 16.6965 6.3035 20.9091 11.5 20.9091C16.6965 20.9091 20.9091 16.6965 20.9091 11.5C20.9091 6.3035 16.6965 2.09091 11.5 2.09091ZM0 11.5C0 5.14873 5.14873 0 11.5 0C17.8513 0 23 5.14873 23 11.5C23 17.8513 17.8513 23 11.5 23C5.14873 23 0 17.8513 0 11.5Z" fill="#2B3035"/>
<path fill-rule="evenodd" clip-rule="evenodd" d="M11.5 4.18182C12.0774 4.18182 12.5455 4.64988 12.5455 5.22727V10.8539L16.1494 12.6558C16.6658 12.914 16.8751 13.542 16.6169 14.0585C16.3587 14.5749 15.7307 14.7842 15.2143 14.526L11.0325 12.4351C10.6783 12.258 10.4545 11.896 10.4545 11.5V5.22727C10.4545 4.64988 10.9226 4.18182 11.5 4.18182Z" fill="#2B3035"/>
</svg>
