<svg  id="anim" width="632" height="277" viewBox="0 0 632 277" fill="none" xmlns="http://www.w3.org/2000/svg">
<path d="M442.092 242.717C442.092 242.717 447.13 239.852 471.058 239.366" stroke="#2B3035" stroke-miterlimit="10" stroke-linecap="round" stroke-linejoin="round"/>
<path d="M439.154 242.298C439.154 242.298 446.58 235.662 470.218 238.109" stroke="#2B3035" stroke-miterlimit="10" stroke-linecap="round" stroke-linejoin="round"/>
<path d="M435.375 241.879C435.375 241.879 448.96 232.173 468.959 234.757" stroke="#2B3035" stroke-miterlimit="10" stroke-linecap="round" stroke-linejoin="round"/>
<path d="M429.079 230.987C428.869 231.624 427.32 240.095 428.239 243.136" stroke="#2B3035" stroke-miterlimit="10" stroke-linecap="round" stroke-linejoin="round"/>
<path d="M508 223.028C508 223.028 504.222 230.12 493.727 235.595" stroke="#2B3035" stroke-miterlimit="10" stroke-linecap="round" stroke-linejoin="round"/>
<path d="M489.529 235.595C489.529 235.595 492.22 235.574 499.604 229.311C506.988 223.049 506.741 220.514 506.741 220.514" stroke="#2B3035" stroke-miterlimit="10" stroke-linecap="round" stroke-linejoin="round"/>
<path d="M488.727 233.769C488.727 233.769 499.495 229.232 504.642 216.744" stroke="#2B3035" stroke-miterlimit="10" stroke-linecap="round" stroke-linejoin="round"/>
<path d="M496.666 211.717C496.666 211.717 494.903 216.84 486.171 223.028" stroke="#2B3035" stroke-miterlimit="10" stroke-linecap="round" stroke-linejoin="round"/>
<path d="M484.911 226.798C484.911 226.798 490.507 223.367 493.727 219.257" stroke="#2B3035" stroke-miterlimit="10" stroke-linecap="round" stroke-linejoin="round"/>
<path d="M492.887 210.46C492.887 210.46 490.814 216.291 481.133 222.609" stroke="#2B3035" stroke-miterlimit="10" stroke-linecap="round" stroke-linejoin="round"/>
<path d="M491.208 210.46C491.208 210.46 485.785 216.987 479.874 220.933" stroke="#2B3035" stroke-miterlimit="10" stroke-linecap="round" stroke-linejoin="round"/>
<path d="M480.294 218.42C480.294 218.42 484.706 214.356 487.01 211.717" stroke="#2B3035" stroke-miterlimit="10" stroke-linecap="round" stroke-linejoin="round"/>
<path d="M476.935 218.838C476.935 218.838 483.963 213.351 486.591 209.622" stroke="#2B3035" stroke-miterlimit="10" stroke-linecap="round" stroke-linejoin="round"/>
<path d="M473.577 216.744C475.039 215.859 476.441 214.88 477.775 213.811" stroke="#2B3035" stroke-miterlimit="10" stroke-linecap="round" stroke-linejoin="round"/>
<path d="M483.652 210.041C483.652 210.041 481.788 212.136 479.034 214.649" stroke="#2B3035" stroke-miterlimit="10" stroke-linecap="round" stroke-linejoin="round"/>
<path d="M500.024 213.811C500.024 213.811 493.727 223.907 486.171 228.055" stroke="#2B3035" stroke-miterlimit="10" stroke-linecap="round" stroke-linejoin="round"/>
<path d="M503.849 234.773C503.849 234.773 508.147 235.685 508.89 235.777" stroke="#2B3035" stroke-miterlimit="10" stroke-linecap="round" stroke-linejoin="round"/>
<path d="M508.554 240.129L504.642 239.785" stroke="#2B3035" stroke-miterlimit="10" stroke-linecap="round" stroke-linejoin="round"/>
<path d="M498.765 236.014C498.765 236.014 502.543 237.179 504.642 237.271" stroke="#2B3035" stroke-miterlimit="10" stroke-linecap="round" stroke-linejoin="round"/>
<path d="M495.448 237.786L502.543 239.366" stroke="#2B3035" stroke-miterlimit="10" stroke-linecap="round" stroke-linejoin="round"/>
<path d="M507.546 243.811C507.546 243.811 495.736 242.236 492.088 239.794" stroke="#2B3035" stroke-miterlimit="10" stroke-linecap="round" stroke-linejoin="round"/>
<path d="M489.949 241.879C489.949 241.879 495.977 243.76 498.765 243.974" stroke="#2B3035" stroke-miterlimit="10" stroke-linecap="round" stroke-linejoin="round"/>
<path d="M505.062 248.582C505.062 248.582 501.703 247.53 497.085 246.487" stroke="#2B3035" stroke-miterlimit="10" stroke-linecap="round" stroke-linejoin="round"/>
<path d="M503.382 251.095C503.382 251.095 493.727 247.53 489.529 246.906" stroke="#2B3035" stroke-miterlimit="10" stroke-linecap="round" stroke-linejoin="round"/>
<path d="M498.764 251.514C498.764 251.514 497.925 257.865 483.652 259.055" stroke="#2B3035" stroke-miterlimit="10" stroke-linecap="round" stroke-linejoin="round"/>
<path d="M486.171 257.379C486.171 257.379 492.048 257.727 497.925 251.095" stroke="#2B3035" stroke-miterlimit="10" stroke-linecap="round" stroke-linejoin="round"/>
<path d="M487.43 254.447C489.097 254.591 490.774 254.322 492.311 253.665C493.849 253.007 495.201 251.98 496.246 250.676" stroke="#2B3035" stroke-miterlimit="10" stroke-linecap="round" stroke-linejoin="round"/>
<path d="M487.01 229.73C487.01 229.73 495.696 225.889 501.283 214.649" stroke="#2B3035" stroke-miterlimit="10" stroke-linecap="round" stroke-linejoin="round"/>
<path d="M423.621 246.487C423.621 246.487 423.353 233.848 429.918 229.73" stroke="#2B3035" stroke-miterlimit="10" stroke-linecap="round" stroke-linejoin="round"/>
<path d="M429.918 242.717C429.918 242.717 430.338 233.011 434.536 226.798" stroke="#2B3035" stroke-miterlimit="10" stroke-linecap="round" stroke-linejoin="round"/>
<path d="M502.543 215.487C502.543 215.487 495.406 207.176 481.133 210.041C477.355 211.231 469.799 214.649 469.799 214.649" stroke="#2B3035" stroke-miterlimit="10" stroke-linecap="round" stroke-linejoin="round"/>
<path d="M502.962 215.906C502.962 215.906 496.955 227.703 488.27 231.825" stroke="#2B3035" stroke-miterlimit="10" stroke-linecap="round" stroke-linejoin="round"/>
<path d="M508.84 230.568H505.012" stroke="#2B3035" stroke-miterlimit="10" stroke-linecap="round" stroke-linejoin="round"/>
<path d="M509.679 234.757C509.679 234.757 505.351 232.868 502.543 233.082" stroke="#2B3035" stroke-miterlimit="10" stroke-linecap="round" stroke-linejoin="round"/>
<path d="M489.949 249.001L501.283 252.352" stroke="#2B3035" stroke-miterlimit="10" stroke-linecap="round" stroke-linejoin="round"/>
<path d="M435.795 235.176C435.795 235.176 443.083 224.49 461.823 225.96" stroke="#2B3035" stroke-miterlimit="10" stroke-linecap="round" stroke-linejoin="round"/>
<path d="M435.795 237.69C435.795 237.69 445.602 227.146 464.341 228.474" stroke="#2B3035" stroke-miterlimit="10" stroke-linecap="round" stroke-linejoin="round"/>
<path d="M440.833 270.366L443.352 274.974" stroke="#2B3035" stroke-miterlimit="10" stroke-linecap="round" stroke-linejoin="round"/>
<path d="M420.683 251.514C420.683 251.514 423.911 262.193 428.659 264.92" stroke="#2B3035" stroke-miterlimit="10" stroke-linecap="round" stroke-linejoin="round"/>
<path d="M421.102 250.676C421.102 250.676 423.071 258.284 428.659 261.149" stroke="#2B3035" stroke-miterlimit="10" stroke-linecap="round" stroke-linejoin="round"/>
<path d="M438.314 257.798C438.314 257.798 445.182 256.889 448.389 253.19" stroke="#2B3035" stroke-miterlimit="10" stroke-linecap="round" stroke-linejoin="round"/>
<path d="M438.314 259.893C438.314 259.893 449.8 257.727 454.266 252.352" stroke="#2B3035" stroke-miterlimit="10" stroke-linecap="round" stroke-linejoin="round"/>
<path d="M438.314 262.825C438.314 262.825 457.776 261.355 463.922 252.352" stroke="#2B3035" stroke-miterlimit="10" stroke-linecap="round" stroke-linejoin="round"/>
<path d="M437.894 261.568C437.894 261.568 452.037 260.379 460.143 252.771" stroke="#2B3035" stroke-miterlimit="10" stroke-linecap="round" stroke-linejoin="round"/>
<path d="M435.795 264.082C435.795 264.082 450.908 264.987 459.724 259.474C468.539 253.961 469.799 251.095 469.799 251.095" stroke="#2B3035" stroke-miterlimit="10" stroke-linecap="round" stroke-linejoin="round"/>
<path d="M435.375 250.676C435.375 250.676 458.334 252.138 473.157 249.001" stroke="#2B3035" stroke-miterlimit="10" stroke-linecap="round" stroke-linejoin="round"/>
<path d="M433.696 247.744C433.696 247.744 448.54 248.649 458.464 249.001C468.388 249.353 471.767 248.93 472.737 248.582" stroke="#2B3035" stroke-miterlimit="10" stroke-linecap="round" stroke-linejoin="round"/>
<path d="M417.744 236.852C418.944 236.272 420.214 235.849 421.522 235.595" stroke="#2B3035" stroke-miterlimit="10" stroke-linecap="round" stroke-linejoin="round"/>
<path d="M429.079 228.893C429.079 228.893 420.347 229.873 416.485 230.987" stroke="#2B3035" stroke-miterlimit="10" stroke-linecap="round" stroke-linejoin="round"/>
<path d="M415.225 235.176C415.225 235.176 419.314 232.127 427.399 231.406" stroke="#2B3035" stroke-miterlimit="10" stroke-linecap="round" stroke-linejoin="round"/>
<path d="M406.829 230.987C406.829 230.987 412.879 228.474 419.423 228.055" stroke="#2B3035" stroke-miterlimit="10" stroke-linecap="round" stroke-linejoin="round"/>
<path d="M411.867 224.284C411.867 224.284 408.089 223.744 406.41 224.703" stroke="#2B3035" stroke-miterlimit="10" stroke-linecap="round" stroke-linejoin="round"/>
<path d="M405.15 228.893C408.903 227.192 416.065 226.379 416.065 226.379" stroke="#2B3035" stroke-miterlimit="10" stroke-linecap="round" stroke-linejoin="round"/>
<path d="M393.816 238.109C393.816 238.109 392.619 243.04 392.556 244.393" stroke="#2B3035" stroke-miterlimit="10" stroke-linecap="round" stroke-linejoin="round"/>
<path d="M405.57 229.73C405.57 229.73 415.397 237.719 422.782 238.109" stroke="#2B3035" stroke-miterlimit="10" stroke-linecap="round" stroke-linejoin="round"/>
<path d="M404.73 222.19C404.73 222.19 407.211 221.486 408.508 220.933" stroke="#2B3035" stroke-miterlimit="10" stroke-linecap="round" stroke-linejoin="round"/>
<path d="M399.693 251.095C399.693 251.095 400.18 246.517 398.434 243.555" stroke="#2B3035" stroke-miterlimit="10" stroke-linecap="round" stroke-linejoin="round"/>
<path d="M397.594 250.676C397.594 250.676 398.291 244.527 396.754 241.46" stroke="#2B3035" stroke-miterlimit="10" stroke-linecap="round" stroke-linejoin="round"/>
<path d="M395.915 250.258C395.915 250.258 396.507 244.003 394.655 239.366" stroke="#2B3035" stroke-miterlimit="10" stroke-linecap="round" stroke-linejoin="round"/>
<path d="M390.457 236.014C390.457 236.014 389.055 237.405 389.198 238.109" stroke="#2B3035" stroke-miterlimit="10" stroke-linecap="round" stroke-linejoin="round"/>
<path d="M402.212 208.365C402.212 208.365 392.519 213.736 392.137 230.149" stroke="#2B3035" stroke-miterlimit="10" stroke-linecap="round" stroke-linejoin="round"/>
<path d="M403.471 207.947C403.471 207.947 395.562 213.212 395.075 227.217" stroke="#2B3035" stroke-miterlimit="10" stroke-linecap="round" stroke-linejoin="round"/>
<path d="M397.594 231.825C397.594 231.825 397.031 231.435 395.495 234.339" stroke="#2B3035" stroke-miterlimit="10" stroke-linecap="round" stroke-linejoin="round"/>
<path d="M396.754 228.893C396.754 228.893 394.513 230.807 393.396 233.082" stroke="#2B3035" stroke-miterlimit="10" stroke-linecap="round" stroke-linejoin="round"/>
<path d="M406.41 233.501C406.41 233.501 415.502 241.28 421.942 240.622" stroke="#2B3035" stroke-miterlimit="10" stroke-linecap="round" stroke-linejoin="round"/>
<path d="M408.089 252.771C411.736 254.558 415.899 255.003 419.843 254.028" stroke="#2B3035" stroke-miterlimit="10" stroke-linecap="round" stroke-linejoin="round"/>
<path d="M407.669 251.095C407.669 251.095 414.978 252.696 420.263 252.352" stroke="#2B3035" stroke-miterlimit="10" stroke-linecap="round" stroke-linejoin="round"/>
<path d="M407.669 248.163C411.752 249.359 416.023 249.785 420.263 249.42" stroke="#2B3035" stroke-miterlimit="10" stroke-linecap="round" stroke-linejoin="round"/>
<path d="M407.249 241.46C407.249 241.46 410.045 244.422 421.103 244.393" stroke="#2B3035" stroke-miterlimit="10" stroke-linecap="round" stroke-linejoin="round"/>
<path d="M406.41 237.271C406.41 237.271 414.768 242.746 421.942 242.717" stroke="#2B3035" stroke-miterlimit="10" stroke-linecap="round" stroke-linejoin="round"/>
<path d="M407.669 253.19C407.669 253.19 405.742 248.611 405.57 246.487" stroke="#2B3035" stroke-miterlimit="10" stroke-linecap="round" stroke-linejoin="round"/>
<path d="M403.891 211.717C403.891 211.717 400.81 232.483 404.73 243.974" stroke="#2B3035" stroke-miterlimit="10" stroke-linecap="round" stroke-linejoin="round"/>
<path d="M391.297 231.825C391.297 231.825 394.303 227.351 397.174 225.541" stroke="#2B3035" stroke-miterlimit="10" stroke-linecap="round" stroke-linejoin="round"/>
<path d="M389.198 230.568C389.198 230.568 396.507 235.101 399.273 240.203" stroke="#2B3035" stroke-miterlimit="10" stroke-linecap="round" stroke-linejoin="round"/>
<path d="M388.358 234.339C388.358 234.339 395.562 238.452 403.051 250.257" stroke="#2B3035" stroke-miterlimit="10" stroke-linecap="round" stroke-linejoin="round"/>
<path d="M407.249 244.393C407.249 244.393 404.063 223.895 404.73 218.42C405.398 212.944 405.57 212.974 405.57 212.974" stroke="#2B3035" stroke-miterlimit="10" stroke-linecap="round" stroke-linejoin="round"/>
<path d="M408.089 253.19C408.089 253.19 407.421 248.507 407.249 246.487" stroke="#2B3035" stroke-miterlimit="10" stroke-linecap="round" stroke-linejoin="round"/>
<path d="M403.051 245.23C403.051 245.23 411.514 248.192 420.263 246.906" stroke="#2B3035" stroke-miterlimit="10" stroke-linecap="round" stroke-linejoin="round"/>
<path d="M402.212 243.555C402.212 243.555 412.669 246.621 420.682 245.23" stroke="#2B3035" stroke-miterlimit="10" stroke-linecap="round" stroke-linejoin="round"/>
<path d="M405.57 254.447C405.57 254.447 396.402 243.689 397.594 225.122C398.156 218.809 400.285 211.641 403.471 210.041" stroke="#2B3035" stroke-miterlimit="10" stroke-linecap="round" stroke-linejoin="round"/>
<path d="M403.471 211.298C403.471 211.298 391.469 233.844 408.089 254.028" stroke="#2B3035" stroke-miterlimit="10" stroke-linecap="round" stroke-linejoin="round"/>
<path d="M459.724 224.285C459.724 224.285 447.768 223.116 439.573 229.73" stroke="#2B3035" stroke-miterlimit="10" stroke-linecap="round" stroke-linejoin="round"/>
<path d="M467.7 232.244L456.365 231.825" stroke="#2B3035" stroke-miterlimit="10" stroke-linecap="round" stroke-linejoin="round"/>
<path d="M435.375 240.203C435.375 240.203 437.651 234.473 453.007 232.663" stroke="#2B3035" stroke-miterlimit="10" stroke-linecap="round" stroke-linejoin="round"/>
<path d="M423.621 252.352C423.621 252.352 425.452 248.368 431.178 248.163" stroke="#2B3035" stroke-miterlimit="10" stroke-linecap="round" stroke-linejoin="round"/>
<path d="M472.737 247.744C472.737 247.744 471.348 249.206 455.526 247.325C439.704 245.444 425.032 245.159 422.362 249.42C419.692 253.68 425.59 244.321 424.041 247.744C422.492 251.167 422.782 253.119 428.659 257.798" stroke="#2B3035" stroke-miterlimit="10" stroke-linecap="round" stroke-linejoin="round"/>
<path d="M420.263 251.514C420.263 251.514 424.192 245.017 430.338 244.393C436.484 243.768 463.502 246.135 472.317 244.812" stroke="#2B3035" stroke-miterlimit="10" stroke-linecap="round" stroke-linejoin="round"/>
<path d="M429.498 269.109C429.498 269.109 428.239 258.565 429.918 247.744" stroke="#2B3035" stroke-miterlimit="10" stroke-linecap="round" stroke-linejoin="round"/>
<path d="M432.017 271.622C432.017 271.622 428.81 258.565 432.437 245.649" stroke="#2B3035" stroke-miterlimit="10" stroke-linecap="round" stroke-linejoin="round"/>
<path d="M437.474 273.717L436.635 269.528" stroke="#2B3035" stroke-miterlimit="10" stroke-linecap="round" stroke-linejoin="round"/>
<path d="M434.116 269.109V273.717" stroke="#2B3035" stroke-miterlimit="10" stroke-linecap="round" stroke-linejoin="round"/>
<path d="M433.277 246.906L434.116 267.852" stroke="#2B3035" stroke-miterlimit="10" stroke-linecap="round" stroke-linejoin="round"/>
<path d="M437.055 252.771L438.314 264.501" stroke="#2B3035" stroke-miterlimit="10" stroke-linecap="round" stroke-linejoin="round"/>
<path d="M437.474 226.379C434.845 231.458 433.274 237.016 432.857 242.717" stroke="#2B3035" stroke-miterlimit="10" stroke-linecap="round" stroke-linejoin="round"/>
<path d="M434.956 247.325L436.215 264.92" stroke="#2B3035" stroke-miterlimit="10" stroke-linecap="round" stroke-linejoin="round"/>
<path d="M472.737 253.19C472.737 253.19 461.692 272.666 439.154 269.947C436.105 269.598 433.206 268.441 430.758 266.595" stroke="#2B3035" stroke-miterlimit="10" stroke-linecap="round" stroke-linejoin="round"/>
<path d="M435.375 253.19C435.375 253.19 465.752 253.538 472.737 250.676" stroke="#2B3035" stroke-miterlimit="10" stroke-linecap="round" stroke-linejoin="round"/>
<path d="M419.843 250.677C422.492 247.258 426.849 242.503 434.116 242.717C441.383 242.931 467.15 243.622 471.478 242.298" stroke="#2B3035" stroke-miterlimit="10" stroke-linecap="round" stroke-linejoin="round"/>
<path d="M439.993 225.96C439.993 225.96 435.527 229.098 435.375 242.717" stroke="#2B3035" stroke-miterlimit="10" stroke-linecap="round" stroke-linejoin="round"/>
<path d="M489.949 240.622C489.949 240.622 504.642 234.406 508 225.541" stroke="#2B3035" stroke-miterlimit="10" stroke-linecap="round" stroke-linejoin="round"/>
<path d="M470.219 210.879C470.219 210.879 477.645 206.338 483.652 206.69" stroke="#2B3035" stroke-miterlimit="10" stroke-linecap="round" stroke-linejoin="round"/>
<path d="M429.918 223.447C430.888 223.518 443.503 224.77 451.747 220.095" stroke="#2B3035" stroke-miterlimit="10" stroke-linecap="round" stroke-linejoin="round"/>
<path d="M417.744 223.028C417.744 223.028 428.948 227.841 432.857 227.636" stroke="#2B3035" stroke-miterlimit="10" stroke-linecap="round" stroke-linejoin="round"/>
<path d="M416.485 222.19C416.485 222.19 421.254 227.841 426.56 228.055" stroke="#2B3035" stroke-miterlimit="10" stroke-linecap="round" stroke-linejoin="round"/>
<path fill-rule="evenodd" clip-rule="evenodd" d="M403.891 207.528C403.891 207.528 396.335 210.129 392.976 215.068C389.618 220.007 389.74 226.572 389.198 228.893C388.701 230.953 388.419 233.058 388.358 235.176C388.358 236.852 389.198 237.271 389.198 237.271C389.198 237.271 389.005 239.139 390.457 241.879C391.91 244.619 395.722 246.906 395.915 248.163C396.108 249.42 395.075 249.612 395.915 250.258C396.754 250.903 397.821 250.764 398.433 251.095C399.046 251.426 398.66 250.764 399.693 251.514C400.726 252.264 404.957 253.697 405.99 254.447C407.022 255.197 409.348 254.447 409.348 254.447C409.348 254.447 414.193 258.305 421.102 255.285C423.499 263.575 429.305 268.359 429.918 269.109C430.531 269.859 430.67 271.396 431.597 271.623C432.033 271.71 432.456 271.851 432.857 272.041C432.857 272.041 434.448 274.433 435.795 274.555C437.143 274.676 437.474 273.717 437.474 273.717C437.474 273.717 441.899 276.738 443.771 275.393C446.588 275.812 454.178 275.481 458.884 272.879C463.59 270.278 467.7 265.758 467.7 265.758L479.874 261.15C479.874 261.15 493.114 262.913 501.283 252.352C502.736 252.055 502.543 251.933 502.543 251.933C502.543 251.933 508.542 246.994 509.259 235.176C509.977 234.984 510.099 235.176 510.099 235.176L509.679 230.568H508.84L508.42 228.055C508.588 227.646 508.728 227.226 508.84 226.798C508.945 226.308 508.42 225.96 508.42 225.96L508 224.285C507.806 223.284 507.525 222.303 507.16 221.352C506.636 220.095 505.867 218.491 505.061 217.582C504.438 216.935 503.732 216.371 502.963 215.906C502.963 215.906 499.99 205.714 482.393 207.528C486.276 204.943 486.171 202.92 486.171 202.92C486.171 202.92 493.412 197.964 491.628 189.514C491.943 184.278 492.153 179.112 489.529 179.041C488.513 176.318 479.349 165.426 473.577 164.379C467.805 163.332 458.498 164.517 448.389 168.568C442.126 171.01 434.956 173.176 434.956 173.176C434.956 173.176 424.284 173.386 412.707 181.136C401.129 188.886 402.703 201.034 403.891 207.528Z" stroke="#2B3035" stroke-miterlimit="10" stroke-linecap="round" stroke-linejoin="round"/>
<path d="M451.328 220.514C451.328 220.514 473.157 225.717 473.157 251.514C473.157 255.946 473.157 261.744 467.7 265.758" stroke="#2B3035" stroke-miterlimit="10" stroke-linecap="round" stroke-linejoin="round"/>
<path d="M451.748 167.311C451.748 167.311 474.416 170.139 474.416 197.892C474.441 200.943 473.775 203.959 472.466 206.716C471.158 209.473 469.241 211.898 466.86 213.811C466.86 213.811 489.949 221.352 489.949 242.298C489.949 250.777 487.052 259.289 480.294 261.149" stroke="#2B3035" stroke-miterlimit="10" stroke-linecap="round" stroke-linejoin="round"/>
<path d="M434.536 173.176C434.536 173.176 458.044 179.075 458.044 204.176C458.044 212.798 452.726 219.153 450.908 220.514" stroke="#2B3035" stroke-miterlimit="10" stroke-linecap="round" stroke-linejoin="round"/>
<path d="M411.867 198.311C411.867 198.311 406.737 187.838 415.225 179.46" stroke="#2B3035" stroke-miterlimit="10" stroke-linecap="round" stroke-linejoin="round"/>
<path d="M411.867 197.893C411.867 197.893 408.698 183.23 429.079 174.852" stroke="#2B3035" stroke-miterlimit="10" stroke-linecap="round" stroke-linejoin="round"/>
<path d="M413.126 197.892C413.126 197.892 410.515 195.232 416.065 191.609" stroke="#2B3035" stroke-miterlimit="10" stroke-linecap="round" stroke-linejoin="round"/>
<path d="M403.891 206.69C403.891 206.69 407.3 220.095 422.782 224.284" stroke="#2B3035" stroke-miterlimit="10" stroke-linecap="round" stroke-linejoin="round"/>
<path d="M411.447 219.676C411.447 219.676 411.636 224.284 413.126 224.703" stroke="#2B3035" stroke-miterlimit="10" stroke-linecap="round" stroke-linejoin="round"/>
<path d="M415.645 222.19C415.645 222.19 414.436 224.138 417.744 226.379" stroke="#2B3035" stroke-miterlimit="10" stroke-linecap="round" stroke-linejoin="round"/>
<path d="M491.628 182.811C491.628 182.811 489.437 192.3 473.997 202.082" stroke="#2B3035" stroke-miterlimit="10" stroke-linecap="round" stroke-linejoin="round"/>
<path d="M491.628 187.838C491.628 187.838 490.558 196.489 472.318 206.271" stroke="#2B3035" stroke-miterlimit="10" stroke-linecap="round" stroke-linejoin="round"/>
<path d="M491.208 191.609C491.208 191.609 490.839 198.027 477.355 205.433" stroke="#2B3035" stroke-miterlimit="10" stroke-linecap="round" stroke-linejoin="round"/>
<path d="M405.57 200.825C405.57 200.825 417.375 203.192 429.078 206.271C440.782 209.35 449.699 212.555 455.106 212.555" stroke="#2B3035" stroke-miterlimit="10" stroke-linecap="round" stroke-linejoin="round"/>
<path d="M405.99 205.014C405.99 205.014 410.658 205.433 421.522 207.528C432.387 209.622 446.899 212.408 455.526 212.555" stroke="#2B3035" stroke-miterlimit="10" stroke-linecap="round" stroke-linejoin="round"/>
<path d="M458.044 200.825C458.044 200.825 454.736 204.595 447.969 209.203" stroke="#2B3035" stroke-miterlimit="10" stroke-linecap="round" stroke-linejoin="round"/>
<path d="M456.785 197.055C456.785 197.055 454.035 200.825 443.771 207.947" stroke="#2B3035" stroke-miterlimit="10" stroke-linecap="round" stroke-linejoin="round"/>
<path d="M442.932 176.947C442.932 176.947 427.727 189.229 420.683 199.987" stroke="#2B3035" stroke-miterlimit="10" stroke-linecap="round" stroke-linejoin="round"/>
<path d="M447.55 180.298C447.079 180.583 423.621 201.244 423.621 201.244" stroke="#2B3035" stroke-miterlimit="10" stroke-linecap="round" stroke-linejoin="round"/>
<path d="M450.488 182.811C450.488 182.811 435.426 199.149 428.239 202.92" stroke="#2B3035" stroke-miterlimit="10" stroke-linecap="round" stroke-linejoin="round"/>
<path d="M453.427 187.838C453.427 187.838 440.463 203.192 434.116 205.014" stroke="#2B3035" stroke-miterlimit="10" stroke-linecap="round" stroke-linejoin="round"/>
<path d="M489.063 179.876C489.063 179.876 478.245 163.813 458.464 169.406" stroke="#2B3035" stroke-miterlimit="10" stroke-linecap="round" stroke-linejoin="round"/>
<path d="M413.546 198.73C413.546 198.73 407.018 194.96 408.089 184.906" stroke="#2B3035" stroke-miterlimit="10" stroke-linecap="round" stroke-linejoin="round"/>
<path d="M405.15 211.717C405.15 211.717 408.278 226.094 438.734 225.541" stroke="#2B3035" stroke-miterlimit="10" stroke-linecap="round" stroke-linejoin="round"/>
<path d="M411.867 215.487L412.287 207.947" stroke="#2B3035" stroke-miterlimit="10" stroke-linecap="round" stroke-linejoin="round"/>
<path d="M413.966 198.311C413.966 198.311 417.652 181.136 430.758 173.595" stroke="#2B3035" stroke-miterlimit="10" stroke-linecap="round" stroke-linejoin="round"/>
<path d="M449.229 217.582C449.229 217.582 433.184 218.273 417.744 209.203" stroke="#2B3035" stroke-miterlimit="10" stroke-linecap="round" stroke-linejoin="round"/>
<path d="M418.164 209.622C418.164 209.622 432.487 221.771 443.771 220.933" stroke="#2B3035" stroke-miterlimit="10" stroke-linecap="round" stroke-linejoin="round"/>
<path d="M418.164 210.46C418.164 210.46 426.61 222.462 437.055 223.028" stroke="#2B3035" stroke-miterlimit="10" stroke-linecap="round" stroke-linejoin="round"/>
<path d="M417.744 209.203C417.744 209.203 419.612 222.043 432.437 223.866" stroke="#2B3035" stroke-miterlimit="10" stroke-linecap="round" stroke-linejoin="round"/>
<path d="M456.785 195.379C456.785 195.379 446.198 205.286 440.833 207.109" stroke="#2B3035" stroke-miterlimit="10" stroke-linecap="round" stroke-linejoin="round"/>
<path d="M455.945 193.284C455.945 193.284 443.259 204.595 439.573 206.271" stroke="#2B3035" stroke-miterlimit="10" stroke-linecap="round" stroke-linejoin="round"/>
<path d="M486.171 202.92L476.935 205.852" stroke="#2B3035" stroke-miterlimit="10" stroke-linecap="round" stroke-linejoin="round"/>
<path d="M471.478 209.203C475.625 205.852 479.223 204.595 484.911 205.433" stroke="#2B3035" stroke-miterlimit="10" stroke-linecap="round" stroke-linejoin="round"/>
<path d="M488.391 181.549C488.391 181.549 484.399 170.663 466.021 174.433" stroke="#2B3035" stroke-miterlimit="10" stroke-linecap="round" stroke-linejoin="round"/>
<path d="M485.367 186.57C485.367 186.57 479.084 180.851 471.478 182.392" stroke="#2B3035" stroke-miterlimit="10" stroke-linecap="round" stroke-linejoin="round"/>
<path d="M491.208 179.879C491.208 179.879 483.283 194.813 474.417 199.568" stroke="#2B3035" stroke-miterlimit="10" stroke-linecap="round" stroke-linejoin="round"/>
<path d="M474.417 199.568C474.417 199.568 487.069 187.941 489.399 178.871" stroke="#2B3035" stroke-miterlimit="10" stroke-linecap="round" stroke-linejoin="round"/>
<path d="M405.57 197.055C405.57 197.055 421.43 200.406 427.399 202.92C433.369 205.433 437.525 206.69 445.031 208.366C452.537 210.041 457.205 210.041 457.205 210.041" stroke="#2B3035" stroke-miterlimit="10" stroke-linecap="round" stroke-linejoin="round"/>
<path d="M406.829 207.109C406.829 207.109 418.773 209.337 429.498 211.298C440.224 213.259 453.334 213.527 455.946 212.555" stroke="#2B3035" stroke-miterlimit="10" stroke-linecap="round" stroke-linejoin="round"/>
<path d="M416.485 219.676C416.485 219.676 416.812 197.608 424.041 187.42C431.27 177.231 437.474 174.433 437.474 174.433" stroke="#2B3035" stroke-miterlimit="10" stroke-linecap="round" stroke-linejoin="round"/>
<path d="M408.928 184.068C405.289 192.359 404.395 201.495 405.57 204.595C406.745 207.695 410.188 217.025 418.584 220.514C426.98 224.004 437.966 225.097 444.611 220.514C451.256 215.931 455.526 214.23 455.526 214.23" stroke="#2B3035" stroke-miterlimit="10" stroke-linecap="round" stroke-linejoin="round"/>
<path d="M403.891 207.109C404.214 208.328 402.871 208.684 404.73 211.298C406.59 213.912 407.069 215.387 407.669 218.001C408.269 220.615 408.886 221.67 411.867 223.866C414.847 226.061 415.603 224.879 416.485 225.96C417.366 227.041 421.619 228.65 425.72 228.474C429.822 228.298 431.178 228.474 431.178 228.474" stroke="#2B3035" stroke-miterlimit="10" stroke-linecap="round" stroke-linejoin="round"/>
<path d="M421.102 255.284C420.586 254.128 420.082 254.484 420.263 251.933C420.443 249.382 420.263 249.42 420.263 249.42C420.263 249.42 421.199 234.095 431.178 228.474C432.617 228.436 432.857 228.055 432.857 228.055C432.857 228.055 433.373 227.116 434.116 227.217C434.859 227.317 435.195 226.278 436.215 226.379C437.235 226.48 437.474 226.798 437.474 226.798C437.571 226.545 437.744 226.328 437.97 226.177C438.195 226.027 438.463 225.951 438.734 225.96C439.754 225.922 439.993 226.379 439.993 226.379C439.993 226.379 448.486 221.809 450.908 220.514C453.33 219.22 477.871 209.103 481.973 207.528" stroke="#2B3035" stroke-miterlimit="10" stroke-linecap="round" stroke-linejoin="round"/>
<path d="M113.321 249.42C99.4679 239.86 88.2972 224.435 89.9637 205.069C93.6202 162.531 129.038 145.607 154.113 145.109C159.175 145.008 170.317 145.796 180.56 150.554C189.795 154.84 206.587 170.21 206.587 199.987C206.587 213.568 196.512 230.987 196.512 230.987" stroke="#2B3035" stroke-miterlimit="10" stroke-linecap="round" stroke-linejoin="round"/>
<path fill-rule="evenodd" clip-rule="evenodd" d="M148.026 184.202C158.604 182.723 167.177 190.092 167.177 200.657C167.177 211.223 158.6 220.992 148.026 222.475C137.451 223.958 128.875 216.585 128.875 206.02C128.875 195.454 137.434 185.681 148.026 184.202Z" stroke="#2B3035" stroke-miterlimit="10" stroke-linecap="round" stroke-linejoin="round"/>
<path fill-rule="evenodd" clip-rule="evenodd" d="M148.164 181.555C160.267 179.879 170.078 188.257 170.078 200.276C170.078 212.295 160.267 223.413 148.164 225.093C136.062 226.773 126.251 218.39 126.251 206.371C126.251 194.353 136.062 183.251 148.164 181.555Z" stroke="#2B3035" stroke-miterlimit="10" stroke-linecap="round" stroke-linejoin="round"/>
<path d="M205.748 189.095C205.748 189.095 218.472 195.199 234.713 203.338" stroke="#2B3035" stroke-miterlimit="10" stroke-linecap="round" stroke-linejoin="round"/>
<path d="M251.925 239.366C251.925 239.366 210.218 218.206 204.068 214.649" stroke="#2B3035" stroke-miterlimit="10" stroke-linecap="round" stroke-linejoin="round"/>
<path d="M328.328 245.649C324.592 247.539 269.653 250.182 261.16 248.582C252.668 246.982 236.628 234.125 226.317 240.622C216.007 247.12 217.737 249.206 222.12 252.771" stroke="#2B3035" stroke-miterlimit="10" stroke-linecap="round" stroke-linejoin="round"/>
<path d="M322.87 231.406C317.316 232.319 313.87 232.169 302.3 225.541C290.731 218.914 264.615 206.057 249.826 213.393C235.037 220.728 241.946 242.717 266.618 242.717C291.289 242.717 325.347 231.888 329.587 235.176" stroke="#2B3035" stroke-miterlimit="10" stroke-linecap="round" stroke-linejoin="round"/>
<path d="M147.396 131.284L178.116 149.415M186.623 154.436C186.623 154.436 195.609 161.191 207.427 177.784C219.244 194.378 238.567 211.042 262.42 210.041C286.273 209.04 328.097 197.49 333.32 215.998" stroke="#2B3035" stroke-miterlimit="10" stroke-linecap="round" stroke-linejoin="round"/>
<path fill-rule="evenodd" clip-rule="evenodd" d="M9.70274 147.622C9.70274 147.622 90.9331 230.149 105.416 242.717C119.899 255.285 128.295 261.987 149.495 260.312C170.694 258.636 190.005 242.717 196.512 230.568C206.167 237.271 219.81 252.143 223.379 254.028C226.947 255.913 234.713 256.332 254.024 254.028C273.334 251.724 320.981 247.744 326.228 246.487C331.476 245.23 333.995 237.899 328.747 234.757C323.5 231.616 322.87 231.406 322.87 231.406C322.87 231.406 333.785 227.007 333.785 219.257C333.785 211.507 328.957 209.413 322.45 206.271C315.943 203.129 159.15 130.865 159.15 130.865C159.15 130.865 154.746 127.187 147.815 131.703C137.946 125.746 59.6584 79.3381 59.6584 79.3381C59.6584 79.3381 30.6925 67.7005 7.18397 99.4462C-1.64013 111.293 -1.21194 137.777 9.70274 147.622Z" stroke="#2B3035" stroke-miterlimit="10" stroke-linecap="round" stroke-linejoin="round"/>
<path d="M579.785 121.649C579.432 123.132 576.846 122.906 576.846 122.906" stroke="#2B3035" stroke-miterlimit="10" stroke-linecap="round" stroke-linejoin="round"/>
<path d="M577.686 129.19C577.11 128.13 576.405 127.145 575.587 126.257" stroke="#2B3035" stroke-miterlimit="10" stroke-linecap="round" stroke-linejoin="round"/>
<path d="M568.45 102.798C568.45 102.798 574.47 106.568 575.587 111.176C576.704 115.784 575.835 121.842 575.167 122.906C574.5 123.97 574.365 125.088 573.908 126.257C573.45 127.426 569.748 132.629 565.512 134.636C561.276 136.642 557.956 135.473 557.956 135.473" stroke="#2B3035" stroke-miterlimit="10" stroke-linecap="round" stroke-linejoin="round"/>
<path fill-rule="evenodd" clip-rule="evenodd" d="M563.413 104.473C561.486 105.73 562.296 108.75 560.475 109.5C558.653 110.25 558.518 107.494 557.116 109.919C555.714 112.345 554.006 115.034 553.758 117.46C553.51 119.885 551.487 122.994 552.079 124.163C552.671 125.331 553.481 124.25 553.758 126.676C554.035 129.102 553.271 130.953 555.017 132.541C556.764 134.129 557.259 136.085 559.635 137.149C562.011 138.213 562.401 136.399 564.253 136.311C566.104 136.223 566.914 138.494 568.87 137.149C570.827 135.804 570.797 134.828 573.068 133.798C575.34 132.767 578.249 130.534 577.686 127.514C577.124 124.493 578.668 125.507 579.785 122.906C580.902 120.304 580.977 115.453 580.625 114.108C580.272 112.764 579.403 112.852 578.526 111.176C577.648 109.5 578.354 108.541 576.847 107.825C575.34 107.108 574.89 108.332 574.328 107.406C573.765 106.48 575.205 103.723 573.908 102.798C572.611 101.872 570.482 103.095 569.71 102.798C568.938 102.5 570.273 102.379 568.031 102.379C565.789 102.379 565.34 103.217 563.413 104.473Z" stroke="#2B3035" stroke-miterlimit="10" stroke-linecap="round" stroke-linejoin="round"/>
<path d="M584.947 33.8004C568.227 31.0062 532.351 35.8238 513.582 72.3411C494.813 108.858 493.432 127.986 493.432 142.72C493.432 157.453 511.343 203.318 550.761 204.312" stroke="#2B3035" stroke-miterlimit="10" stroke-linecap="round" stroke-linejoin="round"/>
<path d="M416.904 148.879L455.123 166.152M491.767 183.172L519.334 195.798C519.334 195.798 539.031 207.98 562.993 202.92" stroke="#2B3035" stroke-miterlimit="10" stroke-linecap="round" stroke-linejoin="round"/>
<path d="M491.985 191.906C493.833 193.159 495.543 194.604 497.085 196.217C499.218 198.554 510.519 211.298 521.853 211.298M413.546 150.136C413.546 150.136 430.926 158.711 449.128 168.149L413.546 150.136Z" stroke="#2B3035" stroke-miterlimit="10" stroke-linecap="round" stroke-linejoin="round"/>
<path d="M347.638 158.514C347.638 158.514 381.281 175.69 405.49 188.002" stroke="#2B3035" stroke-miterlimit="10" stroke-linecap="round" stroke-linejoin="round"/>
<path d="M574.747 104.892C577.048 106.044 578.072 105.583 578.525 106.568C578.979 107.552 578.408 108.662 580.205 111.176C582.001 113.69 581.044 115.365 581.044 115.365" stroke="#2B3035" stroke-miterlimit="10" stroke-linecap="round" stroke-linejoin="round"/>
<path d="M552.498 118.717C552.7 115.847 551.541 115.721 552.498 112.852C553.455 109.982 554.564 107.259 556.696 106.987C558.829 106.714 559.517 105.919 560.055 104.473C560.592 103.028 563.967 101.646 567.611 101.122C571.255 100.598 572.783 102.316 573.908 102.798" stroke="#2B3035" stroke-miterlimit="10" stroke-linecap="round" stroke-linejoin="round"/>
<path d="M566.771 137.568C565.126 136.877 564.975 136.667 563.413 137.568C561.851 138.469 560.777 139.935 558.795 138.825C556.814 137.715 555.823 135.494 554.178 134.217C552.532 132.939 551.373 130.97 551.659 129.19C551.944 127.409 550.702 127.451 549.98 125.419C549.258 123.388 553.304 119.324 553.338 117.46" stroke="#2B3035" stroke-miterlimit="10" stroke-linecap="round" stroke-linejoin="round"/>
<path d="M587.761 36.1893C587.761 36.1893 632.574 50.353 628.901 114.108C625.228 177.864 568.975 201.663 556.696 201.663" stroke="#2B3035" stroke-miterlimit="10" stroke-linecap="round" stroke-linejoin="round"/>
<path d="M256.543 175.69C256.543 175.69 281.311 171.919 291.806 163.541C302.3 155.163 306.288 143.852 312.795 143.852C319.302 143.852 321.191 145.109 321.191 145.109L347.638 158.514C347.638 158.514 354.145 153.068 353.935 144.271C353.725 135.473 360.022 126.885 366.529 128.771C373.036 131.494 413.546 150.136 413.546 150.136L417.744 149.298L408.928 145.109C408.928 145.109 370.832 127.409 369.887 81.0138C368.943 34.6183 409.042 1 444.611 1C451.433 1 455.106 2.25676 455.106 2.25676L586.082 33.6758C586.082 33.6758 631 42.4731 631 106.987C630.79 160.609 593.218 194.751 564.672 202.501C541.164 208.994 533.398 211.507 520.594 211.298C516.425 211.172 500.863 204.679 489.109 199.526M389.475 238.36C377.128 240.173 364.957 243.032 353.096 246.906C342.811 239.575 326.649 229.312 326.649 229.312" stroke="#2B3035" stroke-miterlimit="10" stroke-linecap="round" stroke-linejoin="round"/>
<path d="M275.733 92.2214C275.733 92.2214 279.245 91.7716 280.891 90.6489" stroke="#2B3035" stroke-miterlimit="10" stroke-linecap="round" stroke-linejoin="round"/>
<path d="M272.702 95.2403C275.049 94.4025 276.307 91.2144 276.273 90.23" stroke="#2B3035" stroke-miterlimit="10" stroke-linecap="round" stroke-linejoin="round"/>
<path d="M276.273 87.2976C276.273 87.2976 280.53 87.9334 280.496 88.7712" stroke="#2B3035" stroke-miterlimit="10" stroke-linecap="round" stroke-linejoin="round"/>
<path d="M277.952 84.3651C277.952 84.3651 283.094 85.321 283.094 87.4774" stroke="#2B3035" stroke-miterlimit="10" stroke-linecap="round" stroke-linejoin="round"/>
<path d="M298.102 92.3246C295.13 92.0398 288.027 94.8382 288.027 94.8382L279.631 89.8111C279.631 89.8111 286.659 82.2706 298.522 88.1354" stroke="#2B3035" stroke-miterlimit="10" stroke-linecap="round" stroke-linejoin="round"/>
<path d="M296.843 85.6218C296.39 86.313 298.694 88.0013 300.201 90.2299C301.708 92.4586 301.633 96.6604 296.423 97.3516C291.214 98.0428 291.696 99.3121 288.867 99.8651C286.037 100.418 281.58 98.5812 278.331 99.5531" stroke="#2B3035" stroke-miterlimit="10" stroke-linecap="round" stroke-linejoin="round"/>
<path d="M294.324 81.8516C294.324 81.8516 296.734 85.7684 301.461 84.784" stroke="#2B3035" stroke-miterlimit="10" stroke-linecap="round" stroke-linejoin="round"/>
<path d="M285.928 78.9192C287.855 80.8672 291.138 81.7176 293.485 81.4327C295.831 81.1479 296.003 81.0138 296.003 81.0138" stroke="#2B3035" stroke-miterlimit="10" stroke-linecap="round" stroke-linejoin="round"/>
<path d="M272.915 91.4868C274.283 88.2695 278.964 83.3932 279.631 81.8516C280.299 80.31 280.891 80.1759 280.891 80.1759C282.504 79.5262 284.199 79.1033 285.928 78.9192C288.275 78.7725 291.386 78.5002 291.386 78.5002" stroke="#2B3035" stroke-miterlimit="10" stroke-linecap="round" stroke-linejoin="round"/>
<path d="M272.075 100.284L271.235 97.3517C271.235 97.3517 272.948 96.2416 272.915 93.5814C272.881 90.9213 272.528 91.2145 272.915 89.3922C273.301 87.5699 275.744 81.1604 277.532 79.3381C279.321 77.5158 282.881 73.6199 288.027 74.3111C293.174 75.0023 295.055 76.4057 297.263 77.2435C299.471 78.0814 302.754 79.0658 303.56 83.1084C304.366 87.151 304.152 90.096 303.979 92.7436C303.807 95.3912 303.451 92.6095 302.3 98.1895C301.15 103.77 301.633 104.892 298.522 105.73C295.411 106.568 293.904 106.568 293.904 106.568" stroke="#2B3035" stroke-miterlimit="10" stroke-linecap="round" stroke-linejoin="round"/>
<path d="M287.608 115.784C287.608 115.784 268.188 121.23 262 106.149C255.812 91.0679 266.089 73.6199 270.396 68.4462C274.703 63.2725 292.536 59.5148 302.72 65.0948C312.904 70.6748 314.088 82.4172 311.536 92.3246C308.984 102.232 304.71 114.393 293.904 120.811C288.414 124.163 278.544 124.866 275.433 125.838C272.323 126.81 270.988 129.336 268.717 127.933C266.446 126.529 256.014 122.906 251.925 108.663C247.836 94.4192 252.937 50.4326 286.348 50.4326C319.76 50.4326 319.965 68.7311 320.771 76.8246" stroke="#2B3035" stroke-miterlimit="10" stroke-linecap="round" stroke-linejoin="round"/>
<path d="M319.361 120.292C319.361 120.292 354.985 135.264 355.614 135.473" stroke="#2B3035" stroke-miterlimit="10" stroke-linecap="round" stroke-linejoin="round"/>
<path d="M327.236 83.5273C327.236 73.1884 325.561 36.1893 288.027 36.1893C250.493 36.1893 236.565 75.8527 235.553 94.0003C234.541 112.148 241.321 139.663 264.099 140.5" stroke="#2B3035" stroke-miterlimit="10" stroke-linecap="round" stroke-linejoin="round"/>
<path d="M315.734 82.6895C315.734 94.2726 313.249 112.014 298.942 125C295.97 127.933 284.841 131.988 281.73 133.379C278.62 134.77 280.643 135.339 277.532 135.892C274.422 136.445 272.948 134.92 270.816 135.054C268.683 135.189 243.281 137.149 240.591 104.892C239.717 85.756 246.778 46.2434 285.509 40.3785C306.045 37.1612 321.645 54.3495 324.969 65.5137C328.294 76.678 327.068 88.5543 327.068 88.5543" stroke="#2B3035" stroke-miterlimit="10" stroke-linecap="round" stroke-linejoin="round"/>
<path d="M217.922 157.676C217.922 157.676 234.046 148.041 244.369 148.041" stroke="#2B3035" stroke-miterlimit="10" stroke-linecap="round" stroke-linejoin="round"/>
<path d="M135.642 85.2029C135.642 85.2029 153.307 90.054 164.608 95.6759C175.908 101.298 202.565 113.237 210.365 116.203C218.165 119.169 222.716 119.24 229.676 124.162C236.636 129.085 247.622 142.838 264.519 140.5C280.996 141.095 297.439 135.44 307.758 122.906C318.076 110.372 320.771 94.3856 320.771 79.338C320.771 64.2904 314.928 46.0674 289.707 45.8244C264.485 45.5814 246.048 70.0883 246.048 100.284C246.048 130.48 267.911 133.065 270.816 132.541C273.721 132.017 278.968 131.389 285.089 129.608C291.209 127.828 303.593 123.01 311.956 101.96C316.54 87.6117 316.888 81.818 314.055 72.2164C311.221 62.6147 299.118 57.5542 288.867 57.5542C278.616 57.5542 259.935 61.0103 254.024 97.7705C251.749 112.466 265.812 119.797 275.014 120.811C284.216 121.825 291.419 119.94 296.423 113.689C301.427 107.439 304.996 102.622 305.239 98.6084C305.482 94.5951 309.471 85.4459 305.659 78.9191C301.847 72.3923 296.037 69.5269 286.768 70.1218C277.499 70.7167 268.331 78.6049 266.198 89.811C264.065 101.017 266.651 107.51 274.594 110.757C282.536 114.004 286.525 115.051 287.188 115.365C287.851 115.679 294.92 111.7 293.905 105.73C292.889 99.7604 292.645 99.8651 292.645 99.8651C290.52 100.753 288.231 101.182 285.928 101.122C282.117 101.017 278.042 97.5946 272.269 100.284" stroke="#2B3035" stroke-miterlimit="10" stroke-linecap="round" stroke-linejoin="round"/>
<path d="M389.618 130.446C389.618 130.446 391.485 141.538 405.724 143.389" stroke="#2B3035" stroke-miterlimit="10" stroke-linecap="round" stroke-linejoin="round"/>
<path d="M384.58 124.163C384.58 124.163 384.429 131.665 387.578 138.368" stroke="#2B3035" stroke-miterlimit="10" stroke-linecap="round" stroke-linejoin="round"/>
<path d="M374.453 105.591C374.453 105.591 371.493 118.894 377.16 133.347" stroke="#2B3035" stroke-miterlimit="10" stroke-linecap="round" stroke-linejoin="round"/>
<path d="M228.416 24.8785C228.416 24.8785 237.652 13.9866 249.826 13.9866C256.962 13.9866 267.877 17.3379 267.877 17.3379C267.877 17.3379 317.833 29.6961 326.229 32.0001C334.625 34.3042 377.024 45.8245 377.024 45.8245" stroke="#2B3035" stroke-miterlimit="10" stroke-linecap="round" stroke-linejoin="round"/>
<path d="M213.304 155.582C222.478 151.085 232.48 148.518 242.69 148.041C259.2 147.413 267.529 151.392 285.928 145.109C304.328 138.825 321.116 127.863 326.082 95.1868M159.15 130.865C159.15 130.865 154.746 127.187 147.815 131.703C141.405 127.834 106.13 106.899 82.1911 92.6998V92.6527C85.5495 91.1864 99.5393 88.7637 112.133 88.5543C124.727 88.3448 133.543 87.9259 134.382 86.8786C135.222 85.8313 135.222 85.2029 135.222 85.2029C135.222 85.2029 129.555 82.2705 126.826 80.5948C124.097 78.9191 120.319 76.4056 117.59 72.6353C114.862 68.865 110.454 62.1623 110.454 49.5947C110.454 37.0271 125.567 16.2906 139.42 12.3108C153.273 8.33107 163.138 7.91215 173.843 13.1487C183.498 16.9189 205.538 21.1081 214.563 22.3649L228.105 24.9421H228.538C274.296 34.3678 276.946 29.7504 293.947 32.6828C310.949 35.6153 323.333 49.6491 326.691 62.0072C330.05 74.3654 327.111 100.967 318.715 121.913C310.319 142.859 277.156 153.122 266.661 154.589C256.166 156.055 245.461 153.96 238.115 155.008C230.768 156.055 225.941 161.71 225.941 161.71H225.716C190.216 145.336 159.15 130.865 159.15 130.865Z" stroke="#2B3035" stroke-miterlimit="10" stroke-linecap="round" stroke-linejoin="round"/>
</svg>
