<svg width="88" height="88" viewBox="0 0 88 88" fill="none" xmlns="http://www.w3.org/2000/svg">
<path d="M67.4312 38.8559C67.4312 36.07 65.1648 33.8038 62.3789 33.8038H53.0939C55.3498 31.2681 56.8241 28.3808 57.1089 25.7905C57.2828 24.2084 56.794 22.6379 55.7674 21.4817C54.8291 20.4249 53.5461 19.8359 52.1546 19.823C52.1384 19.8228 52.1223 19.8228 52.1063 19.8228C50.7603 19.8228 49.4971 20.3412 48.5437 21.2858C47.5901 22.2306 47.0625 23.4892 47.0563 24.8324C47.0073 25.1265 46.49 26.1404 45.2241 27.3442C44.1877 28.3301 42.3974 29.6853 39.7542 30.5435C38.7178 30.88 37.7706 31.4996 36.939 32.3851C36.5026 32.8495 35.8492 33.491 35.0402 34.1348C34.6431 33.9245 34.1916 33.8041 33.7119 33.8041H24.8935C23.3233 33.8041 22.0459 35.0815 22.0459 36.6518V60.1674C22.0459 61.7376 23.3233 63.015 24.8935 63.015H33.7119C34.7824 63.015 35.7158 62.4206 36.2022 61.5453H58.7046C61.0852 61.5453 63.0219 59.6086 63.0219 57.228C63.0219 56.4275 62.8031 55.6775 62.4219 55.034C63.6623 54.2746 64.4916 52.9068 64.4916 51.349C64.4916 50.5485 64.2728 49.7985 63.8916 49.155C65.132 48.3956 65.9613 47.0279 65.9613 45.47C65.9613 44.569 65.6839 43.7316 65.21 43.0386C66.5495 42.1289 67.4312 40.5934 67.4312 38.8559ZM62.3789 41.1523H61.644C60.8831 41.1523 60.2661 41.7692 60.2661 42.5302C60.2661 43.2911 60.8829 43.9082 61.644 43.9082C62.5051 43.9082 63.2056 44.6087 63.2056 45.4698C63.2056 46.3309 62.5051 47.0315 61.644 47.0315H60.1743C59.4134 47.0315 58.7964 47.6483 58.7964 48.4094C58.7964 49.1703 59.4132 49.7873 60.1743 49.7873C61.0354 49.7873 61.7359 50.4879 61.7359 51.349C61.7359 52.2101 61.0354 52.9106 60.1743 52.9106H58.7046C57.9437 52.9106 57.3267 53.5275 57.3267 54.2886C57.3267 55.0494 57.9435 55.6665 58.7046 55.6665C59.5657 55.6665 60.2662 56.367 60.2662 57.2281C60.2662 58.0892 59.5657 58.7898 58.7046 58.7898H36.5595V45.4703C36.5595 44.7094 35.9427 44.0924 35.1816 44.0924C34.4206 44.0924 33.8037 44.7093 33.8037 45.4703V60.1675C33.8037 60.2182 33.7626 60.2593 33.7119 60.2593H24.8935C24.8428 60.2593 24.8018 60.2182 24.8018 60.1675V36.6512C24.8018 36.6005 24.8428 36.5595 24.8935 36.5595H33.7119C33.7626 36.5595 33.8037 36.6005 33.8037 36.6512V39.5908C33.8037 40.3517 34.4206 40.9688 35.1816 40.9688C35.9427 40.9688 36.5595 40.3519 36.5595 39.5908V36.6512C36.5595 36.5844 36.554 36.5189 36.5494 36.4533C37.5825 35.6535 38.4087 34.845 38.9477 34.2713C39.4577 33.728 40.0153 33.3557 40.605 33.1644C43.8482 32.1115 46.0309 30.4161 47.2905 29.1793C48.8694 27.6292 49.8118 26.0132 49.8118 24.8563C49.8118 24.2451 50.0502 23.6723 50.4831 23.2433C50.9214 22.809 51.5018 22.5795 52.129 22.5786C52.9014 22.5859 53.4129 22.981 53.7063 23.3113C54.2092 23.8777 54.4567 24.692 54.3692 25.4893C54.0682 28.2271 51.8787 31.6114 48.7912 34.1108C48.3376 34.4781 48.1645 35.0913 48.3593 35.6415C48.554 36.1917 49.0744 36.5595 49.6581 36.5595H62.3786C63.6449 36.5595 64.675 37.5895 64.675 38.8559C64.675 40.1223 63.6451 41.1523 62.3789 41.1523Z" fill="white"/>
<path d="M29.3028 54.365C28.5419 54.365 27.9177 54.9893 27.9177 55.7502C27.9177 56.5111 28.5419 57.1353 29.3028 57.1353C30.0637 57.1353 30.688 56.5111 30.688 55.7502C30.6881 54.9895 30.0639 54.365 29.3028 54.365Z" fill="white"/>
<path d="M85.5439 43.9999L87.9109 37.7363C88.0833 37.2807 88.002 36.768 87.6973 36.3876L83.5106 31.1619L83.8261 24.4734C83.8492 23.987 83.6134 23.5241 83.2064 23.2569L77.6098 19.5806L75.8432 13.1219C75.7147 12.652 75.3476 12.2849 74.8778 12.1565L68.4191 10.39L64.7429 4.79353C64.4754 4.38636 64.0128 4.15158 63.5264 4.17375L56.8378 4.48931L51.6122 0.302608C51.232 -0.00195491 50.7193 -0.0832518 50.2635 0.088967L43.9998 2.45603L37.7365 0.0891388C37.2806 -0.0832518 36.768 -0.00195493 36.3878 0.302779L31.1622 4.48948L24.4736 4.17392C23.9848 4.15089 23.5244 4.3867 23.2571 4.7937L19.5811 10.3903L13.1223 12.1568C12.6524 12.2854 12.2853 12.6525 12.1569 13.1222L10.3904 19.581L4.79381 23.257C4.38664 23.5245 4.151 23.9872 4.17403 24.4736L4.48959 31.1621L0.302896 36.3878C-0.00166623 36.768 -0.082963 37.2807 0.0892555 37.7365L2.45614 43.9999L0.0890837 50.2634C-0.0833068 50.719 -0.00200998 51.2318 0.302724 51.6121L4.48942 56.8378L4.17386 63.5263C4.15083 64.0127 4.38664 64.4756 4.79364 64.7429L10.3902 68.4191L12.1568 74.8778C12.2853 75.3477 12.6524 75.7148 13.1222 75.8432L19.5809 77.6098L23.2569 83.2063C23.5244 83.6135 23.9879 83.8476 24.4735 83.8261L31.162 83.5106L36.3877 87.6973C36.7679 88.002 37.2807 88.0833 37.7364 87.9109L44 85.5438L50.2636 87.9109C50.4218 87.9706 50.5866 87.9998 50.7506 87.9998C51.0592 87.9998 51.364 87.8961 51.6122 87.6973L56.8378 83.5106L63.5264 83.8261C64.0143 83.8478 64.4754 83.6133 64.7429 83.2063L68.4191 77.6098L74.8778 75.8432C75.3477 75.7147 75.7149 75.3475 75.8432 74.8778L77.6098 68.4191L83.2064 64.7429C83.6135 64.4754 83.8492 64.0127 83.8261 63.5263L83.5106 56.8378L87.6973 51.6121C88.0018 51.2319 88.0831 50.7192 87.9109 50.2634L85.5439 43.9999ZM82.782 44.487L85.0552 50.5025L81.0344 55.5211C80.8245 55.7828 80.7174 56.1123 80.7333 56.4475L81.0364 62.871L75.6617 66.4014C75.3814 66.5855 75.1776 66.8659 75.0891 67.1897L73.3925 73.3925L67.1897 75.089C66.8661 75.1776 66.5859 75.3812 66.4015 75.6617L62.871 81.0364L56.4475 80.7332C56.1122 80.7178 55.7829 80.8245 55.5211 81.0344L50.5025 85.0552L44.4871 82.782C44.3302 82.7227 44.165 82.6931 44 82.6931C43.835 82.6931 43.6698 82.7229 43.5129 82.782L37.4975 85.0552L32.4789 81.0344C32.2171 80.8245 31.8871 80.7178 31.5525 80.7332L25.129 81.0364L21.5985 75.6617C21.4144 75.3814 21.1341 75.1776 20.8103 75.089L14.6075 73.3925L12.9109 67.1897C12.8224 66.866 12.6188 66.5859 12.3383 66.4014L6.96356 62.871L7.26675 56.4475C7.28256 56.1121 7.17548 55.7828 6.96562 55.5211L2.94478 50.5025L5.21817 44.487C5.33676 44.1732 5.33676 43.8267 5.21817 43.5128L2.94478 37.4974L6.96562 32.4788C7.17548 32.217 7.28256 31.8876 7.26675 31.5524L6.96356 25.1289L12.3383 21.5984C12.6186 21.4144 12.8224 21.134 12.9109 20.8102L14.6075 14.6074L20.8103 12.9108C21.1339 12.8223 21.4141 12.6187 21.5985 12.3382L25.129 6.96345L31.5525 7.26664C31.8873 7.28228 32.2171 7.17537 32.4789 6.96551L37.4975 2.94467L43.5129 5.21806C43.8269 5.33666 44.1733 5.33666 44.4871 5.21806L50.5025 2.94467L55.5211 6.96551C55.7829 7.17555 56.1125 7.28245 56.4475 7.26664L62.871 6.96345L66.4015 12.3382C66.5855 12.6185 66.8659 12.8223 67.1897 12.9108L73.3925 14.6074L75.0891 20.8102C75.1776 21.1339 75.3812 21.414 75.6617 21.5984L81.0364 25.1289L80.7333 31.5524C80.7174 31.8877 80.8245 32.217 81.0344 32.4788L85.0552 37.4974L82.7818 43.5128C82.6634 43.8269 82.6634 44.1732 82.782 44.487Z" fill="white"/>
<path d="M69.8902 20.208C69.5473 19.8347 69.1917 19.4634 68.8326 19.1045C68.4736 18.7457 68.1025 18.3899 67.7292 18.047C67.1687 17.5324 66.2971 17.5695 65.7824 18.1302C65.2678 18.6907 65.3049 19.5624 65.8656 20.077C66.2098 20.3932 66.5526 20.7215 66.8839 21.0529C67.2151 21.3841 67.5436 21.727 67.86 22.0714C68.1317 22.3674 68.503 22.5175 68.8754 22.5175C69.2084 22.5175 69.5423 22.3975 69.8068 22.1546C70.3675 21.6402 70.4048 20.7685 69.8902 20.208Z" fill="white"/>
<path d="M62.8361 14.287C56.1914 10.0538 48.1913 8.17242 40.3104 8.98831C32.3139 9.81675 24.7737 13.4093 19.0785 19.1044C12.8107 25.3721 9.16149 33.6984 8.80296 42.5495C8.44667 51.3485 11.361 59.8913 17.0093 66.6041C17.2817 66.9279 17.6715 67.0948 18.0644 67.0948C18.3776 67.0948 18.6925 66.9886 18.9508 66.7713C19.5329 66.2813 19.6079 65.4121 19.118 64.83C13.9135 58.6444 11.2281 50.7715 11.5564 42.6612C11.8867 34.5037 15.25 26.8298 21.0269 21.0531C26.2759 15.8038 33.2252 12.4927 40.5941 11.7294C47.8601 10.9766 55.2329 12.7106 61.3552 16.6111C61.9972 17.02 62.8486 16.8313 63.2575 16.1895C63.6666 15.5476 63.4777 14.6959 62.8361 14.287Z" fill="white"/>
<path d="M73.6503 25.1011C73.2414 24.4591 72.3892 24.2704 71.7478 24.6793C71.1059 25.0882 70.9173 25.94 71.3262 26.5816C75.2267 32.7041 76.9604 40.0772 76.208 47.3427C75.4447 54.7117 72.1335 61.6608 66.8844 66.9102C61.1076 72.6869 53.4337 76.0503 45.2763 76.3807C37.1675 76.7103 29.293 74.0238 23.1076 68.8194C22.5254 68.3294 21.6563 68.4043 21.1663 68.9866C20.6762 69.5688 20.7512 70.4379 21.3335 70.9279C27.6793 76.2672 35.6594 79.1637 43.9464 79.1635C44.4257 79.1635 44.907 79.1537 45.3882 79.1343C54.2393 78.7759 62.5654 75.1267 68.8333 68.8589C74.5286 63.1637 78.1213 55.6233 78.9494 47.6268C79.7654 39.7453 77.8836 31.7456 73.6503 25.1011Z" fill="white"/>
</svg>
