<svg width="91" height="91" viewBox="0 0 91 91" fill="none" xmlns="http://www.w3.org/2000/svg">
<mask id="path-1-inside-1" fill="white">
<path d="M85.8629 0C83.0302 0 80.7258 2.30435 80.7258 5.1371V10.2742C80.7258 15.9382 76.1156 20.5484 70.4516 20.5484H69.386C71.8328 18.3952 73.3871 15.2498 73.3871 11.7419C73.3871 5.26773 68.1194 0 61.6452 0C55.171 0 49.9032 5.26773 49.9032 11.7419C49.9032 15.4084 51.5941 18.6844 54.2345 20.8405C46.7667 22.2539 41.0968 28.8191 41.0968 36.6936V41.0968H36.6936V32.2903H29.1919C31.1015 30.4234 32.2903 27.8255 32.2903 24.9516C32.2903 21.592 30.623 18.4392 27.8871 16.5297V11.7419H30.8226V8.80645H13.2097V11.7419H16.1452V16.5297C13.4093 18.4392 11.7419 21.592 11.7419 24.9516C11.7419 27.8255 12.9308 30.4234 14.8403 32.2903H10.2742C7.03636 32.2903 4.40323 34.9235 4.40323 38.1613C4.40323 39.2357 4.71439 40.2293 5.21929 41.0968H2.93548C1.31656 41.0968 0 42.4133 0 44.0323V46.9677C0 48.5867 1.31656 49.9032 2.93548 49.9032V91H57.2419C59.0047 91 60.5678 90.2045 61.6452 88.9716C62.7225 90.2045 64.2856 91 66.0484 91C69.2862 91 71.9194 88.3669 71.9194 85.129V69.7486C73.1625 69.2627 73.9566 68.8723 74.0432 68.8283L74.8548 68.4232V30.5437C84.2822 28.2628 91 19.8145 91 10.01V5.1371C91 2.30435 88.6956 0 85.8629 0ZM61.516 28.4463L57.1774 23.4868C57.1994 23.4868 57.2199 23.4839 57.2419 23.4839H65.9823L61.516 28.4463ZM52.8387 11.7419C52.8387 6.88518 56.7884 2.93548 61.6452 2.93548C66.5019 2.93548 70.4516 6.88518 70.4516 11.7419C70.4516 16.5987 66.5019 20.5484 61.6452 20.5484C56.7884 20.5484 52.8387 16.5987 52.8387 11.7419ZM44.0323 36.6936C44.0323 30.6347 48.1361 25.5299 53.7061 23.9785L59.5375 30.6435L57.2419 33.1945V68.4672C54.6969 67.9168 52.4997 67.0611 51.371 66.5724V30.8226H48.4355V51.371C46.0078 51.371 44.0323 49.3954 44.0323 46.9677V36.6936ZM48.4355 58.7097H39.629C38.8188 58.7097 38.1613 58.0521 38.1613 57.2419V55.7742H48.4355V58.7097ZM49.2471 68.8298C49.3352 68.8738 50.1293 69.2627 51.371 69.75V85.129C51.371 86.2034 51.6821 87.1971 52.187 88.0645H32.2903V67.5161H48.4355V68.4232L49.2471 68.8298ZM44.0778 52.8387H35.2258V57.2419C35.2258 59.6696 37.2014 61.6452 39.629 61.6452H48.4355V64.5806H32.2903V49.9032H41.7191C42.2357 51.0789 43.0591 52.0799 44.0778 52.8387ZM14.6774 24.9516C14.6774 22.3464 16.0835 19.9129 18.3482 18.6036L19.0806 18.1795V11.7419H24.9516V18.1795L25.684 18.6036C27.9487 19.9129 29.3548 22.3464 29.3548 24.9516C29.3548 28.9982 26.0627 32.2903 22.0161 32.2903C17.9696 32.2903 14.6774 28.9982 14.6774 24.9516ZM7.33871 38.1613C7.33871 36.5424 8.65527 35.2258 10.2742 35.2258H33.7581V41.0968H10.2742C8.65527 41.0968 7.33871 39.7802 7.33871 38.1613ZM2.93548 44.0323H41.0968V46.9677H2.93548V44.0323ZM29.3548 49.9032V64.5806H5.87097V49.9032H29.3548ZM5.87097 67.5161H29.3548V88.0645H5.87097V67.5161ZM57.2419 88.0645C55.623 88.0645 54.3065 86.748 54.3065 85.129V70.7525C56.0384 71.2618 58.0712 71.708 60.1774 71.8592V85.129C60.1774 86.748 58.8609 88.0645 57.2419 88.0645ZM68.9839 85.129C68.9839 86.748 67.6673 88.0645 66.0484 88.0645C64.4295 88.0645 63.1129 86.748 63.1129 85.129V71.8592C65.2191 71.708 67.2519 71.2618 68.9839 70.7525V85.129ZM88.0645 10.0085C88.0645 18.8076 81.7811 26.3357 73.1244 27.9106L71.9194 28.1293V66.5738C70.1742 67.3312 65.8781 68.9839 61.6452 68.9839C61.1564 68.9839 60.6647 68.9575 60.1774 68.9164V34.3217L69.9306 23.4839H70.4516C77.736 23.4839 83.6613 17.5586 83.6613 10.2742V5.1371C83.6613 3.92327 84.6491 2.93548 85.8629 2.93548C87.0767 2.93548 88.0645 3.92327 88.0645 5.1371V10.0085Z"/>
<path d="M13.2097 61.6452H22.0161C24.4438 61.6452 26.4194 59.6696 26.4194 57.2419V52.8387H8.80645V57.2419C8.80645 59.6696 10.782 61.6452 13.2097 61.6452ZM11.7419 55.7742H23.4839V57.2419C23.4839 58.0521 22.8263 58.7097 22.0161 58.7097H13.2097C12.3995 58.7097 11.7419 58.0521 11.7419 57.2419V55.7742Z"/>
<path d="M8.80645 82.1936H11.7419V85.129H8.80645V82.1936Z"/>
<path d="M8.80645 76.3226H11.7419V79.2581H8.80645V76.3226Z"/>
<path d="M8.80645 70.4516H11.7419V73.3871H8.80645V70.4516Z"/>
<path d="M63.1129 35.2258H66.0484V38.1613H63.1129V35.2258Z"/>
<path d="M63.1129 41.0968H66.0484V44.0323H63.1129V41.0968Z"/>
<path d="M63.1129 46.9677H66.0484V49.9032H63.1129V46.9677Z"/>
<path d="M63.1129 52.8387H66.0484V55.7742H63.1129V52.8387Z"/>
<path d="M63.1129 58.7097H66.0484V61.6452H63.1129V58.7097Z"/>
</mask>
<path d="M85.8629 0C83.0302 0 80.7258 2.30435 80.7258 5.1371V10.2742C80.7258 15.9382 76.1156 20.5484 70.4516 20.5484H69.386C71.8328 18.3952 73.3871 15.2498 73.3871 11.7419C73.3871 5.26773 68.1194 0 61.6452 0C55.171 0 49.9032 5.26773 49.9032 11.7419C49.9032 15.4084 51.5941 18.6844 54.2345 20.8405C46.7667 22.2539 41.0968 28.8191 41.0968 36.6936V41.0968H36.6936V32.2903H29.1919C31.1015 30.4234 32.2903 27.8255 32.2903 24.9516C32.2903 21.592 30.623 18.4392 27.8871 16.5297V11.7419H30.8226V8.80645H13.2097V11.7419H16.1452V16.5297C13.4093 18.4392 11.7419 21.592 11.7419 24.9516C11.7419 27.8255 12.9308 30.4234 14.8403 32.2903H10.2742C7.03636 32.2903 4.40323 34.9235 4.40323 38.1613C4.40323 39.2357 4.71439 40.2293 5.21929 41.0968H2.93548C1.31656 41.0968 0 42.4133 0 44.0323V46.9677C0 48.5867 1.31656 49.9032 2.93548 49.9032V91H57.2419C59.0047 91 60.5678 90.2045 61.6452 88.9716C62.7225 90.2045 64.2856 91 66.0484 91C69.2862 91 71.9194 88.3669 71.9194 85.129V69.7486C73.1625 69.2627 73.9566 68.8723 74.0432 68.8283L74.8548 68.4232V30.5437C84.2822 28.2628 91 19.8145 91 10.01V5.1371C91 2.30435 88.6956 0 85.8629 0ZM61.516 28.4463L57.1774 23.4868C57.1994 23.4868 57.2199 23.4839 57.2419 23.4839H65.9823L61.516 28.4463ZM52.8387 11.7419C52.8387 6.88518 56.7884 2.93548 61.6452 2.93548C66.5019 2.93548 70.4516 6.88518 70.4516 11.7419C70.4516 16.5987 66.5019 20.5484 61.6452 20.5484C56.7884 20.5484 52.8387 16.5987 52.8387 11.7419ZM44.0323 36.6936C44.0323 30.6347 48.1361 25.5299 53.7061 23.9785L59.5375 30.6435L57.2419 33.1945V68.4672C54.6969 67.9168 52.4997 67.0611 51.371 66.5724V30.8226H48.4355V51.371C46.0078 51.371 44.0323 49.3954 44.0323 46.9677V36.6936ZM48.4355 58.7097H39.629C38.8188 58.7097 38.1613 58.0521 38.1613 57.2419V55.7742H48.4355V58.7097ZM49.2471 68.8298C49.3352 68.8738 50.1293 69.2627 51.371 69.75V85.129C51.371 86.2034 51.6821 87.1971 52.187 88.0645H32.2903V67.5161H48.4355V68.4232L49.2471 68.8298ZM44.0778 52.8387H35.2258V57.2419C35.2258 59.6696 37.2014 61.6452 39.629 61.6452H48.4355V64.5806H32.2903V49.9032H41.7191C42.2357 51.0789 43.0591 52.0799 44.0778 52.8387ZM14.6774 24.9516C14.6774 22.3464 16.0835 19.9129 18.3482 18.6036L19.0806 18.1795V11.7419H24.9516V18.1795L25.684 18.6036C27.9487 19.9129 29.3548 22.3464 29.3548 24.9516C29.3548 28.9982 26.0627 32.2903 22.0161 32.2903C17.9696 32.2903 14.6774 28.9982 14.6774 24.9516ZM7.33871 38.1613C7.33871 36.5424 8.65527 35.2258 10.2742 35.2258H33.7581V41.0968H10.2742C8.65527 41.0968 7.33871 39.7802 7.33871 38.1613ZM2.93548 44.0323H41.0968V46.9677H2.93548V44.0323ZM29.3548 49.9032V64.5806H5.87097V49.9032H29.3548ZM5.87097 67.5161H29.3548V88.0645H5.87097V67.5161ZM57.2419 88.0645C55.623 88.0645 54.3065 86.748 54.3065 85.129V70.7525C56.0384 71.2618 58.0712 71.708 60.1774 71.8592V85.129C60.1774 86.748 58.8609 88.0645 57.2419 88.0645ZM68.9839 85.129C68.9839 86.748 67.6673 88.0645 66.0484 88.0645C64.4295 88.0645 63.1129 86.748 63.1129 85.129V71.8592C65.2191 71.708 67.2519 71.2618 68.9839 70.7525V85.129ZM88.0645 10.0085C88.0645 18.8076 81.7811 26.3357 73.1244 27.9106L71.9194 28.1293V66.5738C70.1742 67.3312 65.8781 68.9839 61.6452 68.9839C61.1564 68.9839 60.6647 68.9575 60.1774 68.9164V34.3217L69.9306 23.4839H70.4516C77.736 23.4839 83.6613 17.5586 83.6613 10.2742V5.1371C83.6613 3.92327 84.6491 2.93548 85.8629 2.93548C87.0767 2.93548 88.0645 3.92327 88.0645 5.1371V10.0085Z" fill="white"/>
<path d="M13.2097 61.6452H22.0161C24.4438 61.6452 26.4194 59.6696 26.4194 57.2419V52.8387H8.80645V57.2419C8.80645 59.6696 10.782 61.6452 13.2097 61.6452ZM11.7419 55.7742H23.4839V57.2419C23.4839 58.0521 22.8263 58.7097 22.0161 58.7097H13.2097C12.3995 58.7097 11.7419 58.0521 11.7419 57.2419V55.7742Z" fill="white"/>
<path d="M8.80645 82.1936H11.7419V85.129H8.80645V82.1936Z" fill="white"/>
<path d="M8.80645 76.3226H11.7419V79.2581H8.80645V76.3226Z" fill="white"/>
<path d="M8.80645 70.4516H11.7419V73.3871H8.80645V70.4516Z" fill="white"/>
<path d="M63.1129 35.2258H66.0484V38.1613H63.1129V35.2258Z" fill="white"/>
<path d="M63.1129 41.0968H66.0484V44.0323H63.1129V41.0968Z" fill="white"/>
<path d="M63.1129 46.9677H66.0484V49.9032H63.1129V46.9677Z" fill="white"/>
<path d="M63.1129 52.8387H66.0484V55.7742H63.1129V52.8387Z" fill="white"/>
<path d="M63.1129 58.7097H66.0484V61.6452H63.1129V58.7097Z" fill="white"/>
<path d="M85.8629 0C83.0302 0 80.7258 2.30435 80.7258 5.1371V10.2742C80.7258 15.9382 76.1156 20.5484 70.4516 20.5484H69.386C71.8328 18.3952 73.3871 15.2498 73.3871 11.7419C73.3871 5.26773 68.1194 0 61.6452 0C55.171 0 49.9032 5.26773 49.9032 11.7419C49.9032 15.4084 51.5941 18.6844 54.2345 20.8405C46.7667 22.2539 41.0968 28.8191 41.0968 36.6936V41.0968H36.6936V32.2903H29.1919C31.1015 30.4234 32.2903 27.8255 32.2903 24.9516C32.2903 21.592 30.623 18.4392 27.8871 16.5297V11.7419H30.8226V8.80645H13.2097V11.7419H16.1452V16.5297C13.4093 18.4392 11.7419 21.592 11.7419 24.9516C11.7419 27.8255 12.9308 30.4234 14.8403 32.2903H10.2742C7.03636 32.2903 4.40323 34.9235 4.40323 38.1613C4.40323 39.2357 4.71439 40.2293 5.21929 41.0968H2.93548C1.31656 41.0968 0 42.4133 0 44.0323V46.9677C0 48.5867 1.31656 49.9032 2.93548 49.9032V91H57.2419C59.0047 91 60.5678 90.2045 61.6452 88.9716C62.7225 90.2045 64.2856 91 66.0484 91C69.2862 91 71.9194 88.3669 71.9194 85.129V69.7486C73.1625 69.2627 73.9566 68.8723 74.0432 68.8283L74.8548 68.4232V30.5437C84.2822 28.2628 91 19.8145 91 10.01V5.1371C91 2.30435 88.6956 0 85.8629 0ZM61.516 28.4463L57.1774 23.4868C57.1994 23.4868 57.2199 23.4839 57.2419 23.4839H65.9823L61.516 28.4463ZM52.8387 11.7419C52.8387 6.88518 56.7884 2.93548 61.6452 2.93548C66.5019 2.93548 70.4516 6.88518 70.4516 11.7419C70.4516 16.5987 66.5019 20.5484 61.6452 20.5484C56.7884 20.5484 52.8387 16.5987 52.8387 11.7419ZM44.0323 36.6936C44.0323 30.6347 48.1361 25.5299 53.7061 23.9785L59.5375 30.6435L57.2419 33.1945V68.4672C54.6969 67.9168 52.4997 67.0611 51.371 66.5724V30.8226H48.4355V51.371C46.0078 51.371 44.0323 49.3954 44.0323 46.9677V36.6936ZM48.4355 58.7097H39.629C38.8188 58.7097 38.1613 58.0521 38.1613 57.2419V55.7742H48.4355V58.7097ZM49.2471 68.8298C49.3352 68.8738 50.1293 69.2627 51.371 69.75V85.129C51.371 86.2034 51.6821 87.1971 52.187 88.0645H32.2903V67.5161H48.4355V68.4232L49.2471 68.8298ZM44.0778 52.8387H35.2258V57.2419C35.2258 59.6696 37.2014 61.6452 39.629 61.6452H48.4355V64.5806H32.2903V49.9032H41.7191C42.2357 51.0789 43.0591 52.0799 44.0778 52.8387ZM14.6774 24.9516C14.6774 22.3464 16.0835 19.9129 18.3482 18.6036L19.0806 18.1795V11.7419H24.9516V18.1795L25.684 18.6036C27.9487 19.9129 29.3548 22.3464 29.3548 24.9516C29.3548 28.9982 26.0627 32.2903 22.0161 32.2903C17.9696 32.2903 14.6774 28.9982 14.6774 24.9516ZM7.33871 38.1613C7.33871 36.5424 8.65527 35.2258 10.2742 35.2258H33.7581V41.0968H10.2742C8.65527 41.0968 7.33871 39.7802 7.33871 38.1613ZM2.93548 44.0323H41.0968V46.9677H2.93548V44.0323ZM29.3548 49.9032V64.5806H5.87097V49.9032H29.3548ZM5.87097 67.5161H29.3548V88.0645H5.87097V67.5161ZM57.2419 88.0645C55.623 88.0645 54.3065 86.748 54.3065 85.129V70.7525C56.0384 71.2618 58.0712 71.708 60.1774 71.8592V85.129C60.1774 86.748 58.8609 88.0645 57.2419 88.0645ZM68.9839 85.129C68.9839 86.748 67.6673 88.0645 66.0484 88.0645C64.4295 88.0645 63.1129 86.748 63.1129 85.129V71.8592C65.2191 71.708 67.2519 71.2618 68.9839 70.7525V85.129ZM88.0645 10.0085C88.0645 18.8076 81.7811 26.3357 73.1244 27.9106L71.9194 28.1293V66.5738C70.1742 67.3312 65.8781 68.9839 61.6452 68.9839C61.1564 68.9839 60.6647 68.9575 60.1774 68.9164V34.3217L69.9306 23.4839H70.4516C77.736 23.4839 83.6613 17.5586 83.6613 10.2742V5.1371C83.6613 3.92327 84.6491 2.93548 85.8629 2.93548C87.0767 2.93548 88.0645 3.92327 88.0645 5.1371V10.0085Z" stroke="#03428D" mask="url(#path-1-inside-1)"/>
<path d="M13.2097 61.6452H22.0161C24.4438 61.6452 26.4194 59.6696 26.4194 57.2419V52.8387H8.80645V57.2419C8.80645 59.6696 10.782 61.6452 13.2097 61.6452ZM11.7419 55.7742H23.4839V57.2419C23.4839 58.0521 22.8263 58.7097 22.0161 58.7097H13.2097C12.3995 58.7097 11.7419 58.0521 11.7419 57.2419V55.7742Z" stroke="#03428D" mask="url(#path-1-inside-1)"/>
<path d="M8.80645 82.1936H11.7419V85.129H8.80645V82.1936Z" stroke="#03428D" mask="url(#path-1-inside-1)"/>
<path d="M8.80645 76.3226H11.7419V79.2581H8.80645V76.3226Z" stroke="#03428D" mask="url(#path-1-inside-1)"/>
<path d="M8.80645 70.4516H11.7419V73.3871H8.80645V70.4516Z" stroke="#03428D" mask="url(#path-1-inside-1)"/>
<path d="M63.1129 35.2258H66.0484V38.1613H63.1129V35.2258Z" stroke="#03428D" mask="url(#path-1-inside-1)"/>
<path d="M63.1129 41.0968H66.0484V44.0323H63.1129V41.0968Z" stroke="#03428D" mask="url(#path-1-inside-1)"/>
<path d="M63.1129 46.9677H66.0484V49.9032H63.1129V46.9677Z" stroke="#03428D" mask="url(#path-1-inside-1)"/>
<path d="M63.1129 52.8387H66.0484V55.7742H63.1129V52.8387Z" stroke="#03428D" mask="url(#path-1-inside-1)"/>
<path d="M63.1129 58.7097H66.0484V61.6452H63.1129V58.7097Z" stroke="#03428D" mask="url(#path-1-inside-1)"/>
</svg>
