<svg width="84" height="91" viewBox="0 0 84 91" fill="none" xmlns="http://www.w3.org/2000/svg">
<mask id="path-1-inside-1" fill="white">
<path d="M75.3401 33.1149L83.7606 18.3657C84.0798 17.8061 84.0798 17.1167 83.7606 16.5571L74.8245 0.903947C74.5046 0.344361 73.9149 0 73.2758 0H55.4037C54.7646 0 54.1749 0.344361 53.855 0.903947L45.4359 15.6531H29.6102L24.7526 7.40653C23.5773 5.41118 20.5032 7.26004 21.6799 9.25747L26.5217 17.4777L18.6271 31.3056H9.15143C6.85512 31.3056 6.85169 34.9228 9.15143 34.9228H18.6271L25.4988 46.9587H10.7242C10.0851 46.9587 9.49468 47.3038 9.17546 47.8634L0.239414 63.5165C-0.0798045 64.0761 -0.0798045 64.7655 0.239414 65.3251L8.65167 80.0604L3.8071 88.2841C2.63527 90.2746 5.69358 92.1491 6.87984 90.1357L11.7416 81.8815H27.5755L32.4365 90.1343C33.6221 92.1484 36.6811 90.2732 35.5092 88.2834L30.6667 80.0625L39.0804 65.3251C39.3996 64.7655 39.3996 64.0761 39.0804 63.5165L31.693 50.5759H45.4345L53.3292 64.4052L48.4866 72.6268C47.3141 74.6166 50.3724 76.4918 51.5587 74.4777L56.4184 66.229H72.2914L77.1154 74.4736C78.2961 76.4911 81.3592 74.6242 80.1936 72.6317L75.3641 64.3781L83.7599 49.672C84.0791 49.1124 84.0791 48.423 83.7599 47.8634L75.3401 33.1149ZM56.4362 3.61718H72.2433L80.1469 17.4617L72.2433 31.3063H56.4362L48.5326 17.4617L56.4362 3.61718ZM29.6281 19.2703H45.4352L53.3388 33.1142L45.4352 46.9587H29.6288L21.7245 33.1149L29.6281 19.2703ZM27.5631 78.265H11.7567L3.8531 64.4205L11.7567 50.5759H27.5631L35.4667 64.4205L27.5631 78.265ZM73.2738 60.8061L69.301 54.0181C68.1319 52.0193 65.0524 53.8584 66.2235 55.86L70.1743 62.6119H56.4355L48.532 48.768L56.4355 34.9228H72.2426L80.1462 48.7673L73.2738 60.8061Z"/>
<path d="M64.3398 46.9587C63.3677 46.9587 62.5515 47.7835 62.5515 48.7673C62.5522 49.7497 63.3684 50.5759 64.3398 50.5759C65.2837 50.5759 66.0828 49.7976 66.1246 48.8465C66.1693 47.8342 65.3434 46.9587 64.3398 46.9587Z"/>
<path d="M1.97074 34.9228C2.94213 34.9228 3.75905 34.0966 3.75905 33.1142C3.75905 32.1318 2.94213 31.3056 1.97074 31.3056C1.02682 31.3056 0.227743 32.0832 0.185867 33.035C0.141932 34.0466 0.96778 34.9228 1.97074 34.9228Z"/>
<path d="M6.91965 24.2934C7.70431 24.7537 9.38827 24.5711 9.38827 23.37V19.5647H11.686V23.37C11.686 24.9405 14.7065 24.9342 14.7065 23.37V13.5224C14.7065 11.9651 11.686 11.9651 11.686 13.5224V16.9341H9.38827V13.5224C9.38827 11.9651 6.36771 11.9651 6.36771 13.5224V23.37C6.36771 23.8706 7.04391 24.3663 6.91965 24.2934C7.19082 24.4531 6.56405 24.0858 6.91965 24.2934C7.70362 24.7537 6.56405 24.0858 6.91965 24.2934Z"/>
<path d="M67.4448 71.0411C65.9256 69.7206 63.1439 69.7143 61.6281 71.0425C60.8744 71.7027 60.492 72.7275 60.492 74.0882V78.315C60.492 79.6765 60.8744 80.7012 61.6281 81.3615C63.1446 82.6896 65.9269 82.6827 67.4448 81.3629C68.2047 80.7026 68.5905 79.6772 68.5905 78.315V74.0882C68.5905 72.7268 68.2047 71.7013 67.4448 71.0411C66.7088 70.4009 68.2047 71.7013 67.4448 71.0411ZM63.5119 74.0882C63.5119 72.4949 65.57 72.4984 65.57 74.0882V78.315C65.57 79.9049 63.5119 79.9084 63.5119 78.315V74.0882Z"/>
<path d="M34.6903 11.9041C36.2136 13.2509 38.9053 13.2155 40.4595 11.9395C41.2524 11.2882 41.654 10.4127 41.654 9.33662C41.654 7.55233 38.7591 7.22324 38.6341 8.96241C38.5621 10.4954 36.576 10.3989 36.576 8.86729V4.64054C36.576 3.1895 38.5216 2.99511 38.6341 4.4274C38.698 6.14989 41.654 5.85136 41.654 4.04971C41.654 3.00969 41.2497 2.16197 40.452 1.53088C38.884 0.29229 36.2191 0.268685 34.6992 1.60169C33.9406 2.2675 33.5555 3.28948 33.5555 4.64054V8.86729C33.5555 10.217 33.9372 11.2389 34.6903 11.9041Z"/>
</mask>
<path d="M75.3401 33.1149L83.7606 18.3657C84.0798 17.8061 84.0798 17.1167 83.7606 16.5571L74.8245 0.903947C74.5046 0.344361 73.9149 0 73.2758 0H55.4037C54.7646 0 54.1749 0.344361 53.855 0.903947L45.4359 15.6531H29.6102L24.7526 7.40653C23.5773 5.41118 20.5032 7.26004 21.6799 9.25747L26.5217 17.4777L18.6271 31.3056H9.15143C6.85512 31.3056 6.85169 34.9228 9.15143 34.9228H18.6271L25.4988 46.9587H10.7242C10.0851 46.9587 9.49468 47.3038 9.17546 47.8634L0.239414 63.5165C-0.0798045 64.0761 -0.0798045 64.7655 0.239414 65.3251L8.65167 80.0604L3.8071 88.2841C2.63527 90.2746 5.69358 92.1491 6.87984 90.1357L11.7416 81.8815H27.5755L32.4365 90.1343C33.6221 92.1484 36.6811 90.2732 35.5092 88.2834L30.6667 80.0625L39.0804 65.3251C39.3996 64.7655 39.3996 64.0761 39.0804 63.5165L31.693 50.5759H45.4345L53.3292 64.4052L48.4866 72.6268C47.3141 74.6166 50.3724 76.4918 51.5587 74.4777L56.4184 66.229H72.2914L77.1154 74.4736C78.2961 76.4911 81.3592 74.6242 80.1936 72.6317L75.3641 64.3781L83.7599 49.672C84.0791 49.1124 84.0791 48.423 83.7599 47.8634L75.3401 33.1149ZM56.4362 3.61718H72.2433L80.1469 17.4617L72.2433 31.3063H56.4362L48.5326 17.4617L56.4362 3.61718ZM29.6281 19.2703H45.4352L53.3388 33.1142L45.4352 46.9587H29.6288L21.7245 33.1149L29.6281 19.2703ZM27.5631 78.265H11.7567L3.8531 64.4205L11.7567 50.5759H27.5631L35.4667 64.4205L27.5631 78.265ZM73.2738 60.8061L69.301 54.0181C68.1319 52.0193 65.0524 53.8584 66.2235 55.86L70.1743 62.6119H56.4355L48.532 48.768L56.4355 34.9228H72.2426L80.1462 48.7673L73.2738 60.8061Z" fill="white"/>
<path d="M64.3398 46.9587C63.3677 46.9587 62.5515 47.7835 62.5515 48.7673C62.5522 49.7497 63.3684 50.5759 64.3398 50.5759C65.2837 50.5759 66.0828 49.7976 66.1246 48.8465C66.1693 47.8342 65.3434 46.9587 64.3398 46.9587Z" fill="white"/>
<path d="M1.97074 34.9228C2.94213 34.9228 3.75905 34.0966 3.75905 33.1142C3.75905 32.1318 2.94213 31.3056 1.97074 31.3056C1.02682 31.3056 0.227743 32.0832 0.185867 33.035C0.141932 34.0466 0.96778 34.9228 1.97074 34.9228Z" fill="white"/>
<path d="M6.91965 24.2934C7.70431 24.7537 9.38827 24.5711 9.38827 23.37V19.5647H11.686V23.37C11.686 24.9405 14.7065 24.9342 14.7065 23.37V13.5224C14.7065 11.9651 11.686 11.9651 11.686 13.5224V16.9341H9.38827V13.5224C9.38827 11.9651 6.36771 11.9651 6.36771 13.5224V23.37C6.36771 23.8706 7.04391 24.3663 6.91965 24.2934C7.19082 24.4531 6.56405 24.0858 6.91965 24.2934C7.70362 24.7537 6.56405 24.0858 6.91965 24.2934Z" fill="white"/>
<path d="M67.4448 71.0411C65.9256 69.7206 63.1439 69.7143 61.6281 71.0425C60.8744 71.7027 60.492 72.7275 60.492 74.0882V78.315C60.492 79.6765 60.8744 80.7012 61.6281 81.3615C63.1446 82.6896 65.9269 82.6827 67.4448 81.3629C68.2047 80.7026 68.5905 79.6772 68.5905 78.315V74.0882C68.5905 72.7268 68.2047 71.7013 67.4448 71.0411C66.7088 70.4009 68.2047 71.7013 67.4448 71.0411ZM63.5119 74.0882C63.5119 72.4949 65.57 72.4984 65.57 74.0882V78.315C65.57 79.9049 63.5119 79.9084 63.5119 78.315V74.0882Z" fill="white"/>
<path d="M34.6903 11.9041C36.2136 13.2509 38.9053 13.2155 40.4595 11.9395C41.2524 11.2882 41.654 10.4127 41.654 9.33662C41.654 7.55233 38.7591 7.22324 38.6341 8.96241C38.5621 10.4954 36.576 10.3989 36.576 8.86729V4.64054C36.576 3.1895 38.5216 2.99511 38.6341 4.4274C38.698 6.14989 41.654 5.85136 41.654 4.04971C41.654 3.00969 41.2497 2.16197 40.452 1.53088C38.884 0.29229 36.2191 0.268685 34.6992 1.60169C33.9406 2.2675 33.5555 3.28948 33.5555 4.64054V8.86729C33.5555 10.217 33.9372 11.2389 34.6903 11.9041Z" fill="white"/>
<path d="M75.3401 33.1149L74.9059 32.867L74.7644 33.1149L74.9059 33.3628L75.3401 33.1149ZM83.7606 18.3657L84.1948 18.6136L84.1949 18.6134L83.7606 18.3657ZM83.7606 16.5571L84.1949 16.3093L84.1948 16.3092L83.7606 16.5571ZM74.8245 0.903947L75.2588 0.656058L75.2586 0.655795L74.8245 0.903947ZM53.855 0.903947L53.4209 0.655795L53.4208 0.656077L53.855 0.903947ZM45.4359 15.6531V16.1531H45.7262L45.8701 15.901L45.4359 15.6531ZM29.6102 15.6531L29.1794 15.9069L29.3244 16.1531H29.6102V15.6531ZM24.7526 7.40653L24.3218 7.66029L24.3218 7.6603L24.7526 7.40653ZM21.6799 9.25747L22.1107 9.00371L22.1107 9.00369L21.6799 9.25747ZM26.5217 17.4777L26.9559 17.7256L27.0997 17.4738L26.9525 17.2239L26.5217 17.4777ZM18.6271 31.3056V31.8056H18.9173L19.0613 31.5535L18.6271 31.3056ZM18.6271 34.9228L19.0613 34.6749L18.9173 34.4228H18.6271V34.9228ZM25.4988 46.9587V47.4587H26.3601L25.933 46.7108L25.4988 46.9587ZM9.17546 47.8634L9.60968 48.1113L9.60976 48.1111L9.17546 47.8634ZM0.239414 63.5165L-0.194811 63.2686L-0.19489 63.2688L0.239414 63.5165ZM0.239414 65.3251L-0.19489 65.5728L-0.194809 65.573L0.239414 65.3251ZM8.65167 80.0604L9.08247 80.3142L9.22966 80.0643L9.08589 79.8125L8.65167 80.0604ZM3.8071 88.2841L3.3763 88.0303L3.37623 88.0304L3.8071 88.2841ZM6.87984 90.1357L7.31062 90.3895L7.31066 90.3895L6.87984 90.1357ZM11.7416 81.8815V81.3815H11.4558L11.3107 81.6277L11.7416 81.8815ZM27.5755 81.8815L28.0063 81.6277L27.8612 81.3815H27.5755V81.8815ZM32.4365 90.1343L32.8674 89.8807L32.8673 89.8806L32.4365 90.1343ZM35.5092 88.2834L35.9401 88.0297L35.94 88.0296L35.5092 88.2834ZM30.6667 80.0625L30.2325 79.8146L30.0887 80.0664L30.2359 80.3163L30.6667 80.0625ZM39.0804 65.3251L39.5146 65.573L39.5147 65.5728L39.0804 65.3251ZM39.0804 63.5165L39.5147 63.2688L39.5146 63.2686L39.0804 63.5165ZM31.693 50.5759V50.0759H30.8319L31.2588 50.8238L31.693 50.5759ZM45.4345 50.5759L45.8687 50.328L45.7248 50.0759H45.4345V50.5759ZM53.3292 64.4052L53.76 64.6589L53.9071 64.4091L53.7634 64.1573L53.3292 64.4052ZM48.4866 72.6268L48.9174 72.8806L48.9175 72.8805L48.4866 72.6268ZM51.5587 74.4777L51.1279 74.2239L51.1279 74.224L51.5587 74.4777ZM56.4184 66.229V65.729H56.1326L55.9876 65.9752L56.4184 66.229ZM72.2914 66.229L72.7229 65.9765L72.5781 65.729H72.2914V66.229ZM77.1154 74.4736L76.6838 74.7261L76.6838 74.7261L77.1154 74.4736ZM80.1936 72.6317L80.6252 72.3792L80.6251 72.3791L80.1936 72.6317ZM75.3641 64.3781L74.9299 64.1302L74.7866 64.3812L74.9326 64.6306L75.3641 64.3781ZM83.7599 49.672L84.1941 49.9198L84.1942 49.9197L83.7599 49.672ZM83.7599 47.8634L84.1942 47.6156L84.1941 47.6155L83.7599 47.8634ZM56.4362 3.61718V3.11718H56.1459L56.002 3.36929L56.4362 3.61718ZM72.2433 3.61718L72.6776 3.36929L72.5336 3.11718H72.2433V3.61718ZM80.1469 17.4617L80.5811 17.7096L80.7226 17.4617L80.5811 17.2138L80.1469 17.4617ZM72.2433 31.3063V31.8063H72.5336L72.6776 31.5542L72.2433 31.3063ZM56.4362 31.3063L56.002 31.5542L56.1459 31.8063H56.4362V31.3063ZM48.5326 17.4617L48.0984 17.2138L47.9569 17.4617L48.0984 17.7096L48.5326 17.4617ZM29.6281 19.2703V18.7703H29.3378L29.1938 19.0224L29.6281 19.2703ZM45.4352 19.2703L45.8694 19.0224L45.7255 18.7703H45.4352V19.2703ZM53.3388 33.1142L53.773 33.3621L53.9145 33.1142L53.773 32.8663L53.3388 33.1142ZM45.4352 46.9587V47.4587H45.7255L45.8694 47.2066L45.4352 46.9587ZM29.6288 46.9587L29.1945 47.2066L29.3385 47.4587H29.6288V46.9587ZM21.7245 33.1149L21.2903 32.867L21.1488 33.1149L21.2903 33.3628L21.7245 33.1149ZM27.5631 78.265V78.765H27.8534L27.9973 78.5129L27.5631 78.265ZM11.7567 78.265L11.3224 78.5129L11.4664 78.765H11.7567V78.265ZM3.8531 64.4205L3.41887 64.1726L3.27736 64.4205L3.41887 64.6683L3.8531 64.4205ZM11.7567 50.5759V50.0759H11.4664L11.3224 50.328L11.7567 50.5759ZM27.5631 50.5759L27.9973 50.328L27.8534 50.0759H27.5631V50.5759ZM35.4667 64.4205L35.9009 64.6683L36.0424 64.4205L35.9009 64.1726L35.4667 64.4205ZM73.2738 60.8061L72.8422 61.0586L73.2792 61.8051L73.708 61.0539L73.2738 60.8061ZM69.301 54.0181L68.8694 54.2706L68.8695 54.2707L69.301 54.0181ZM66.2235 55.86L65.7919 56.1125L65.792 56.1125L66.2235 55.86ZM70.1743 62.6119V63.1119H71.0461L70.6058 62.3593L70.1743 62.6119ZM56.4355 62.6119L56.0013 62.8598L56.1452 63.1119H56.4355V62.6119ZM48.532 48.768L48.0977 48.5201L47.9562 48.768L48.0977 49.0159L48.532 48.768ZM56.4355 34.9228V34.4228H56.1452L56.0013 34.6749L56.4355 34.9228ZM72.2426 34.9228L72.6769 34.6749L72.533 34.4228H72.2426V34.9228ZM80.1462 48.7673L80.5804 49.0152L80.722 48.7673L80.5804 48.5194L80.1462 48.7673ZM62.5515 48.7673H62.0515V48.7677L62.5515 48.7673ZM66.1246 48.8465L65.6251 48.8244V48.8245L66.1246 48.8465ZM0.185867 33.035L-0.31365 33.0131L-0.313662 33.0133L0.185867 33.035ZM6.91965 24.2934L7.17265 23.8621L7.17173 23.8616L6.91965 24.2934ZM9.38827 19.5647V19.0647H8.88827V19.5647H9.38827ZM11.686 19.5647H12.186V19.0647H11.686V19.5647ZM11.686 16.9341V17.4341H12.186V16.9341H11.686ZM9.38827 16.9341H8.88827V17.4341H9.38827V16.9341ZM67.4448 71.0411L67.1168 71.4184L67.1168 71.4185L67.4448 71.0411ZM61.6281 71.0425L61.9576 71.4186L61.9576 71.4185L61.6281 71.0425ZM61.6281 81.3615L61.2987 81.7376L61.2987 81.7376L61.6281 81.3615ZM67.4448 81.3629L67.1168 80.9854L67.1167 80.9856L67.4448 81.3629ZM34.6903 11.9041L35.0214 11.5295L35.0212 11.5293L34.6903 11.9041ZM40.4595 11.9395L40.7768 12.3259L40.7769 12.3258L40.4595 11.9395ZM38.6341 8.96241L38.1353 8.92657L38.1347 8.93892L38.6341 8.96241ZM38.6341 4.4274L39.1338 4.40888L39.1334 4.39853L39.1326 4.38821L38.6341 4.4274ZM40.452 1.53088L40.7622 1.13875L40.7619 1.13853L40.452 1.53088ZM34.6992 1.60169L34.3695 1.22579L34.3693 1.22591L34.6992 1.60169ZM75.7743 33.3628L84.1948 18.6136L83.3264 18.1178L74.9059 32.867L75.7743 33.3628ZM84.1949 18.6134C84.6017 17.9003 84.6017 17.0225 84.1949 16.3093L83.3263 16.8048C83.5579 17.2109 83.5579 17.7119 83.3263 18.1179L84.1949 18.6134ZM84.1948 16.3092L75.2588 0.656058L74.3903 1.15184L83.3264 16.805L84.1948 16.3092ZM75.2586 0.655795C74.8507 -0.0577511 74.0964 -0.5 73.2758 -0.5V0.5C73.7335 0.5 74.1586 0.746472 74.3905 1.1521L75.2586 0.655795ZM73.2758 -0.5H55.4037V0.5H73.2758V-0.5ZM55.4037 -0.5C54.5832 -0.5 53.8288 -0.0577497 53.4209 0.655795L54.2891 1.1521C54.521 0.746471 54.946 0.5 55.4037 0.5V-0.5ZM53.4208 0.656077L45.0016 15.4053L45.8701 15.901L54.2892 1.15182L53.4208 0.656077ZM45.4359 15.1531H29.6102V16.1531H45.4359V15.1531ZM30.041 15.3994L25.1834 7.15276L24.3218 7.6603L29.1794 15.9069L30.041 15.3994ZM25.1834 7.15278C24.8178 6.53202 24.2816 6.18268 23.6973 6.08053C23.1268 5.98081 22.5482 6.12236 22.0764 6.40632C21.6045 6.69038 21.2077 7.13593 21.024 7.6868C20.8361 8.25028 20.8833 8.89033 21.2491 9.51125L22.1107 9.00369C21.8881 8.6259 21.8784 8.2858 21.9726 8.0032C22.0711 7.70799 22.2957 7.44152 22.5921 7.2631C22.8887 7.08459 23.2254 7.01321 23.5251 7.0656C23.811 7.11557 24.0998 7.28337 24.3218 7.66029L25.1834 7.15278ZM21.2491 9.51123L26.0909 17.7315L26.9525 17.2239L22.1107 9.00371L21.2491 9.51123ZM26.0875 17.2298L18.1928 31.0577L19.0613 31.5535L26.9559 17.7256L26.0875 17.2298ZM18.6271 30.8056H9.15143V31.8056H18.6271V30.8056ZM9.15143 30.8056C8.43292 30.8056 7.86172 31.0944 7.47779 31.5476C7.1031 31.9898 6.92817 32.5616 6.92791 33.1139C6.92765 33.6663 7.10204 34.2383 7.47676 34.6807C7.86075 35.1341 8.43229 35.4228 9.15143 35.4228V34.4228C8.7207 34.4228 8.43027 34.2593 8.23986 34.0344C8.04018 33.7987 7.92775 33.4663 7.92791 33.1144C7.92808 32.7625 8.04084 32.43 8.24076 32.194C8.43145 31.9689 8.72179 31.8056 9.15143 31.8056V30.8056ZM9.15143 35.4228H18.6271V34.4228H9.15143V35.4228ZM18.1928 35.1707L25.0646 47.2066L25.933 46.7108L19.0613 34.6749L18.1928 35.1707ZM25.4988 46.4587H10.7242V47.4587H25.4988V46.4587ZM10.7242 46.4587C9.90355 46.4587 9.14837 46.9018 8.74116 47.6156L9.60976 48.1111C9.84098 47.7058 10.2666 47.4587 10.7242 47.4587V46.4587ZM8.74124 47.6155L-0.194811 63.2686L0.673638 63.7644L9.60968 48.1113L8.74124 47.6155ZM-0.19489 63.2688C-0.601703 63.9819 -0.601703 64.8597 -0.19489 65.5728L0.673717 65.0773C0.442094 64.6713 0.442094 64.1703 0.673717 63.7643L-0.19489 63.2688ZM-0.194809 65.573L8.21745 80.3083L9.08589 79.8125L0.673636 65.0772L-0.194809 65.573ZM8.22086 79.8066L3.3763 88.0303L4.23791 88.5379L9.08247 80.3142L8.22086 79.8066ZM3.37623 88.0304C3.01147 88.65 2.96478 89.2899 3.15138 89.8535C3.33389 90.4046 3.7285 90.8524 4.1995 91.1386C4.67037 91.4248 5.24899 91.5685 5.82081 91.4682C6.40649 91.3655 6.943 91.0135 7.31062 90.3895L6.44905 89.8819C6.22355 90.2646 5.93292 90.4333 5.64815 90.4832C5.34952 90.5356 5.01437 90.4637 4.71886 90.2841C4.42349 90.1046 4.1991 89.8363 4.10069 89.5391C4.00636 89.2543 4.01682 88.9134 4.23798 88.5378L3.37623 88.0304ZM7.31066 90.3895L12.1724 82.1352L11.3107 81.6277L6.44901 89.882L7.31066 90.3895ZM11.7416 82.3815H27.5755V81.3815H11.7416V82.3815ZM27.1446 82.1352L32.0057 90.3881L32.8673 89.8806L28.0063 81.6277L27.1446 82.1352ZM32.0056 90.388C32.373 91.0122 32.9095 91.3644 33.4952 91.4671C34.067 91.5674 34.6457 91.4238 35.1166 91.1376C35.5876 90.8514 35.9823 90.4036 36.1648 89.8525C36.3515 89.289 36.3049 88.6491 35.9401 88.0297L35.0784 88.5371C35.2995 88.9126 35.3099 89.2532 35.2156 89.538C35.1171 89.8352 34.8927 90.1035 34.5972 90.283C34.3017 90.4627 33.9665 90.5345 33.668 90.4822C33.3833 90.4322 33.0928 90.2636 32.8674 89.8807L32.0056 90.388ZM35.94 88.0296L31.0975 79.8087L30.2359 80.3163L35.0784 88.5372L35.94 88.0296ZM31.1009 80.3104L39.5146 65.573L38.6461 65.0772L30.2325 79.8146L31.1009 80.3104ZM39.5147 65.5728C39.9215 64.8597 39.9215 63.9819 39.5147 63.2688L38.646 63.7643C38.8777 64.1703 38.8777 64.6713 38.646 65.0773L39.5147 65.5728ZM39.5146 63.2686L32.1273 50.328L31.2588 50.8238L38.6461 63.7644L39.5146 63.2686ZM31.693 51.0759H45.4345V50.0759H31.693V51.0759ZM45.0003 50.8238L52.8949 64.6531L53.7634 64.1573L45.8687 50.328L45.0003 50.8238ZM52.8983 64.1514L48.0558 72.373L48.9175 72.8805L53.76 64.6589L52.8983 64.1514ZM48.0559 72.3729C47.6909 72.9924 47.644 73.6322 47.8305 74.1958C48.0129 74.7469 48.4075 75.1947 48.8784 75.481C49.3493 75.7672 49.9279 75.9108 50.4997 75.8105C51.0854 75.7078 51.6219 75.3556 51.9895 74.7315L51.1279 74.224C50.9023 74.6069 50.6117 74.7756 50.327 74.8256C50.0284 74.8779 49.6933 74.806 49.3978 74.6265C49.1025 74.4469 48.8782 74.1787 48.7799 73.8816C48.6856 73.5968 48.6962 73.2561 48.9174 72.8806L48.0559 72.3729ZM51.9895 74.7315L56.8492 66.4828L55.9876 65.9752L51.1279 74.2239L51.9895 74.7315ZM56.4184 66.729H72.2914V65.729H56.4184V66.729ZM71.8598 66.4815L76.6838 74.7261L77.5469 74.2211L72.7229 65.9765L71.8598 66.4815ZM76.6838 74.7261C77.0497 75.3513 77.5852 75.705 78.1706 75.8094C78.7422 75.9113 79.3212 75.7692 79.7929 75.4844C80.2646 75.1995 80.6605 74.7529 80.8446 74.2024C81.0328 73.6395 80.9881 72.9996 80.6252 72.3792L79.762 72.8841C79.9819 73.26 79.9914 73.6007 79.8962 73.8852C79.797 74.1821 79.5718 74.4497 79.2759 74.6284C78.9799 74.8072 78.6446 74.8781 78.3462 74.8249C78.0616 74.7741 77.7714 74.6046 77.5469 74.221L76.6838 74.7261ZM80.6251 72.3791L75.7957 64.1256L74.9326 64.6306L79.762 72.8842L80.6251 72.3791ZM75.7983 64.626L84.1941 49.9198L83.3257 49.4241L74.9299 64.1302L75.7983 64.626ZM84.1942 49.9197C84.601 49.2066 84.601 48.3288 84.1942 47.6156L83.3256 48.1111C83.5572 48.5171 83.5572 49.0182 83.3256 49.4242L84.1942 49.9197ZM84.1941 47.6155L75.7743 32.867L74.9059 33.3628L83.3257 48.1113L84.1941 47.6155ZM56.4362 4.11718H72.2433V3.11718H56.4362V4.11718ZM71.8091 3.86507L79.7127 17.7096L80.5811 17.2138L72.6776 3.36929L71.8091 3.86507ZM79.7127 17.2138L71.8091 31.0584L72.6776 31.5542L80.5811 17.7096L79.7127 17.2138ZM72.2433 30.8063H56.4362V31.8063H72.2433V30.8063ZM56.8704 31.0584L48.9669 17.2138L48.0984 17.7096L56.002 31.5542L56.8704 31.0584ZM48.9669 17.7096L56.8704 3.86507L56.002 3.36929L48.0984 17.2138L48.9669 17.7096ZM29.6281 19.7703H45.4352V18.7703H29.6281V19.7703ZM45.001 19.5182L52.9045 33.3621L53.773 32.8663L45.8694 19.0224L45.001 19.5182ZM52.9045 32.8663L45.001 46.7108L45.8694 47.2066L53.773 33.3621L52.9045 32.8663ZM45.4352 46.4587H29.6288V47.4587H45.4352V46.4587ZM30.063 46.7108L22.1587 32.867L21.2903 33.3628L29.1945 47.2066L30.063 46.7108ZM22.1587 33.3628L30.0623 19.5182L29.1938 19.0224L21.2903 32.867L22.1587 33.3628ZM27.5631 77.765H11.7567V78.765H27.5631V77.765ZM12.1909 78.0171L4.28732 64.1726L3.41887 64.6683L11.3224 78.5129L12.1909 78.0171ZM4.28732 64.6683L12.1909 50.8238L11.3224 50.328L3.41887 64.1726L4.28732 64.6683ZM11.7567 51.0759H27.5631V50.0759H11.7567V51.0759ZM27.1289 50.8238L35.0324 64.6683L35.9009 64.1726L27.9973 50.328L27.1289 50.8238ZM35.0324 64.1726L27.1289 78.0171L27.9973 78.5129L35.9009 64.6683L35.0324 64.1726ZM73.7053 60.5535L69.7326 53.7656L68.8695 54.2707L72.8422 61.0586L73.7053 60.5535ZM69.7326 53.7657C69.3689 53.1438 68.8339 52.7929 68.2499 52.6889C67.6797 52.5875 67.1007 52.7272 66.6281 53.0098C66.1553 53.2924 65.7573 53.7368 65.572 54.2872C65.3825 54.8502 65.4279 55.4904 65.7919 56.1125L66.6551 55.6075C66.4335 55.2288 66.4247 54.8886 66.5198 54.6062C66.619 54.3113 66.8444 54.0456 67.1413 53.8681C67.4383 53.6905 67.7752 53.6202 68.0747 53.6735C68.3603 53.7243 68.6486 53.893 68.8694 54.2706L69.7326 53.7657ZM65.792 56.1125L69.7427 62.8644L70.6058 62.3593L66.6551 55.6075L65.792 56.1125ZM70.1743 62.1119H56.4355V63.1119H70.1743V62.1119ZM56.8697 62.364L48.9662 48.5201L48.0977 49.0159L56.0013 62.8598L56.8697 62.364ZM48.9662 49.0159L56.8698 35.1706L56.0013 34.6749L48.0977 48.5201L48.9662 49.0159ZM56.4355 35.4228H72.2426V34.4228H56.4355V35.4228ZM71.8084 35.1707L79.712 49.0152L80.5804 48.5194L72.6769 34.6749L71.8084 35.1707ZM79.712 48.5194L72.8395 60.5582L73.708 61.0539L80.5804 49.0152L79.712 48.5194ZM64.3398 46.4587C63.0864 46.4587 62.0515 47.5126 62.0515 48.7673H63.0515C63.0515 48.0545 63.649 47.4587 64.3398 47.4587V46.4587ZM62.0515 48.7677C62.0523 50.0203 63.0866 51.0759 64.3398 51.0759V50.0759C63.6501 50.0759 63.052 49.4791 63.0515 48.767L62.0515 48.7677ZM64.3398 51.0759C65.5577 51.0759 66.5708 50.0804 66.6242 48.8685L65.6251 48.8245C65.5947 49.5148 65.0096 50.0759 64.3398 50.0759V51.0759ZM66.6242 48.8685C66.6811 47.5779 65.6343 46.4587 64.3398 46.4587V47.4587C65.0525 47.4587 65.6575 48.0906 65.6251 48.8244L66.6242 48.8685ZM1.97074 35.4228C3.22357 35.4228 4.25905 34.3674 4.25905 33.1142H3.25905C3.25905 33.8258 2.66068 34.4228 1.97074 34.4228V35.4228ZM4.25905 33.1142C4.25905 31.861 3.22357 30.8056 1.97074 30.8056V31.8056C2.66068 31.8056 3.25905 32.4026 3.25905 33.1142H4.25905ZM1.97074 30.8056C0.752901 30.8056 -0.260292 31.8002 -0.31365 33.0131L0.685384 33.057C0.715779 32.3661 1.30073 31.8056 1.97074 31.8056V30.8056ZM-0.313662 33.0133C-0.369664 34.3027 0.676598 35.4228 1.97074 35.4228V34.4228C1.25896 34.4228 0.653528 33.7905 0.685396 33.0567L-0.313662 33.0133ZM6.66666 24.7247C7.19103 25.0323 7.94896 25.1051 8.57689 24.9379C8.89952 24.852 9.2251 24.6932 9.47515 24.4304C9.73371 24.1586 9.88827 23.7986 9.88827 23.37H8.88827C8.88827 23.542 8.83233 23.6552 8.75064 23.7411C8.66042 23.8359 8.51597 23.9193 8.31953 23.9716C7.90932 24.0808 7.43294 24.0148 7.17265 23.8621L6.66666 24.7247ZM9.88827 23.37V19.5647H8.88827V23.37H9.88827ZM9.38827 20.0647H11.686V19.0647H9.38827V20.0647ZM11.186 19.5647V23.37H12.186V19.5647H11.186ZM11.186 23.37C11.186 23.9479 11.4736 24.3872 11.8735 24.6638C12.2583 24.9298 12.7415 25.046 13.1968 25.0455C13.652 25.045 14.1348 24.9279 14.5191 24.6619C14.9182 24.3856 15.2065 23.9469 15.2065 23.37H14.2065C14.2065 23.5752 14.1172 23.7239 13.95 23.8396C13.7679 23.9657 13.4956 24.0452 13.1957 24.0455C12.8958 24.0458 12.6239 23.9668 12.4423 23.8413C12.2758 23.7262 12.186 23.5774 12.186 23.37H11.186ZM15.2065 23.37V13.5224H14.2065V23.37H15.2065ZM15.2065 13.5224C15.2065 12.9461 14.9171 12.5089 14.5178 12.2344C14.1334 11.9702 13.6509 11.8545 13.1962 11.8545C12.7416 11.8545 12.2591 11.9702 11.8747 12.2344C11.4753 12.5089 11.186 12.9461 11.186 13.5224H12.186C12.186 13.3201 12.2742 13.1733 12.4412 13.0585C12.6231 12.9334 12.8957 12.8545 13.1962 12.8545C13.4968 12.8545 13.7693 12.9334 13.9513 13.0585C14.1183 13.1733 14.2065 13.3201 14.2065 13.5224H15.2065ZM11.186 13.5224V16.9341H12.186V13.5224H11.186ZM11.686 16.4341H9.38827V17.4341H11.686V16.4341ZM9.88827 16.9341V13.5224H8.88827V16.9341H9.88827ZM9.88827 13.5224C9.88827 12.9461 9.5989 12.5089 9.19955 12.2344C8.81517 11.9702 8.33261 11.8545 7.87799 11.8545C7.42337 11.8545 6.94082 11.9702 6.55644 12.2344C6.15708 12.5089 5.86771 12.9461 5.86771 13.5224H6.86771C6.86771 13.3201 6.95591 13.1733 7.12291 13.0585C7.30489 12.9334 7.57747 12.8545 7.87799 12.8545C8.17851 12.8545 8.4511 12.9334 8.63307 13.0585C8.80007 13.1733 8.88827 13.3201 8.88827 13.5224H9.88827ZM5.86771 13.5224V23.37H6.86771V13.5224H5.86771ZM5.86771 23.37C5.86771 23.8173 6.15185 24.1887 6.3122 24.374C6.40452 24.4806 6.4909 24.5643 6.53973 24.6111C6.57787 24.6477 6.56758 24.6385 6.555 24.6241C6.55089 24.6194 6.54224 24.6093 6.53201 24.5955C6.52536 24.5865 6.50025 24.5527 6.47821 24.5034C6.46734 24.479 6.44639 24.4275 6.43827 24.358C6.43009 24.2881 6.43077 24.1573 6.51665 24.0262C6.60687 23.8886 6.73691 23.8325 6.82471 23.8127C6.90511 23.7946 6.97054 23.801 7.00049 23.805C7.06135 23.8132 7.10597 23.8311 7.11653 23.8353C7.13398 23.8422 7.147 23.8486 7.15297 23.8516C7.15984 23.855 7.16494 23.8578 7.16749 23.8592C7.17026 23.8607 7.17209 23.8618 7.17267 23.8621L6.66664 24.7247C6.67409 24.729 6.68815 24.7372 6.70503 24.7456C6.71336 24.7498 6.72839 24.7571 6.74747 24.7647C6.75967 24.7695 6.80557 24.7878 6.86737 24.7961C6.89779 24.8002 6.9636 24.8065 7.0443 24.7883C7.1324 24.7685 7.26265 24.7123 7.35299 24.5745C7.439 24.4432 7.43972 24.3122 7.43151 24.2419C7.42335 24.1721 7.40228 24.1202 7.39121 24.0954C7.36877 24.0452 7.34293 24.0102 7.33525 23.9998C7.32398 23.9846 7.31398 23.9729 7.30822 23.9663C7.28244 23.9368 7.23972 23.8969 7.23193 23.8894C7.18893 23.8482 7.12955 23.7903 7.06835 23.7196C6.92168 23.5501 6.86771 23.4233 6.86771 23.37H5.86771ZM6.66594 24.7242C6.69994 24.7443 6.71904 24.7556 6.72765 24.7607C6.72985 24.762 6.73068 24.7625 6.73066 24.7625C6.7306 24.7624 6.73035 24.7623 6.72995 24.762C6.72961 24.7618 6.72877 24.7613 6.72764 24.7606C6.72705 24.7603 6.72616 24.7597 6.72507 24.759C6.72409 24.7584 6.72226 24.7573 6.71997 24.7558C6.71891 24.7551 6.71646 24.7535 6.7151 24.7526C6.71324 24.7514 6.70876 24.7484 6.70616 24.7466C6.70216 24.7438 6.69139 24.736 6.68469 24.731C6.6706 24.7197 6.61288 24.6633 6.57475 24.6136C6.5151 24.1781 6.9719 23.8352 7.12307 23.853C7.1498 23.8612 7.18639 23.8752 7.19665 23.8797C7.20214 23.8822 7.21097 23.8865 7.21433 23.8881C7.21662 23.8893 7.22056 23.8913 7.2222 23.8922C7.22557 23.8939 7.22821 23.8954 7.22944 23.896C7.23088 23.8968 7.23204 23.8975 7.23276 23.8979C7.23418 23.8987 7.23524 23.8993 7.23566 23.8995C7.23617 23.8998 7.23652 23.9 7.23665 23.9001C7.23691 23.9002 7.23644 23.8999 7.23472 23.899C7.22814 23.8951 7.21471 23.8873 7.19738 23.8772C7.18033 23.8672 7.16024 23.8555 7.14077 23.844C7.12129 23.8326 7.10256 23.8216 7.08821 23.8132C7.08101 23.809 7.07507 23.8055 7.07075 23.8029C7.06857 23.8016 7.067 23.8007 7.06597 23.8001C7.06545 23.7998 7.06525 23.7997 7.06527 23.7997C7.06528 23.7997 7.06545 23.7998 7.06574 23.8C7.06598 23.8001 7.0666 23.8005 7.06745 23.801C7.06796 23.8013 7.07014 23.8026 7.07298 23.8044C7.07419 23.8052 7.07759 23.8073 7.0819 23.8101C7.08419 23.8117 7.09 23.8156 7.09351 23.818C7.09953 23.8223 7.11826 23.8365 7.1307 23.8467C7.17333 23.8874 7.27429 24.4066 6.91082 24.7172C6.78187 24.7273 6.63264 24.6965 6.61103 24.6879C6.60241 24.6841 6.58927 24.6779 6.5847 24.6757C6.58186 24.6743 6.5771 24.6718 6.57517 24.6708C6.57142 24.6689 6.56851 24.6673 6.56734 24.6666C6.56587 24.6658 6.5647 24.6652 6.56401 24.6648C6.56264 24.664 6.56163 24.6635 6.56127 24.6633C6.56082 24.663 6.56052 24.6628 6.56045 24.6628C6.56031 24.6627 6.56046 24.6628 6.56103 24.6631C6.56348 24.6645 6.56856 24.6675 6.57725 24.6725C6.59433 24.6825 6.62316 24.6993 6.66758 24.7252L7.17173 23.8616C7.12724 23.8356 7.09787 23.8185 7.0801 23.8082C7.07137 23.8031 7.06487 23.7993 7.06065 23.7969C7.05955 23.7962 7.05834 23.7955 7.05714 23.7949C7.05636 23.7944 7.054 23.7931 7.05125 23.7915C7.05043 23.7911 7.04916 23.7904 7.0476 23.7895C7.04634 23.7888 7.04337 23.7872 7.03955 23.7852C7.0376 23.7842 7.03281 23.7817 7.02996 23.7803C7.02537 23.778 7.01221 23.7719 7.00359 23.7681C6.98197 23.7595 6.83273 23.7286 6.70378 23.7388C6.3403 24.0493 6.44126 24.5686 6.4839 24.6093C6.49634 24.6195 6.51508 24.6337 6.52113 24.638C6.52464 24.6404 6.53048 24.6444 6.53279 24.6459C6.53715 24.6488 6.54061 24.6509 6.54189 24.6517C6.54489 24.6536 6.54729 24.6551 6.54808 24.6556C6.55009 24.6568 6.55185 24.6578 6.55269 24.6583C6.55376 24.659 6.55484 24.6596 6.55583 24.6602C6.55782 24.6614 6.56015 24.6628 6.56265 24.6642C6.56767 24.6672 6.57416 24.671 6.58155 24.6754C6.59639 24.6841 6.61551 24.6953 6.6352 24.7068C6.65491 24.7184 6.67531 24.7303 6.69273 24.7405C6.70987 24.7505 6.72488 24.7593 6.73336 24.7642C6.73542 24.7654 6.73787 24.7668 6.74012 24.7681C6.74094 24.7686 6.74338 24.77 6.74625 24.7716C6.7471 24.772 6.74837 24.7727 6.7499 24.7736C6.75123 24.7743 6.75394 24.7758 6.75738 24.7776C6.75905 24.7784 6.76301 24.7805 6.76532 24.7817C6.7687 24.7833 6.77756 24.7876 6.78306 24.7901C6.79333 24.7947 6.82993 24.8086 6.85667 24.8168C7.00784 24.8346 7.46465 24.4917 7.405 24.0562C7.36687 24.0065 7.30914 23.9501 7.29504 23.9388C7.28833 23.9338 7.27755 23.926 7.27353 23.9232C7.2709 23.9214 7.2664 23.9183 7.26452 23.9171C7.26312 23.9162 7.26065 23.9146 7.25955 23.9139C7.25719 23.9124 7.25527 23.9111 7.25418 23.9105C7.25298 23.9097 7.25197 23.9091 7.25125 23.9087C7.24876 23.9071 7.2466 23.9058 7.24567 23.9053C7.24338 23.9039 7.24074 23.9023 7.23819 23.9008C7.22778 23.8946 7.20715 23.8825 7.17337 23.8626L6.66594 24.7242ZM6.66649 24.7246C6.76446 24.7821 6.83232 24.822 6.87677 24.8481C6.89901 24.8612 6.91531 24.8708 6.92657 24.8774C6.93221 24.8807 6.93648 24.8832 6.93956 24.885C6.943 24.8871 6.94407 24.8877 6.94389 24.8876C6.94385 24.8876 6.94294 24.887 6.94166 24.8863C6.94112 24.8859 6.93952 24.885 6.93744 24.8837C6.93633 24.883 6.93351 24.8812 6.93182 24.8801C6.92888 24.8782 6.91976 24.8722 6.91363 24.8679C6.892 24.8518 6.73315 24.2834 7.19967 23.959C7.30343 23.9695 7.41441 24.0066 7.42593 24.0123C7.43035 24.0145 7.43706 24.018 7.43935 24.0193C7.44077 24.02 7.44314 24.0213 7.44409 24.0219C7.44592 24.0229 7.44733 24.0237 7.44785 24.024C7.44852 24.0244 7.44903 24.0247 7.4493 24.0248C7.45011 24.0253 7.45042 24.0254 7.44965 24.025C7.4491 24.0247 7.44825 24.0242 7.44706 24.0235C7.44223 24.0207 7.43397 24.0159 7.42286 24.0094C7.4008 23.9965 7.36868 23.9776 7.33311 23.9568C7.26192 23.9151 7.17763 23.8656 7.13344 23.8396C7.12231 23.8331 7.1142 23.8283 7.10955 23.8255C7.10842 23.8249 7.10769 23.8244 7.10728 23.8242C7.10658 23.8238 7.10731 23.8242 7.10864 23.825C7.10906 23.8253 7.10981 23.8257 7.11076 23.8263C7.11153 23.8268 7.11339 23.8279 7.11576 23.8294C7.11694 23.8302 7.11983 23.832 7.12151 23.8331C7.12408 23.8348 7.13105 23.8395 7.13543 23.8425C7.14455 23.849 7.18368 23.8809 7.21175 23.9083C7.3288 24.3923 6.82238 24.7515 6.67727 24.7218C6.65869 24.7146 6.63343 24.7034 6.62651 24.7C6.62288 24.6982 6.61704 24.6952 6.61483 24.6941C6.61085 24.6919 6.6078 24.6903 6.60687 24.6897C6.60454 24.6885 6.60282 24.6875 6.6026 24.6873C6.60177 24.6869 6.60149 24.6867 6.60234 24.6872C6.603 24.6876 6.60402 24.6882 6.60548 24.689C6.6084 24.6907 6.61255 24.6931 6.61812 24.6964C6.62924 24.7028 6.64542 24.7123 6.66758 24.7252L7.17173 23.8616C7.14944 23.8486 7.13285 23.8389 7.12121 23.8321C7.1154 23.8288 7.11067 23.826 7.10701 23.8239C7.10519 23.8228 7.10349 23.8218 7.10198 23.821C7.10065 23.8202 7.09876 23.8191 7.09682 23.818C7.09605 23.8176 7.09391 23.8164 7.09129 23.8149C7.09021 23.8143 7.08705 23.8126 7.08298 23.8104C7.08073 23.8092 7.07485 23.8062 7.07121 23.8044C7.06426 23.801 7.03898 23.7898 7.02039 23.7825C6.87527 23.7529 6.36884 24.1121 6.48589 24.5961C6.51398 24.6235 6.55311 24.6554 6.56226 24.6619C6.56665 24.665 6.57366 24.6697 6.57626 24.6714C6.57798 24.6725 6.58091 24.6744 6.58214 24.6751C6.58462 24.6767 6.5866 24.6779 6.58754 24.6785C6.58865 24.6792 6.58958 24.6797 6.59022 24.6801C6.59243 24.6815 6.59451 24.6827 6.59561 24.6834C6.59699 24.6842 6.5985 24.6851 6.60002 24.686C6.60598 24.6895 6.61515 24.6949 6.62631 24.7015C6.67129 24.728 6.75622 24.7778 6.82747 24.8195C6.86313 24.8404 6.89554 24.8594 6.91796 24.8725C6.92909 24.8791 6.93806 24.8843 6.94378 24.8876C6.94523 24.8885 6.9466 24.8893 6.94782 24.89C6.94882 24.8906 6.95047 24.8915 6.95214 24.8925C6.95262 24.8927 6.95332 24.8931 6.95415 24.8936C6.95483 24.894 6.95636 24.8949 6.95829 24.8959C6.95928 24.8965 6.9617 24.8978 6.96315 24.8986C6.96547 24.8999 6.97221 24.9034 6.97664 24.9056C6.98818 24.9113 7.09918 24.9484 7.20294 24.959C7.66946 24.6345 7.51061 24.0661 7.48897 24.05C7.48282 24.0457 7.47368 24.0397 7.47071 24.0377C7.46899 24.0366 7.46613 24.0349 7.46498 24.0341C7.46282 24.0328 7.46109 24.0317 7.4604 24.0313C7.45882 24.0304 7.45748 24.0296 7.45688 24.0292C7.45446 24.0278 7.4512 24.0258 7.44801 24.0239C7.44446 24.0219 7.43982 24.0191 7.43403 24.0157C7.42243 24.0089 7.40586 23.9991 7.38353 23.986C7.33886 23.9597 7.27083 23.9198 7.17281 23.8622L6.66649 24.7246ZM67.7728 70.6637C66.9033 69.9079 65.7029 69.5492 64.5354 69.5485C63.368 69.5479 62.1673 69.9053 61.2986 70.6664L61.9576 71.4185C62.6048 70.8515 63.5527 70.548 64.5349 70.5485C65.517 70.5491 66.467 70.8537 67.1168 71.4184L67.7728 70.6637ZM61.2987 70.6663C60.4016 71.4521 59.992 72.6374 59.992 74.0882H60.992C60.992 72.8175 61.3471 71.9533 61.9576 71.4186L61.2987 70.6663ZM59.992 74.0882V78.315H60.992V74.0882H59.992ZM59.992 78.315C59.992 79.7665 60.4016 80.9518 61.2987 81.7376L61.9576 80.9854C61.3471 80.4507 60.992 79.5864 60.992 78.315H59.992ZM61.2987 81.7376C62.1677 82.4987 63.3688 82.8559 64.5363 82.8552C65.7037 82.8544 66.904 82.4957 67.7729 81.7402L67.1167 80.9856C66.4677 81.5499 65.5179 81.8545 64.5356 81.8552C63.5533 81.8558 62.605 81.5524 61.9576 80.9853L61.2987 81.7376ZM67.7727 81.7403C68.6768 80.9548 69.0905 79.7684 69.0905 78.315H68.0905C68.0905 79.5859 67.7327 80.4504 67.1168 80.9854L67.7727 81.7403ZM69.0905 78.315V74.0882H68.0905V78.315H69.0905ZM69.0905 74.0882C69.0905 72.6355 68.6767 71.4491 67.7727 70.6636L67.1168 71.4185C67.7327 71.9536 68.0905 72.818 68.0905 74.0882H69.0905ZM67.7729 70.6638C67.6809 70.5838 67.6239 70.5342 67.5929 70.5072C67.5773 70.4936 67.5687 70.4861 67.5655 70.4834C67.5652 70.4831 67.565 70.4829 67.565 70.4829C67.5647 70.4826 67.5654 70.4832 67.5663 70.484C67.5666 70.4843 67.5675 70.4851 67.568 70.4855C67.5689 70.4864 67.5718 70.489 67.5738 70.4908C67.5816 70.4982 67.6256 71.1704 66.9693 71.282C66.9447 71.2656 66.918 71.2452 66.9149 71.2426C66.9137 71.2416 66.9118 71.24 66.9112 71.2395C66.9108 71.2392 66.9101 71.2386 66.9099 71.2384C66.9094 71.238 66.909 71.2377 66.909 71.2376C66.9089 71.2376 66.9102 71.2386 66.9135 71.2416C66.9382 71.2629 67.0321 71.3446 67.1257 71.426C67.2194 71.5074 67.3118 71.5877 67.3334 71.6065C67.3347 71.6077 67.3356 71.6085 67.3363 71.609C67.3366 71.6093 67.3367 71.6094 67.3367 71.6094C67.3367 71.6094 67.3366 71.6093 67.3364 71.6091C67.3363 71.6091 67.3357 71.6086 67.3349 71.6079C67.3345 71.6075 67.3332 71.6064 67.3325 71.6057C67.3309 71.6042 67.3242 71.5981 67.3192 71.5933C67.2217 71.0059 67.8727 70.7782 67.9775 70.8421C67.9817 70.8455 67.9873 70.8501 67.9887 70.8513C67.9894 70.8519 67.9906 70.8529 67.991 70.8532C67.9913 70.8535 67.9918 70.8539 67.9919 70.854C67.9923 70.8544 67.9925 70.8546 67.9926 70.8546C67.9927 70.8547 67.9924 70.8544 67.9912 70.8534C67.987 70.8498 67.9773 70.8413 67.9606 70.8268C67.9274 70.798 67.8677 70.7462 67.7727 70.6636L67.1168 71.4185C67.2118 71.501 67.2716 71.553 67.305 71.5819C67.3215 71.5963 67.3318 71.6052 67.3366 71.6094C67.3377 71.6103 67.3389 71.6114 67.3399 71.6122C67.3402 71.6125 67.3406 71.6128 67.3411 71.6133C67.3412 71.6134 67.3428 71.6147 67.3446 71.6163C67.3461 71.6175 67.3517 71.6221 67.3559 71.6255C67.4608 71.6894 68.1117 71.4617 68.0142 70.8743C68.0092 70.8695 68.0025 70.8634 68.0009 70.8619C68.0001 70.8612 67.9988 70.8601 67.9983 70.8596C67.9969 70.8584 67.9957 70.8573 67.9955 70.8571C67.995 70.8567 67.9945 70.8562 67.994 70.8558C67.993 70.855 67.9918 70.8539 67.9904 70.8526C67.9682 70.8333 67.8752 70.7524 67.7818 70.6713C67.6884 70.5901 67.5939 70.508 67.5688 70.4862C67.566 70.4837 67.5631 70.4813 67.5615 70.4798C67.5612 70.4796 67.5607 70.4792 67.5601 70.4786C67.5598 70.4784 67.5591 70.4778 67.5586 70.4774C67.558 70.4768 67.556 70.4752 67.5548 70.4742C67.5517 70.4716 67.525 70.4512 67.5004 70.4347C66.8441 70.5464 66.8881 71.2186 66.8959 71.2259C66.8979 71.2278 66.9008 71.2305 66.9018 71.2313C66.9023 71.2318 66.9032 71.2326 66.9036 71.2329C66.9048 71.234 66.9058 71.2349 66.9061 71.2351C66.9066 71.2356 66.9072 71.2361 66.9077 71.2365C66.9116 71.24 66.921 71.2481 66.9364 71.2615C66.9675 71.2886 67.0246 71.3383 67.1166 71.4183L67.7729 70.6638ZM64.0119 74.0882C64.0119 73.8016 64.1018 73.6339 64.1923 73.5406C64.2864 73.4437 64.4118 73.3944 64.5405 73.3945C64.6692 73.3946 64.795 73.4441 64.8894 73.5415C64.9802 73.6351 65.07 73.8028 65.07 74.0882H66.07C66.07 73.5787 65.9025 73.1498 65.6074 72.8454C65.3158 72.5447 64.9271 72.3948 64.5413 72.3945C64.1555 72.3942 63.7664 72.5435 63.4746 72.8443C63.1792 73.1488 63.0119 73.5782 63.0119 74.0882H64.0119ZM65.07 74.0882V78.315H66.07V74.0882H65.07ZM65.07 78.315C65.07 78.6004 64.9802 78.7681 64.8894 78.8617C64.795 78.9591 64.6692 79.0086 64.5405 79.0087C64.4118 79.0088 64.2864 78.9596 64.1923 78.8626C64.1018 78.7693 64.0119 78.6016 64.0119 78.315H63.0119C63.0119 78.8251 63.1792 79.2544 63.4746 79.5589C63.7664 79.8598 64.1555 80.009 64.5413 80.0087C64.9271 80.0084 65.3158 79.8585 65.6074 79.5578C65.9025 79.2534 66.07 78.8245 66.07 78.315H65.07ZM64.0119 78.315V74.0882H63.0119V78.315H64.0119ZM34.3591 12.2786C35.2302 13.0489 36.4103 13.4054 37.5633 13.4054C38.7162 13.4054 39.8956 13.0494 40.7768 12.3259L40.1422 11.553C39.4692 12.1056 38.5256 12.4054 37.5633 12.4054C36.6011 12.4054 35.6736 12.1061 35.0214 11.5295L34.3591 12.2786ZM40.7769 12.3258C41.6918 11.5744 42.154 10.5539 42.154 9.33662H41.154C41.154 10.2716 40.813 11.0021 40.1422 11.5531L40.7769 12.3258ZM42.154 9.33662C42.154 8.11136 41.1527 7.43905 40.25 7.33172C39.79 7.27702 39.2942 7.35466 38.8882 7.61571C38.4662 7.88715 38.1779 8.3356 38.1354 8.92658L39.1329 8.99823C39.1529 8.71963 39.2733 8.55703 39.4292 8.45679C39.6012 8.34617 39.8525 8.2915 40.1319 8.32472C40.7079 8.39321 41.154 8.77759 41.154 9.33662H42.154ZM38.1347 8.93892C38.1219 9.21008 38.0295 9.36183 37.9416 9.44351C37.85 9.5287 37.7288 9.57063 37.6017 9.56461C37.3722 9.55373 37.076 9.37562 37.076 8.86729H36.076C36.076 9.89053 36.7729 10.5265 37.5544 10.5635C37.9328 10.5814 38.3216 10.4558 38.6227 10.1758C38.9275 9.89225 39.1103 9.48121 39.1336 8.98589L38.1347 8.93892ZM37.076 8.86729V4.64054H36.076V8.86729H37.076ZM37.076 4.64054C37.076 4.18026 37.3595 3.976 37.6135 3.95015C37.747 3.93656 37.8657 3.97235 37.9504 4.04097C38.029 4.10466 38.1169 4.22765 38.1357 4.46658L39.1326 4.38821C39.0951 3.911 38.8975 3.52118 38.5797 3.26383C38.268 3.01142 37.8792 2.91793 37.5122 2.95529C36.7653 3.03132 36.076 3.64978 36.076 4.64054H37.076ZM38.1345 4.44592C38.1565 5.03956 38.4383 5.49308 38.8603 5.76756C39.2642 6.03024 39.7623 6.10921 40.2242 6.05694C41.1296 5.95449 42.154 5.2898 42.154 4.04971H41.154C41.154 4.61127 40.7004 4.99667 40.1118 5.06328C39.8267 5.09553 39.5739 5.03877 39.4055 4.92928C39.2553 4.83158 39.1437 4.67648 39.1338 4.40888L38.1345 4.44592ZM42.154 4.04971C42.154 2.86096 41.6829 1.86721 40.7622 1.13876L40.1417 1.923C40.8164 2.45674 41.154 3.15841 41.154 4.04971H42.154ZM40.7619 1.13853C39.8748 0.437765 38.701 0.0955161 37.5547 0.101945C36.4084 0.108374 35.2378 0.464212 34.3695 1.22579L35.0289 1.9776C35.6804 1.40617 36.6023 1.1073 37.5604 1.10193C38.5185 1.09656 39.4612 1.3854 40.142 1.92323L40.7619 1.13853ZM34.3693 1.22591C33.4694 2.01582 33.0555 3.19664 33.0555 4.64054H34.0555C34.0555 3.38232 34.4118 2.51919 35.029 1.97748L34.3693 1.22591ZM33.0555 4.64054V8.86729H34.0555V4.64054H33.0555ZM33.0555 8.86729C33.0555 10.3085 33.4652 11.4892 34.3593 12.2788L35.0212 11.5293C34.4092 10.9887 34.0555 10.1254 34.0555 8.86729H33.0555Z" fill="#03428D" mask="url(#path-1-inside-1)"/>
</svg>
