<svg width="99" height="88" viewBox="0 0 99 88" fill="none" xmlns="http://www.w3.org/2000/svg">
<mask id="path-1-inside-1" fill="white">
<path d="M98.9292 60.2511C98.6341 59.1598 97.5039 58.511 96.4029 58.8052L89.0131 60.771L81.3222 32.2752C81.1805 31.7509 80.8352 31.304 80.361 31.0327C79.8873 30.7613 79.324 30.6878 78.7954 30.8284L64.8617 34.535L58.9896 12.779C58.8478 12.2547 58.5025 11.8076 58.0284 11.5364C57.5547 11.265 56.9916 11.1916 56.4628 11.3322L26.5821 19.2811L22.3131 3.44273C22.1716 2.91839 21.8261 2.47095 21.3519 2.19958C20.8774 1.92782 20.3142 1.85494 19.7859 1.99533L17.263 2.66696C16.1309 1.03525 14.239 0 12.1579 0C11.6207 0 11.0844 0.0703847 10.5627 0.208853L4.58593 1.79875C1.3023 2.6729 -0.658171 6.02664 0.202665 9.28602C0.205566 9.29753 0.208273 9.30846 0.211367 9.31977C0.934725 11.9994 3.39503 13.8706 6.19488 13.8706C6.73222 13.8706 7.2686 13.8002 7.78971 13.6618L13.7663 12.0721C16.3635 11.3815 18.1317 9.13911 18.3324 6.61887L18.8613 6.4781L23.1281 22.3086C23.1289 22.3113 23.1291 22.314 23.1301 22.3168L29.5117 45.9917C29.5166 46.0122 29.5193 46.0323 29.5247 46.0527L37.7415 76.5257C37.883 77.0501 38.2286 77.4973 38.7025 77.7687C39.0188 77.9499 39.375 78.0429 39.7341 78.0429C39.9129 78.0429 40.0925 78.0199 40.2683 77.9731L41.3409 77.6877C40.9745 79.0333 40.947 80.4884 41.3358 81.9289C41.5265 82.6346 41.8082 83.2974 42.1646 83.9083H34.9859C33.8468 83.9083 32.9234 84.8242 32.9234 85.954C32.9234 87.0838 33.8466 87.9998 34.9859 87.9998H49.2911C49.2943 87.9998 49.2974 88 49.3007 88C49.3028 88 49.3048 87.9998 49.3067 87.9998H58.413C59.5519 87.9998 60.4755 87.0838 60.4755 85.954C60.4755 84.8242 59.5521 83.9083 58.413 83.9083H56.4417C57.5007 82.0913 57.8623 79.8737 57.2731 77.691C56.8883 76.2649 56.1346 75.0116 55.1326 74.0187L81.1919 67.0868C80.8255 68.4324 80.798 69.8877 81.1869 71.3282C82.1514 74.9028 85.4263 77.3991 89.151 77.3991C89.8708 77.3991 90.5909 77.3046 91.2909 77.1183C95.6844 75.9498 98.3013 71.4517 97.1245 67.0903C96.7396 65.664 95.986 64.4107 94.9837 63.4178L97.471 62.7562C98.5714 62.4645 99.224 61.3423 98.9292 60.2511ZM12.6983 8.12016L6.72159 9.70987C6.54873 9.75589 6.37142 9.77929 6.19468 9.77929C5.26579 9.77929 4.44904 9.16443 4.20134 8.28126C4.19941 8.27455 4.19786 8.26784 4.19593 8.26074C3.90125 7.1691 4.55577 6.04313 5.65502 5.75066L11.6308 4.16096C11.8039 4.11493 11.9812 4.09153 12.1579 4.09153C13.0934 4.09153 13.9151 4.7156 14.1565 5.60951C14.1565 5.61028 14.1567 5.61124 14.1568 5.612C14.4504 6.70326 13.7964 7.82827 12.6983 8.12016ZM43.5854 18.9938L45.9423 27.7253L44.6928 27.4714C44.0562 27.3425 43.3959 27.518 42.9098 27.9453L41.9571 28.784L39.6004 20.0538L43.5854 18.9938ZM27.6479 23.2339L35.6163 21.114L38.8361 33.0422C39.021 33.7274 39.5506 34.2687 40.2354 34.4725C40.4303 34.5304 40.6301 34.5588 40.8283 34.5588C41.3262 34.5588 41.815 34.3799 42.1977 34.0431L44.8763 31.6853L48.3838 32.3978C49.0849 32.5401 49.8089 32.3125 50.2988 31.7964C50.789 31.2805 50.9746 30.5494 50.7902 29.8647L47.5702 17.934L55.5387 15.814L60.8777 35.595L32.987 43.014L27.6479 23.2339ZM60.306 49.3416L59.0563 49.0879C58.4198 48.9576 57.7594 49.1345 57.2737 49.5618L56.3206 50.4008L53.9638 41.6702L57.9489 40.6098L60.306 49.3416ZM50.3712 83.7677C50.0216 83.8605 49.6633 83.9079 49.3065 83.9085H49.2955C47.4367 83.9062 45.8025 82.6582 45.3202 80.8708C44.7318 78.6914 46.0366 76.4434 48.2287 75.8554L48.2496 75.8499C48.5973 75.7584 48.9536 75.7118 49.3085 75.7118C51.169 75.7118 52.8058 76.9607 53.2884 78.7493C53.8777 80.9318 52.5693 83.1831 50.3712 83.7677ZM49.1617 71.3709L46.2911 60.7359C45.9964 59.6446 44.8662 58.9968 43.7654 59.2887C42.665 59.581 42.0118 60.7025 42.3063 61.7938L45.1775 72.4307L41.2001 73.4888L34.045 46.969L49.98 42.73L53.2 54.6586C53.3851 55.3439 53.9145 55.8851 54.5992 56.0888C54.7943 56.1469 54.994 56.1753 55.1922 56.1753C55.6901 56.1753 56.1789 55.9963 56.5616 55.6597L59.2406 53.3017L62.7483 54.0137C63.4496 54.1561 64.1734 53.9281 64.6631 53.4122C65.1531 52.8963 65.3387 52.1654 65.1543 51.4808L61.9341 39.5508L69.9022 37.431L72.773 48.0666C73.0198 48.9808 73.8531 49.5838 74.764 49.5838C74.9404 49.5838 75.12 49.5612 75.2987 49.5136C76.3991 49.2213 77.0523 48.0998 76.7578 47.0085L73.8866 36.3712L77.8717 35.3108L85.0289 61.8304L49.1617 71.3709ZM90.2224 73.167C89.8705 73.2604 89.5102 73.3081 89.1512 73.3081C87.2906 73.3081 85.6543 72.0592 85.1718 70.2707C84.5832 68.0905 85.8888 65.8418 88.0815 65.2545L88.0983 65.2503C88.4469 65.1583 88.8039 65.1115 89.1593 65.1115C91.02 65.1115 92.657 66.3605 93.1398 68.1489C93.7288 70.3315 92.4203 72.5826 90.2224 73.167Z"/>
<path d="M75.749 51.1808C74.6484 51.4727 73.9951 52.5939 74.2894 53.6853L74.4974 54.4569C74.7439 55.3715 75.5773 55.9748 76.4886 55.9748C76.665 55.9748 76.8442 55.9522 77.0227 55.9046C78.1233 55.6128 78.7766 54.4916 78.4824 53.4001L78.2743 52.6286C77.9798 51.5371 76.85 50.8883 75.749 51.1808Z"/>
<path d="M44.5655 54.3429C44.2707 53.2517 43.1409 52.6035 42.0395 52.8967C40.9393 53.1892 40.2863 54.3109 40.5814 55.4022L40.7898 56.1735C41.0367 57.0876 41.8699 57.6902 42.7806 57.6902C42.9572 57.6902 43.137 57.6675 43.3159 57.6198C44.4161 57.3273 45.069 56.2056 44.774 55.1143L44.5655 54.3429Z"/>
<path d="M65.3248 83.9083H64.4187C63.2796 83.9083 62.3562 84.8242 62.3562 85.954C62.3562 87.0837 63.2795 87.9998 64.4187 87.9998H65.3248C66.4637 87.9998 67.3874 87.0838 67.3874 85.954C67.3874 84.8241 66.4637 83.9083 65.3248 83.9083Z"/>
</mask>
<path d="M98.9292 60.2511C98.6341 59.1598 97.5039 58.511 96.4029 58.8052L89.0131 60.771L81.3222 32.2752C81.1805 31.7509 80.8352 31.304 80.361 31.0327C79.8873 30.7613 79.324 30.6878 78.7954 30.8284L64.8617 34.535L58.9896 12.779C58.8478 12.2547 58.5025 11.8076 58.0284 11.5364C57.5547 11.265 56.9916 11.1916 56.4628 11.3322L26.5821 19.2811L22.3131 3.44273C22.1716 2.91839 21.8261 2.47095 21.3519 2.19958C20.8774 1.92782 20.3142 1.85494 19.7859 1.99533L17.263 2.66696C16.1309 1.03525 14.239 0 12.1579 0C11.6207 0 11.0844 0.0703847 10.5627 0.208853L4.58593 1.79875C1.3023 2.6729 -0.658171 6.02664 0.202665 9.28602C0.205566 9.29753 0.208273 9.30846 0.211367 9.31977C0.934725 11.9994 3.39503 13.8706 6.19488 13.8706C6.73222 13.8706 7.2686 13.8002 7.78971 13.6618L13.7663 12.0721C16.3635 11.3815 18.1317 9.13911 18.3324 6.61887L18.8613 6.4781L23.1281 22.3086C23.1289 22.3113 23.1291 22.314 23.1301 22.3168L29.5117 45.9917C29.5166 46.0122 29.5193 46.0323 29.5247 46.0527L37.7415 76.5257C37.883 77.0501 38.2286 77.4973 38.7025 77.7687C39.0188 77.9499 39.375 78.0429 39.7341 78.0429C39.9129 78.0429 40.0925 78.0199 40.2683 77.9731L41.3409 77.6877C40.9745 79.0333 40.947 80.4884 41.3358 81.9289C41.5265 82.6346 41.8082 83.2974 42.1646 83.9083H34.9859C33.8468 83.9083 32.9234 84.8242 32.9234 85.954C32.9234 87.0838 33.8466 87.9998 34.9859 87.9998H49.2911C49.2943 87.9998 49.2974 88 49.3007 88C49.3028 88 49.3048 87.9998 49.3067 87.9998H58.413C59.5519 87.9998 60.4755 87.0838 60.4755 85.954C60.4755 84.8242 59.5521 83.9083 58.413 83.9083H56.4417C57.5007 82.0913 57.8623 79.8737 57.2731 77.691C56.8883 76.2649 56.1346 75.0116 55.1326 74.0187L81.1919 67.0868C80.8255 68.4324 80.798 69.8877 81.1869 71.3282C82.1514 74.9028 85.4263 77.3991 89.151 77.3991C89.8708 77.3991 90.5909 77.3046 91.2909 77.1183C95.6844 75.9498 98.3013 71.4517 97.1245 67.0903C96.7396 65.664 95.986 64.4107 94.9837 63.4178L97.471 62.7562C98.5714 62.4645 99.224 61.3423 98.9292 60.2511ZM12.6983 8.12016L6.72159 9.70987C6.54873 9.75589 6.37142 9.77929 6.19468 9.77929C5.26579 9.77929 4.44904 9.16443 4.20134 8.28126C4.19941 8.27455 4.19786 8.26784 4.19593 8.26074C3.90125 7.1691 4.55577 6.04313 5.65502 5.75066L11.6308 4.16096C11.8039 4.11493 11.9812 4.09153 12.1579 4.09153C13.0934 4.09153 13.9151 4.7156 14.1565 5.60951C14.1565 5.61028 14.1567 5.61124 14.1568 5.612C14.4504 6.70326 13.7964 7.82827 12.6983 8.12016ZM43.5854 18.9938L45.9423 27.7253L44.6928 27.4714C44.0562 27.3425 43.3959 27.518 42.9098 27.9453L41.9571 28.784L39.6004 20.0538L43.5854 18.9938ZM27.6479 23.2339L35.6163 21.114L38.8361 33.0422C39.021 33.7274 39.5506 34.2687 40.2354 34.4725C40.4303 34.5304 40.6301 34.5588 40.8283 34.5588C41.3262 34.5588 41.815 34.3799 42.1977 34.0431L44.8763 31.6853L48.3838 32.3978C49.0849 32.5401 49.8089 32.3125 50.2988 31.7964C50.789 31.2805 50.9746 30.5494 50.7902 29.8647L47.5702 17.934L55.5387 15.814L60.8777 35.595L32.987 43.014L27.6479 23.2339ZM60.306 49.3416L59.0563 49.0879C58.4198 48.9576 57.7594 49.1345 57.2737 49.5618L56.3206 50.4008L53.9638 41.6702L57.9489 40.6098L60.306 49.3416ZM50.3712 83.7677C50.0216 83.8605 49.6633 83.9079 49.3065 83.9085H49.2955C47.4367 83.9062 45.8025 82.6582 45.3202 80.8708C44.7318 78.6914 46.0366 76.4434 48.2287 75.8554L48.2496 75.8499C48.5973 75.7584 48.9536 75.7118 49.3085 75.7118C51.169 75.7118 52.8058 76.9607 53.2884 78.7493C53.8777 80.9318 52.5693 83.1831 50.3712 83.7677ZM49.1617 71.3709L46.2911 60.7359C45.9964 59.6446 44.8662 58.9968 43.7654 59.2887C42.665 59.581 42.0118 60.7025 42.3063 61.7938L45.1775 72.4307L41.2001 73.4888L34.045 46.969L49.98 42.73L53.2 54.6586C53.3851 55.3439 53.9145 55.8851 54.5992 56.0888C54.7943 56.1469 54.994 56.1753 55.1922 56.1753C55.6901 56.1753 56.1789 55.9963 56.5616 55.6597L59.2406 53.3017L62.7483 54.0137C63.4496 54.1561 64.1734 53.9281 64.6631 53.4122C65.1531 52.8963 65.3387 52.1654 65.1543 51.4808L61.9341 39.5508L69.9022 37.431L72.773 48.0666C73.0198 48.9808 73.8531 49.5838 74.764 49.5838C74.9404 49.5838 75.12 49.5612 75.2987 49.5136C76.3991 49.2213 77.0523 48.0998 76.7578 47.0085L73.8866 36.3712L77.8717 35.3108L85.0289 61.8304L49.1617 71.3709ZM90.2224 73.167C89.8705 73.2604 89.5102 73.3081 89.1512 73.3081C87.2906 73.3081 85.6543 72.0592 85.1718 70.2707C84.5832 68.0905 85.8888 65.8418 88.0815 65.2545L88.0983 65.2503C88.4469 65.1583 88.8039 65.1115 89.1593 65.1115C91.02 65.1115 92.657 66.3605 93.1398 68.1489C93.7288 70.3315 92.4203 72.5826 90.2224 73.167Z" fill="white"/>
<path d="M75.749 51.1808C74.6484 51.4727 73.9951 52.5939 74.2894 53.6853L74.4974 54.4569C74.7439 55.3715 75.5773 55.9748 76.4886 55.9748C76.665 55.9748 76.8442 55.9522 77.0227 55.9046C78.1233 55.6128 78.7766 54.4916 78.4824 53.4001L78.2743 52.6286C77.9798 51.5371 76.85 50.8883 75.749 51.1808Z" fill="white"/>
<path d="M44.5655 54.3429C44.2707 53.2517 43.1409 52.6035 42.0395 52.8967C40.9393 53.1892 40.2863 54.3109 40.5814 55.4022L40.7898 56.1735C41.0367 57.0876 41.8699 57.6902 42.7806 57.6902C42.9572 57.6902 43.137 57.6675 43.3159 57.6198C44.4161 57.3273 45.069 56.2056 44.774 55.1143L44.5655 54.3429Z" fill="white"/>
<path d="M65.3248 83.9083H64.4187C63.2796 83.9083 62.3562 84.8242 62.3562 85.954C62.3562 87.0837 63.2795 87.9998 64.4187 87.9998H65.3248C66.4637 87.9998 67.3874 87.0838 67.3874 85.954C67.3874 84.8241 66.4637 83.9083 65.3248 83.9083Z" fill="white"/>
<path d="M98.9292 60.2511C98.6341 59.1598 97.5039 58.511 96.4029 58.8052L89.0131 60.771L81.3222 32.2752C81.1805 31.7509 80.8352 31.304 80.361 31.0327C79.8873 30.7613 79.324 30.6878 78.7954 30.8284L64.8617 34.535L58.9896 12.779C58.8478 12.2547 58.5025 11.8076 58.0284 11.5364C57.5547 11.265 56.9916 11.1916 56.4628 11.3322L26.5821 19.2811L22.3131 3.44273C22.1716 2.91839 21.8261 2.47095 21.3519 2.19958C20.8774 1.92782 20.3142 1.85494 19.7859 1.99533L17.263 2.66696C16.1309 1.03525 14.239 0 12.1579 0C11.6207 0 11.0844 0.0703847 10.5627 0.208853L4.58593 1.79875C1.3023 2.6729 -0.658171 6.02664 0.202665 9.28602C0.205566 9.29753 0.208273 9.30846 0.211367 9.31977C0.934725 11.9994 3.39503 13.8706 6.19488 13.8706C6.73222 13.8706 7.2686 13.8002 7.78971 13.6618L13.7663 12.0721C16.3635 11.3815 18.1317 9.13911 18.3324 6.61887L18.8613 6.4781L23.1281 22.3086C23.1289 22.3113 23.1291 22.314 23.1301 22.3168L29.5117 45.9917C29.5166 46.0122 29.5193 46.0323 29.5247 46.0527L37.7415 76.5257C37.883 77.0501 38.2286 77.4973 38.7025 77.7687C39.0188 77.9499 39.375 78.0429 39.7341 78.0429C39.9129 78.0429 40.0925 78.0199 40.2683 77.9731L41.3409 77.6877C40.9745 79.0333 40.947 80.4884 41.3358 81.9289C41.5265 82.6346 41.8082 83.2974 42.1646 83.9083H34.9859C33.8468 83.9083 32.9234 84.8242 32.9234 85.954C32.9234 87.0838 33.8466 87.9998 34.9859 87.9998H49.2911C49.2943 87.9998 49.2974 88 49.3007 88C49.3028 88 49.3048 87.9998 49.3067 87.9998H58.413C59.5519 87.9998 60.4755 87.0838 60.4755 85.954C60.4755 84.8242 59.5521 83.9083 58.413 83.9083H56.4417C57.5007 82.0913 57.8623 79.8737 57.2731 77.691C56.8883 76.2649 56.1346 75.0116 55.1326 74.0187L81.1919 67.0868C80.8255 68.4324 80.798 69.8877 81.1869 71.3282C82.1514 74.9028 85.4263 77.3991 89.151 77.3991C89.8708 77.3991 90.5909 77.3046 91.2909 77.1183C95.6844 75.9498 98.3013 71.4517 97.1245 67.0903C96.7396 65.664 95.986 64.4107 94.9837 63.4178L97.471 62.7562C98.5714 62.4645 99.224 61.3423 98.9292 60.2511ZM12.6983 8.12016L6.72159 9.70987C6.54873 9.75589 6.37142 9.77929 6.19468 9.77929C5.26579 9.77929 4.44904 9.16443 4.20134 8.28126C4.19941 8.27455 4.19786 8.26784 4.19593 8.26074C3.90125 7.1691 4.55577 6.04313 5.65502 5.75066L11.6308 4.16096C11.8039 4.11493 11.9812 4.09153 12.1579 4.09153C13.0934 4.09153 13.9151 4.7156 14.1565 5.60951C14.1565 5.61028 14.1567 5.61124 14.1568 5.612C14.4504 6.70326 13.7964 7.82827 12.6983 8.12016ZM43.5854 18.9938L45.9423 27.7253L44.6928 27.4714C44.0562 27.3425 43.3959 27.518 42.9098 27.9453L41.9571 28.784L39.6004 20.0538L43.5854 18.9938ZM27.6479 23.2339L35.6163 21.114L38.8361 33.0422C39.021 33.7274 39.5506 34.2687 40.2354 34.4725C40.4303 34.5304 40.6301 34.5588 40.8283 34.5588C41.3262 34.5588 41.815 34.3799 42.1977 34.0431L44.8763 31.6853L48.3838 32.3978C49.0849 32.5401 49.8089 32.3125 50.2988 31.7964C50.789 31.2805 50.9746 30.5494 50.7902 29.8647L47.5702 17.934L55.5387 15.814L60.8777 35.595L32.987 43.014L27.6479 23.2339ZM60.306 49.3416L59.0563 49.0879C58.4198 48.9576 57.7594 49.1345 57.2737 49.5618L56.3206 50.4008L53.9638 41.6702L57.9489 40.6098L60.306 49.3416ZM50.3712 83.7677C50.0216 83.8605 49.6633 83.9079 49.3065 83.9085H49.2955C47.4367 83.9062 45.8025 82.6582 45.3202 80.8708C44.7318 78.6914 46.0366 76.4434 48.2287 75.8554L48.2496 75.8499C48.5973 75.7584 48.9536 75.7118 49.3085 75.7118C51.169 75.7118 52.8058 76.9607 53.2884 78.7493C53.8777 80.9318 52.5693 83.1831 50.3712 83.7677ZM49.1617 71.3709L46.2911 60.7359C45.9964 59.6446 44.8662 58.9968 43.7654 59.2887C42.665 59.581 42.0118 60.7025 42.3063 61.7938L45.1775 72.4307L41.2001 73.4888L34.045 46.969L49.98 42.73L53.2 54.6586C53.3851 55.3439 53.9145 55.8851 54.5992 56.0888C54.7943 56.1469 54.994 56.1753 55.1922 56.1753C55.6901 56.1753 56.1789 55.9963 56.5616 55.6597L59.2406 53.3017L62.7483 54.0137C63.4496 54.1561 64.1734 53.9281 64.6631 53.4122C65.1531 52.8963 65.3387 52.1654 65.1543 51.4808L61.9341 39.5508L69.9022 37.431L72.773 48.0666C73.0198 48.9808 73.8531 49.5838 74.764 49.5838C74.9404 49.5838 75.12 49.5612 75.2987 49.5136C76.3991 49.2213 77.0523 48.0998 76.7578 47.0085L73.8866 36.3712L77.8717 35.3108L85.0289 61.8304L49.1617 71.3709ZM90.2224 73.167C89.8705 73.2604 89.5102 73.3081 89.1512 73.3081C87.2906 73.3081 85.6543 72.0592 85.1718 70.2707C84.5832 68.0905 85.8888 65.8418 88.0815 65.2545L88.0983 65.2503C88.4469 65.1583 88.8039 65.1115 89.1593 65.1115C91.02 65.1115 92.657 66.3605 93.1398 68.1489C93.7288 70.3315 92.4203 72.5826 90.2224 73.167Z" stroke="#03428D" mask="url(#path-1-inside-1)"/>
<path d="M75.749 51.1808C74.6484 51.4727 73.9951 52.5939 74.2894 53.6853L74.4974 54.4569C74.7439 55.3715 75.5773 55.9748 76.4886 55.9748C76.665 55.9748 76.8442 55.9522 77.0227 55.9046C78.1233 55.6128 78.7766 54.4916 78.4824 53.4001L78.2743 52.6286C77.9798 51.5371 76.85 50.8883 75.749 51.1808Z" stroke="#03428D" mask="url(#path-1-inside-1)"/>
<path d="M44.5655 54.3429C44.2707 53.2517 43.1409 52.6035 42.0395 52.8967C40.9393 53.1892 40.2863 54.3109 40.5814 55.4022L40.7898 56.1735C41.0367 57.0876 41.8699 57.6902 42.7806 57.6902C42.9572 57.6902 43.137 57.6675 43.3159 57.6198C44.4161 57.3273 45.069 56.2056 44.774 55.1143L44.5655 54.3429Z" stroke="#03428D" mask="url(#path-1-inside-1)"/>
<path d="M65.3248 83.9083H64.4187C63.2796 83.9083 62.3562 84.8242 62.3562 85.954C62.3562 87.0837 63.2795 87.9998 64.4187 87.9998H65.3248C66.4637 87.9998 67.3874 87.0838 67.3874 85.954C67.3874 84.8241 66.4637 83.9083 65.3248 83.9083Z" stroke="#03428D" mask="url(#path-1-inside-1)"/>
</svg>
