<svg width="87" height="87" viewBox="0 0 87 87" fill="none" xmlns="http://www.w3.org/2000/svg">
<mask id="path-1-inside-1" fill="white">
<path d="M10.7925 29.4679H17.271L18.2744 33.9821L21.0149 33.373L18.8175 23.4845C18.3162 21.2238 16.3475 19.6452 14.0322 19.6452C11.7169 19.6452 9.74819 21.2238 9.24724 23.4831L7.04984 33.373L9.79033 33.9821L10.7925 29.4679ZM11.988 24.0904C12.2014 23.125 13.0433 22.4514 14.0325 22.4514C15.0217 22.4514 15.8636 23.125 16.077 24.0919L16.648 26.6612H11.4167L11.988 24.0904Z"/>
<path d="M87 14.0322C87 6.29488 80.7051 0 72.9678 0C65.2305 0 58.9356 6.29488 58.9356 14.0322C58.9356 17.1151 59.9472 20.0465 61.7604 22.4514H58.9356V26.6612C58.9356 28.982 60.8245 30.8709 63.1453 30.8709H71.5646V32.8635C71.5646 33.5159 71.1211 34.0773 70.4854 34.2287L17.1628 46.9252C16.7362 47.0248 16.3068 46.9281 15.9673 46.6614C15.6305 46.3933 15.4355 45.9922 15.4355 45.5599V44.9031H23.8547C26.1755 44.9031 28.0644 43.0142 28.0644 40.6934V36.4839H25.2396C27.0525 34.0787 28.0644 31.1473 28.0644 28.0647C28.0644 20.3274 21.7695 14.0325 14.0322 14.0325C6.29488 14.0325 0 20.3271 0 28.0644C0 31.1473 1.01162 34.0787 2.82477 36.4836H0.000294677V40.6934C0.000294677 43.0142 1.88917 44.9031 4.21004 44.9031H12.6292V45.5599C12.6292 46.8565 13.213 48.0606 14.2302 48.8633C14.9837 49.4582 15.8957 49.7712 16.8305 49.7712C17.1575 49.7712 17.4885 49.7331 17.8141 49.6548L40.5926 44.2312C40.549 44.3689 40.5071 44.5076 40.4832 44.6535L33.4237 87H53.5754L46.5173 44.6535C46.4107 44.0123 46.1048 43.4551 45.6781 43.0201L71.1352 36.9583C73.0409 36.5066 74.371 34.8225 74.371 32.8638V30.8712H82.7903C85.1111 30.8712 87 28.9823 87 26.6614V22.4514H84.1752C85.9881 20.0465 87 17.1151 87 14.0322ZM2.8065 28.0644C2.8065 21.8747 7.84252 16.8387 14.0322 16.8387C20.2219 16.8387 25.2579 21.8747 25.2579 28.0644C25.2579 31.3058 23.877 34.3481 21.4495 36.4836H6.61519C4.18765 34.3481 2.8065 31.3058 2.8065 28.0644ZM4.21004 42.0966C3.43534 42.0966 2.80679 41.4666 2.80679 40.6934V39.2901H25.2582V40.6934C25.2582 41.4666 24.6297 42.0966 23.8549 42.0966H4.21004ZM50.2624 84.1932H36.7367L43.2506 45.1135C43.2912 44.8692 43.7079 44.8692 43.7486 45.1135L50.2624 84.1932ZM61.7418 14.0322C61.7418 7.84252 66.7778 2.8065 72.9675 2.8065C79.1572 2.8065 84.1932 7.84252 84.1932 14.0322C84.1932 17.2736 82.8124 20.3159 80.3848 22.4514H65.5499C63.123 20.3159 61.7418 17.2736 61.7418 14.0322ZM84.1932 25.2579V26.6612H84.1935C84.1935 27.4344 83.565 28.0644 82.7903 28.0644H63.1451C62.3703 28.0644 61.7418 27.4344 61.7418 26.6612V25.2579H84.1932Z"/>
<path d="M78.5805 15.4355C78.5805 14.3578 78.1736 13.3742 77.5055 12.629C78.1736 11.8837 78.5805 10.9001 78.5805 9.82245C78.5805 7.50158 76.6916 5.613 74.3708 5.613H67.3545V19.6452H74.3708C76.6919 19.6452 78.5805 17.7563 78.5805 15.4355ZM70.1613 8.4192H74.371C75.1458 8.4192 75.7743 9.04922 75.7743 9.82245C75.7743 10.5957 75.1458 11.2257 74.371 11.2257H70.1613V8.4192ZM70.1613 14.0322H74.371C75.1458 14.0322 75.7743 14.6622 75.7743 15.4355C75.7743 16.2087 75.1458 16.8387 74.371 16.8387H70.1613V14.0322Z"/>
</mask>
<path d="M10.7925 29.4679H17.271L18.2744 33.9821L21.0149 33.373L18.8175 23.4845C18.3162 21.2238 16.3475 19.6452 14.0322 19.6452C11.7169 19.6452 9.74819 21.2238 9.24724 23.4831L7.04984 33.373L9.79033 33.9821L10.7925 29.4679ZM11.988 24.0904C12.2014 23.125 13.0433 22.4514 14.0325 22.4514C15.0217 22.4514 15.8636 23.125 16.077 24.0919L16.648 26.6612H11.4167L11.988 24.0904Z" fill="white"/>
<path d="M87 14.0322C87 6.29488 80.7051 0 72.9678 0C65.2305 0 58.9356 6.29488 58.9356 14.0322C58.9356 17.1151 59.9472 20.0465 61.7604 22.4514H58.9356V26.6612C58.9356 28.982 60.8245 30.8709 63.1453 30.8709H71.5646V32.8635C71.5646 33.5159 71.1211 34.0773 70.4854 34.2287L17.1628 46.9252C16.7362 47.0248 16.3068 46.9281 15.9673 46.6614C15.6305 46.3933 15.4355 45.9922 15.4355 45.5599V44.9031H23.8547C26.1755 44.9031 28.0644 43.0142 28.0644 40.6934V36.4839H25.2396C27.0525 34.0787 28.0644 31.1473 28.0644 28.0647C28.0644 20.3274 21.7695 14.0325 14.0322 14.0325C6.29488 14.0325 0 20.3271 0 28.0644C0 31.1473 1.01162 34.0787 2.82477 36.4836H0.000294677V40.6934C0.000294677 43.0142 1.88917 44.9031 4.21004 44.9031H12.6292V45.5599C12.6292 46.8565 13.213 48.0606 14.2302 48.8633C14.9837 49.4582 15.8957 49.7712 16.8305 49.7712C17.1575 49.7712 17.4885 49.7331 17.8141 49.6548L40.5926 44.2312C40.549 44.3689 40.5071 44.5076 40.4832 44.6535L33.4237 87H53.5754L46.5173 44.6535C46.4107 44.0123 46.1048 43.4551 45.6781 43.0201L71.1352 36.9583C73.0409 36.5066 74.371 34.8225 74.371 32.8638V30.8712H82.7903C85.1111 30.8712 87 28.9823 87 26.6614V22.4514H84.1752C85.9881 20.0465 87 17.1151 87 14.0322ZM2.8065 28.0644C2.8065 21.8747 7.84252 16.8387 14.0322 16.8387C20.2219 16.8387 25.2579 21.8747 25.2579 28.0644C25.2579 31.3058 23.877 34.3481 21.4495 36.4836H6.61519C4.18765 34.3481 2.8065 31.3058 2.8065 28.0644ZM4.21004 42.0966C3.43534 42.0966 2.80679 41.4666 2.80679 40.6934V39.2901H25.2582V40.6934C25.2582 41.4666 24.6297 42.0966 23.8549 42.0966H4.21004ZM50.2624 84.1932H36.7367L43.2506 45.1135C43.2912 44.8692 43.7079 44.8692 43.7486 45.1135L50.2624 84.1932ZM61.7418 14.0322C61.7418 7.84252 66.7778 2.8065 72.9675 2.8065C79.1572 2.8065 84.1932 7.84252 84.1932 14.0322C84.1932 17.2736 82.8124 20.3159 80.3848 22.4514H65.5499C63.123 20.3159 61.7418 17.2736 61.7418 14.0322ZM84.1932 25.2579V26.6612H84.1935C84.1935 27.4344 83.565 28.0644 82.7903 28.0644H63.1451C62.3703 28.0644 61.7418 27.4344 61.7418 26.6612V25.2579H84.1932Z" fill="white"/>
<path d="M78.5805 15.4355C78.5805 14.3578 78.1736 13.3742 77.5055 12.629C78.1736 11.8837 78.5805 10.9001 78.5805 9.82245C78.5805 7.50158 76.6916 5.613 74.3708 5.613H67.3545V19.6452H74.3708C76.6919 19.6452 78.5805 17.7563 78.5805 15.4355ZM70.1613 8.4192H74.371C75.1458 8.4192 75.7743 9.04922 75.7743 9.82245C75.7743 10.5957 75.1458 11.2257 74.371 11.2257H70.1613V8.4192ZM70.1613 14.0322H74.371C75.1458 14.0322 75.7743 14.6622 75.7743 15.4355C75.7743 16.2087 75.1458 16.8387 74.371 16.8387H70.1613V14.0322Z" fill="white"/>
<path d="M10.7925 29.4679H17.271L18.2744 33.9821L21.0149 33.373L18.8175 23.4845C18.3162 21.2238 16.3475 19.6452 14.0322 19.6452C11.7169 19.6452 9.74819 21.2238 9.24724 23.4831L7.04984 33.373L9.79033 33.9821L10.7925 29.4679ZM11.988 24.0904C12.2014 23.125 13.0433 22.4514 14.0325 22.4514C15.0217 22.4514 15.8636 23.125 16.077 24.0919L16.648 26.6612H11.4167L11.988 24.0904Z" stroke="#03428D" stroke-width="0.4" mask="url(#path-1-inside-1)"/>
<path d="M87 14.0322C87 6.29488 80.7051 0 72.9678 0C65.2305 0 58.9356 6.29488 58.9356 14.0322C58.9356 17.1151 59.9472 20.0465 61.7604 22.4514H58.9356V26.6612C58.9356 28.982 60.8245 30.8709 63.1453 30.8709H71.5646V32.8635C71.5646 33.5159 71.1211 34.0773 70.4854 34.2287L17.1628 46.9252C16.7362 47.0248 16.3068 46.9281 15.9673 46.6614C15.6305 46.3933 15.4355 45.9922 15.4355 45.5599V44.9031H23.8547C26.1755 44.9031 28.0644 43.0142 28.0644 40.6934V36.4839H25.2396C27.0525 34.0787 28.0644 31.1473 28.0644 28.0647C28.0644 20.3274 21.7695 14.0325 14.0322 14.0325C6.29488 14.0325 0 20.3271 0 28.0644C0 31.1473 1.01162 34.0787 2.82477 36.4836H0.000294677V40.6934C0.000294677 43.0142 1.88917 44.9031 4.21004 44.9031H12.6292V45.5599C12.6292 46.8565 13.213 48.0606 14.2302 48.8633C14.9837 49.4582 15.8957 49.7712 16.8305 49.7712C17.1575 49.7712 17.4885 49.7331 17.8141 49.6548L40.5926 44.2312C40.549 44.3689 40.5071 44.5076 40.4832 44.6535L33.4237 87H53.5754L46.5173 44.6535C46.4107 44.0123 46.1048 43.4551 45.6781 43.0201L71.1352 36.9583C73.0409 36.5066 74.371 34.8225 74.371 32.8638V30.8712H82.7903C85.1111 30.8712 87 28.9823 87 26.6614V22.4514H84.1752C85.9881 20.0465 87 17.1151 87 14.0322ZM2.8065 28.0644C2.8065 21.8747 7.84252 16.8387 14.0322 16.8387C20.2219 16.8387 25.2579 21.8747 25.2579 28.0644C25.2579 31.3058 23.877 34.3481 21.4495 36.4836H6.61519C4.18765 34.3481 2.8065 31.3058 2.8065 28.0644ZM4.21004 42.0966C3.43534 42.0966 2.80679 41.4666 2.80679 40.6934V39.2901H25.2582V40.6934C25.2582 41.4666 24.6297 42.0966 23.8549 42.0966H4.21004ZM50.2624 84.1932H36.7367L43.2506 45.1135C43.2912 44.8692 43.7079 44.8692 43.7486 45.1135L50.2624 84.1932ZM61.7418 14.0322C61.7418 7.84252 66.7778 2.8065 72.9675 2.8065C79.1572 2.8065 84.1932 7.84252 84.1932 14.0322C84.1932 17.2736 82.8124 20.3159 80.3848 22.4514H65.5499C63.123 20.3159 61.7418 17.2736 61.7418 14.0322ZM84.1932 25.2579V26.6612H84.1935C84.1935 27.4344 83.565 28.0644 82.7903 28.0644H63.1451C62.3703 28.0644 61.7418 27.4344 61.7418 26.6612V25.2579H84.1932Z" stroke="#03428D" stroke-width="0.4" mask="url(#path-1-inside-1)"/>
<path d="M78.5805 15.4355C78.5805 14.3578 78.1736 13.3742 77.5055 12.629C78.1736 11.8837 78.5805 10.9001 78.5805 9.82245C78.5805 7.50158 76.6916 5.613 74.3708 5.613H67.3545V19.6452H74.3708C76.6919 19.6452 78.5805 17.7563 78.5805 15.4355ZM70.1613 8.4192H74.371C75.1458 8.4192 75.7743 9.04922 75.7743 9.82245C75.7743 10.5957 75.1458 11.2257 74.371 11.2257H70.1613V8.4192ZM70.1613 14.0322H74.371C75.1458 14.0322 75.7743 14.6622 75.7743 15.4355C75.7743 16.2087 75.1458 16.8387 74.371 16.8387H70.1613V14.0322Z" stroke="#03428D" stroke-width="0.4" mask="url(#path-1-inside-1)"/>
</svg>
