<svg width="24" height="24" viewBox="0 0 24 24" fill="none" xmlns="http://www.w3.org/2000/svg">
<path d="M22.4223 4.84593C23.4074 3.52727 23.9971 2.15818 24 1.18006C23.9987 0.863318 23.9352 0.615789 23.8143 0.431398C23.8016 0.408849 23.7668 0.349829 23.7054 0.291673C23.6443 0.231045 23.5894 0.198653 23.5775 0.192104C23.3841 0.0630067 23.1354 0.000732422 22.8185 0.000732422C21.8429 0.00237948 20.4734 0.591632 19.1543 1.57837C18.0881 2.37621 17.0219 3.49982 15.5458 5.05574C15.2954 5.31962 15.0319 5.59707 14.7533 5.88801L11.8943 5.03115L11.9029 5.02295C12.0217 4.90287 12.0893 4.73774 12.0877 4.57546C12.0893 4.40417 12.0201 4.23903 11.9008 4.12021L11.3845 3.60307C11.2653 3.483 11.1005 3.41417 10.9301 3.41417C10.758 3.41417 10.5973 3.48056 10.4773 3.60186L9.70482 4.37472L9.29585 4.2526C9.38396 4.14072 9.43271 4.00099 9.43106 3.86331C9.43271 3.68954 9.36549 3.5277 9.24463 3.40762L8.72585 2.88884C8.60742 2.77002 8.44349 2.70198 8.27142 2.70198C8.10012 2.70198 7.93989 2.7688 7.82107 2.88966L7.11217 3.59817L4.20519 2.72739C4.14006 2.70814 4.0712 2.6979 3.99743 2.6979C3.79092 2.70037 3.59955 2.777 3.45982 2.91551L2.43783 3.9379C2.32183 4.05386 2.25669 4.2108 2.25795 4.35954C2.25426 4.57876 2.37555 4.78119 2.56979 4.88527L8.68287 8.30035C8.71279 8.31714 8.79926 8.3811 8.83122 8.41306L10.574 10.1554C8.94388 11.8728 7.49162 13.5361 6.35985 14.983C6.25413 15.1175 6.15413 15.2486 6.05578 15.3785L1.32654 14.949C1.3036 14.9462 1.27775 14.9441 1.24497 14.9441C1.02819 14.9486 0.816343 15.0343 0.659011 15.1863L0.182424 15.6624C0.0648165 15.7776 -0.00157542 15.9333 7.16328e-05 16.0837C-0.00361463 16.3132 0.135287 16.5254 0.343874 16.6184L3.67084 18.1986C3.69951 18.2129 3.7741 18.2658 3.79829 18.2899L4.07449 18.5641C3.98802 18.8075 3.94418 19.0185 3.94171 19.2038C3.94088 19.4516 4.0208 19.6639 4.17367 19.8168L4.18555 19.8271L4.1888 19.8295C4.34574 19.9815 4.549 20.059 4.8006 20.059C4.98174 20.0561 5.19072 20.0131 5.43496 19.9271L5.71523 20.2069C5.73696 20.2299 5.78899 20.3028 5.80252 20.3319L7.37934 23.6516C7.47566 23.8634 7.68338 24.0007 7.90958 24.0007H7.91283C8.06938 24.0007 8.21895 23.9379 8.33326 23.8232L8.8213 23.3336C8.96592 23.1811 9.05118 22.9709 9.05443 22.7492C9.05443 22.7222 9.05322 22.7013 9.05239 22.6898L8.62173 17.9433C8.75122 17.8458 8.88236 17.7454 9.01714 17.6405C10.4661 16.5071 12.1298 15.0535 13.8439 13.4259L15.5879 15.1716C15.6162 15.1986 15.6822 15.2851 15.7015 15.3212L19.11 21.4232C19.2141 21.6203 19.4145 21.742 19.6366 21.742C19.7952 21.742 19.946 21.6793 20.0615 21.5629L21.0909 20.5344C21.2245 20.3947 21.2995 20.2049 21.3015 19.9976C21.3015 19.9279 21.2917 19.8603 21.2736 19.7968L20.4029 16.889L21.1113 16.1793C21.2306 16.0608 21.2982 15.8961 21.2982 15.7269C21.2982 15.5568 21.2322 15.397 21.1122 15.2753L20.5926 14.7561C20.4738 14.6368 20.3094 14.5688 20.1402 14.5688C19.9968 14.5688 19.8567 14.6168 19.7472 14.7033L19.6255 14.2959L20.3987 13.5227C20.5176 13.4034 20.5852 13.2387 20.5852 13.069C20.5852 12.8982 20.5192 12.738 20.3987 12.6179L19.8816 12.1007C19.7623 11.9798 19.5968 11.9114 19.4267 11.9114C19.2559 11.9114 19.0903 11.9807 18.9735 12.0999L18.9682 12.1048L18.1117 9.24619C18.4076 8.96427 18.6882 8.69584 18.9567 8.44302C20.5071 6.97185 21.6265 5.90969 22.4223 4.84593Z" fill="#2B2525"/>
</svg>
