<svg width="29" height="25" viewBox="0 0 29 25" fill="none" xmlns="http://www.w3.org/2000/svg">
<path d="M28.9996 13.8332C28.9996 13.2628 28.8708 12.7179 28.6382 12.2195C28.6143 12.0928 28.5869 11.9663 28.5526 11.8379L26.0336 5.59506L26.0165 5.53889C25.1351 2.91458 23.8811 0.485718 20.7011 0.485718H8.54287C5.28452 0.485718 4.13312 2.97476 3.23244 5.52432L0.597498 11.7824C0.216571 12.3927 0 13.0909 0 13.8332V15.7758C0 16.0761 0.0355013 16.3699 0.103006 16.6529C0.0373801 16.8239 0 17.0081 0 17.2023V22.98C0 23.8273 0.686834 24.5142 1.53407 24.5142H4.71753C5.56432 24.5142 6.25115 23.8273 6.25115 22.98V20.0908H22.9303V22.98C22.9303 23.8273 23.6173 24.5142 24.4646 24.5142H27.4657C28.3133 24.5142 29 23.8273 29 22.98V17.2017C29 17.0082 28.9622 16.8231 28.8971 16.6527C28.9644 16.3693 29 16.0758 29 15.7755L28.9996 13.8332ZM5.10196 6.1511C6.105 3.32116 6.91162 2.45727 8.54287 2.45727H20.7004C22.3197 2.45727 23.2213 3.4208 24.1375 6.13892L25.9758 9.8641C25.3756 9.64183 24.715 9.51848 24.0211 9.51848H4.97855C4.35371 9.51848 3.7566 9.61896 3.20568 9.80081L5.10196 6.1511ZM6.68106 16.5135H3.32216C2.71741 16.5135 2.22693 16.0226 2.22693 15.4179C2.22693 14.813 2.71741 14.3224 3.32216 14.3224H6.68106C7.28607 14.3224 7.77654 14.813 7.77654 15.4179C7.77654 16.0226 7.28574 16.5135 6.68106 16.5135ZM18.5465 16.2941H10.7336C10.3505 16.2941 10.0401 15.9835 10.0401 15.6007C10.0401 15.2171 10.3505 14.9067 10.7336 14.9067H18.5465C18.93 14.9067 19.2403 15.2171 19.2403 15.6007C19.2403 15.9835 18.93 16.2941 18.5465 16.2941ZM25.5928 16.5135H22.234C21.6287 16.5135 21.1385 16.0226 21.1385 15.4179C21.1385 14.813 21.6291 14.3224 22.234 14.3224H25.5928C26.198 14.3224 26.6887 14.813 26.6887 15.4179C26.6887 16.0226 26.198 16.5135 25.5928 16.5135Z" fill="#2B2525"/>
</svg>
