<svg width="23" height="23" viewBox="0 0 23 23" fill="none" xmlns="http://www.w3.org/2000/svg">
<path d="M22.282 9.21186C22.282 7.06371 21.5754 4.9637 20.2309 3.29872C18.9036 1.6553 17.0539 0.489479 14.9914 0.0159097C14.6734 -0.0573466 14.3618 0.128856 14.2675 0.441184L11.6309 9.21016H4.2199V7.0396C4.2199 6.69712 4.00626 6.41944 3.66377 6.41944H1.33818C0.995694 6.41944 0.718018 6.69712 0.718018 7.0396C0.718018 7.38208 0.995694 7.65976 1.33818 7.65976H2.97958V12.832C2.97958 13.9571 3.95571 14.8691 5.08076 14.8691H10.5085L11.3999 15.7605L9.56637 17.5941C9.11583 17.3108 8.58358 17.1463 8.01334 17.1463C6.39953 17.1463 5.08657 18.4594 5.08657 20.0733C5.08657 21.687 6.39953 22.9999 8.01334 22.9999C9.39048 22.9999 10.5478 22.0437 10.8579 20.7606H13.696C14.0062 22.0437 15.1635 22.9999 16.5405 22.9999C18.1543 22.9999 19.4674 21.6871 19.4674 20.0733C19.4674 18.4594 18.1543 17.1463 16.5405 17.1463C15.9703 17.1463 15.438 17.3108 14.9875 17.594L13.1541 15.7605L14.0455 14.8691H20.3089C21.4341 14.8691 22.282 13.957 22.282 12.832V9.21186ZM12.2913 14.8692L12.2769 14.8835L12.2627 14.8692H12.2913ZM8.01326 21.7597C7.08333 21.7597 6.32682 21.0032 6.32682 20.0733C6.32682 19.1433 7.08333 18.3867 8.01326 18.3867C8.94327 18.3867 9.69986 19.1433 9.69986 20.0733C9.69986 21.0032 8.94327 21.7597 8.01326 21.7597ZM16.5405 21.7597C15.6105 21.7597 14.854 21.0032 14.854 20.0733C14.854 19.1433 15.6105 18.3867 16.5405 18.3867C17.4705 18.3867 18.2271 19.1433 18.2271 20.0733C18.2271 21.0032 17.4705 21.7597 16.5405 21.7597ZM14.0997 18.4605C13.8904 18.7764 13.7408 19.135 13.6668 19.5204H10.8872C10.8131 19.135 10.6636 18.7764 10.4541 18.4605L12.277 16.6376L14.0997 18.4605Z" fill="#2B2525"/>
</svg>
