<svg width="21" height="24" viewBox="0 0 21 24" fill="none" xmlns="http://www.w3.org/2000/svg">
<path d="M16.0002 10.237V8.55184C16.0002 7.94264 15.5059 7.44833 14.8972 7.44833H12.0304C12.61 6.69308 12.8484 5.96234 12.7397 5.23722C12.6038 4.33745 11.9686 3.62612 11.4074 2.997C10.6052 2.09775 10.1696 1.55288 10.5582 0.806315C10.6828 0.5658 10.6144 0.269112 10.3963 0.108258C10.1793 -0.0531071 9.87545 -0.0321705 9.68242 0.158302C7.10364 2.6901 8.47116 4.34818 9.46999 5.55944C10.1083 6.33409 10.4928 6.84781 10.3662 7.44833H7.06585C7.64595 6.69308 7.88391 5.96234 7.77514 5.23722C7.63982 4.33745 7.00406 3.62612 6.44286 2.997C5.64012 2.09775 5.20454 1.55288 5.59314 0.806315C5.71825 0.5658 5.64982 0.269112 5.43178 0.108258C5.21424 -0.0531071 4.9104 -0.0321705 4.71738 0.158302C2.1386 2.6901 3.50663 4.34818 4.50546 5.55944C5.14377 6.33409 5.52778 6.84781 5.40114 7.44833H1.10351C0.494308 7.44833 0 7.94264 0 8.55184V20.138C0 22.2674 1.73314 23.9995 3.86204 23.9995H12.1381C14.0883 23.9995 15.702 22.5441 15.9598 20.6634C18.6096 20.405 20.69 18.1653 20.69 15.4476C20.6905 12.7448 18.6321 10.5138 16.0002 10.237ZM4.96606 19.5865C4.96606 20.1952 4.47176 20.69 3.86255 20.69C3.25335 20.69 2.75904 20.1952 2.75904 19.5865V11.3104C2.75904 10.7012 3.25335 10.2069 3.86255 10.2069C4.47176 10.2069 4.96606 10.7012 4.96606 11.3104V19.5865ZM16.0002 18.4303V12.467C17.4106 12.7279 18.4829 13.9647 18.4829 15.4487C18.4835 16.9331 17.4106 18.1694 16.0002 18.4303Z" fill="#2B2525"/>
</svg>
