<svg width="23" height="24" viewBox="0 0 23 24" fill="none" xmlns="http://www.w3.org/2000/svg">
<path d="M19.6525 3.90832C17.8138 1.46076 14.7677 0 11.5007 0C8.23238 0 5.18618 1.46165 3.34834 3.91052C1.19493 6.18775 0.0056001 9.20756 0 12.4195C0.00518667 15.0018 0.776272 17.464 2.23053 19.5437C2.88556 21.861 4.92388 23.4956 7.26003 23.5997C7.37906 23.8398 7.62197 23.999 7.89731 23.999C7.93583 23.999 7.97135 23.995 8.01634 23.9888L9.95548 23.6428C10.2988 23.581 10.5473 23.2773 10.5473 22.9202C10.5473 22.8801 10.5439 22.8419 10.5374 22.7953L8.76145 12.2927C8.6991 11.9428 8.40384 11.688 8.05704 11.6871C8.00725 11.6871 7.96222 11.692 7.91806 11.7013L5.99711 12.0442C5.65377 12.1069 5.40526 12.4093 5.40613 12.7557C5.40613 12.7601 5.40613 12.765 5.40526 12.7699C4.17572 13.2915 3.17778 14.2534 2.59029 15.4616C2.2868 14.4788 2.13311 13.4596 2.13311 12.4191C2.13311 10.4411 2.68467 8.53702 3.72978 6.90416C4.41987 6.67292 4.9052 6.28159 5.19614 5.985L5.20828 5.97253L5.21952 5.95829C6.59542 4.26096 8.94239 3.24842 11.4998 3.24842C13.926 3.24796 16.205 4.18001 17.5956 5.74172L17.6199 5.76928C17.6589 5.81241 17.6913 5.85066 17.7337 5.90046C17.9788 6.16683 18.4957 6.6364 19.2672 6.89921C20.3141 8.53431 20.8674 10.4393 20.8674 12.4195C20.8674 13.4614 20.7137 14.4815 20.4097 15.4634C19.8222 14.2543 18.8243 13.292 17.593 12.7704V12.7677C17.593 12.4098 17.3445 12.106 17.0016 12.0447L15.0716 11.6996C15.0317 11.6912 14.9889 11.6876 14.9413 11.6876C14.5941 11.6885 14.2988 11.9446 14.2377 12.2968L12.4626 22.7878C12.4549 22.8287 12.4509 22.8722 12.4509 22.9203C12.4509 23.2774 12.6994 23.5811 13.0428 23.6438L14.9858 23.9902C15.0239 23.9964 15.0611 24 15.1027 24C15.3157 24 15.5092 23.904 15.6421 23.7483L15.7434 23.7665L15.772 23.5984C18.0921 23.4815 20.1153 21.8526 20.7682 19.5496C22.2241 17.4667 22.9957 15.0041 23 12.4192C22.9961 9.20667 21.8068 6.18551 19.6525 3.90832ZM7.88472 12.6739L9.5879 22.741L8.07088 23.0122L6.36769 12.9451L7.88472 12.6739ZM14.9304 23.0122L13.4134 22.741L15.1166 12.6743L16.6345 12.9451L16.625 12.998L14.9304 23.0122Z" fill="#2B2525"/>
</svg>
