<svg width="84" height="91" viewBox="0 0 84 91" fill="none" xmlns="http://www.w3.org/2000/svg">
<mask id="path-1-inside-1" fill="white">
<path d="M75.3401 33.1149L83.7606 18.3657C84.0798 17.8061 84.0798 17.1167 83.7606 16.5571L74.8245 0.903947C74.5046 0.344361 73.9149 0 73.2758 0H55.4037C54.7646 0 54.1749 0.344361 53.855 0.903947L45.4359 15.6531H29.6102L24.7526 7.40653C23.5773 5.41118 20.5032 7.26004 21.6799 9.25747L26.5217 17.4777L18.6271 31.3056H9.15143C6.85512 31.3056 6.85169 34.9228 9.15143 34.9228H18.6271L25.4988 46.9587H10.7242C10.0851 46.9587 9.49468 47.3038 9.17546 47.8634L0.239414 63.5165C-0.0798045 64.0761 -0.0798045 64.7655 0.239414 65.3251L8.65167 80.0604L3.8071 88.2841C2.63527 90.2746 5.69358 92.1491 6.87984 90.1357L11.7416 81.8815H27.5755L32.4365 90.1343C33.6221 92.1484 36.6811 90.2732 35.5092 88.2834L30.6667 80.0625L39.0804 65.3251C39.3996 64.7655 39.3996 64.0761 39.0804 63.5165L31.693 50.5759H45.4345L53.3292 64.4052L48.4866 72.6268C47.3141 74.6166 50.3724 76.4918 51.5587 74.4777L56.4184 66.229H72.2914L77.1154 74.4736C78.2961 76.4911 81.3592 74.6242 80.1936 72.6317L75.3641 64.3781L83.7599 49.672C84.0791 49.1124 84.0791 48.423 83.7599 47.8634L75.3401 33.1149ZM56.4362 3.61718H72.2433L80.1469 17.4617L72.2433 31.3063H56.4362L48.5326 17.4617L56.4362 3.61718ZM29.6281 19.2703H45.4352L53.3388 33.1142L45.4352 46.9587H29.6288L21.7245 33.1149L29.6281 19.2703ZM27.5631 78.265H11.7567L3.8531 64.4205L11.7567 50.5759H27.5631L35.4667 64.4205L27.5631 78.265ZM73.2738 60.8061L69.301 54.0181C68.1319 52.0193 65.0524 53.8584 66.2235 55.86L70.1743 62.6119H56.4355L48.532 48.768L56.4355 34.9228H72.2426L80.1462 48.7673L73.2738 60.8061Z"/>
<path d="M64.3398 46.9587C63.3677 46.9587 62.5515 47.7835 62.5515 48.7673C62.5522 49.7497 63.3684 50.5759 64.3398 50.5759C65.2837 50.5759 66.0828 49.7976 66.1246 48.8465C66.1693 47.8342 65.3434 46.9587 64.3398 46.9587Z"/>
<path d="M1.97074 34.9228C2.94213 34.9228 3.75905 34.0966 3.75905 33.1142C3.75905 32.1318 2.94213 31.3056 1.97074 31.3056C1.02682 31.3056 0.227743 32.0832 0.185867 33.035C0.141932 34.0466 0.96778 34.9228 1.97074 34.9228Z"/>
<path d="M6.91965 24.2934C7.70431 24.7537 9.38827 24.5711 9.38827 23.37V19.5647H11.686V23.37C11.686 24.9405 14.7065 24.9342 14.7065 23.37V13.5224C14.7065 11.9651 11.686 11.9651 11.686 13.5224V16.9341H9.38827V13.5224C9.38827 11.9651 6.36771 11.9651 6.36771 13.5224V23.37C6.36771 23.8706 7.04391 24.3663 6.91965 24.2934C7.19082 24.4531 6.56405 24.0858 6.91965 24.2934C7.70362 24.7537 6.56405 24.0858 6.91965 24.2934Z"/>
<path d="M67.4448 71.0411C65.9256 69.7206 63.1439 69.7143 61.6281 71.0425C60.8744 71.7027 60.492 72.7275 60.492 74.0882V78.315C60.492 79.6765 60.8744 80.7012 61.6281 81.3615C63.1446 82.6896 65.9269 82.6827 67.4448 81.3629C68.2047 80.7026 68.5905 79.6772 68.5905 78.315V74.0882C68.5905 72.7268 68.2047 71.7013 67.4448 71.0411C66.7088 70.4009 68.2047 71.7013 67.4448 71.0411ZM63.5119 74.0882C63.5119 72.4949 65.57 72.4984 65.57 74.0882V78.315C65.57 79.9049 63.5119 79.9084 63.5119 78.315V74.0882Z"/>
<path d="M34.6903 11.9041C36.2136 13.2509 38.9053 13.2155 40.4595 11.9395C41.2524 11.2882 41.654 10.4127 41.654 9.33662C41.654 7.55233 38.7591 7.22324 38.6341 8.96241C38.5621 10.4954 36.576 10.3989 36.576 8.86729V4.64054C36.576 3.1895 38.5216 2.99511 38.6341 4.4274C38.698 6.14989 41.654 5.85136 41.654 4.04971C41.654 3.00969 41.2497 2.16197 40.452 1.53088C38.884 0.29229 36.2191 0.268685 34.6992 1.60169C33.9406 2.2675 33.5555 3.28948 33.5555 4.64054V8.86729C33.5555 10.217 33.9372 11.2389 34.6903 11.9041Z"/>
</mask>
<path d="M75.3401 33.1149L83.7606 18.3657C84.0798 17.8061 84.0798 17.1167 83.7606 16.5571L74.8245 0.903947C74.5046 0.344361 73.9149 0 73.2758 0H55.4037C54.7646 0 54.1749 0.344361 53.855 0.903947L45.4359 15.6531H29.6102L24.7526 7.40653C23.5773 5.41118 20.5032 7.26004 21.6799 9.25747L26.5217 17.4777L18.6271 31.3056H9.15143C6.85512 31.3056 6.85169 34.9228 9.15143 34.9228H18.6271L25.4988 46.9587H10.7242C10.0851 46.9587 9.49468 47.3038 9.17546 47.8634L0.239414 63.5165C-0.0798045 64.0761 -0.0798045 64.7655 0.239414 65.3251L8.65167 80.0604L3.8071 88.2841C2.63527 90.2746 5.69358 92.1491 6.87984 90.1357L11.7416 81.8815H27.5755L32.4365 90.1343C33.6221 92.1484 36.6811 90.2732 35.5092 88.2834L30.6667 80.0625L39.0804 65.3251C39.3996 64.7655 39.3996 64.0761 39.0804 63.5165L31.693 50.5759H45.4345L53.3292 64.4052L48.4866 72.6268C47.3141 74.6166 50.3724 76.4918 51.5587 74.4777L56.4184 66.229H72.2914L77.1154 74.4736C78.2961 76.4911 81.3592 74.6242 80.1936 72.6317L75.3641 64.3781L83.7599 49.672C84.0791 49.1124 84.0791 48.423 83.7599 47.8634L75.3401 33.1149ZM56.4362 3.61718H72.2433L80.1469 17.4617L72.2433 31.3063H56.4362L48.5326 17.4617L56.4362 3.61718ZM29.6281 19.2703H45.4352L53.3388 33.1142L45.4352 46.9587H29.6288L21.7245 33.1149L29.6281 19.2703ZM27.5631 78.265H11.7567L3.8531 64.4205L11.7567 50.5759H27.5631L35.4667 64.4205L27.5631 78.265ZM73.2738 60.8061L69.301 54.0181C68.1319 52.0193 65.0524 53.8584 66.2235 55.86L70.1743 62.6119H56.4355L48.532 48.768L56.4355 34.9228H72.2426L80.1462 48.7673L73.2738 60.8061Z" fill="#2B3035"/>
<path d="M64.3398 46.9587C63.3677 46.9587 62.5515 47.7835 62.5515 48.7673C62.5522 49.7497 63.3684 50.5759 64.3398 50.5759C65.2837 50.5759 66.0828 49.7976 66.1246 48.8465C66.1693 47.8342 65.3434 46.9587 64.3398 46.9587Z" fill="#2B3035"/>
<path d="M1.97074 34.9228C2.94213 34.9228 3.75905 34.0966 3.75905 33.1142C3.75905 32.1318 2.94213 31.3056 1.97074 31.3056C1.02682 31.3056 0.227743 32.0832 0.185867 33.035C0.141932 34.0466 0.96778 34.9228 1.97074 34.9228Z" fill="#2B3035"/>
<path d="M6.91965 24.2934C7.70431 24.7537 9.38827 24.5711 9.38827 23.37V19.5647H11.686V23.37C11.686 24.9405 14.7065 24.9342 14.7065 23.37V13.5224C14.7065 11.9651 11.686 11.9651 11.686 13.5224V16.9341H9.38827V13.5224C9.38827 11.9651 6.36771 11.9651 6.36771 13.5224V23.37C6.36771 23.8706 7.04391 24.3663 6.91965 24.2934C7.19082 24.4531 6.56405 24.0858 6.91965 24.2934C7.70362 24.7537 6.56405 24.0858 6.91965 24.2934Z" fill="#2B3035"/>
<path d="M67.4448 71.0411C65.9256 69.7206 63.1439 69.7143 61.6281 71.0425C60.8744 71.7027 60.492 72.7275 60.492 74.0882V78.315C60.492 79.6765 60.8744 80.7012 61.6281 81.3615C63.1446 82.6896 65.9269 82.6827 67.4448 81.3629C68.2047 80.7026 68.5905 79.6772 68.5905 78.315V74.0882C68.5905 72.7268 68.2047 71.7013 67.4448 71.0411C66.7088 70.4009 68.2047 71.7013 67.4448 71.0411ZM63.5119 74.0882C63.5119 72.4949 65.57 72.4984 65.57 74.0882V78.315C65.57 79.9049 63.5119 79.9084 63.5119 78.315V74.0882Z" fill="#2B3035"/>
<path d="M34.6903 11.9041C36.2136 13.2509 38.9053 13.2155 40.4595 11.9395C41.2524 11.2882 41.654 10.4127 41.654 9.33662C41.654 7.55233 38.7591 7.22324 38.6341 8.96241C38.5621 10.4954 36.576 10.3989 36.576 8.86729V4.64054C36.576 3.1895 38.5216 2.99511 38.6341 4.4274C38.698 6.14989 41.654 5.85136 41.654 4.04971C41.654 3.00969 41.2497 2.16197 40.452 1.53088C38.884 0.29229 36.2191 0.268685 34.6992 1.60169C33.9406 2.2675 33.5555 3.28948 33.5555 4.64054V8.86729C33.5555 10.217 33.9372 11.2389 34.6903 11.9041Z" fill="#2B3035"/>
<path d="M75.3401 33.1149L75.1664 33.0157L75.1098 33.1149L75.1664 33.214L75.3401 33.1149ZM83.7606 18.3657L83.9343 18.4648L83.9343 18.4648L83.7606 18.3657ZM83.7606 16.5571L83.9343 16.458L83.9343 16.4579L83.7606 16.5571ZM74.8245 0.903947L74.9982 0.804791L74.9982 0.804686L74.8245 0.903947ZM53.855 0.903947L53.6814 0.804686L53.6813 0.804799L53.855 0.903947ZM45.4359 15.6531V15.8531H45.552L45.6096 15.7523L45.4359 15.6531ZM29.6102 15.6531L29.4379 15.7546L29.4959 15.8531H29.6102V15.6531ZM24.7526 7.40653L24.5803 7.50804L24.5803 7.50804L24.7526 7.40653ZM21.6799 9.25747L21.8522 9.15597L21.8522 9.15596L21.6799 9.25747ZM26.5217 17.4777L26.6954 17.5769L26.7529 17.4761L26.694 17.3762L26.5217 17.4777ZM18.6271 31.3056V31.5056H18.7432L18.8007 31.4047L18.6271 31.3056ZM18.6271 34.9228L18.8007 34.8236L18.7432 34.7228H18.6271V34.9228ZM25.4988 46.9587V47.1587H25.8433L25.6725 46.8596L25.4988 46.9587ZM9.17546 47.8634L9.34915 47.9625L9.34918 47.9625L9.17546 47.8634ZM0.239414 63.5165L0.0657238 63.4173L0.065692 63.4174L0.239414 63.5165ZM0.239414 65.3251L0.065692 65.4242L0.0657247 65.4242L0.239414 65.3251ZM8.65167 80.0604L8.82399 80.1619L8.88286 80.062L8.82536 79.9612L8.65167 80.0604ZM3.8071 88.2841L3.63478 88.1826L3.63475 88.1826L3.8071 88.2841ZM6.87984 90.1357L7.05215 90.2373L7.05216 90.2372L6.87984 90.1357ZM11.7416 81.8815V81.6815H11.6272L11.5692 81.78L11.7416 81.8815ZM27.5755 81.8815L27.7478 81.78L27.6898 81.6815H27.5755V81.8815ZM32.4365 90.1343L32.6089 90.0329L32.6088 90.0328L32.4365 90.1343ZM35.5092 88.2834L35.6816 88.1819L35.6816 88.1819L35.5092 88.2834ZM30.6667 80.0625L30.493 79.9633L30.4355 80.064L30.4944 80.164L30.6667 80.0625ZM39.0804 65.3251L39.254 65.4242L39.2541 65.4242L39.0804 65.3251ZM39.0804 63.5165L39.2541 63.4174L39.254 63.4174L39.0804 63.5165ZM31.693 50.5759V50.3759H31.3486L31.5193 50.6751L31.693 50.5759ZM45.4345 50.5759L45.6082 50.4767L45.5506 50.3759H45.4345V50.5759ZM53.3292 64.4052L53.5015 64.5067L53.5603 64.4067L53.5028 64.306L53.3292 64.4052ZM48.4866 72.6268L48.659 72.7283L48.659 72.7283L48.4866 72.6268ZM51.5587 74.4777L51.3864 74.3762L51.3864 74.3762L51.5587 74.4777ZM56.4184 66.229V66.029H56.3041L56.246 66.1275L56.4184 66.229ZM72.2914 66.229L72.464 66.128L72.4061 66.029H72.2914V66.229ZM77.1154 74.4736L76.9427 74.5746L76.9427 74.5746L77.1154 74.4736ZM80.1936 72.6317L80.3662 72.5307L80.3662 72.5306L80.1936 72.6317ZM75.3641 64.3781L75.1904 64.2789L75.1331 64.3793L75.1915 64.4791L75.3641 64.3781ZM83.7599 49.672L83.9336 49.7711L83.9336 49.7711L83.7599 49.672ZM83.7599 47.8634L83.9336 47.7643L83.9336 47.7642L83.7599 47.8634ZM56.4362 3.61718V3.41718H56.3201L56.2625 3.51802L56.4362 3.61718ZM72.2433 3.61718L72.417 3.51802L72.3595 3.41718H72.2433V3.61718ZM80.1469 17.4617L80.3206 17.5609L80.3772 17.4617L80.3206 17.3626L80.1469 17.4617ZM72.2433 31.3063V31.5063H72.3595L72.417 31.4054L72.2433 31.3063ZM56.4362 31.3063L56.2625 31.4054L56.3201 31.5063H56.4362V31.3063ZM48.5326 17.4617L48.359 17.3626L48.3023 17.4617L48.359 17.5609L48.5326 17.4617ZM29.6281 19.2703V19.0703H29.5119L29.4544 19.1712L29.6281 19.2703ZM45.4352 19.2703L45.6089 19.1712L45.5513 19.0703H45.4352V19.2703ZM53.3388 33.1142L53.5125 33.2133L53.5691 33.1142L53.5125 33.015L53.3388 33.1142ZM45.4352 46.9587V47.1587H45.5513L45.6089 47.0579L45.4352 46.9587ZM29.6288 46.9587L29.4551 47.0579L29.5126 47.1587H29.6288V46.9587ZM21.7245 33.1149L21.5508 33.0157L21.4942 33.1149L21.5508 33.214L21.7245 33.1149ZM27.5631 78.265V78.465H27.6792L27.7368 78.3642L27.5631 78.265ZM11.7567 78.265L11.583 78.3642L11.6405 78.465H11.7567V78.265ZM3.8531 64.4205L3.67941 64.3213L3.6228 64.4205L3.67941 64.5196L3.8531 64.4205ZM11.7567 50.5759V50.3759H11.6405L11.583 50.4767L11.7567 50.5759ZM27.5631 50.5759L27.7368 50.4767L27.6792 50.3759H27.5631V50.5759ZM35.4667 64.4205L35.6404 64.5196L35.697 64.4205L35.6404 64.3213L35.4667 64.4205ZM73.2738 60.8061L73.1012 60.9071L73.2759 61.2057L73.4474 60.9052L73.2738 60.8061ZM69.301 54.0181L69.1284 54.1191L69.1284 54.1191L69.301 54.0181ZM66.2235 55.86L66.0509 55.961V55.961L66.2235 55.86ZM70.1743 62.6119V62.8119H70.523L70.3469 62.5109L70.1743 62.6119ZM56.4355 62.6119L56.2618 62.711L56.3194 62.8119H56.4355V62.6119ZM48.532 48.768L48.3583 48.6689L48.3017 48.768L48.3583 48.8672L48.532 48.768ZM56.4355 34.9228V34.7228H56.3194L56.2618 34.8236L56.4355 34.9228ZM72.2426 34.9228L72.4163 34.8236L72.3588 34.7228H72.2426V34.9228ZM80.1462 48.7673L80.3199 48.8665L80.3765 48.7673L80.3199 48.6682L80.1462 48.7673ZM62.5515 48.7673H62.3515V48.7675L62.5515 48.7673ZM66.1246 48.8465L65.9248 48.8377V48.8377L66.1246 48.8465ZM0.185867 33.035L-0.0139395 33.0262L-0.0139443 33.0263L0.185867 33.035ZM6.91965 24.2934L7.02085 24.1209L7.02048 24.1207L6.91965 24.2934ZM9.38827 19.5647V19.3647H9.18827V19.5647H9.38827ZM11.686 19.5647H11.886V19.3647H11.686V19.5647ZM11.686 16.9341V17.1341H11.886V16.9341H11.686ZM9.38827 16.9341H9.18827V17.1341H9.38827V16.9341ZM67.4448 71.0411L67.3136 71.192L67.3136 71.192L67.4448 71.0411ZM61.6281 71.0425L61.7599 71.1929L61.7599 71.1929L61.6281 71.0425ZM61.6281 81.3615L61.4964 81.5119L61.4964 81.5119L61.6281 81.3615ZM67.4448 81.3629L67.3136 81.2119L67.3135 81.2119L67.4448 81.3629ZM34.6903 11.9041L34.8227 11.7542L34.8226 11.7541L34.6903 11.9041ZM40.4595 11.9395L40.5864 12.094L40.5865 12.094L40.4595 11.9395ZM38.6341 8.96241L38.4346 8.94807L38.4344 8.95301L38.6341 8.96241ZM38.6341 4.4274L38.8342 4.41998L38.8335 4.41172L38.6341 4.4274ZM40.452 1.53088L40.5761 1.37403L40.5759 1.37394L40.452 1.53088ZM34.6992 1.60169L34.5673 1.45133L34.5672 1.45138L34.6992 1.60169ZM75.5138 33.214L83.9343 18.4648L83.5869 18.2665L75.1664 33.0157L75.5138 33.214ZM83.9343 18.4648C84.2886 17.8438 84.2886 17.079 83.9343 16.458L83.5869 16.6562C83.871 17.1544 83.871 17.7684 83.5869 18.2666L83.9343 18.4648ZM83.9343 16.4579L74.9982 0.804791L74.6509 1.0031L83.5869 16.6562L83.9343 16.4579ZM74.9982 0.804686C74.6431 0.183516 73.9875 -0.2 73.2758 -0.2V0.2C73.8424 0.2 74.3662 0.505205 74.6509 1.00321L74.9982 0.804686ZM73.2758 -0.2H55.4037V0.2H73.2758V-0.2ZM55.4037 -0.2C54.692 -0.2 54.0365 0.183517 53.6814 0.804686L54.0286 1.00321C54.3133 0.505205 54.8372 0.2 55.4037 0.2V-0.2ZM53.6813 0.804799L45.2622 15.554L45.6096 15.7523L54.0287 1.00309L53.6813 0.804799ZM45.4359 15.4531H29.6102V15.8531H45.4359V15.4531ZM29.7825 15.5516L24.9249 7.30503L24.5803 7.50804L29.4379 15.7546L29.7825 15.5516ZM24.9249 7.30503C24.6024 6.75743 24.1404 6.46254 23.6457 6.37605C23.1564 6.29053 22.6504 6.41103 22.2311 6.66336C21.8119 6.91572 21.4668 7.30755 21.3086 7.78172C21.1488 8.26094 21.1848 8.811 21.5076 9.35898L21.8522 9.15596C21.5867 8.70523 21.5657 8.27515 21.6881 7.90828C21.8121 7.53637 22.0883 7.21618 22.4374 7.00606C22.7866 6.79592 23.1958 6.70349 23.5768 6.77008C23.9522 6.8357 24.3152 7.05797 24.5803 7.50804L24.9249 7.30503ZM21.5076 9.35898L26.3494 17.5792L26.694 17.3762L21.8522 9.15597L21.5076 9.35898ZM26.348 17.3785L18.4534 31.2064L18.8007 31.4047L26.6954 17.5769L26.348 17.3785ZM18.6271 31.1056H9.15143V31.5056H18.6271V31.1056ZM9.15143 31.1056C8.51958 31.1056 8.03264 31.3568 7.70668 31.7415C7.38442 32.1218 7.22815 32.6218 7.22791 33.1141C7.22768 33.6063 7.38348 34.1064 7.70569 34.4868C8.03161 34.8717 8.51882 35.1228 9.15143 35.1228V34.7228C8.63418 34.7228 8.25941 34.5217 8.01093 34.2283C7.75874 33.9305 7.62772 33.5263 7.62791 33.1143C7.62811 32.7022 7.75952 32.2979 8.01187 32.0001C8.26053 31.7066 8.63513 31.5056 9.15143 31.5056V31.1056ZM9.15143 35.1228H18.6271V34.7228H9.15143V35.1228ZM18.4534 35.0219L25.3251 47.0579L25.6725 46.8596L18.8007 34.8236L18.4534 35.0219ZM25.4988 46.7587H10.7242V47.1587H25.4988V46.7587ZM10.7242 46.7587C10.0125 46.7587 9.35616 47.143 9.00174 47.7643L9.34918 47.9625C9.6332 47.4646 10.1577 47.1587 10.7242 47.1587V46.7587ZM9.00177 47.7642L0.0657238 63.4173L0.413103 63.6157L9.34915 47.9625L9.00177 47.7642ZM0.065692 63.4174C-0.288564 64.0384 -0.288564 64.8032 0.065692 65.4242L0.413135 65.226C0.128955 64.7278 0.128955 64.1138 0.413135 63.6156L0.065692 63.4174ZM0.0657247 65.4242L8.47798 80.1596L8.82536 79.9612L0.413102 65.2259L0.0657247 65.4242ZM8.47935 79.9589L3.63478 88.1826L3.97943 88.3856L8.82399 80.1619L8.47935 79.9589ZM3.63475 88.1826C3.31307 88.729 3.27725 89.2792 3.43617 89.7592C3.59345 90.2341 3.937 90.628 4.35531 90.8823C4.77357 91.1365 5.27915 91.2586 5.76901 91.1727C6.26442 91.0859 6.72716 90.7888 7.05215 90.2373L6.70752 90.0342C6.43938 90.4893 6.07499 90.713 5.69995 90.7787C5.31936 90.8454 4.91117 90.752 4.56306 90.5405C4.21499 90.3289 3.93954 90.0068 3.81589 89.6334C3.69389 89.265 3.71521 88.8344 3.97945 88.3856L3.63475 88.1826ZM7.05216 90.2372L11.9139 81.983L11.5692 81.78L6.70751 90.0342L7.05216 90.2372ZM11.7416 82.0815H27.5755V81.6815H11.7416V82.0815ZM27.4031 81.983L32.2642 90.2358L32.6088 90.0328L27.7478 81.78L27.4031 81.983ZM32.2641 90.2358C32.589 90.7876 33.0516 91.0847 33.547 91.1716C34.0369 91.2576 34.5425 91.1354 34.9608 90.8812C35.3791 90.627 35.7227 90.2331 35.8801 89.7582C36.039 89.2783 36.0033 88.7282 35.6816 88.1819L35.3369 88.3849C35.6011 88.8335 35.6224 89.264 35.5004 89.6324C35.3767 90.0058 35.1011 90.3279 34.753 90.5394C34.4049 90.751 33.9967 90.8444 33.6161 90.7776C33.2411 90.7119 32.8768 90.4881 32.6089 90.0329L32.2641 90.2358ZM35.6816 88.1819L30.8391 79.961L30.4944 80.164L35.3369 88.3849L35.6816 88.1819ZM30.8404 80.1616L39.254 65.4242L38.9067 65.2259L30.493 79.9633L30.8404 80.1616ZM39.2541 65.4242C39.6083 64.8032 39.6083 64.0384 39.2541 63.4174L38.9066 63.6156C39.1908 64.1138 39.1908 64.7278 38.9066 65.226L39.2541 65.4242ZM39.254 63.4174L31.8667 50.4767L31.5193 50.6751L38.9067 63.6157L39.254 63.4174ZM31.693 50.7759H45.4345V50.3759H31.693V50.7759ZM45.2608 50.6751L53.1555 64.5043L53.5028 64.306L45.6082 50.4767L45.2608 50.6751ZM53.1568 64.3037L48.3143 72.5253L48.659 72.7283L53.5015 64.5067L53.1568 64.3037ZM48.3143 72.5253C47.9925 73.0715 47.9565 73.6216 48.1153 74.1015C48.2725 74.5765 48.616 74.9704 49.0342 75.2246C49.4525 75.4788 49.958 75.601 50.4479 75.515C50.9433 75.4281 51.406 75.131 51.731 74.5792L51.3864 74.3762C51.1182 74.8315 50.7538 75.0553 50.3788 75.121C49.9982 75.1878 49.5901 75.0944 49.242 74.8828C48.894 74.6713 48.6186 74.3492 48.4951 73.9758C48.3731 73.6075 48.3946 73.177 48.659 72.7283L48.3143 72.5253ZM51.731 74.5793L56.5907 66.3306L56.246 66.1275L51.3864 74.3762L51.731 74.5793ZM56.4184 66.429H72.2914V66.029H56.4184V66.429ZM72.1188 66.33L76.9427 74.5746L77.288 74.3726L72.464 66.128L72.1188 66.33ZM76.9427 74.5746C77.2662 75.1273 77.7281 75.4257 78.2233 75.514C78.7129 75.6013 79.2188 75.4806 79.6378 75.2276C80.0568 74.9746 80.4014 74.5816 80.5601 74.1072C80.7204 73.6278 80.6862 73.0777 80.3662 72.5307L80.021 72.7326C80.2838 73.1819 80.3038 73.6123 80.1807 73.9804C80.056 74.3533 79.7796 74.6747 79.431 74.8852C79.0823 75.0958 78.6739 75.1881 78.2935 75.1202C77.9187 75.0534 77.5549 74.8286 77.288 74.3725L76.9427 74.5746ZM80.3662 72.5306L75.5367 64.2771L75.1915 64.4791L80.021 72.7327L80.3662 72.5306ZM75.5378 64.4773L83.9336 49.7711L83.5862 49.5728L75.1904 64.2789L75.5378 64.4773ZM83.9336 49.7711C84.2879 49.15 84.2879 48.3853 83.9336 47.7643L83.5862 47.9625C83.8704 48.4606 83.8704 49.0747 83.5862 49.5729L83.9336 49.7711ZM83.9336 47.7642L75.5138 33.0157L75.1664 33.214L83.5862 47.9625L83.9336 47.7642ZM56.4362 3.81718H72.2433V3.41718H56.4362V3.81718ZM72.0696 3.71633L79.9732 17.5609L80.3206 17.3626L72.417 3.51802L72.0696 3.71633ZM79.9732 17.3626L72.0696 31.2071L72.417 31.4054L80.3206 17.5609L79.9732 17.3626ZM72.2433 31.1063H56.4362V31.5063H72.2433V31.1063ZM56.6099 31.2071L48.7063 17.3626L48.359 17.5609L56.2625 31.4054L56.6099 31.2071ZM48.7063 17.5609L56.6099 3.71633L56.2625 3.51802L48.359 17.3626L48.7063 17.5609ZM29.6281 19.4703H45.4352V19.0703H29.6281V19.4703ZM45.2615 19.3695L53.1651 33.2133L53.5125 33.015L45.6089 19.1712L45.2615 19.3695ZM53.1651 33.015L45.2615 46.8596L45.6089 47.0579L53.5125 33.2133L53.1651 33.015ZM45.4352 46.7587H29.6288V47.1587H45.4352V46.7587ZM29.8024 46.8596L21.8982 33.0157L21.5508 33.214L29.4551 47.0579L29.8024 46.8596ZM21.8982 33.214L29.8018 19.3695L29.4544 19.1712L21.5508 33.0157L21.8982 33.214ZM27.5631 78.065H11.7567V78.465H27.5631V78.065ZM11.9304 78.1658L4.02679 64.3213L3.67941 64.5196L11.583 78.3642L11.9304 78.1658ZM4.02679 64.5196L11.9304 50.6751L11.583 50.4767L3.67941 64.3213L4.02679 64.5196ZM11.7567 50.7759H27.5631V50.3759H11.7567V50.7759ZM27.3894 50.6751L35.293 64.5196L35.6404 64.3213L27.7368 50.4767L27.3894 50.6751ZM35.293 64.3213L27.3894 78.1658L27.7368 78.3642L35.6404 64.5196L35.293 64.3213ZM73.4464 60.705L69.4736 53.9171L69.1284 54.1191L73.1012 60.9071L73.4464 60.705ZM69.4737 53.9171C69.1528 53.3686 68.6918 53.0723 68.1973 52.9843C67.7084 52.8973 67.202 53.0162 66.7821 53.2673C66.3621 53.5184 66.0158 53.9092 65.8563 54.3829C65.6952 54.8617 65.7296 55.4119 66.0509 55.961L66.3961 55.759C66.1318 55.3073 66.112 54.8771 66.2354 54.5105C66.3605 54.139 66.6377 53.8196 66.9873 53.6106C67.337 53.4015 67.7465 53.3103 68.1272 53.3781C68.5024 53.4449 68.8647 53.6682 69.1284 54.1191L69.4737 53.9171ZM66.0509 55.961L70.0016 62.7129L70.3469 62.5109L66.3961 55.759L66.0509 55.961ZM70.1743 62.4119H56.4355V62.8119H70.1743V62.4119ZM56.6092 62.5127L48.7056 48.6688L48.3583 48.8672L56.2618 62.711L56.6092 62.5127ZM48.7056 48.8672L56.6092 35.0219L56.2618 34.8236L48.3583 48.6689L48.7056 48.8672ZM56.4355 35.1228H72.2426V34.7228H56.4355V35.1228ZM72.069 35.0219L79.9725 48.8665L80.3199 48.6682L72.4163 34.8236L72.069 35.0219ZM79.9725 48.6682L73.1001 60.7069L73.4474 60.9052L80.3199 48.8665L79.9725 48.6682ZM64.3398 46.7587C63.2552 46.7587 62.3515 47.6752 62.3515 48.7673H62.7515C62.7515 47.8919 63.4802 47.1587 64.3398 47.1587V46.7587ZM62.3515 48.7675C62.3522 49.8579 63.2557 50.7759 64.3398 50.7759V50.3759C63.4811 50.3759 62.7521 49.6415 62.7515 48.7672L62.3515 48.7675ZM64.3398 50.7759C65.3933 50.7759 66.278 49.9107 66.3244 48.8553L65.9248 48.8377C65.8876 49.6845 65.1741 50.3759 64.3398 50.3759V50.7759ZM66.3244 48.8553C66.374 47.7317 65.4598 46.7587 64.3398 46.7587V47.1587C65.2271 47.1587 65.9646 47.9368 65.9248 48.8377L66.3244 48.8553ZM1.97074 35.1228C3.0547 35.1228 3.95905 34.2049 3.95905 33.1142H3.55905C3.55905 33.9882 2.82955 34.7228 1.97074 34.7228V35.1228ZM3.95905 33.1142C3.95905 32.0234 3.0547 31.1056 1.97074 31.1056V31.5056C2.82955 31.5056 3.55905 32.2401 3.55905 33.1142H3.95905ZM1.97074 31.1056C0.917251 31.1056 0.032529 31.97 -0.0139395 33.0262L0.385674 33.0438C0.422957 32.1964 1.13638 31.5056 1.97074 31.5056V31.1056ZM-0.0139443 33.0263C-0.0627065 34.149 0.851307 35.1228 1.97074 35.1228V34.7228C1.08425 34.7228 0.34657 33.9441 0.385679 33.0437L-0.0139443 33.0263ZM6.81845 24.4659C7.2636 24.727 7.93706 24.7978 8.49968 24.648C8.78445 24.5722 9.0557 24.436 9.25779 24.2236C9.4633 24.0076 9.58827 23.7216 9.58827 23.37H9.18827C9.18827 23.619 9.10275 23.8062 8.96799 23.9479C8.82982 24.0931 8.63104 24.1991 8.39674 24.2615C7.92121 24.3881 7.36036 24.3201 7.02085 24.1209L6.81845 24.4659ZM9.58827 23.37V19.5647H9.18827V23.37H9.58827ZM9.38827 19.7647H11.686V19.3647H9.38827V19.7647ZM11.486 19.5647V23.37H11.886V19.5647H11.486ZM11.486 23.37C11.486 23.8367 11.7143 24.1889 12.0442 24.417C12.368 24.6409 12.7878 24.7459 13.1964 24.7455C13.6051 24.7451 14.0248 24.6392 14.3484 24.4152C14.6779 24.1871 14.9065 23.8354 14.9065 23.37H14.5065C14.5065 23.6867 14.3575 23.9224 14.1207 24.0863C13.878 24.2543 13.5425 24.3452 13.196 24.3455C12.8495 24.3459 12.5142 24.2557 12.2717 24.088C12.0352 23.9245 11.886 23.6885 11.886 23.37H11.486ZM14.9065 23.37V13.5224H14.5065V23.37H14.9065ZM14.9065 13.5224C14.9065 13.0583 14.6775 12.7082 14.3478 12.4816C14.0242 12.2591 13.6046 12.1545 13.1962 12.1545C12.7878 12.1545 12.3683 12.2591 12.0446 12.4816C11.715 12.7082 11.486 13.0583 11.486 13.5224H11.886C11.886 13.2079 12.0345 12.974 12.2712 12.8113C12.5139 12.6444 12.8495 12.5545 13.1962 12.5545C13.543 12.5545 13.8786 12.6444 14.1213 12.8113C14.358 12.974 14.5065 13.2079 14.5065 13.5224H14.9065ZM11.486 13.5224V16.9341H11.886V13.5224H11.486ZM11.686 16.7341H9.38827V17.1341H11.686V16.7341ZM9.58827 16.9341V13.5224H9.18827V16.9341H9.58827ZM9.58827 13.5224C9.58827 13.0583 9.35925 12.7082 9.0296 12.4816C8.70595 12.2591 8.28638 12.1545 7.87799 12.1545C7.4696 12.1545 7.05004 12.2591 6.72638 12.4816C6.39673 12.7082 6.16771 13.0583 6.16771 13.5224H6.56771C6.56771 13.2079 6.71626 12.974 6.95297 12.8113C7.19567 12.6444 7.53124 12.5545 7.87799 12.5545C8.22474 12.5545 8.56032 12.6444 8.80301 12.8113C9.03972 12.974 9.18827 13.2079 9.18827 13.5224H9.58827ZM6.16771 13.5224V23.37H6.56771V13.5224H6.16771ZM6.16771 23.37C6.16771 23.6991 6.3828 23.9971 6.53905 24.1776C6.62203 24.2735 6.70031 24.3494 6.74739 24.3946C6.77642 24.4225 6.78204 24.428 6.78097 24.4267C6.77982 24.4254 6.77676 24.4219 6.77298 24.4168C6.77063 24.4136 6.7608 24.4004 6.75211 24.381C6.74782 24.3714 6.73948 24.3509 6.73624 24.3232C6.73298 24.2953 6.73324 24.243 6.76756 24.1907C6.8036 24.1357 6.85555 24.1133 6.89059 24.1054C6.92266 24.0982 6.94871 24.1007 6.96055 24.1023C6.98462 24.1056 7.00208 24.1126 7.00581 24.1141C7.0123 24.1167 7.01691 24.1189 7.01859 24.1198C7.02203 24.1215 7.02331 24.1223 7.02086 24.1209L6.81845 24.4659C6.82376 24.469 6.83124 24.4733 6.83941 24.4774C6.84346 24.4794 6.85006 24.4826 6.85819 24.4858C6.86356 24.488 6.88231 24.4954 6.90731 24.4988C6.91962 24.5004 6.94605 24.5029 6.97842 24.4957C7.01375 24.4877 7.06591 24.4652 7.10209 24.41C7.13653 24.3574 7.13683 24.3049 7.13354 24.2767C7.13026 24.2487 7.1218 24.2278 7.11731 24.2178C7.10821 24.1974 7.09766 24.1831 7.09428 24.1785C7.08946 24.172 7.08505 24.1668 7.08226 24.1636C7.06799 24.1473 7.04116 24.1221 7.02427 24.1059C6.97952 24.063 6.91204 23.9974 6.84151 23.9159C6.69073 23.7417 6.56771 23.5415 6.56771 23.37H6.16771ZM6.81817 24.4657C6.85211 24.4857 6.87167 24.4973 6.88081 24.5027C6.88312 24.5041 6.88449 24.5049 6.88516 24.5053C6.88559 24.5056 6.88532 24.5054 6.88472 24.505C6.88457 24.5049 6.88339 24.5042 6.88184 24.5032C6.88128 24.5029 6.87911 24.5015 6.87637 24.4996C6.87477 24.4985 6.87047 24.4954 6.86779 24.4933C6.86216 24.4888 6.83907 24.4663 6.82382 24.4464C6.79996 24.2722 6.98269 24.135 7.04315 24.1421C7.05384 24.1454 7.06847 24.151 7.07257 24.1528C7.07476 24.1538 7.07829 24.1555 7.07963 24.1562C7.08054 24.1566 7.0821 24.1575 7.08275 24.1578C7.08499 24.159 7.08669 24.1599 7.08681 24.16C7.08761 24.1604 7.08805 24.1607 7.08769 24.1605C7.0872 24.1602 7.08613 24.1596 7.08432 24.1585C7.06975 24.1501 7.0284 24.1259 6.9891 24.1029C6.96956 24.0914 6.95071 24.0804 6.93621 24.0718C6.92895 24.0676 6.92285 24.064 6.91832 24.0613C6.91604 24.06 6.91424 24.0589 6.91293 24.0581C6.91132 24.0572 6.91115 24.0571 6.91164 24.0574C6.91176 24.0574 6.91257 24.0579 6.91365 24.0586C6.91411 24.0589 6.91546 24.0597 6.91717 24.0609C6.91808 24.0615 6.9204 24.063 6.92179 24.064C6.9242 24.0657 6.93169 24.0714 6.93666 24.0755C6.95371 24.0917 6.99409 24.2994 6.8487 24.4237C6.79713 24.4277 6.73744 24.4154 6.7288 24.4119C6.72535 24.4104 6.7201 24.408 6.71828 24.4071C6.71715 24.4065 6.71525 24.4055 6.71449 24.4051C6.713 24.4044 6.71186 24.4037 6.71142 24.4035C6.71086 24.4032 6.71042 24.403 6.71018 24.4028C6.70943 24.4024 6.70902 24.4022 6.70946 24.4024C6.70972 24.4026 6.71019 24.4028 6.71092 24.4032C6.7139 24.405 6.7194 24.4082 6.72811 24.4132C6.74539 24.4233 6.77439 24.4402 6.81882 24.4661L7.02048 24.1207C6.97602 24.0947 6.94681 24.0777 6.92925 24.0675C6.92053 24.0624 6.91445 24.0589 6.91076 24.0567C6.90982 24.0562 6.90893 24.0557 6.90813 24.0552C6.9075 24.0549 6.90633 24.0542 6.90508 24.0535C6.90471 24.0533 6.90417 24.053 6.90352 24.0526C6.90299 24.0524 6.90178 24.0517 6.90024 24.0509C6.89945 24.0505 6.89753 24.0495 6.89638 24.0489C6.89454 24.048 6.88927 24.0456 6.88582 24.044C6.87717 24.0406 6.81747 24.0282 6.76589 24.0323C6.6205 24.1565 6.66088 24.3642 6.67794 24.3805C6.68292 24.3846 6.69042 24.3903 6.69284 24.392C6.69425 24.393 6.69659 24.3946 6.69752 24.3952C6.69928 24.3963 6.70068 24.3972 6.70122 24.3975C6.70246 24.3983 6.70349 24.3989 6.70389 24.3992C6.70551 24.4002 6.70747 24.4013 6.70888 24.4022C6.71058 24.4032 6.71268 24.4044 6.71508 24.4058C6.71989 24.4087 6.72621 24.4124 6.73355 24.4167C6.74824 24.4253 6.76724 24.4365 6.78687 24.448C6.82592 24.4709 6.86819 24.4956 6.88377 24.5046C6.88572 24.5058 6.88758 24.5068 6.88908 24.5077C6.88971 24.508 6.8909 24.5087 6.89221 24.5095C6.89257 24.5097 6.89446 24.5107 6.89682 24.5119C6.8975 24.5123 6.89909 24.5131 6.90003 24.5136C6.90138 24.5143 6.90493 24.516 6.90714 24.517C6.91125 24.5188 6.92589 24.5244 6.93659 24.5277C6.99706 24.5348 7.17978 24.3976 7.15592 24.2234C7.14067 24.2035 7.11758 24.181 7.11194 24.1765C7.10925 24.1744 7.10493 24.1713 7.10332 24.1702C7.10054 24.1683 7.09831 24.1668 7.09768 24.1664C7.09599 24.1654 7.0946 24.1645 7.09416 24.1642C7.093 24.1635 7.09188 24.1629 7.09117 24.1624C7.08957 24.1615 7.08748 24.1602 7.08503 24.1588C7.07516 24.1529 7.05499 24.141 7.02114 24.1211L6.81817 24.4657ZM6.81839 24.4659C6.91637 24.5234 6.98428 24.5633 7.0288 24.5895C7.05106 24.6025 7.06745 24.6122 7.07881 24.6189C7.09049 24.6258 7.09623 24.6292 7.09779 24.6301C7.09794 24.6302 7.0977 24.63 7.09728 24.6298C7.09711 24.6297 7.09651 24.6293 7.0957 24.6288C7.09527 24.6285 7.09415 24.6278 7.09349 24.6274C7.09232 24.6267 7.08868 24.6242 7.08623 24.6225C7.07758 24.6161 7.01404 24.3887 7.20065 24.259C7.24215 24.2632 7.28654 24.278 7.29115 24.2803C7.29291 24.2812 7.29558 24.2826 7.29649 24.2831C7.29705 24.2834 7.29799 24.2839 7.29835 24.2841C7.29905 24.2845 7.29958 24.2848 7.29974 24.2849C7.29996 24.285 7.30011 24.2851 7.30015 24.2851C7.30022 24.2851 7.29994 24.285 7.2991 24.2845C7.29835 24.2841 7.29734 24.2835 7.29607 24.2827C7.29098 24.2798 7.2825 24.2748 7.27139 24.2683C7.24922 24.2553 7.21701 24.2365 7.18142 24.2156C7.11021 24.1739 7.02572 24.1243 6.98131 24.0982C6.97017 24.0916 6.96174 24.0867 6.95669 24.0837C6.95386 24.082 6.95295 24.0814 6.95312 24.0815C6.95322 24.0816 6.95346 24.0818 6.95379 24.082C6.95405 24.0821 6.95475 24.0826 6.95567 24.0831C6.95613 24.0834 6.95727 24.0842 6.95793 24.0846C6.95895 24.0852 6.96173 24.0871 6.96348 24.0883C6.96712 24.0909 6.98277 24.1037 6.994 24.1146C7.04081 24.3082 6.83824 24.4519 6.7802 24.4401C6.77278 24.4372 6.76268 24.4327 6.75992 24.4313C6.75847 24.4306 6.75615 24.4294 6.75528 24.429C6.75371 24.4281 6.75252 24.4275 6.7522 24.4273C6.7517 24.427 6.75134 24.4268 6.75119 24.4267C6.75101 24.4266 6.75089 24.4266 6.75087 24.4265C6.75086 24.4265 6.75124 24.4268 6.75223 24.4273C6.75314 24.4279 6.75437 24.4286 6.75594 24.4295C6.75908 24.4313 6.7634 24.4338 6.76905 24.4371C6.78032 24.4437 6.79662 24.4532 6.81882 24.4661L7.02048 24.1207C6.99823 24.1077 6.98176 24.0981 6.97028 24.0914C6.96455 24.0881 6.95999 24.0854 6.95655 24.0834C6.95336 24.0816 6.9505 24.0799 6.94855 24.0788C6.94808 24.0785 6.9471 24.078 6.94596 24.0774C6.94549 24.0771 6.94419 24.0764 6.94254 24.0755C6.94162 24.075 6.93926 24.0738 6.9378 24.0731C6.93501 24.0717 6.92489 24.0672 6.91745 24.0643C6.8594 24.0525 6.65683 24.1962 6.70365 24.3898C6.71489 24.4007 6.73055 24.4135 6.73421 24.4161C6.73597 24.4173 6.73878 24.4192 6.73984 24.4199C6.74053 24.4203 6.74172 24.4211 6.74223 24.4214C6.74394 24.4225 6.74541 24.4234 6.74575 24.4236C6.74767 24.4248 6.75041 24.4264 6.75288 24.4279C6.75845 24.4311 6.7673 24.4364 6.77845 24.4429C6.82319 24.4693 6.90793 24.519 6.97916 24.5607C7.01479 24.5816 7.04711 24.6005 7.06943 24.6136C7.08056 24.6201 7.08931 24.6252 7.09476 24.6284C7.09726 24.6298 7.0997 24.6313 7.10129 24.6322C7.10155 24.6323 7.1027 24.633 7.10403 24.6337C7.10444 24.6339 7.10542 24.6345 7.10601 24.6348C7.10695 24.6353 7.10965 24.6367 7.11143 24.6376C7.11605 24.6399 7.16045 24.6547 7.20196 24.659C7.38857 24.5292 7.32502 24.3018 7.31636 24.2954C7.3139 24.2937 7.31024 24.2912 7.30904 24.2905C7.30835 24.29 7.30719 24.2893 7.30672 24.289C7.30583 24.2884 7.3051 24.288 7.30478 24.2878C7.30405 24.2874 7.30339 24.287 7.30298 24.2867C7.30005 24.285 7.29296 24.2808 7.28179 24.2742C7.27029 24.2674 7.2538 24.2577 7.2315 24.2446C7.1869 24.2184 7.11892 24.1785 7.02092 24.1209L6.81839 24.4659ZM67.576 70.8901C66.7724 70.1917 65.6471 69.8491 64.5353 69.8485C63.4234 69.8479 62.2985 70.1891 61.4963 70.892L61.7599 71.1929C62.4735 70.5676 63.4973 70.2479 64.535 70.2485C65.5728 70.2491 66.5979 70.57 67.3136 71.192L67.576 70.8901ZM61.4964 70.892C60.6853 71.6025 60.292 72.6914 60.292 74.0882H60.692C60.692 72.7635 61.0635 71.8029 61.7599 71.1929L61.4964 70.892ZM60.292 74.0882V78.315H60.692V74.0882H60.292ZM60.292 78.315C60.292 79.7125 60.6853 80.8014 61.4964 81.5119L61.7599 81.211C61.0635 80.601 60.692 79.6405 60.692 78.315H60.292ZM61.4964 81.5119C62.2989 82.2148 63.4242 82.5559 64.5361 82.5552C65.648 82.5544 66.7731 82.2119 67.576 81.5138L67.3135 81.2119C66.5986 81.8336 65.5736 82.1545 64.5358 82.1552C63.498 82.1558 62.4738 81.8363 61.7599 81.211L61.4964 81.5119ZM67.5759 81.5138C68.3935 80.8035 68.7905 79.7136 68.7905 78.315H68.3905C68.3905 79.6407 68.0159 80.6017 67.3136 81.2119L67.5759 81.5138ZM68.7905 78.315V74.0882H68.3905V78.315H68.7905ZM68.7905 74.0882C68.7905 72.6903 68.3935 71.6004 67.5759 70.8901L67.3136 71.192C68.0159 71.8022 68.3905 72.7633 68.3905 74.0882H68.7905ZM67.576 70.8902C67.484 70.8102 67.4269 70.7605 67.396 70.7335C67.3804 70.72 67.3716 70.7123 67.3682 70.7093C67.3671 70.7084 67.3671 70.7084 67.3675 70.7087C67.3676 70.7088 67.3679 70.7091 67.3681 70.7093C67.3685 70.7096 67.3696 70.7106 67.3704 70.7114C67.3735 70.7143 67.3911 70.9832 67.1286 71.0278C67.1188 71.0213 67.1081 71.0131 67.1069 71.0121C67.1064 71.0117 67.1057 71.0111 67.1054 71.0109C67.1053 71.0107 67.105 71.0105 67.1049 71.0105C67.1048 71.0103 67.1047 71.0102 67.1047 71.0103C67.1052 71.0107 67.1069 71.0122 67.1101 71.0149C67.1349 71.0364 67.229 71.1182 67.3226 71.1996C67.4161 71.2809 67.5087 71.3614 67.5305 71.3804C67.5318 71.3816 67.5329 71.3824 67.5336 71.3831C67.5346 71.384 67.5344 71.3838 67.5339 71.3834C67.5338 71.3832 67.5333 71.3828 67.533 71.3825C67.5324 71.382 67.5297 71.3795 67.5277 71.3776C67.4887 71.1426 67.7491 71.0516 67.791 71.0771C67.7927 71.0785 67.7949 71.0803 67.7955 71.0808C67.7965 71.0816 67.7973 71.0823 67.7968 71.0819C67.7966 71.0817 67.796 71.0812 67.7948 71.0802C67.7905 71.0764 67.7805 71.0678 67.7639 71.0534C67.7307 71.0245 67.6709 70.9726 67.5759 70.8901L67.3136 71.192C67.4086 71.2746 67.4684 71.3265 67.5016 71.3554C67.5183 71.3698 67.5284 71.3786 67.533 71.3826C67.5341 71.3835 67.535 71.3844 67.5357 71.3849C67.5359 71.3851 67.5361 71.3853 67.5364 71.3855C67.5365 71.3856 67.5371 71.3861 67.5379 71.3868C67.5385 71.3873 67.5407 71.3891 67.5424 71.3905C67.5843 71.4161 67.8447 71.325 67.8057 71.09C67.8037 71.0881 67.801 71.0856 67.8004 71.085C67.8 71.0847 67.7995 71.0843 67.7993 71.0841C67.7984 71.0833 67.7972 71.0823 67.7967 71.0818C67.7958 71.081 67.7947 71.08 67.7933 71.0788C67.7713 71.0597 67.6784 70.9789 67.585 70.8977C67.4915 70.8164 67.3972 70.7345 67.3722 70.7128C67.3692 70.7102 67.3669 70.7082 67.3657 70.7072C67.3656 70.707 67.3653 70.7068 67.365 70.7066C67.3649 70.7064 67.3646 70.7062 67.3644 70.706C67.3641 70.7058 67.3633 70.7051 67.3628 70.7047C67.3616 70.7037 67.3509 70.6955 67.3411 70.6889C67.0785 70.7336 67.0961 71.0025 67.0993 71.0054C67.1001 71.0062 67.1013 71.0072 67.1016 71.0076C67.1019 71.0078 67.1023 71.0081 67.1024 71.0083C67.1032 71.009 67.1043 71.0099 67.105 71.0106C67.1087 71.0138 67.1179 71.0218 67.1333 71.0352C67.1644 71.0622 67.2215 71.112 67.3135 71.192L67.576 70.8902ZM63.7119 74.0882C63.7119 73.7346 63.825 73.4884 63.977 73.3317C64.1304 73.1736 64.3349 73.0943 64.5407 73.0945C64.7466 73.0947 64.9513 73.1743 65.1048 73.3327C65.2569 73.4895 65.37 73.7356 65.37 74.0882H65.77C65.77 73.646 65.6258 73.2954 65.392 73.0542C65.1596 72.8145 64.8498 72.6948 64.5411 72.6945C64.2324 72.6943 63.9224 72.8135 63.6899 73.0532C63.456 73.2943 63.3119 73.6452 63.3119 74.0882H63.7119ZM65.37 74.0882V78.315H65.77V74.0882H65.37ZM65.37 78.315C65.37 78.6676 65.2569 78.9137 65.1048 79.0706C64.9513 79.2289 64.7466 79.3085 64.5407 79.3087C64.3349 79.3089 64.1304 79.2296 63.977 79.0715C63.825 78.9149 63.7119 78.6686 63.7119 78.315H63.3119C63.3119 78.758 63.456 79.1089 63.6899 79.35C63.9224 79.5897 64.2324 79.709 64.5411 79.7087C64.8498 79.7085 65.1596 79.5887 65.392 79.349C65.6258 79.1078 65.77 78.7573 65.77 78.315H65.37ZM63.7119 78.315V74.0882H63.3119V78.315H63.7119ZM34.5578 12.0539C35.3632 12.7661 36.4675 13.1054 37.5633 13.1054C38.659 13.1054 39.7677 12.7662 40.5864 12.094L40.3326 11.7849C39.5971 12.3888 38.5828 12.7054 37.5633 12.7054C36.5438 12.7054 35.5406 12.3889 34.8227 11.7542L34.5578 12.0539ZM40.5865 12.094C41.4282 11.4027 41.854 10.4692 41.854 9.33662H41.454C41.454 10.3563 41.0767 11.1738 40.3326 11.7849L40.5865 12.094ZM41.854 9.33662C41.854 8.31123 41.0192 7.7253 40.2145 7.62962C39.8087 7.58137 39.3863 7.65211 39.0505 7.86804C38.7083 8.08812 38.4704 8.45081 38.4347 8.94807L38.8336 8.97674C38.8604 8.60442 39.0312 8.35606 39.2669 8.20447C39.5091 8.04872 39.8338 7.98716 40.1673 8.02682C40.8413 8.10696 41.454 8.57772 41.454 9.33662H41.854ZM38.4344 8.95301C38.4184 9.29142 38.2989 9.52096 38.1459 9.66319C37.9915 9.80682 37.79 9.87387 37.5875 9.86427C37.1924 9.84555 36.776 9.53009 36.776 8.86729H36.376C36.376 9.73606 36.9527 10.2346 37.5686 10.2638C37.8716 10.2782 38.1801 10.1776 38.4184 9.95609C38.6581 9.73313 38.8138 9.39987 38.8339 8.9718L38.4344 8.95301ZM36.776 8.86729V4.64054H36.376V8.86729H36.776ZM36.776 4.64054C36.776 4.02112 37.1813 3.6926 37.5831 3.65169C37.7866 3.63098 37.9864 3.68407 38.1392 3.80783C38.2896 3.92961 38.4104 4.13265 38.4348 4.44307L38.8335 4.41172C38.8016 4.00599 38.637 3.69622 38.3909 3.49697C38.1473 3.2997 37.8396 3.22352 37.5426 3.25375C36.9436 3.31473 36.376 3.80892 36.376 4.64054H36.776ZM38.4343 4.4348C38.4527 4.93064 38.6834 5.29463 39.0239 5.51607C39.3571 5.7328 39.7816 5.80511 40.1905 5.75884C41.0008 5.66714 41.854 5.08624 41.854 4.04971H41.454C41.454 4.81483 40.8292 5.28401 40.1455 5.36138C39.8074 5.39964 39.481 5.33621 39.242 5.18076C39.0102 5.03003 38.8475 4.7854 38.834 4.41999L38.4343 4.4348ZM41.854 4.04971C41.854 2.9502 41.423 2.04407 40.5761 1.37403L40.3279 1.68773C41.0764 2.27988 41.454 3.06918 41.454 4.04971H41.854ZM40.5759 1.37394C39.7507 0.722056 38.6463 0.395828 37.5564 0.40194C36.4665 0.408053 35.3706 0.746798 34.5673 1.45133L34.831 1.75206C35.5476 1.12358 36.5441 0.807624 37.5587 0.801934C38.5733 0.796243 39.5853 1.10111 40.328 1.68782L40.5759 1.37394ZM34.5672 1.45138C33.7521 2.16683 33.3555 3.25234 33.3555 4.64054H33.7555C33.7555 3.32661 34.1291 2.36818 34.8311 1.75201L34.5672 1.45138ZM33.3555 4.64054V8.86729H33.7555V4.64054H33.3555ZM33.3555 8.86729C33.3555 10.2536 33.7484 11.339 34.5579 12.054L34.8226 11.7541C34.126 11.1388 33.7555 10.1804 33.7555 8.86729H33.3555Z" fill="white" mask="url(#path-1-inside-1)"/>
</svg>
