<svg width="107" height="91" viewBox="0 0 107 91" fill="none" xmlns="http://www.w3.org/2000/svg">
<mask id="path-1-inside-1" fill="white">
<path d="M86.9803 9.37151L85.8571 1.3186C85.8004 0.913139 85.5845 0.547326 85.2573 0.302751C84.9302 0.0583868 84.5193 -0.0443927 84.1158 0.0176948L75.2766 1.37649C74.4438 1.50444 73.8722 2.28578 73.9997 3.12144C74.1272 3.95731 74.9061 4.53141 75.7382 4.40304L80.8891 3.61122C74.001 12.1585 66.5927 19.4391 58.8333 25.2726C52.0814 30.3487 45.0506 34.3496 37.9361 37.1645C25.8278 41.9551 17.5595 41.6404 17.4782 41.6375C16.6352 41.5947 15.924 42.2487 15.8832 43.0924C15.8423 43.9368 16.4912 44.6546 17.3325 44.6957C17.3823 44.698 17.5904 44.7071 17.9474 44.7071C20.145 44.7071 27.9636 44.3685 38.8636 40.088C46.2549 37.1855 53.5491 33.0552 60.5438 27.8117C68.5818 21.7861 76.2431 14.262 83.3499 5.42644L83.9593 9.79605C84.0661 10.5615 84.7193 11.1148 85.4679 11.1148C85.5381 11.1148 85.6096 11.11 85.6813 11.0999C86.5156 10.9826 87.0972 10.2089 86.9803 9.37151Z"/>
<path d="M104.186 82.5729H91.8599C92.8745 81.8958 93.83 81.1134 94.7111 80.2289C98.1842 76.743 100.097 72.1082 100.097 67.1785C100.097 62.2487 98.1842 57.6139 94.7111 54.1282C93.4739 52.8865 92.1005 51.8641 90.6417 51.0509V44.8707C90.6417 44.0251 89.9588 43.3399 89.1166 43.3399C88.2742 43.3399 87.5914 44.0254 87.5914 44.8707V49.6913C83.4165 48.2727 78.8832 48.4078 74.8066 50.0686V31.2645C74.8066 31.0665 74.9671 30.9054 75.1644 30.9054H87.2336C87.4309 30.9054 87.5914 31.0665 87.5914 31.2645V35.0642C87.5914 35.9097 88.2744 36.595 89.1166 36.595C89.959 36.595 90.6417 35.9095 90.6417 35.0642V31.2645C90.6417 29.3782 89.1128 27.8436 87.2334 27.8436H75.1642C73.2848 27.8436 71.7558 29.3782 71.7558 31.2645V51.6615C70.6754 52.3598 69.6509 53.1795 68.7063 54.1278C65.2332 57.6137 63.3206 62.2485 63.3206 67.1781C63.3206 72.108 65.2332 76.7427 68.7063 80.2284C69.5874 81.1128 70.5429 81.8954 71.5575 82.5725H61.926V45.1551C61.926 43.2688 60.3971 41.7342 58.5177 41.7342H46.4487C44.5693 41.7342 43.0403 43.2688 43.0403 45.1551V82.5729H33.2103V57.7482C33.2103 55.8618 31.6814 54.3273 29.802 54.3273H17.7327C15.8533 54.3273 14.3244 55.8618 14.3244 57.7482V82.5729H8.04172V3.84426C8.04172 2.28662 6.77924 1.01948 5.22733 1.01948H2.81439C1.26247 1.01948 0 2.28662 0 3.84426V14.7125C0 15.558 0.682961 16.2433 1.52517 16.2433C2.36737 16.2433 3.05034 15.5578 3.05034 14.7125V4.08128H4.99096V82.8099C4.99096 84.3675 6.25365 85.6347 7.80536 85.6347H103.949V87.9384H3.05054V24.3864C3.05054 23.5409 2.36758 22.8556 1.52538 22.8556C0.68317 22.8556 0 23.5409 0 24.3864V88.1752C0 89.7329 1.26247 91 2.81439 91H104.186C105.738 91 107 89.7329 107 88.1752V85.3974C107 83.84 105.738 82.5729 104.186 82.5729ZM30.1598 82.5729H17.375V57.7482C17.375 57.5502 17.5355 57.3891 17.7327 57.3891H29.802C29.9993 57.3891 30.1598 57.5502 30.1598 57.7482V82.5729ZM46.0907 82.5729V45.1551C46.0907 44.9571 46.2512 44.796 46.4484 44.796H58.5175C58.7148 44.796 58.8753 44.9571 58.8753 45.1551V82.5729H46.0907ZM88.4466 81.0077C86.9018 81.766 85.2232 82.2587 83.5135 82.4638C83.4847 82.4672 83.456 82.4711 83.4272 82.4745C83.3104 82.4879 83.1935 82.4993 83.0765 82.51C82.898 82.5257 82.7194 82.5399 82.5398 82.5494C82.4832 82.5525 82.4266 82.5542 82.3699 82.5567C82.1503 82.566 81.93 82.5729 81.7087 82.5729C81.4868 82.5729 81.2661 82.566 81.0458 82.5567C80.9762 82.5538 80.9064 82.5504 80.837 82.5465C80.6709 82.5372 80.5054 82.5244 80.3401 82.51C80.203 82.4976 80.0661 82.4831 79.9294 82.467C79.8316 82.4556 79.734 82.4441 79.6368 82.4309C79.4979 82.4118 79.3593 82.3916 79.221 82.3688C79.203 82.3659 79.185 82.3625 79.167 82.3594C77.3675 82.056 75.6296 81.4333 74.044 80.5139C74.0356 80.5091 74.0269 80.506 74.0185 80.5013C72.8804 79.837 71.8189 79.0232 70.8633 78.0638C67.9663 75.1562 66.3709 71.2904 66.3709 67.1783C66.3709 63.0663 67.9663 59.2005 70.8633 56.2929C71.9725 55.1795 73.2114 54.2738 74.5309 53.5734C74.5681 53.5535 74.6058 53.5346 74.6432 53.5151C76.8507 52.3669 79.2793 51.7913 81.7087 51.7913C83.6508 51.7913 85.5927 52.1597 87.4213 52.8934C87.4531 52.9062 87.485 52.9183 87.5166 52.9313C87.7066 53.009 87.8949 53.0918 88.0821 53.1774C88.1567 53.2116 88.2311 53.2472 88.3053 53.2827C89.8426 54.016 91.2835 55.0176 92.554 56.2927C98.534 62.295 98.534 72.0612 92.554 78.0636C91.3517 79.2709 89.9828 80.2488 88.5022 80.9846C88.4838 80.9928 88.4648 80.9987 88.4466 81.0077Z"/>
<path d="M82.4176 65.6964V60.2438C84.2909 60.3781 84.9868 61.2376 85.6291 61.2376C86.432 61.2376 86.8067 60.217 86.8067 59.7066C86.8067 58.3904 84.2376 57.8264 82.4178 57.7727V57.0474C82.4178 56.725 82.0165 56.4296 81.6151 56.4296C81.1601 56.4296 80.8389 56.725 80.8389 57.0474V57.8264C78.2964 58.0951 75.7541 59.4382 75.7541 62.8226C75.7541 66.2607 78.4304 67.2276 80.8389 68.0872V74.3994C78.1092 74.1846 77.3867 72.3043 76.5035 72.3043C75.8344 72.3043 75.2724 73.1905 75.2724 73.8353C75.2724 75.1515 77.5205 76.9512 80.8389 77.0049H80.8387V77.8375C80.8387 78.1599 81.1599 78.4552 81.6149 78.4552C82.0161 78.4552 82.4176 78.1599 82.4176 77.8375V76.9242C85.3078 76.5212 87.2882 74.6947 87.2882 71.3908C87.2882 67.7377 84.7459 66.556 82.4176 65.6964ZM80.9996 65.1861C79.581 64.6489 78.4304 64.0849 78.4306 62.5539C78.4306 61.1569 79.501 60.4855 80.9996 60.2975V65.1861ZM82.2573 74.3457V68.6781C83.5687 69.2421 84.6123 69.9941 84.6123 71.6864C84.6123 73.2176 83.7024 74.0772 82.2573 74.3457Z"/>
</mask>
<path d="M86.9803 9.37151L85.8571 1.3186C85.8004 0.913139 85.5845 0.547326 85.2573 0.302751C84.9302 0.0583868 84.5193 -0.0443927 84.1158 0.0176948L75.2766 1.37649C74.4438 1.50444 73.8722 2.28578 73.9997 3.12144C74.1272 3.95731 74.9061 4.53141 75.7382 4.40304L80.8891 3.61122C74.001 12.1585 66.5927 19.4391 58.8333 25.2726C52.0814 30.3487 45.0506 34.3496 37.9361 37.1645C25.8278 41.9551 17.5595 41.6404 17.4782 41.6375C16.6352 41.5947 15.924 42.2487 15.8832 43.0924C15.8423 43.9368 16.4912 44.6546 17.3325 44.6957C17.3823 44.698 17.5904 44.7071 17.9474 44.7071C20.145 44.7071 27.9636 44.3685 38.8636 40.088C46.2549 37.1855 53.5491 33.0552 60.5438 27.8117C68.5818 21.7861 76.2431 14.262 83.3499 5.42644L83.9593 9.79605C84.0661 10.5615 84.7193 11.1148 85.4679 11.1148C85.5381 11.1148 85.6096 11.11 85.6813 11.0999C86.5156 10.9826 87.0972 10.2089 86.9803 9.37151Z" fill="#2B3035"/>
<path d="M104.186 82.5729H91.8599C92.8745 81.8958 93.83 81.1134 94.7111 80.2289C98.1842 76.743 100.097 72.1082 100.097 67.1785C100.097 62.2487 98.1842 57.6139 94.7111 54.1282C93.4739 52.8865 92.1005 51.8641 90.6417 51.0509V44.8707C90.6417 44.0251 89.9588 43.3399 89.1166 43.3399C88.2742 43.3399 87.5914 44.0254 87.5914 44.8707V49.6913C83.4165 48.2727 78.8832 48.4078 74.8066 50.0686V31.2645C74.8066 31.0665 74.9671 30.9054 75.1644 30.9054H87.2336C87.4309 30.9054 87.5914 31.0665 87.5914 31.2645V35.0642C87.5914 35.9097 88.2744 36.595 89.1166 36.595C89.959 36.595 90.6417 35.9095 90.6417 35.0642V31.2645C90.6417 29.3782 89.1128 27.8436 87.2334 27.8436H75.1642C73.2848 27.8436 71.7558 29.3782 71.7558 31.2645V51.6615C70.6754 52.3598 69.6509 53.1795 68.7063 54.1278C65.2332 57.6137 63.3206 62.2485 63.3206 67.1781C63.3206 72.108 65.2332 76.7427 68.7063 80.2284C69.5874 81.1128 70.5429 81.8954 71.5575 82.5725H61.926V45.1551C61.926 43.2688 60.3971 41.7342 58.5177 41.7342H46.4487C44.5693 41.7342 43.0403 43.2688 43.0403 45.1551V82.5729H33.2103V57.7482C33.2103 55.8618 31.6814 54.3273 29.802 54.3273H17.7327C15.8533 54.3273 14.3244 55.8618 14.3244 57.7482V82.5729H8.04172V3.84426C8.04172 2.28662 6.77924 1.01948 5.22733 1.01948H2.81439C1.26247 1.01948 0 2.28662 0 3.84426V14.7125C0 15.558 0.682961 16.2433 1.52517 16.2433C2.36737 16.2433 3.05034 15.5578 3.05034 14.7125V4.08128H4.99096V82.8099C4.99096 84.3675 6.25365 85.6347 7.80536 85.6347H103.949V87.9384H3.05054V24.3864C3.05054 23.5409 2.36758 22.8556 1.52538 22.8556C0.68317 22.8556 0 23.5409 0 24.3864V88.1752C0 89.7329 1.26247 91 2.81439 91H104.186C105.738 91 107 89.7329 107 88.1752V85.3974C107 83.84 105.738 82.5729 104.186 82.5729ZM30.1598 82.5729H17.375V57.7482C17.375 57.5502 17.5355 57.3891 17.7327 57.3891H29.802C29.9993 57.3891 30.1598 57.5502 30.1598 57.7482V82.5729ZM46.0907 82.5729V45.1551C46.0907 44.9571 46.2512 44.796 46.4484 44.796H58.5175C58.7148 44.796 58.8753 44.9571 58.8753 45.1551V82.5729H46.0907ZM88.4466 81.0077C86.9018 81.766 85.2232 82.2587 83.5135 82.4638C83.4847 82.4672 83.456 82.4711 83.4272 82.4745C83.3104 82.4879 83.1935 82.4993 83.0765 82.51C82.898 82.5257 82.7194 82.5399 82.5398 82.5494C82.4832 82.5525 82.4266 82.5542 82.3699 82.5567C82.1503 82.566 81.93 82.5729 81.7087 82.5729C81.4868 82.5729 81.2661 82.566 81.0458 82.5567C80.9762 82.5538 80.9064 82.5504 80.837 82.5465C80.6709 82.5372 80.5054 82.5244 80.3401 82.51C80.203 82.4976 80.0661 82.4831 79.9294 82.467C79.8316 82.4556 79.734 82.4441 79.6368 82.4309C79.4979 82.4118 79.3593 82.3916 79.221 82.3688C79.203 82.3659 79.185 82.3625 79.167 82.3594C77.3675 82.056 75.6296 81.4333 74.044 80.5139C74.0356 80.5091 74.0269 80.506 74.0185 80.5013C72.8804 79.837 71.8189 79.0232 70.8633 78.0638C67.9663 75.1562 66.3709 71.2904 66.3709 67.1783C66.3709 63.0663 67.9663 59.2005 70.8633 56.2929C71.9725 55.1795 73.2114 54.2738 74.5309 53.5734C74.5681 53.5535 74.6058 53.5346 74.6432 53.5151C76.8507 52.3669 79.2793 51.7913 81.7087 51.7913C83.6508 51.7913 85.5927 52.1597 87.4213 52.8934C87.4531 52.9062 87.485 52.9183 87.5166 52.9313C87.7066 53.009 87.8949 53.0918 88.0821 53.1774C88.1567 53.2116 88.2311 53.2472 88.3053 53.2827C89.8426 54.016 91.2835 55.0176 92.554 56.2927C98.534 62.295 98.534 72.0612 92.554 78.0636C91.3517 79.2709 89.9828 80.2488 88.5022 80.9846C88.4838 80.9928 88.4648 80.9987 88.4466 81.0077Z" fill="#2B3035"/>
<path d="M82.4176 65.6964V60.2438C84.2909 60.3781 84.9868 61.2376 85.6291 61.2376C86.432 61.2376 86.8067 60.217 86.8067 59.7066C86.8067 58.3904 84.2376 57.8264 82.4178 57.7727V57.0474C82.4178 56.725 82.0165 56.4296 81.6151 56.4296C81.1601 56.4296 80.8389 56.725 80.8389 57.0474V57.8264C78.2964 58.0951 75.7541 59.4382 75.7541 62.8226C75.7541 66.2607 78.4304 67.2276 80.8389 68.0872V74.3994C78.1092 74.1846 77.3867 72.3043 76.5035 72.3043C75.8344 72.3043 75.2724 73.1905 75.2724 73.8353C75.2724 75.1515 77.5205 76.9512 80.8389 77.0049H80.8387V77.8375C80.8387 78.1599 81.1599 78.4552 81.6149 78.4552C82.0161 78.4552 82.4176 78.1599 82.4176 77.8375V76.9242C85.3078 76.5212 87.2882 74.6947 87.2882 71.3908C87.2882 67.7377 84.7459 66.556 82.4176 65.6964ZM80.9996 65.1861C79.581 64.6489 78.4304 64.0849 78.4306 62.5539C78.4306 61.1569 79.501 60.4855 80.9996 60.2975V65.1861ZM82.2573 74.3457V68.6781C83.5687 69.2421 84.6123 69.9941 84.6123 71.6864C84.6123 73.2176 83.7024 74.0772 82.2573 74.3457Z" fill="#2B3035"/>
<path d="M86.9803 9.37151L85.8571 1.3186C85.8004 0.913139 85.5845 0.547326 85.2573 0.302751C84.9302 0.0583868 84.5193 -0.0443927 84.1158 0.0176948L75.2766 1.37649C74.4438 1.50444 73.8722 2.28578 73.9997 3.12144C74.1272 3.95731 74.9061 4.53141 75.7382 4.40304L80.8891 3.61122C74.001 12.1585 66.5927 19.4391 58.8333 25.2726C52.0814 30.3487 45.0506 34.3496 37.9361 37.1645C25.8278 41.9551 17.5595 41.6404 17.4782 41.6375C16.6352 41.5947 15.924 42.2487 15.8832 43.0924C15.8423 43.9368 16.4912 44.6546 17.3325 44.6957C17.3823 44.698 17.5904 44.7071 17.9474 44.7071C20.145 44.7071 27.9636 44.3685 38.8636 40.088C46.2549 37.1855 53.5491 33.0552 60.5438 27.8117C68.5818 21.7861 76.2431 14.262 83.3499 5.42644L83.9593 9.79605C84.0661 10.5615 84.7193 11.1148 85.4679 11.1148C85.5381 11.1148 85.6096 11.11 85.6813 11.0999C86.5156 10.9826 87.0972 10.2089 86.9803 9.37151Z" stroke="white" stroke-width="0.2" mask="url(#path-1-inside-1)"/>
<path d="M104.186 82.5729H91.8599C92.8745 81.8958 93.83 81.1134 94.7111 80.2289C98.1842 76.743 100.097 72.1082 100.097 67.1785C100.097 62.2487 98.1842 57.6139 94.7111 54.1282C93.4739 52.8865 92.1005 51.8641 90.6417 51.0509V44.8707C90.6417 44.0251 89.9588 43.3399 89.1166 43.3399C88.2742 43.3399 87.5914 44.0254 87.5914 44.8707V49.6913C83.4165 48.2727 78.8832 48.4078 74.8066 50.0686V31.2645C74.8066 31.0665 74.9671 30.9054 75.1644 30.9054H87.2336C87.4309 30.9054 87.5914 31.0665 87.5914 31.2645V35.0642C87.5914 35.9097 88.2744 36.595 89.1166 36.595C89.959 36.595 90.6417 35.9095 90.6417 35.0642V31.2645C90.6417 29.3782 89.1128 27.8436 87.2334 27.8436H75.1642C73.2848 27.8436 71.7558 29.3782 71.7558 31.2645V51.6615C70.6754 52.3598 69.6509 53.1795 68.7063 54.1278C65.2332 57.6137 63.3206 62.2485 63.3206 67.1781C63.3206 72.108 65.2332 76.7427 68.7063 80.2284C69.5874 81.1128 70.5429 81.8954 71.5575 82.5725H61.926V45.1551C61.926 43.2688 60.3971 41.7342 58.5177 41.7342H46.4487C44.5693 41.7342 43.0403 43.2688 43.0403 45.1551V82.5729H33.2103V57.7482C33.2103 55.8618 31.6814 54.3273 29.802 54.3273H17.7327C15.8533 54.3273 14.3244 55.8618 14.3244 57.7482V82.5729H8.04172V3.84426C8.04172 2.28662 6.77924 1.01948 5.22733 1.01948H2.81439C1.26247 1.01948 0 2.28662 0 3.84426V14.7125C0 15.558 0.682961 16.2433 1.52517 16.2433C2.36737 16.2433 3.05034 15.5578 3.05034 14.7125V4.08128H4.99096V82.8099C4.99096 84.3675 6.25365 85.6347 7.80536 85.6347H103.949V87.9384H3.05054V24.3864C3.05054 23.5409 2.36758 22.8556 1.52538 22.8556C0.68317 22.8556 0 23.5409 0 24.3864V88.1752C0 89.7329 1.26247 91 2.81439 91H104.186C105.738 91 107 89.7329 107 88.1752V85.3974C107 83.84 105.738 82.5729 104.186 82.5729ZM30.1598 82.5729H17.375V57.7482C17.375 57.5502 17.5355 57.3891 17.7327 57.3891H29.802C29.9993 57.3891 30.1598 57.5502 30.1598 57.7482V82.5729ZM46.0907 82.5729V45.1551C46.0907 44.9571 46.2512 44.796 46.4484 44.796H58.5175C58.7148 44.796 58.8753 44.9571 58.8753 45.1551V82.5729H46.0907ZM88.4466 81.0077C86.9018 81.766 85.2232 82.2587 83.5135 82.4638C83.4847 82.4672 83.456 82.4711 83.4272 82.4745C83.3104 82.4879 83.1935 82.4993 83.0765 82.51C82.898 82.5257 82.7194 82.5399 82.5398 82.5494C82.4832 82.5525 82.4266 82.5542 82.3699 82.5567C82.1503 82.566 81.93 82.5729 81.7087 82.5729C81.4868 82.5729 81.2661 82.566 81.0458 82.5567C80.9762 82.5538 80.9064 82.5504 80.837 82.5465C80.6709 82.5372 80.5054 82.5244 80.3401 82.51C80.203 82.4976 80.0661 82.4831 79.9294 82.467C79.8316 82.4556 79.734 82.4441 79.6368 82.4309C79.4979 82.4118 79.3593 82.3916 79.221 82.3688C79.203 82.3659 79.185 82.3625 79.167 82.3594C77.3675 82.056 75.6296 81.4333 74.044 80.5139C74.0356 80.5091 74.0269 80.506 74.0185 80.5013C72.8804 79.837 71.8189 79.0232 70.8633 78.0638C67.9663 75.1562 66.3709 71.2904 66.3709 67.1783C66.3709 63.0663 67.9663 59.2005 70.8633 56.2929C71.9725 55.1795 73.2114 54.2738 74.5309 53.5734C74.5681 53.5535 74.6058 53.5346 74.6432 53.5151C76.8507 52.3669 79.2793 51.7913 81.7087 51.7913C83.6508 51.7913 85.5927 52.1597 87.4213 52.8934C87.4531 52.9062 87.485 52.9183 87.5166 52.9313C87.7066 53.009 87.8949 53.0918 88.0821 53.1774C88.1567 53.2116 88.2311 53.2472 88.3053 53.2827C89.8426 54.016 91.2835 55.0176 92.554 56.2927C98.534 62.295 98.534 72.0612 92.554 78.0636C91.3517 79.2709 89.9828 80.2488 88.5022 80.9846C88.4838 80.9928 88.4648 80.9987 88.4466 81.0077Z" stroke="white" stroke-width="0.2" mask="url(#path-1-inside-1)"/>
<path d="M82.4176 65.6964V60.2438C84.2909 60.3781 84.9868 61.2376 85.6291 61.2376C86.432 61.2376 86.8067 60.217 86.8067 59.7066C86.8067 58.3904 84.2376 57.8264 82.4178 57.7727V57.0474C82.4178 56.725 82.0165 56.4296 81.6151 56.4296C81.1601 56.4296 80.8389 56.725 80.8389 57.0474V57.8264C78.2964 58.0951 75.7541 59.4382 75.7541 62.8226C75.7541 66.2607 78.4304 67.2276 80.8389 68.0872V74.3994C78.1092 74.1846 77.3867 72.3043 76.5035 72.3043C75.8344 72.3043 75.2724 73.1905 75.2724 73.8353C75.2724 75.1515 77.5205 76.9512 80.8389 77.0049H80.8387V77.8375C80.8387 78.1599 81.1599 78.4552 81.6149 78.4552C82.0161 78.4552 82.4176 78.1599 82.4176 77.8375V76.9242C85.3078 76.5212 87.2882 74.6947 87.2882 71.3908C87.2882 67.7377 84.7459 66.556 82.4176 65.6964ZM80.9996 65.1861C79.581 64.6489 78.4304 64.0849 78.4306 62.5539C78.4306 61.1569 79.501 60.4855 80.9996 60.2975V65.1861ZM82.2573 74.3457V68.6781C83.5687 69.2421 84.6123 69.9941 84.6123 71.6864C84.6123 73.2176 83.7024 74.0772 82.2573 74.3457Z" stroke="white" stroke-width="0.2" mask="url(#path-1-inside-1)"/>
</svg>
