<svg width="88" height="88" viewBox="0 0 88 88" fill="none" xmlns="http://www.w3.org/2000/svg">
<mask id="path-1-inside-1" fill="white">
<path d="M80.1058 27.287C80.9632 26.0603 81.4688 24.5697 81.4688 22.9629V20.7217C82.1274 20.4807 82.5987 19.8502 82.5987 19.1082V18.5758C82.5987 13.7824 78.6993 9.88275 73.9062 9.88275C69.1132 9.88275 65.2138 13.7824 65.2138 18.5758V19.1082C65.2138 19.8502 65.6851 20.4807 66.3438 20.7217V22.9629C66.3438 24.5697 66.8486 26.0603 67.7067 27.287C63.399 28.1692 60.1059 31.8641 59.8326 36.3621H49.8438C48.8944 36.3621 48.125 37.1315 48.125 38.0809V48.7379H41.1526V38.0809C41.1526 37.1315 40.3826 36.3621 39.4339 36.3621H27.0589C26.1096 36.3621 25.3401 37.1315 25.3401 38.0809V48.7379H19.1526V25.8044L31.1329 13.8234L39.1291 21.8195C39.7662 22.4574 40.5276 22.8978 41.3359 23.1422V26.0448L37.7433 29.6377C37.4211 29.96 37.2398 30.3971 37.2398 30.853V34.0275C37.2398 34.9762 38.0099 35.7464 38.9586 35.7464C39.9079 35.7464 40.6773 34.9762 40.6773 34.0275V31.5653L43.0547 29.1878L45.4321 31.5653V33.7697C45.4321 34.7191 46.2021 35.4885 47.1508 35.4885C48.1002 35.4885 48.8696 34.7191 48.8696 33.7697V30.853C48.8696 30.3971 48.6883 29.96 48.366 29.6377L44.7734 26.0448V23.0207C45.4502 22.7629 46.0847 22.3634 46.6292 21.8195C47.6309 20.8177 48.1827 19.4856 48.1827 18.0689C48.1827 16.6521 47.6309 15.3207 46.6292 14.3189L34.1555 1.84368C34.1521 1.84099 34.1487 1.83831 34.1461 1.83562C31.6787 -0.616453 27.6766 -0.611754 25.2146 1.84905L9.99628 17.0684C6.4621 17.758 3.78528 20.8761 3.78528 24.61V33.5118C3.78528 34.4606 4.55536 35.2307 5.50403 35.2307C6.45337 35.2307 7.22278 34.4606 7.22278 33.5118V31.0094C8.44 31.8205 9.90027 32.2939 11.4686 32.2939C13.0377 32.2939 14.4979 31.8205 15.7151 31.0094V49.3523C15.6339 49.3865 15.5547 49.4235 15.4748 49.4604C14.1945 48.983 12.849 48.7379 11.4686 48.7379C9.96875 48.7379 8.53668 49.03 7.22278 49.5557V46.2308C7.22278 45.2821 6.45337 44.5119 5.50403 44.5119C4.55469 44.5119 3.78528 45.2821 3.78528 46.2308V51.6996C1.46228 53.8005 0 56.8361 0 60.2074V86.2811C0 87.2299 0.769409 88 1.71875 88H80.0938C81.0424 88 81.8125 87.2299 81.8125 86.2811V57.6089C85.2634 57.3746 88 54.4935 88 50.9832V36.9664C88 32.1985 84.6055 28.2082 80.1058 27.287ZM73.8136 27.0862C71.5819 27.0365 69.7812 25.2069 69.7812 22.9629V20.8271H78.0312V22.9629C78.0312 25.2069 76.2306 27.0365 73.9989 27.0862H73.8136ZM79.0262 17.3894H75.625V13.6099C77.3156 14.1974 78.6174 15.6242 79.0262 17.3894ZM72.1875 13.6099V17.3894H68.7863C69.1951 15.6242 70.4969 14.1974 72.1875 13.6099ZM70.9844 52.1757C73.3537 52.1757 75.2812 54.1034 75.2812 56.4728C75.2812 58.8423 73.3537 60.77 70.9844 60.77H18.7344C16.3651 60.77 14.4375 58.8423 14.4375 56.4728C14.4375 54.1034 16.3651 52.1757 18.7344 52.1757H70.9844ZM69.4375 64.2078H70.9844C71.3939 64.2078 71.7954 64.1749 72.1875 64.1138V84.5623H69.4375V64.2078ZM11.0913 57.6593C11.3357 59.2438 12.0648 60.67 13.1196 61.7839C12.6805 62.1988 12.0944 62.4392 11.4686 62.4392C10.142 62.4392 9.06238 61.3602 9.06238 60.0328C9.06238 58.8349 9.94324 57.8412 11.0913 57.6593ZM51.5625 39.7998H60.5V48.7379H51.5625V39.7998ZM28.7776 39.7998H37.7151V48.7379H28.7776V39.7998ZM25.2394 10.7657C25.9632 11.4888 26.8313 12.0139 27.7793 12.3154L18.5249 21.5704C17.734 19.7421 16.2543 18.2797 14.4133 17.5129L23.6959 8.23035C23.9913 9.1576 24.5049 10.0305 25.2394 10.7657ZM44.7452 18.0689C44.7452 18.5671 44.5505 19.0357 44.1981 19.3882C43.4709 20.1161 42.2866 20.1161 41.5595 19.3882L33.5633 11.3921L34.1608 10.7952C34.8826 10.0728 35.4069 9.20595 35.7104 8.26057L44.1981 16.7495C44.5505 17.102 44.7452 17.5707 44.7452 18.0689ZM31.7297 4.28031C32.2756 4.82551 32.5757 5.55066 32.5757 6.32214C32.5757 7.02513 32.3239 7.68784 31.8674 8.2129C31.821 8.2505 31.7754 8.29078 31.7318 8.33442C30.6119 9.45438 28.7897 9.45438 27.6699 8.33442C26.5507 7.21447 26.5507 5.39288 27.6699 4.27292C27.696 4.24674 27.7195 4.21921 27.7437 4.19168C28.8757 3.15834 30.6354 3.1852 31.7297 4.28031ZM11.4686 28.8561C9.1275 28.8561 7.22278 26.9513 7.22278 24.61C7.22278 22.268 9.1275 20.3632 11.4686 20.3632C13.8104 20.3632 15.7151 22.268 15.7151 24.61C15.7151 26.9513 13.8104 28.8561 11.4686 28.8561ZM3.4375 60.2074C3.4375 55.7786 7.04016 52.1757 11.4686 52.1757C11.7419 52.1757 12.0125 52.1898 12.2803 52.2166C11.8802 52.8216 11.562 53.485 11.3438 54.192C8.17883 54.2591 5.62488 56.8522 5.62488 60.0328C5.62488 63.2557 8.24664 65.8769 11.4686 65.8769C13.2585 65.8769 14.9142 65.0685 16.0106 63.7109C16.8585 64.0312 17.7763 64.2078 18.7344 64.2078H19.5004V84.5616H3.4375V60.2074ZM66 84.5623H22.9379V72.4583H43.0547C44.004 72.4583 44.7734 71.6882 44.7734 70.7395C44.7734 69.7901 44.004 69.0206 43.0547 69.0206H22.9379V64.2078H66V84.5623ZM75.625 84.5623V62.6567C76.912 61.6879 77.8882 60.3282 78.375 58.755V84.5623H75.625ZM84.5625 50.9832C84.5625 52.596 83.3641 53.9308 81.8125 54.153V39.5386C81.8125 38.5892 81.0431 37.8198 80.0938 37.8198C79.1444 37.8198 78.375 38.5892 78.375 39.5386V54.1906C77.3988 51.0362 74.4548 48.7379 70.9844 48.7379H69.4375V39.5386C69.4375 38.5892 68.6681 37.8198 67.7188 37.8198C66.7694 37.8198 66 38.5892 66 39.5386V48.7379H63.9375V38.0809C63.9375 37.5223 63.6696 37.0268 63.2567 36.7132C63.3903 33.2775 66.2249 30.524 69.6926 30.524H73.8136C73.8445 30.524 73.8754 30.526 73.9062 30.526C73.9378 30.526 73.968 30.5246 73.9989 30.524H78.1205C81.6729 30.524 84.5625 33.4138 84.5625 36.9664V50.9832Z"/>
<path d="M5.50336 42.1062C5.9552 42.1062 6.39899 41.9222 6.71857 41.6019C7.04016 41.2823 7.22211 40.8392 7.22211 40.3873C7.22211 39.9348 7.04016 39.4916 6.71857 39.172C6.39899 38.8517 5.95721 38.6684 5.50336 38.6684C5.05151 38.6684 4.60773 38.8517 4.28815 39.172C3.96857 39.4916 3.78461 39.9348 3.78461 40.3873C3.78461 40.8392 3.96857 41.2823 4.28815 41.6019C4.60773 41.9222 5.05151 42.1062 5.50336 42.1062Z"/>
<path d="M11.4693 22.8904C11.0154 22.8904 10.5737 23.0744 10.2541 23.394C9.93451 23.7143 9.75055 24.1574 9.75055 24.6093C9.75055 25.0632 9.93451 25.505 10.2541 25.8246C10.5737 26.1442 11.0154 26.3282 11.4693 26.3282C11.9211 26.3282 12.3643 26.1442 12.6845 25.8246C13.0041 25.505 13.188 25.0618 13.188 24.6093C13.188 24.1574 13.0041 23.7143 12.6845 23.394C12.3643 23.0744 11.9211 22.8904 11.4693 22.8904Z"/>
<path d="M28.4849 7.51863C28.8058 7.83824 29.2476 8.02221 29.7001 8.02221C30.1533 8.02221 30.5951 7.83824 30.9167 7.51863C31.2363 7.19903 31.4202 6.75589 31.4202 6.30334C31.4202 5.85146 31.2363 5.40832 30.9167 5.08804C30.5951 4.76911 30.1533 4.58447 29.7001 4.58447C29.2476 4.58447 28.8058 4.76844 28.4849 5.08804C28.1653 5.40832 27.9827 5.85146 27.9827 6.30334C27.9827 6.75589 28.1653 7.19903 28.4849 7.51863Z"/>
<path d="M34.7188 54.7533C34.2669 54.7533 33.8231 54.9373 33.5035 55.2569C33.184 55.5771 33 56.0203 33 56.4722C33 56.924 33.184 57.3679 33.5035 57.6875C33.8231 58.0084 34.2669 58.191 34.7188 58.191C35.1706 58.191 35.6144 58.0084 35.934 57.6875C36.2535 57.3679 36.4375 56.924 36.4375 56.4722C36.4375 56.0203 36.2535 55.5765 35.934 55.2569C35.6144 54.9373 35.1706 54.7533 34.7188 54.7533Z"/>
<path d="M23.7188 54.7533C23.2669 54.7533 22.8231 54.9373 22.5035 55.2569C22.184 55.5771 22 56.0203 22 56.4722C22 56.9261 22.184 57.3679 22.5035 57.6875C22.8231 58.0071 23.2649 58.191 23.7188 58.191C24.1706 58.191 24.6144 58.0071 24.934 57.6875C25.2535 57.3679 25.4375 56.9261 25.4375 56.4722C25.4375 56.0203 25.2535 55.5765 24.934 55.2569C24.6144 54.9373 24.1706 54.7533 23.7188 54.7533Z"/>
<path d="M67.7188 58.191C68.1706 58.191 68.6144 58.0084 68.934 57.6875C69.2535 57.3679 69.4375 56.9261 69.4375 56.4722C69.4375 56.0203 69.2535 55.5765 68.934 55.2569C68.6144 54.9373 68.1706 54.7533 67.7188 54.7533C67.2669 54.7533 66.8231 54.9373 66.5035 55.2569C66.184 55.5771 66 56.0203 66 56.4722C66 56.9261 66.184 57.3679 66.5035 57.6875C66.8231 58.0091 67.2669 58.191 67.7188 58.191Z"/>
<path d="M45.7188 54.7533C45.2669 54.7533 44.8231 54.9373 44.5035 55.2569C44.184 55.5771 44 56.0203 44 56.4722C44 56.924 44.184 57.3679 44.5035 57.6875C44.8231 58.0084 45.2669 58.191 45.7188 58.191C46.1706 58.191 46.6144 58.0084 46.934 57.6875C47.2535 57.3679 47.4375 56.9261 47.4375 56.4722C47.4375 56.0203 47.2535 55.5765 46.934 55.2569C46.6144 54.9373 46.1706 54.7533 45.7188 54.7533Z"/>
<path d="M56.7188 54.7533C56.2669 54.7533 55.8231 54.9373 55.5035 55.2569C55.184 55.5771 55 56.0203 55 56.4722C55 56.924 55.184 57.3679 55.5035 57.6875C55.8231 58.0084 56.2669 58.191 56.7188 58.191C57.1706 58.191 57.6144 58.0084 57.934 57.6875C58.2535 57.3679 58.4375 56.924 58.4375 56.4722C58.4375 56.0203 58.2535 55.5765 57.934 55.2569C57.6144 54.9373 57.1706 54.7533 56.7188 54.7533Z"/>
<path d="M49.6544 72.4577C50.1069 72.4577 50.55 72.275 50.8696 71.9541C51.1892 71.6345 51.3732 71.1927 51.3732 70.7388C51.3732 70.2869 51.1892 69.8431 50.8696 69.5235C50.55 69.2039 50.1083 69.0199 49.6544 69.0199C49.2026 69.0199 48.7588 69.2039 48.4392 69.5235C48.1196 69.8431 47.9357 70.2869 47.9357 70.7388C47.9357 71.1927 48.1196 71.6345 48.4392 71.9541C48.7588 72.2757 49.2026 72.4577 49.6544 72.4577Z"/>
</mask>
<path d="M80.1058 27.287C80.9632 26.0603 81.4688 24.5697 81.4688 22.9629V20.7217C82.1274 20.4807 82.5987 19.8502 82.5987 19.1082V18.5758C82.5987 13.7824 78.6993 9.88275 73.9062 9.88275C69.1132 9.88275 65.2138 13.7824 65.2138 18.5758V19.1082C65.2138 19.8502 65.6851 20.4807 66.3438 20.7217V22.9629C66.3438 24.5697 66.8486 26.0603 67.7067 27.287C63.399 28.1692 60.1059 31.8641 59.8326 36.3621H49.8438C48.8944 36.3621 48.125 37.1315 48.125 38.0809V48.7379H41.1526V38.0809C41.1526 37.1315 40.3826 36.3621 39.4339 36.3621H27.0589C26.1096 36.3621 25.3401 37.1315 25.3401 38.0809V48.7379H19.1526V25.8044L31.1329 13.8234L39.1291 21.8195C39.7662 22.4574 40.5276 22.8978 41.3359 23.1422V26.0448L37.7433 29.6377C37.4211 29.96 37.2398 30.3971 37.2398 30.853V34.0275C37.2398 34.9762 38.0099 35.7464 38.9586 35.7464C39.9079 35.7464 40.6773 34.9762 40.6773 34.0275V31.5653L43.0547 29.1878L45.4321 31.5653V33.7697C45.4321 34.7191 46.2021 35.4885 47.1508 35.4885C48.1002 35.4885 48.8696 34.7191 48.8696 33.7697V30.853C48.8696 30.3971 48.6883 29.96 48.366 29.6377L44.7734 26.0448V23.0207C45.4502 22.7629 46.0847 22.3634 46.6292 21.8195C47.6309 20.8177 48.1827 19.4856 48.1827 18.0689C48.1827 16.6521 47.6309 15.3207 46.6292 14.3189L34.1555 1.84368C34.1521 1.84099 34.1487 1.83831 34.1461 1.83562C31.6787 -0.616453 27.6766 -0.611754 25.2146 1.84905L9.99628 17.0684C6.4621 17.758 3.78528 20.8761 3.78528 24.61V33.5118C3.78528 34.4606 4.55536 35.2307 5.50403 35.2307C6.45337 35.2307 7.22278 34.4606 7.22278 33.5118V31.0094C8.44 31.8205 9.90027 32.2939 11.4686 32.2939C13.0377 32.2939 14.4979 31.8205 15.7151 31.0094V49.3523C15.6339 49.3865 15.5547 49.4235 15.4748 49.4604C14.1945 48.983 12.849 48.7379 11.4686 48.7379C9.96875 48.7379 8.53668 49.03 7.22278 49.5557V46.2308C7.22278 45.2821 6.45337 44.5119 5.50403 44.5119C4.55469 44.5119 3.78528 45.2821 3.78528 46.2308V51.6996C1.46228 53.8005 0 56.8361 0 60.2074V86.2811C0 87.2299 0.769409 88 1.71875 88H80.0938C81.0424 88 81.8125 87.2299 81.8125 86.2811V57.6089C85.2634 57.3746 88 54.4935 88 50.9832V36.9664C88 32.1985 84.6055 28.2082 80.1058 27.287ZM73.8136 27.0862C71.5819 27.0365 69.7812 25.2069 69.7812 22.9629V20.8271H78.0312V22.9629C78.0312 25.2069 76.2306 27.0365 73.9989 27.0862H73.8136ZM79.0262 17.3894H75.625V13.6099C77.3156 14.1974 78.6174 15.6242 79.0262 17.3894ZM72.1875 13.6099V17.3894H68.7863C69.1951 15.6242 70.4969 14.1974 72.1875 13.6099ZM70.9844 52.1757C73.3537 52.1757 75.2812 54.1034 75.2812 56.4728C75.2812 58.8423 73.3537 60.77 70.9844 60.77H18.7344C16.3651 60.77 14.4375 58.8423 14.4375 56.4728C14.4375 54.1034 16.3651 52.1757 18.7344 52.1757H70.9844ZM69.4375 64.2078H70.9844C71.3939 64.2078 71.7954 64.1749 72.1875 64.1138V84.5623H69.4375V64.2078ZM11.0913 57.6593C11.3357 59.2438 12.0648 60.67 13.1196 61.7839C12.6805 62.1988 12.0944 62.4392 11.4686 62.4392C10.142 62.4392 9.06238 61.3602 9.06238 60.0328C9.06238 58.8349 9.94324 57.8412 11.0913 57.6593ZM51.5625 39.7998H60.5V48.7379H51.5625V39.7998ZM28.7776 39.7998H37.7151V48.7379H28.7776V39.7998ZM25.2394 10.7657C25.9632 11.4888 26.8313 12.0139 27.7793 12.3154L18.5249 21.5704C17.734 19.7421 16.2543 18.2797 14.4133 17.5129L23.6959 8.23035C23.9913 9.1576 24.5049 10.0305 25.2394 10.7657ZM44.7452 18.0689C44.7452 18.5671 44.5505 19.0357 44.1981 19.3882C43.4709 20.1161 42.2866 20.1161 41.5595 19.3882L33.5633 11.3921L34.1608 10.7952C34.8826 10.0728 35.4069 9.20595 35.7104 8.26057L44.1981 16.7495C44.5505 17.102 44.7452 17.5707 44.7452 18.0689ZM31.7297 4.28031C32.2756 4.82551 32.5757 5.55066 32.5757 6.32214C32.5757 7.02513 32.3239 7.68784 31.8674 8.2129C31.821 8.2505 31.7754 8.29078 31.7318 8.33442C30.6119 9.45438 28.7897 9.45438 27.6699 8.33442C26.5507 7.21447 26.5507 5.39288 27.6699 4.27292C27.696 4.24674 27.7195 4.21921 27.7437 4.19168C28.8757 3.15834 30.6354 3.1852 31.7297 4.28031ZM11.4686 28.8561C9.1275 28.8561 7.22278 26.9513 7.22278 24.61C7.22278 22.268 9.1275 20.3632 11.4686 20.3632C13.8104 20.3632 15.7151 22.268 15.7151 24.61C15.7151 26.9513 13.8104 28.8561 11.4686 28.8561ZM3.4375 60.2074C3.4375 55.7786 7.04016 52.1757 11.4686 52.1757C11.7419 52.1757 12.0125 52.1898 12.2803 52.2166C11.8802 52.8216 11.562 53.485 11.3438 54.192C8.17883 54.2591 5.62488 56.8522 5.62488 60.0328C5.62488 63.2557 8.24664 65.8769 11.4686 65.8769C13.2585 65.8769 14.9142 65.0685 16.0106 63.7109C16.8585 64.0312 17.7763 64.2078 18.7344 64.2078H19.5004V84.5616H3.4375V60.2074ZM66 84.5623H22.9379V72.4583H43.0547C44.004 72.4583 44.7734 71.6882 44.7734 70.7395C44.7734 69.7901 44.004 69.0206 43.0547 69.0206H22.9379V64.2078H66V84.5623ZM75.625 84.5623V62.6567C76.912 61.6879 77.8882 60.3282 78.375 58.755V84.5623H75.625ZM84.5625 50.9832C84.5625 52.596 83.3641 53.9308 81.8125 54.153V39.5386C81.8125 38.5892 81.0431 37.8198 80.0938 37.8198C79.1444 37.8198 78.375 38.5892 78.375 39.5386V54.1906C77.3988 51.0362 74.4548 48.7379 70.9844 48.7379H69.4375V39.5386C69.4375 38.5892 68.6681 37.8198 67.7188 37.8198C66.7694 37.8198 66 38.5892 66 39.5386V48.7379H63.9375V38.0809C63.9375 37.5223 63.6696 37.0268 63.2567 36.7132C63.3903 33.2775 66.2249 30.524 69.6926 30.524H73.8136C73.8445 30.524 73.8754 30.526 73.9062 30.526C73.9378 30.526 73.968 30.5246 73.9989 30.524H78.1205C81.6729 30.524 84.5625 33.4138 84.5625 36.9664V50.9832Z" fill="#2B3035"/>
<path d="M5.50336 42.1062C5.9552 42.1062 6.39899 41.9222 6.71857 41.6019C7.04016 41.2823 7.22211 40.8392 7.22211 40.3873C7.22211 39.9348 7.04016 39.4916 6.71857 39.172C6.39899 38.8517 5.95721 38.6684 5.50336 38.6684C5.05151 38.6684 4.60773 38.8517 4.28815 39.172C3.96857 39.4916 3.78461 39.9348 3.78461 40.3873C3.78461 40.8392 3.96857 41.2823 4.28815 41.6019C4.60773 41.9222 5.05151 42.1062 5.50336 42.1062Z" fill="#2B3035"/>
<path d="M11.4693 22.8904C11.0154 22.8904 10.5737 23.0744 10.2541 23.394C9.93451 23.7143 9.75055 24.1574 9.75055 24.6093C9.75055 25.0632 9.93451 25.505 10.2541 25.8246C10.5737 26.1442 11.0154 26.3282 11.4693 26.3282C11.9211 26.3282 12.3643 26.1442 12.6845 25.8246C13.0041 25.505 13.188 25.0618 13.188 24.6093C13.188 24.1574 13.0041 23.7143 12.6845 23.394C12.3643 23.0744 11.9211 22.8904 11.4693 22.8904Z" fill="#2B3035"/>
<path d="M28.4849 7.51863C28.8058 7.83824 29.2476 8.02221 29.7001 8.02221C30.1533 8.02221 30.5951 7.83824 30.9167 7.51863C31.2363 7.19903 31.4202 6.75589 31.4202 6.30334C31.4202 5.85146 31.2363 5.40832 30.9167 5.08804C30.5951 4.76911 30.1533 4.58447 29.7001 4.58447C29.2476 4.58447 28.8058 4.76844 28.4849 5.08804C28.1653 5.40832 27.9827 5.85146 27.9827 6.30334C27.9827 6.75589 28.1653 7.19903 28.4849 7.51863Z" fill="#2B3035"/>
<path d="M34.7188 54.7533C34.2669 54.7533 33.8231 54.9373 33.5035 55.2569C33.184 55.5771 33 56.0203 33 56.4722C33 56.924 33.184 57.3679 33.5035 57.6875C33.8231 58.0084 34.2669 58.191 34.7188 58.191C35.1706 58.191 35.6144 58.0084 35.934 57.6875C36.2535 57.3679 36.4375 56.924 36.4375 56.4722C36.4375 56.0203 36.2535 55.5765 35.934 55.2569C35.6144 54.9373 35.1706 54.7533 34.7188 54.7533Z" fill="#2B3035"/>
<path d="M23.7188 54.7533C23.2669 54.7533 22.8231 54.9373 22.5035 55.2569C22.184 55.5771 22 56.0203 22 56.4722C22 56.9261 22.184 57.3679 22.5035 57.6875C22.8231 58.0071 23.2649 58.191 23.7188 58.191C24.1706 58.191 24.6144 58.0071 24.934 57.6875C25.2535 57.3679 25.4375 56.9261 25.4375 56.4722C25.4375 56.0203 25.2535 55.5765 24.934 55.2569C24.6144 54.9373 24.1706 54.7533 23.7188 54.7533Z" fill="#2B3035"/>
<path d="M67.7188 58.191C68.1706 58.191 68.6144 58.0084 68.934 57.6875C69.2535 57.3679 69.4375 56.9261 69.4375 56.4722C69.4375 56.0203 69.2535 55.5765 68.934 55.2569C68.6144 54.9373 68.1706 54.7533 67.7188 54.7533C67.2669 54.7533 66.8231 54.9373 66.5035 55.2569C66.184 55.5771 66 56.0203 66 56.4722C66 56.9261 66.184 57.3679 66.5035 57.6875C66.8231 58.0091 67.2669 58.191 67.7188 58.191Z" fill="#2B3035"/>
<path d="M45.7188 54.7533C45.2669 54.7533 44.8231 54.9373 44.5035 55.2569C44.184 55.5771 44 56.0203 44 56.4722C44 56.924 44.184 57.3679 44.5035 57.6875C44.8231 58.0084 45.2669 58.191 45.7188 58.191C46.1706 58.191 46.6144 58.0084 46.934 57.6875C47.2535 57.3679 47.4375 56.9261 47.4375 56.4722C47.4375 56.0203 47.2535 55.5765 46.934 55.2569C46.6144 54.9373 46.1706 54.7533 45.7188 54.7533Z" fill="#2B3035"/>
<path d="M56.7188 54.7533C56.2669 54.7533 55.8231 54.9373 55.5035 55.2569C55.184 55.5771 55 56.0203 55 56.4722C55 56.924 55.184 57.3679 55.5035 57.6875C55.8231 58.0084 56.2669 58.191 56.7188 58.191C57.1706 58.191 57.6144 58.0084 57.934 57.6875C58.2535 57.3679 58.4375 56.924 58.4375 56.4722C58.4375 56.0203 58.2535 55.5765 57.934 55.2569C57.6144 54.9373 57.1706 54.7533 56.7188 54.7533Z" fill="#2B3035"/>
<path d="M49.6544 72.4577C50.1069 72.4577 50.55 72.275 50.8696 71.9541C51.1892 71.6345 51.3732 71.1927 51.3732 70.7388C51.3732 70.2869 51.1892 69.8431 50.8696 69.5235C50.55 69.2039 50.1083 69.0199 49.6544 69.0199C49.2026 69.0199 48.7588 69.2039 48.4392 69.5235C48.1196 69.8431 47.9357 70.2869 47.9357 70.7388C47.9357 71.1927 48.1196 71.6345 48.4392 71.9541C48.7588 72.2757 49.2026 72.4577 49.6544 72.4577Z" fill="#2B3035"/>
<path d="M80.1058 27.287C80.9632 26.0603 81.4688 24.5697 81.4688 22.9629V20.7217C82.1274 20.4807 82.5987 19.8502 82.5987 19.1082V18.5758C82.5987 13.7824 78.6993 9.88275 73.9062 9.88275C69.1132 9.88275 65.2138 13.7824 65.2138 18.5758V19.1082C65.2138 19.8502 65.6851 20.4807 66.3438 20.7217V22.9629C66.3438 24.5697 66.8486 26.0603 67.7067 27.287C63.399 28.1692 60.1059 31.8641 59.8326 36.3621H49.8438C48.8944 36.3621 48.125 37.1315 48.125 38.0809V48.7379H41.1526V38.0809C41.1526 37.1315 40.3826 36.3621 39.4339 36.3621H27.0589C26.1096 36.3621 25.3401 37.1315 25.3401 38.0809V48.7379H19.1526V25.8044L31.1329 13.8234L39.1291 21.8195C39.7662 22.4574 40.5276 22.8978 41.3359 23.1422V26.0448L37.7433 29.6377C37.4211 29.96 37.2398 30.3971 37.2398 30.853V34.0275C37.2398 34.9762 38.0099 35.7464 38.9586 35.7464C39.9079 35.7464 40.6773 34.9762 40.6773 34.0275V31.5653L43.0547 29.1878L45.4321 31.5653V33.7697C45.4321 34.7191 46.2021 35.4885 47.1508 35.4885C48.1002 35.4885 48.8696 34.7191 48.8696 33.7697V30.853C48.8696 30.3971 48.6883 29.96 48.366 29.6377L44.7734 26.0448V23.0207C45.4502 22.7629 46.0847 22.3634 46.6292 21.8195C47.6309 20.8177 48.1827 19.4856 48.1827 18.0689C48.1827 16.6521 47.6309 15.3207 46.6292 14.3189L34.1555 1.84368C34.1521 1.84099 34.1487 1.83831 34.1461 1.83562C31.6787 -0.616453 27.6766 -0.611754 25.2146 1.84905L9.99628 17.0684C6.4621 17.758 3.78528 20.8761 3.78528 24.61V33.5118C3.78528 34.4606 4.55536 35.2307 5.50403 35.2307C6.45337 35.2307 7.22278 34.4606 7.22278 33.5118V31.0094C8.44 31.8205 9.90027 32.2939 11.4686 32.2939C13.0377 32.2939 14.4979 31.8205 15.7151 31.0094V49.3523C15.6339 49.3865 15.5547 49.4235 15.4748 49.4604C14.1945 48.983 12.849 48.7379 11.4686 48.7379C9.96875 48.7379 8.53668 49.03 7.22278 49.5557V46.2308C7.22278 45.2821 6.45337 44.5119 5.50403 44.5119C4.55469 44.5119 3.78528 45.2821 3.78528 46.2308V51.6996C1.46228 53.8005 0 56.8361 0 60.2074V86.2811C0 87.2299 0.769409 88 1.71875 88H80.0938C81.0424 88 81.8125 87.2299 81.8125 86.2811V57.6089C85.2634 57.3746 88 54.4935 88 50.9832V36.9664C88 32.1985 84.6055 28.2082 80.1058 27.287ZM73.8136 27.0862C71.5819 27.0365 69.7812 25.2069 69.7812 22.9629V20.8271H78.0312V22.9629C78.0312 25.2069 76.2306 27.0365 73.9989 27.0862H73.8136ZM79.0262 17.3894H75.625V13.6099C77.3156 14.1974 78.6174 15.6242 79.0262 17.3894ZM72.1875 13.6099V17.3894H68.7863C69.1951 15.6242 70.4969 14.1974 72.1875 13.6099ZM70.9844 52.1757C73.3537 52.1757 75.2812 54.1034 75.2812 56.4728C75.2812 58.8423 73.3537 60.77 70.9844 60.77H18.7344C16.3651 60.77 14.4375 58.8423 14.4375 56.4728C14.4375 54.1034 16.3651 52.1757 18.7344 52.1757H70.9844ZM69.4375 64.2078H70.9844C71.3939 64.2078 71.7954 64.1749 72.1875 64.1138V84.5623H69.4375V64.2078ZM11.0913 57.6593C11.3357 59.2438 12.0648 60.67 13.1196 61.7839C12.6805 62.1988 12.0944 62.4392 11.4686 62.4392C10.142 62.4392 9.06238 61.3602 9.06238 60.0328C9.06238 58.8349 9.94324 57.8412 11.0913 57.6593ZM51.5625 39.7998H60.5V48.7379H51.5625V39.7998ZM28.7776 39.7998H37.7151V48.7379H28.7776V39.7998ZM25.2394 10.7657C25.9632 11.4888 26.8313 12.0139 27.7793 12.3154L18.5249 21.5704C17.734 19.7421 16.2543 18.2797 14.4133 17.5129L23.6959 8.23035C23.9913 9.1576 24.5049 10.0305 25.2394 10.7657ZM44.7452 18.0689C44.7452 18.5671 44.5505 19.0357 44.1981 19.3882C43.4709 20.1161 42.2866 20.1161 41.5595 19.3882L33.5633 11.3921L34.1608 10.7952C34.8826 10.0728 35.4069 9.20595 35.7104 8.26057L44.1981 16.7495C44.5505 17.102 44.7452 17.5707 44.7452 18.0689ZM31.7297 4.28031C32.2756 4.82551 32.5757 5.55066 32.5757 6.32214C32.5757 7.02513 32.3239 7.68784 31.8674 8.2129C31.821 8.2505 31.7754 8.29078 31.7318 8.33442C30.6119 9.45438 28.7897 9.45438 27.6699 8.33442C26.5507 7.21447 26.5507 5.39288 27.6699 4.27292C27.696 4.24674 27.7195 4.21921 27.7437 4.19168C28.8757 3.15834 30.6354 3.1852 31.7297 4.28031ZM11.4686 28.8561C9.1275 28.8561 7.22278 26.9513 7.22278 24.61C7.22278 22.268 9.1275 20.3632 11.4686 20.3632C13.8104 20.3632 15.7151 22.268 15.7151 24.61C15.7151 26.9513 13.8104 28.8561 11.4686 28.8561ZM3.4375 60.2074C3.4375 55.7786 7.04016 52.1757 11.4686 52.1757C11.7419 52.1757 12.0125 52.1898 12.2803 52.2166C11.8802 52.8216 11.562 53.485 11.3438 54.192C8.17883 54.2591 5.62488 56.8522 5.62488 60.0328C5.62488 63.2557 8.24664 65.8769 11.4686 65.8769C13.2585 65.8769 14.9142 65.0685 16.0106 63.7109C16.8585 64.0312 17.7763 64.2078 18.7344 64.2078H19.5004V84.5616H3.4375V60.2074ZM66 84.5623H22.9379V72.4583H43.0547C44.004 72.4583 44.7734 71.6882 44.7734 70.7395C44.7734 69.7901 44.004 69.0206 43.0547 69.0206H22.9379V64.2078H66V84.5623ZM75.625 84.5623V62.6567C76.912 61.6879 77.8882 60.3282 78.375 58.755V84.5623H75.625ZM84.5625 50.9832C84.5625 52.596 83.3641 53.9308 81.8125 54.153V39.5386C81.8125 38.5892 81.0431 37.8198 80.0938 37.8198C79.1444 37.8198 78.375 38.5892 78.375 39.5386V54.1906C77.3988 51.0362 74.4548 48.7379 70.9844 48.7379H69.4375V39.5386C69.4375 38.5892 68.6681 37.8198 67.7188 37.8198C66.7694 37.8198 66 38.5892 66 39.5386V48.7379H63.9375V38.0809C63.9375 37.5223 63.6696 37.0268 63.2567 36.7132C63.3903 33.2775 66.2249 30.524 69.6926 30.524H73.8136C73.8445 30.524 73.8754 30.526 73.9062 30.526C73.9378 30.526 73.968 30.5246 73.9989 30.524H78.1205C81.6729 30.524 84.5625 33.4138 84.5625 36.9664V50.9832Z" stroke="white" stroke-width="1.2" mask="url(#path-1-inside-1)"/>
<path d="M5.50336 42.1062C5.9552 42.1062 6.39899 41.9222 6.71857 41.6019C7.04016 41.2823 7.22211 40.8392 7.22211 40.3873C7.22211 39.9348 7.04016 39.4916 6.71857 39.172C6.39899 38.8517 5.95721 38.6684 5.50336 38.6684C5.05151 38.6684 4.60773 38.8517 4.28815 39.172C3.96857 39.4916 3.78461 39.9348 3.78461 40.3873C3.78461 40.8392 3.96857 41.2823 4.28815 41.6019C4.60773 41.9222 5.05151 42.1062 5.50336 42.1062Z" stroke="white" stroke-width="1.2" mask="url(#path-1-inside-1)"/>
<path d="M11.4693 22.8904C11.0154 22.8904 10.5737 23.0744 10.2541 23.394C9.93451 23.7143 9.75055 24.1574 9.75055 24.6093C9.75055 25.0632 9.93451 25.505 10.2541 25.8246C10.5737 26.1442 11.0154 26.3282 11.4693 26.3282C11.9211 26.3282 12.3643 26.1442 12.6845 25.8246C13.0041 25.505 13.188 25.0618 13.188 24.6093C13.188 24.1574 13.0041 23.7143 12.6845 23.394C12.3643 23.0744 11.9211 22.8904 11.4693 22.8904Z" stroke="white" stroke-width="1.2" mask="url(#path-1-inside-1)"/>
<path d="M28.4849 7.51863C28.8058 7.83824 29.2476 8.02221 29.7001 8.02221C30.1533 8.02221 30.5951 7.83824 30.9167 7.51863C31.2363 7.19903 31.4202 6.75589 31.4202 6.30334C31.4202 5.85146 31.2363 5.40832 30.9167 5.08804C30.5951 4.76911 30.1533 4.58447 29.7001 4.58447C29.2476 4.58447 28.8058 4.76844 28.4849 5.08804C28.1653 5.40832 27.9827 5.85146 27.9827 6.30334C27.9827 6.75589 28.1653 7.19903 28.4849 7.51863Z" stroke="white" stroke-width="1.2" mask="url(#path-1-inside-1)"/>
<path d="M34.7188 54.7533C34.2669 54.7533 33.8231 54.9373 33.5035 55.2569C33.184 55.5771 33 56.0203 33 56.4722C33 56.924 33.184 57.3679 33.5035 57.6875C33.8231 58.0084 34.2669 58.191 34.7188 58.191C35.1706 58.191 35.6144 58.0084 35.934 57.6875C36.2535 57.3679 36.4375 56.924 36.4375 56.4722C36.4375 56.0203 36.2535 55.5765 35.934 55.2569C35.6144 54.9373 35.1706 54.7533 34.7188 54.7533Z" stroke="white" stroke-width="1.2" mask="url(#path-1-inside-1)"/>
<path d="M23.7188 54.7533C23.2669 54.7533 22.8231 54.9373 22.5035 55.2569C22.184 55.5771 22 56.0203 22 56.4722C22 56.9261 22.184 57.3679 22.5035 57.6875C22.8231 58.0071 23.2649 58.191 23.7188 58.191C24.1706 58.191 24.6144 58.0071 24.934 57.6875C25.2535 57.3679 25.4375 56.9261 25.4375 56.4722C25.4375 56.0203 25.2535 55.5765 24.934 55.2569C24.6144 54.9373 24.1706 54.7533 23.7188 54.7533Z" stroke="white" stroke-width="1.2" mask="url(#path-1-inside-1)"/>
<path d="M67.7188 58.191C68.1706 58.191 68.6144 58.0084 68.934 57.6875C69.2535 57.3679 69.4375 56.9261 69.4375 56.4722C69.4375 56.0203 69.2535 55.5765 68.934 55.2569C68.6144 54.9373 68.1706 54.7533 67.7188 54.7533C67.2669 54.7533 66.8231 54.9373 66.5035 55.2569C66.184 55.5771 66 56.0203 66 56.4722C66 56.9261 66.184 57.3679 66.5035 57.6875C66.8231 58.0091 67.2669 58.191 67.7188 58.191Z" stroke="white" stroke-width="1.2" mask="url(#path-1-inside-1)"/>
<path d="M45.7188 54.7533C45.2669 54.7533 44.8231 54.9373 44.5035 55.2569C44.184 55.5771 44 56.0203 44 56.4722C44 56.924 44.184 57.3679 44.5035 57.6875C44.8231 58.0084 45.2669 58.191 45.7188 58.191C46.1706 58.191 46.6144 58.0084 46.934 57.6875C47.2535 57.3679 47.4375 56.9261 47.4375 56.4722C47.4375 56.0203 47.2535 55.5765 46.934 55.2569C46.6144 54.9373 46.1706 54.7533 45.7188 54.7533Z" stroke="white" stroke-width="1.2" mask="url(#path-1-inside-1)"/>
<path d="M56.7188 54.7533C56.2669 54.7533 55.8231 54.9373 55.5035 55.2569C55.184 55.5771 55 56.0203 55 56.4722C55 56.924 55.184 57.3679 55.5035 57.6875C55.8231 58.0084 56.2669 58.191 56.7188 58.191C57.1706 58.191 57.6144 58.0084 57.934 57.6875C58.2535 57.3679 58.4375 56.924 58.4375 56.4722C58.4375 56.0203 58.2535 55.5765 57.934 55.2569C57.6144 54.9373 57.1706 54.7533 56.7188 54.7533Z" stroke="white" stroke-width="1.2" mask="url(#path-1-inside-1)"/>
<path d="M49.6544 72.4577C50.1069 72.4577 50.55 72.275 50.8696 71.9541C51.1892 71.6345 51.3732 71.1927 51.3732 70.7388C51.3732 70.2869 51.1892 69.8431 50.8696 69.5235C50.55 69.2039 50.1083 69.0199 49.6544 69.0199C49.2026 69.0199 48.7588 69.2039 48.4392 69.5235C48.1196 69.8431 47.9357 70.2869 47.9357 70.7388C47.9357 71.1927 48.1196 71.6345 48.4392 71.9541C48.7588 72.2757 49.2026 72.4577 49.6544 72.4577Z" stroke="white" stroke-width="1.2" mask="url(#path-1-inside-1)"/>
</svg>
