<svg width="91" height="92" viewBox="0 0 91 92" fill="none" xmlns="http://www.w3.org/2000/svg">
<path d="M58.9587 4.05497C54.7334 2.71999 50.2351 2 45.5686 2C40.9022 2 36.4038 2.71999 32.1786 4.05497M58.9587 4.05497C69.7721 7.4715 78.7969 14.916 84.2736 24.6286M58.9587 4.05497C57.5045 5.33836 55.9685 6.41918 54.3661 7.27315M58.9587 4.05497C58.9639 4.05035 58.9691 4.04574 58.9744 4.04111M6.86363 24.6286C12.3403 14.916 21.3652 7.4715 32.1786 4.05497M32.1786 4.05497C32.1733 4.05035 32.1681 4.04574 32.1629 4.04111M32.1786 4.05497C36.1388 7.55013 40.7059 9.54286 45.5686 9.54286C48.6458 9.54286 51.6046 8.74487 54.3661 7.27315M60.1469 20.5033C55.5805 22.0902 50.6752 22.9524 45.5686 22.9524C45.4288 22.9524 45.2892 22.9517 45.1497 22.9504M60.1469 20.5033C62.9047 19.545 65.539 18.3223 68.0193 16.8657M60.1469 20.5033C57.5501 14.665 52.6928 10.6109 50.1768 9.12381M60.1469 20.5033C60.721 21.794 61.1845 23.1719 61.4879 24.6286M68.0193 16.8657C70.1516 15.6134 72.1702 14.1882 74.0558 12.6092M68.0193 16.8657C63.3043 11.7191 57.4831 8.48292 54.3661 7.27315M68.0193 16.8657C70.0637 19.0973 71.9002 21.6881 73.2179 24.6286M17.0814 12.6092C18.764 14.0181 20.5524 15.3047 22.4331 16.4551M22.4331 16.4551C24.8971 17.9624 27.5193 19.2362 30.2691 20.2456M22.4331 16.4551C27.1203 11.4049 32.8499 8.22525 35.9333 7.02853M22.4331 16.4551C20.3274 18.724 18.432 21.3703 17.0814 24.384M30.2691 20.2456C34.9147 21.9511 39.9244 22.9021 45.1497 22.9504M30.2691 20.2456C32.8923 14.5457 37.6438 10.5889 40.1225 9.12381M30.2691 20.2456C29.6411 21.6101 29.1351 23.0745 28.8115 24.6286M45.1497 22.9504V9.54286M45.1497 22.9504V24.6286M32.1786 87.945C36.4038 89.28 40.9022 90 45.5686 90C50.2351 90 54.7334 89.28 58.9587 87.945M32.1786 87.945C21.3652 84.5285 12.3403 77.084 6.86363 67.3714M32.1786 87.945C33.6327 86.6616 35.1687 85.5808 36.7711 84.7269M32.1786 87.945C32.1734 87.9496 32.1681 87.9543 32.1629 87.9589M84.2736 67.3714C78.7969 77.084 69.7721 84.5285 58.9587 87.945M58.9587 87.945C58.9639 87.9496 58.9691 87.9543 58.9744 87.9589M58.9587 87.945C54.9984 84.4499 50.4313 82.4571 45.5686 82.4571C42.4915 82.4571 39.5327 83.2551 36.7711 84.7269M30.9903 71.4967C35.5567 69.9098 40.462 69.0476 45.5686 69.0476C45.7084 69.0476 45.8481 69.0483 45.9875 69.0496M30.9903 71.4967C28.2325 72.455 25.5983 73.6777 23.118 75.1343M30.9903 71.4967C33.5871 77.335 38.4445 81.3891 40.9604 82.8762M30.9903 71.4967C30.4163 70.206 29.9527 68.8281 29.6493 67.3714M23.118 75.1343C20.9856 76.3866 18.967 77.8118 17.0814 79.3908M23.118 75.1343C27.8329 80.2809 33.6541 83.5171 36.7711 84.7269M23.118 75.1343C21.0735 72.9027 19.2371 70.3119 17.9193 67.3714M74.0558 79.3907C72.3733 77.9819 70.5848 76.6953 68.7041 75.5449M68.7041 75.5449C66.2402 74.0376 63.6179 72.7638 60.8682 71.7544M68.7041 75.5449C64.0169 80.5951 58.2874 83.7747 55.204 84.9715M68.7041 75.5449C70.8099 73.276 72.7052 70.6297 74.0558 67.616M60.8682 71.7544C56.2225 70.0489 51.2129 69.0979 45.9875 69.0496M60.8682 71.7544C58.2449 77.4543 53.4935 81.411 51.0147 82.8762M60.8682 71.7544C61.4961 70.3899 62.0021 68.9255 62.3258 67.3714M45.9875 69.0496L45.9876 82.4571M45.9875 69.0496V67.3714M25.2449 49.6482V60.798L32.1246 60.7874L32.1351 58.8511C34.2511 60.9668 36.7502 61.599 40.5036 61.4937C48.51 61.4081 53.7839 57.47 53.6889 51.6473C53.8254 49.0472 52.4648 46.0672 49.5934 44.8138C46.8509 43.0662 44.352 42.4339 40.8541 41.55C37.7271 41.2865 34.8564 40.0339 34.6123 38.9179C34.739 38.4229 35.6224 37.065 38.7478 37.3278C42.0014 37.0963 45.6168 39.5912 45.4789 42.192L52.4868 41.8546L52.1663 30.7039L45.7872 30.6726L45.9033 32.2836C44.1604 30.7883 41.1616 30.0307 37.908 30.262C27.2742 30.2097 24.6274 34.2849 24.8507 39.6135C24.7127 42.2143 25.8193 46.1828 28.1895 47.3107C31.0601 48.5634 34.5595 49.4478 37.5575 50.2056C41.1827 50.5954 44.1816 51.3538 43.9267 52.3428C44.0444 53.9538 42.9166 54.1956 40.2902 54.0581C37.1647 53.7954 32.4216 51.5425 30.8053 49.553L25.2449 49.6482ZM72.0723 52.6051C66.6921 52.8269 66.0859 48.983 66.1078 44.7713C65.9999 41.0537 67.0206 37.095 71.901 36.7471C76.654 36.8948 77.3876 40.2429 77.2398 44.9497C77.2189 49.1615 77.4525 52.3833 72.0723 52.6051ZM72.1575 60.5336C81.6634 60.8287 89.4567 53.3099 89.1272 44.2643C89.1687 35.8407 81.3226 29.1132 71.8166 28.819C62.1824 29.0191 54.3894 36.5372 54.3464 44.9608C54.6773 54.0069 62.5248 60.7338 72.1575 60.5336ZM18.5989 39.0873L22.8521 39.1082L22.7663 31.1796L2 31.2012L2.08517 39.1291L6.83821 39.2768L7.01993 53.029L2.1395 53.3761L2.35217 60.8098L23.1191 60.7874L23.0331 52.8597L18.7799 52.8387L18.5989 39.0873Z" stroke="#2B3035" stroke-width="2.8" stroke-linecap="round" stroke-linejoin="round"/>
</svg>
