<svg width="255" height="10" viewBox="0 0 255 10" fill="none" xmlns="http://www.w3.org/2000/svg">
<path d="M1 5C8.755 -0.333333 21.3283 -0.333333 29.0833 5C36.8383 10.3333 49.4117 10.3333 57.1667 5C64.9217 -0.333334 77.495 -0.333333 85.25 5C93.005 10.3333 105.578 10.3333 113.333 5C121.088 -0.333334 133.662 -0.333333 141.417 5C149.172 10.3333 161.745 10.3333 169.5 5C177.255 -0.333334 189.828 -0.333333 197.583 5C205.338 10.3333 217.912 10.3333 225.667 5C233.422 -0.333334 245.995 -0.333333 253.75 5C261.505 10.3333 274.078 10.3333 281.833 5C289.588 -0.333334 302.162 -0.333333 309.917 5C317.672 10.3333 330.245 10.3333 338 5" stroke="white" stroke-width="1.5"/>
</svg>
