<svg id="logo-txt" viewBox="0 0 2912 571" fill="none" xmlns="http://www.w3.org/2000/svg">
<path class="animation-text" d="M69.7482 5.77771H0.0983887V275.046H69.7482V5.77771Z" fill="#03428D"/>
<path class="animation-text" fill-rule="evenodd" clip-rule="evenodd" d="M262.651 5.77771H331.881V275.005H278.194L182.121 139.623V275.005H112.513V5.77771H166.578L262.651 141.16V5.77771Z" fill="#03428D"/>
<path class="animation-text" fill-rule="evenodd" clip-rule="evenodd" d="M506.508 280.779C465.536 280.779 431.636 267.389 404.806 240.609C377.977 213.829 364.562 180.43 364.562 140.412C364.562 100.394 377.977 66.9951 404.806 40.215C431.636 13.435 465.536 0.0449254 506.508 0.0449254C530.463 -0.128287 554.054 5.83988 574.982 17.3675C595.33 28.3067 612.378 44.3906 624.384 63.9765L564.102 98.2062C558.798 88.6099 550.746 80.777 540.955 75.691C530.37 70.0817 518.517 67.223 506.508 67.3828C484.748 67.3828 467.175 74.1263 453.788 87.6133C440.401 101.1 433.722 118.727 433.75 140.495C433.75 162.29 440.429 179.917 453.788 193.377C467.147 206.836 484.72 213.552 506.508 213.524C518.518 213.693 530.373 210.834 540.955 205.216C550.824 200.063 558.891 192.086 564.102 182.327L624.384 216.93C612.532 236.597 595.539 252.741 575.192 263.664C554.168 275.117 530.511 281.012 506.508 280.779V280.779Z" fill="#03428D"/>
<path class="animation-text" fill-rule="evenodd" clip-rule="evenodd" d="M722.768 192.754C729.629 199.569 737.826 204.927 746.855 208.499C755.884 212.07 765.556 213.781 775.278 213.525C784.998 213.768 794.666 212.053 803.694 208.482C812.722 204.911 820.92 199.56 827.788 192.754C834.754 185.902 840.214 177.701 843.828 168.667C847.443 159.632 849.133 149.957 848.793 140.246C849.133 130.536 847.443 120.861 843.828 111.826C840.214 102.791 834.754 94.5912 827.788 87.7387C820.918 80.9353 812.72 75.5854 803.693 72.0146C794.665 68.4439 784.998 66.7269 775.278 66.9682C765.556 66.7123 755.884 68.4225 746.855 71.9941C737.826 75.5657 729.629 80.9234 722.768 87.7387C715.802 94.5912 710.342 102.791 706.727 111.826C703.113 120.861 701.423 130.536 701.763 140.246C701.423 149.957 703.113 159.632 706.727 168.667C710.342 177.701 715.802 185.902 722.768 192.754V192.754ZM876.602 240.069C863.377 253.273 847.575 263.679 830.157 270.656C812.738 277.633 794.067 281.035 775.278 280.655C756.489 281.035 737.818 277.633 720.399 270.656C702.981 263.679 687.179 253.273 673.954 240.069C660.496 227.155 649.873 211.638 642.746 194.485C635.62 177.332 632.144 158.911 632.534 140.371C632.144 121.831 635.62 103.41 642.746 86.2571C649.873 69.1042 660.496 53.5869 673.954 40.6727C687.179 27.4694 702.981 17.0631 720.399 10.0862C737.818 3.10922 756.489 -0.292652 775.278 0.0872414C794.067 -0.292652 812.738 3.10922 830.157 10.0862C847.575 17.0631 863.377 27.4694 876.602 40.6727C890.06 53.5869 900.683 69.1042 907.81 86.2571C914.936 103.41 918.412 121.831 918.022 140.371C918.43 158.932 914.962 177.377 907.835 194.552C900.708 211.728 890.076 227.265 876.602 240.194V240.069Z" fill="#03428D"/>
<path class="animation-text" fill-rule="evenodd" clip-rule="evenodd" d="M1170.07 280.779C1129.1 280.779 1095.2 267.389 1068.37 240.609C1041.54 213.829 1028.13 180.43 1028.13 140.412C1028.13 100.394 1041.54 66.9951 1068.37 40.215C1095.2 13.4349 1129.1 0.0449254 1170.07 0.0449254C1194.03 -0.128287 1217.62 5.83988 1238.55 17.3675C1258.89 28.3046 1275.92 44.3897 1287.91 63.9764L1227.62 98.2062C1222.33 88.6023 1214.28 80.7669 1204.48 75.691C1193.91 70.0869 1182.07 67.2282 1170.07 67.3828C1148.29 67.3828 1130.71 74.1263 1117.35 87.6133C1103.99 101.1 1097.31 118.727 1097.31 140.495C1097.31 162.29 1103.99 179.917 1117.35 193.377C1130.71 206.836 1148.29 213.552 1170.07 213.524C1182.07 213.688 1193.91 210.828 1204.48 205.216C1214.36 200.074 1222.43 192.094 1227.62 182.327L1287.91 216.93C1276.04 236.616 1259.02 252.763 1238.63 263.664C1217.64 275.092 1194.03 280.986 1170.07 280.779V280.779Z" fill="#03428D"/>
<path class="animation-text" fill-rule="evenodd" clip-rule="evenodd" d="M1459.09 5.77771H1528.32V275.005H1459.09V171.568H1382.47V275.005H1312.82V5.77771H1382.47V105.393H1459.09V5.77771Z" fill="#03428D"/>
<path class="animation-text" fill-rule="evenodd" clip-rule="evenodd" d="M1641.11 210.408H1746.51V275.005H1571.46V5.77771H1744.58V70H1641.11V107.304H1734.83V170.778H1641.11V210.408Z" fill="#03428D"/>
<path class="animation-text" fill-rule="evenodd" clip-rule="evenodd" d="M2057.29 5.77771V275.005H1988.06V130.027L1921.94 238.116H1914.92L1849.22 130.401V275.005H1779.57V5.77771H1849.22L1918.45 120.763L1988.06 5.77771H2057.29Z" fill="#03428D"/>
<path class="animation-text" d="M2170.12 5.77771H2100.47V275.046H2170.12V5.77771Z" fill="#03428D"/>
<path class="animation-text" fill-rule="evenodd" clip-rule="evenodd" d="M2344.37 280.779C2303.4 280.779 2269.5 267.389 2242.67 240.609C2215.84 213.829 2202.41 180.416 2202.38 140.371C2202.38 100.353 2215.8 66.9538 2242.63 40.1738C2269.46 13.3937 2303.36 0.00366563 2344.33 0.00366563C2368.29 -0.169547 2391.88 5.79862 2412.8 17.3262C2433.16 28.2737 2450.21 44.3731 2462.21 63.9768L2401.92 98.0819C2396.63 88.4826 2388.57 80.6486 2378.78 75.5667C2368.21 69.9608 2356.37 67.1021 2344.37 67.2585C2322.58 67.2585 2305.01 74.002 2291.65 87.489C2278.29 100.976 2271.61 118.603 2271.61 140.371C2271.61 162.166 2278.29 179.793 2291.65 193.252C2305.01 206.711 2322.58 213.469 2344.37 213.524C2356.37 213.688 2368.21 210.829 2378.78 205.216C2388.65 200.068 2396.72 192.089 2401.92 182.327L2462.21 216.931C2450.36 236.6 2433.36 252.745 2413.01 263.664C2392 275.107 2368.36 281.001 2344.37 280.779V280.779Z" fill="#03428D"/>
<path class="animation-text" fill-rule="evenodd" clip-rule="evenodd" d="M2568.78 176.927H2623.6L2596 85.5369L2568.78 176.927ZM2656.58 275.005L2643.56 236.164H2550.89L2539.12 275.005H2463.76L2550.55 5.81982H2638.18L2728.25 275.005H2656.58Z" fill="#03428D"/>
<path class="animation-text" fill-rule="evenodd" clip-rule="evenodd" d="M2817.72 208.498H2911.44V275.005H2748.07V5.77771H2817.72V208.498Z" fill="#03428D"/>
<path fill-rule="evenodd" clip-rule="evenodd" d="M0.0983887 554.991C11.9448 554.991 17.6158 545.062 19.1701 531.063C21.4806 511.954 24.5892 461.814 27.1517 389.491H104.657V567.702H88.6941V404.238H42.4848C40.1744 460.485 37.8639 511.456 34.7553 533.348C31.9407 556.029 20.5985 570.028 0.224409 570.028L0.0983887 554.991Z" fill="#03428D"/>
<path fill-rule="evenodd" clip-rule="evenodd" d="M226.691 389.45L181.364 535.882C175.189 555.739 164.098 569.987 141.96 569.987H135.785V554.991H141.96C155.865 554.991 162.544 544.813 166.661 531.063L172.584 512.204L126.375 389.45H143.388L179.431 489.148L210.098 389.45H226.691Z" fill="#03428D"/>
<path fill-rule="evenodd" clip-rule="evenodd" d="M334.821 389.45V567.702H318.648V497.415C310.282 501.099 301.255 503.091 292.099 503.272C259.836 503.272 238.832 484.205 238.832 449.56V389.45H254.837V449.56C254.837 475.814 269.498 488.276 292.435 488.276C301.502 488.256 310.453 486.256 318.648 482.419V389.45H334.821Z" fill="#03428D"/>
<path fill-rule="evenodd" clip-rule="evenodd" d="M374.393 389.491H390.398V552.955H448.327V389.491H464.291V552.955H522.22V389.491H538.183V567.744H374.393V389.491Z" fill="#03428D"/>
<path fill-rule="evenodd" clip-rule="evenodd" d="M641.902 511.705L623.377 437.845C620.562 426.92 617.957 414.167 617.201 409.847H616.697C615.899 414.001 613.337 426.92 610.522 437.845L591.996 511.705H641.902ZM645.515 525.954H588.342L577.797 567.702H560.994L608.38 389.45H625.897L673.282 567.702H656.479L645.515 525.954Z" fill="#03428D"/>
<path fill-rule="evenodd" clip-rule="evenodd" d="M763.39 482.419V404.239H738.732C715.543 404.239 703.697 417.49 703.697 442.955C703.697 468.42 715.543 482.419 738.228 482.419H763.39ZM726.843 496.169C701.638 492.015 687.439 472.2 687.439 443.703C687.439 409.307 706.763 389.45 738.69 389.45H779.396V567.702H763.39V497.083H744.361L701.638 567.702H683.071L726.843 496.169Z" fill="#03428D"/>
<path fill-rule="evenodd" clip-rule="evenodd" d="M958.055 404.238H918.358V567.744H902.437V404.238H862.781V389.491H958.055V404.238Z" fill="#03428D"/>
<path fill-rule="evenodd" clip-rule="evenodd" d="M1069.25 553.204V567.744H982.463V389.491H1066.4V403.989H998.426V469.956H1062.03V484.454H998.426V553.204H1069.25Z" fill="#03428D"/>
<path fill-rule="evenodd" clip-rule="evenodd" d="M1128.19 480.923L1115.29 498.204V567.744H1099.33V389.491H1115.29V474.526L1130 453.631L1176.08 389.491H1195.91L1138.48 467.131L1203.13 567.744H1184.06L1128.19 480.923Z" fill="#03428D"/>
<path fill-rule="evenodd" clip-rule="evenodd" d="M1212.88 517.314V439.881C1212.88 405.486 1232.71 386.377 1261.06 386.377C1290.47 386.377 1309.2 404.696 1311.01 437.804H1295.55C1293.75 412.589 1281.39 400.625 1261.06 400.625C1241.74 400.625 1228.34 413.337 1228.34 439.84V517.314C1228.34 543.817 1242.24 556.528 1261.94 556.528C1282.53 556.528 1294.38 544.066 1296.94 519.142H1312.4C1309.79 551.751 1291.39 570.611 1261.99 570.611C1233.21 570.777 1212.88 551.668 1212.88 517.314Z" fill="#03428D"/>
<path fill-rule="evenodd" clip-rule="evenodd" d="M1420.9 404.238H1381.25V567.744H1365.29V404.238H1325.63V389.491H1420.9V404.238Z" fill="#03428D"/>
<path fill-rule="evenodd" clip-rule="evenodd" d="M1445.35 389.45H1461.32V502.275C1461.32 511.165 1461.07 527.49 1460.52 536.38L1461.32 536.629C1463.63 530.523 1469.05 517.77 1473.92 507.551L1526.43 389.367H1544.45V567.702H1528.49V450.307L1528.74 420.522L1528.24 420.273C1526.68 424.427 1521.31 436.89 1518.7 443.204L1462.83 567.827H1445.31L1445.35 389.45Z" fill="#03428D"/>
<path fill-rule="evenodd" clip-rule="evenodd" d="M1564.28 554.991C1576.13 554.991 1581.8 545.062 1583.35 531.063C1585.66 511.954 1588.77 461.814 1591.33 389.491H1668.8V567.702H1652.83V404.238H1606.62C1604.31 460.485 1602 511.456 1598.89 533.348C1596.04 556.029 1584.74 570.028 1564.4 570.028L1564.28 554.991Z" fill="#03428D"/>
<path fill-rule="evenodd" clip-rule="evenodd" d="M1754.53 552.955C1774.87 552.955 1789.32 539.953 1789.32 515.028C1789.32 491.059 1774.87 478.597 1754.53 478.597H1724.41V552.955H1754.53ZM1708.33 389.491H1724.29V463.808H1754.41C1784.53 463.808 1805.41 482.917 1805.41 515.028C1805.41 548.261 1784.4 567.744 1754.41 567.744H1708.2L1708.33 389.491Z" fill="#03428D"/>
<path fill-rule="evenodd" clip-rule="evenodd" d="M1927.02 389.491V567.744H1911.06V484.454H1846.95V567.744H1830.95V389.491H1846.95V469.707H1911.06V389.491H1927.02Z" fill="#03428D"/>
<path fill-rule="evenodd" clip-rule="evenodd" d="M2030.78 511.705L2012.21 437.845C2009.36 426.92 2006.79 414.167 2006.04 409.847H2005.53C2004.74 414.001 2002.17 426.92 1999.36 437.845L1980.83 511.705H2030.78ZM2034.39 525.954H1977.18L1966.63 567.702H1949.83L1997.22 389.45H2014.73L2061.99 567.702H2045.19L2034.39 525.954Z" fill="#03428D"/>
<path fill-rule="evenodd" clip-rule="evenodd" d="M2152.27 482.419V404.239H2127.53C2104.34 404.239 2092.49 417.491 2092.49 442.955C2092.49 468.42 2104.34 482.419 2126.98 482.419H2152.27ZM2115.68 496.003C2090.48 491.849 2076.28 472.034 2076.28 443.537C2076.28 409.141 2095.6 389.284 2127.53 389.284H2168.23V567.703H2152.27V497.083H2133.41L2090.64 567.703H2071.91L2115.68 496.003Z" fill="#03428D"/>
<path fill-rule="evenodd" clip-rule="evenodd" d="M2339.92 567.744L2304.93 490.062L2269.89 567.744H2252.12L2295.64 475.024L2254.43 389.491H2272.2L2304.93 460.526L2337.61 389.491H2355.38L2314.17 475.024L2357.69 567.744H2339.92Z" fill="#03428D"/>
<path fill-rule="evenodd" clip-rule="evenodd" d="M2382.39 389.45H2398.36V502.275C2398.36 511.165 2398.1 527.49 2397.56 536.38L2398.36 536.629C2400.67 530.523 2406.08 517.77 2410.96 507.551L2463.47 389.367H2481.49V567.702H2465.53V450.307L2465.78 420.522L2465.27 420.273C2463.72 424.427 2458.3 436.89 2455.74 443.204L2399.87 567.827H2382.39V389.45Z" fill="#03428D"/>
<path fill-rule="evenodd" clip-rule="evenodd" d="M2649.4 389.45V567.702H2633.31V473.488C2633.31 454.669 2633.81 438.884 2634.86 423.098L2633.81 422.849C2629.19 435.602 2621.96 452.634 2615.29 469.707L2593.15 525.705H2577.18L2555.13 469.666C2548.45 452.592 2541.22 435.561 2536.69 422.808L2535.68 423.057C2536.69 438.842 2537.23 454.628 2537.23 473.446V567.702H2521.27V389.45H2538.07L2570.29 466.384C2574.96 477.849 2581.38 496.169 2584.75 506.097H2585.8C2589.16 496.169 2595.58 477.849 2600.2 466.384L2632.38 389.492L2649.4 389.45Z" fill="#03428D"/>
<path fill-rule="evenodd" clip-rule="evenodd" d="M2689.01 389.45H2704.97V502.275C2704.97 511.165 2704.68 527.49 2704.22 536.38L2704.97 536.629C2707.28 530.523 2712.66 517.77 2717.58 507.551L2770.13 389.367H2788.15V567.702H2772.19V450.307L2772.48 420.522L2771.93 420.273C2770.38 424.427 2765 436.89 2762.4 443.204L2706.53 567.827H2689.01V389.45Z" fill="#03428D"/>
<path fill-rule="evenodd" clip-rule="evenodd" d="M2895.48 482.419V404.239H2870.78C2847.59 404.239 2835.75 417.491 2835.75 442.955C2835.75 468.42 2847.59 482.419 2870.23 482.419H2895.48ZM2858.93 496.003C2833.73 491.849 2819.53 472.034 2819.53 443.537C2819.53 409.141 2838.85 389.284 2870.78 389.284H2911.44V567.703H2895.48V497.083H2876.45L2833.69 567.703H2815.16L2858.93 496.003Z" fill="#03428D"/>
</svg>
