<svg id="logo" viewBox="0 0 596 563" fill="none" xmlns="http://www.w3.org/2000/svg">
    <path class="line line-1" fill-rule="evenodd" clip-rule="evenodd" d="M302 370L197 265.877L207 256L312 360.123L302 370Z" fill="#03428D"/>
    <path class="line line-2" d="M395.032 256.042L292.14 357.754L303.128 368.624L406.02 266.912L395.032 256.042Z" fill="#03428D"/>
    <path class="line line-3" d="M309 355H294V489H309V355Z" fill="#03428D"/>
    <path class="line line-4" d="M309 475H80V489H309V475Z" fill="#03428D"/>
    <path class="line line-5" d="M522 475H294V489H522V475Z" fill="#03428D"/>
    <path class="line line-6" d="M291.635 92.4705L72.6614 480.554L85.5743 487.679L304.548 99.5953L291.635 92.4705Z" fill="#03428D"/>
    <path class="line line-7" d="M305.108 85.2884L292.205 92.431L516.072 487.889L528.975 480.746L305.108 85.2884Z" fill="#03428D"/>
    <path class="round round-1" d="M300.6 165.453C346.793 165.453 384.239 128.423 384.239 82.745C384.239 37.0666 346.793 0.0369873 300.6 0.0369873C254.408 0.0369873 216.962 37.0666 216.962 82.745C216.962 128.423 254.408 165.453 300.6 165.453Z" fill="#E3000F"/>
    <path class="round round-2" d="M190.975 362.856C237.168 362.856 274.614 325.826 274.614 280.148C274.614 234.469 237.168 197.44 190.975 197.44C144.783 197.44 107.337 234.469 107.337 280.148C107.337 325.826 144.783 362.856 190.975 362.856Z" fill="#FFD131"/>
    <path class="round round-3" d="M406.14 362.856C452.332 362.856 489.779 325.826 489.779 280.148C489.779 234.469 452.332 197.44 406.14 197.44C359.948 197.44 322.501 234.469 322.501 280.148C322.501 325.826 359.948 362.856 406.14 362.856Z" fill="#FFD131"/>
    <path class="round round-4" fill-rule="evenodd" clip-rule="evenodd" d="M166.526 480.292C166.526 491.157 164.361 501.915 160.155 511.953C155.949 521.99 149.785 531.109 142.014 538.79C134.243 546.471 125.018 552.562 114.865 556.716C104.713 560.87 93.8324 563.005 82.8453 563C63.0002 563 43.8013 556.023 28.6796 543.314C13.5578 530.606 3.49837 512.994 0.298828 493.627V466.957C3.49837 447.59 13.5578 429.978 28.6796 417.269C43.8013 404.561 63.0002 397.583 82.8453 397.584C93.8324 397.578 104.713 399.714 114.865 403.868C125.018 408.022 134.243 414.113 142.014 421.794C149.785 429.475 155.949 438.594 160.155 448.631C164.361 458.669 166.526 469.427 166.526 480.292Z" fill="#00963F"/>
    <path class="round round-5" d="M298.011 563C344.204 563 381.65 525.97 381.65 480.292C381.65 434.614 344.204 397.584 298.011 397.584C251.819 397.584 214.373 434.614 214.373 480.292C214.373 525.97 251.819 563 298.011 563Z" fill="#00963F"/>
    <path class="round round-6" d="M511.499 563C557.691 563 595.137 525.97 595.137 480.292C595.137 434.614 557.691 397.584 511.499 397.584C465.306 397.584 427.86 434.614 427.86 480.292C427.86 525.97 465.306 563 511.499 563Z" fill="#00963F"/>
</svg>

