<svg width="175" height="194" viewBox="0 0 175 194" fill="none" xmlns="http://www.w3.org/2000/svg">
<g filter="url(#filter0_d)">
<path d="M70.179 30C77.8771 16.6667 97.1221 16.6667 104.82 30L152.018 111.75C159.716 125.083 150.094 141.75 134.698 141.75H113.04C109.415 141.75 105.858 142.735 102.75 144.6L88.5417 153.125C87.9014 153.509 87.1004 153.504 86.4645 153.113L72.8212 144.717C69.669 142.777 66.0403 141.75 62.339 141.75H40.3012C24.9052 141.75 15.2827 125.083 22.9807 111.75L70.179 30Z" fill="white"/>
</g>
<path fill-rule="evenodd" clip-rule="evenodd" d="M88.7156 96.7743L70.377 78.5672L72.1235 76.8401L90.4621 95.0471L88.7156 96.7743Z" fill="#03428D"/>
<path d="M105.433 76.8553L86.9941 95.0823L88.7379 96.8072L107.176 78.5803L105.433 76.8553Z" fill="#03428D"/>
<path d="M89.9461 94.4011H87.5996V104.731H89.9461V94.4011Z" fill="#03428D"/>
<path d="M76.0318 113.314H65.5859V115.634H76.0318V113.314Z" fill="#03428D"/>
<path d="M112.083 113.314H101.637V115.634H112.083V113.314Z" fill="#03428D"/>
<path d="M65.6325 90.9519L53.5918 112.291L55.6409 113.422L67.6816 92.0825L65.6325 90.9519Z" fill="#03428D"/>
<path d="M111.723 90.9435L109.676 92.0769L121.747 113.4L123.794 112.266L111.723 90.9435Z" fill="#03428D"/>
<path d="M92.9672 56.3795L90.9121 57.5129L102.949 78.8545L105.004 77.721L92.9672 56.3795Z" fill="#03428D"/>
<path d="M83.8964 57.7355L71.8477 79.063L73.8962 80.1947L85.9449 58.8671L83.8964 57.7355Z" fill="#03428D"/>
<path d="M87.5438 64.2493C94.8739 64.2493 100.816 58.3732 100.816 51.1247C100.816 43.8761 94.8739 38 87.5438 38C80.2137 38 74.2715 43.8761 74.2715 51.1247C74.2715 58.3732 80.2137 64.2493 87.5438 64.2493Z" fill="#E3000F"/>
<path d="M71.2567 95.5745C78.5868 95.5745 84.529 89.6984 84.529 82.4498C84.529 75.2013 78.5868 69.3252 71.2567 69.3252C63.9266 69.3252 57.9844 75.2013 57.9844 82.4498C57.9844 89.6984 63.9266 95.5745 71.2567 95.5745Z" fill="#FFD131"/>
<path d="M105.399 95.5745C112.729 95.5745 118.672 89.6984 118.672 82.4498C118.672 75.2013 112.729 69.3252 105.399 69.3252C98.0692 69.3252 92.127 75.2013 92.127 82.4498C92.127 89.6984 98.0692 95.5745 105.399 95.5745Z" fill="#FFD131"/>
<path fill-rule="evenodd" clip-rule="evenodd" d="M67.378 114.21C67.378 115.934 67.0345 117.641 66.3671 119.234C65.6997 120.827 64.7215 122.274 63.4883 123.493C62.2551 124.712 60.7912 125.678 59.1801 126.338C57.5691 126.997 55.8425 127.336 54.099 127.335C50.9499 127.335 47.9033 126.228 45.5036 124.211C43.104 122.194 41.5077 119.399 41 116.326V112.094C41.5077 109.021 43.104 106.226 45.5036 104.209C47.9033 102.193 50.9499 101.085 54.099 101.085C55.8425 101.085 57.5691 101.423 59.1801 102.083C60.7912 102.742 62.2551 103.708 63.4883 104.927C64.7215 106.146 65.6997 107.593 66.3671 109.186C67.0345 110.779 67.378 112.486 67.378 114.21Z" fill="#00963F"/>
<path d="M88.243 127.335C95.5731 127.335 101.515 121.459 101.515 114.21C101.515 106.962 95.5731 101.085 88.243 101.085C80.9129 101.085 74.9707 106.962 74.9707 114.21C74.9707 121.459 80.9129 127.335 88.243 127.335Z" fill="#00963F"/>
<path d="M122.12 127.335C129.45 127.335 135.392 121.459 135.392 114.21C135.392 106.962 129.45 101.085 122.12 101.085C114.79 101.085 108.848 106.962 108.848 114.21C108.848 121.459 114.79 127.335 122.12 127.335Z" fill="#00963F"/>
<defs>
<filter id="filter0_d" x="0.271484" y="20" width="174.456" height="173.41" filterUnits="userSpaceOnUse" color-interpolation-filters="sRGB">
<feFlood flood-opacity="0" result="BackgroundImageFix"/>
<feColorMatrix in="SourceAlpha" type="matrix" values="0 0 0 0 0 0 0 0 0 0 0 0 0 0 0 0 0 0 127 0"/>
<feOffset dy="20"/>
<feGaussianBlur stdDeviation="10"/>
<feColorMatrix type="matrix" values="0 0 0 0 0 0 0 0 0 0 0 0 0 0 0 0 0 0 0.25 0"/>
<feBlend mode="normal" in2="BackgroundImageFix" result="effect1_dropShadow"/>
<feBlend mode="normal" in="SourceGraphic" in2="effect1_dropShadow" result="shape"/>
</filter>
</defs>
</svg>
