<svg width="23" height="23" viewBox="0 0 23 23" fill="none" xmlns="http://www.w3.org/2000/svg">
<path fill-rule="evenodd" clip-rule="evenodd" d="M10.35 2.3C5.9041 2.3 2.3 5.90411 2.3 10.35C2.3 14.7959 5.9041 18.4 10.35 18.4C14.7959 18.4 18.4 14.7959 18.4 10.35C18.4 5.90411 14.7959 2.3 10.35 2.3ZM0 10.35C0 4.63386 4.63385 0 10.35 0C16.0661 0 20.7 4.63386 20.7 10.35C20.7 16.0662 16.0661 20.7 10.35 20.7C4.63385 20.7 0 16.0662 0 10.35Z" fill="#2B3035"/>
<path fill-rule="evenodd" clip-rule="evenodd" d="M16.0343 16.0343C16.4834 15.5852 17.2116 15.5852 17.6607 16.0343L22.6632 21.0369C23.1123 21.486 23.1123 22.2141 22.6632 22.6632C22.2141 23.1123 21.4859 23.1123 21.0368 22.6632L16.0343 17.6607C15.5852 17.2116 15.5852 16.4834 16.0343 16.0343Z" fill="#2B3035"/>
</svg>
