<svg width="26" height="24" viewBox="0 0 26 24" fill="none" xmlns="http://www.w3.org/2000/svg">
<path d="M18.9432 1.66719L18.618 1.99298V1.66719H17.0163C16.2941 2.78316 14.7695 3.55455 12.9994 3.55455C11.2299 3.55455 9.70525 2.78316 8.98308 1.66719H7.38136V1.99298L7.05558 1.66719L1.29507 7.43094L4.44605 10.5845L7.38136 7.64791V22.3322H18.6167V7.64856L21.5527 10.5852L24.703 7.43094L18.9432 1.66719Z" fill="#2B2525"/>
<path d="M18.6167 23.6276H7.38133C6.66629 23.6276 6.08596 23.0473 6.08596 22.3322V10.7762L5.36185 11.5003C5.11897 11.7439 4.7893 11.8799 4.44538 11.8799C4.1021 11.8799 3.77179 11.7432 3.5289 11.5003L0.377919 8.34677C-0.127275 7.84092 -0.127275 7.0216 0.377919 6.51511L6.13972 0.751369C6.42082 0.469627 6.82691 0.332965 7.21812 0.382189C7.27187 0.375712 7.32628 0.371826 7.38133 0.371826H8.98306C9.42218 0.371826 9.83217 0.59463 10.0705 0.963162C10.5802 1.75075 11.7299 2.25918 12.9993 2.25918C14.2688 2.25918 15.4191 1.75075 15.9288 0.963162C16.1672 0.59463 16.5765 0.371826 17.0163 0.371826H18.618C18.6731 0.371826 18.7275 0.375065 18.7812 0.382189C18.8343 0.375712 18.8881 0.371826 18.9425 0.371826C19.2858 0.371826 19.6161 0.508488 19.8596 0.751369L25.6201 6.51447C26.1253 7.02031 26.1253 7.83963 25.6201 8.34612L22.4698 11.5003C22.2269 11.7432 21.8972 11.8799 21.554 11.8799C21.2107 11.8805 20.8804 11.7439 20.6375 11.501L19.9127 10.7756V22.3322C19.9121 23.0479 19.3324 23.6276 18.6167 23.6276ZM8.6767 21.0368H17.3213V7.64856C17.3213 7.12458 17.6368 6.65242 18.1206 6.45164C18.6051 6.25021 19.1614 6.36161 19.5325 6.73274L21.552 8.75222L22.872 7.43094L18.7275 3.28382C18.5209 3.3026 18.3175 3.27021 18.1225 3.1899C17.9872 3.1342 17.8648 3.05648 17.7585 2.96256H17.6471C16.5778 4.14135 14.864 4.84992 12.9993 4.84992C11.1347 4.84992 9.42154 4.14135 8.35156 2.96256H8.24016C8.13459 3.05648 8.01218 3.13355 7.87681 3.1899C7.68056 3.27086 7.47201 3.29936 7.27058 3.28382L3.1254 7.43159L4.44538 8.75286L6.46421 6.73274C6.83469 6.36161 7.3917 6.25086 7.87616 6.45164C8.36063 6.65242 8.67605 7.12458 8.67605 7.64856L8.6767 21.0368Z" fill="#2B2525"/>
</svg>
