<svg width="35" height="35" viewBox="0 0 35 35" fill="none" xmlns="http://www.w3.org/2000/svg">
<g clip-path="url(#clip0)">
<path d="M31.1961 3.04248H22.0654C21.6453 3.04248 21.3044 3.38339 21.3044 3.8034C21.3044 4.22341 21.6453 4.56432 22.0654 4.56432H31.1961C31.6161 4.56432 31.957 4.22341 31.957 3.8034C31.957 3.38339 31.6161 3.04248 31.1961 3.04248Z" fill="#00BEE7" stroke="#03428d"/>
<path d="M31.7351 3.26616L28.6915 0.222561C28.3947 -0.0741872 27.9123 -0.0741872 27.6155 0.222561C27.3188 0.51931 27.3188 1.00174 27.6155 1.29849L30.1204 3.80338L27.614 6.30976C27.3173 6.60651 27.3173 7.08894 27.614 7.38569C27.7572 7.52794 27.9509 7.60778 28.1527 7.60778C28.3546 7.60778 28.5483 7.52794 28.6915 7.38569L31.7351 4.34209C32.0318 4.04527 32.0318 3.56291 31.7351 3.26616ZM11.4131 3.04246H2.2824C1.86239 3.04246 1.52148 3.38336 1.52148 3.80338C1.52148 4.22339 1.86239 4.56429 2.2824 4.56429H11.4131C11.8331 4.56429 12.174 4.22339 12.174 3.80338C12.174 3.38336 11.8331 3.04246 11.4131 3.04246Z" fill="#03428d" stroke="#03428d"/>
<path d="M3.35813 3.80337L5.86301 1.29849C6.15976 1.00174 6.15976 0.51931 5.86301 0.222561C5.56626 -0.0741871 5.08383 -0.0741871 4.78709 0.222561L1.74356 3.26623C1.44681 3.56298 1.44681 4.04541 1.74356 4.34216L4.78716 7.38575C4.93034 7.52805 5.124 7.60793 5.32587 7.60796C5.52068 7.60796 5.71542 7.53341 5.86308 7.38425C6.15983 7.08751 6.15983 6.60508 5.86308 6.30833L3.35813 3.80337ZM30.4353 15.2168C29.8326 15.2163 29.2435 15.3954 28.743 15.7312C28.3261 14.5472 27.1954 13.695 25.8699 13.695C25.2673 13.6946 24.6781 13.8736 24.1777 14.2094C23.7607 13.0255 22.63 12.1732 21.3046 12.1732C20.77 12.1726 20.2449 12.3138 19.7828 12.5826V7.60789C19.7828 5.92933 18.4178 4.56429 16.7392 4.56429C15.0607 4.56429 13.6956 5.92933 13.6956 7.60789V20.543L11.0508 18.5602C9.48335 17.3838 7.25238 17.5406 5.86301 18.9285C4.97277 19.8187 4.97277 21.2659 5.86301 22.1562L16.6997 32.9943C17.9932 34.2878 19.7143 35 21.5435 35H25.1091C29.7232 35 33.4789 31.2458 33.4789 26.6302V18.2604C33.4789 16.5818 32.1139 15.2168 30.4353 15.2168V15.2168ZM31.9571 26.6302C31.9571 30.4057 28.8846 33.4782 25.1091 33.4782H21.5435C20.1191 33.4782 18.7815 32.9243 17.7756 31.9184L6.93894 21.0803C6.64219 20.7835 6.64219 20.3011 6.93894 20.0043C7.41067 19.5341 8.04069 19.2921 8.67378 19.2921C9.18817 19.2921 9.70555 19.4519 10.1393 19.7776L14.0001 22.6735C14.1133 22.7581 14.2479 22.8095 14.3887 22.8222C14.5294 22.8348 14.671 22.8081 14.7975 22.745C14.9236 22.6817 15.0297 22.5845 15.1039 22.4644C15.178 22.3443 15.2174 22.206 15.2175 22.0648V7.60789C15.2175 6.76936 15.8993 6.08612 16.7393 6.08612C17.5793 6.08612 18.261 6.76943 18.261 7.60789V19.0213C18.261 19.4413 18.6019 19.7822 19.022 19.7822C19.442 19.7822 19.7829 19.4413 19.7829 19.0213V15.2168C19.7829 14.3783 20.4646 13.6951 21.3046 13.6951C22.1447 13.6951 22.8264 14.3784 22.8264 15.2168V19.0213C22.8264 19.4413 23.1673 19.7822 23.5873 19.7822C24.0073 19.7822 24.3482 19.4413 24.3482 19.0213V16.7386C24.3482 15.9001 25.03 15.2168 25.87 15.2168C26.71 15.2168 27.3918 15.9001 27.3918 16.7386V19.0213C27.3918 19.4413 27.7327 19.7822 28.1527 19.7822C28.5727 19.7822 28.9136 19.4413 28.9136 19.0213V18.2604C28.9136 17.4218 29.5953 16.7386 30.4354 16.7386C31.2754 16.7386 31.9571 17.4219 31.9571 18.2604V26.6302V26.6302Z" fill="#03428d"/>
</g>
<defs>
<clipPath id="clip0">
<rect width="35" height="35" fill="white"/>
</clipPath>
</defs>
</svg>
