<svg id="anim" width="630" height="393" viewBox="0 0 630 393" fill="none" xmlns="http://www.w3.org/2000/svg">
<path d="M440.358 358.921C440.358 358.921 445.376 356.056 469.21 355.57" stroke="#2B3035" stroke-miterlimit="10" stroke-linecap="round" stroke-linejoin="round"/>
<path d="M437.431 358.503C437.431 358.503 444.828 351.867 468.374 354.313" stroke="#2B3035" stroke-miterlimit="10" stroke-linecap="round" stroke-linejoin="round"/>
<path d="M433.668 358.084C433.668 358.084 447.199 348.377 467.119 350.962" stroke="#2B3035" stroke-miterlimit="10" stroke-linecap="round" stroke-linejoin="round"/>
<path d="M427.395 347.192C427.186 347.829 425.643 356.299 426.559 359.34" stroke="#2B3035" stroke-miterlimit="10" stroke-linecap="round" stroke-linejoin="round"/>
<path d="M506.007 339.232C506.007 339.232 502.243 346.325 491.79 351.8" stroke="#2B3035" stroke-miterlimit="10" stroke-linecap="round" stroke-linejoin="round"/>
<path d="M487.608 351.8C487.608 351.8 490.288 351.779 497.644 345.516C504.999 339.253 504.752 336.719 504.752 336.719" stroke="#2B3035" stroke-miterlimit="10" stroke-linecap="round" stroke-linejoin="round"/>
<path d="M486.809 349.973C486.809 349.973 497.535 345.436 502.661 332.948" stroke="#2B3035" stroke-miterlimit="10" stroke-linecap="round" stroke-linejoin="round"/>
<path d="M494.717 327.921C494.717 327.921 492.961 333.045 484.263 339.232" stroke="#2B3035" stroke-miterlimit="10" stroke-linecap="round" stroke-linejoin="round"/>
<path d="M483.009 343.002C483.009 343.002 488.582 339.572 491.79 335.462" stroke="#2B3035" stroke-miterlimit="10" stroke-linecap="round" stroke-linejoin="round"/>
<path d="M490.953 326.665C490.953 326.665 488.888 332.496 479.245 338.813" stroke="#2B3035" stroke-miterlimit="10" stroke-linecap="round" stroke-linejoin="round"/>
<path d="M489.281 326.665C489.281 326.665 483.878 333.191 477.991 337.138" stroke="#2B3035" stroke-miterlimit="10" stroke-linecap="round" stroke-linejoin="round"/>
<path d="M478.409 334.624C478.409 334.624 482.804 330.561 485.099 327.921" stroke="#2B3035" stroke-miterlimit="10" stroke-linecap="round" stroke-linejoin="round"/>
<path d="M475.064 335.043C475.064 335.043 482.064 329.555 484.681 325.827" stroke="#2B3035" stroke-miterlimit="10" stroke-linecap="round" stroke-linejoin="round"/>
<path d="M471.719 332.948C473.175 332.064 474.572 331.084 475.9 330.016" stroke="#2B3035" stroke-miterlimit="10" stroke-linecap="round" stroke-linejoin="round"/>
<path d="M481.754 326.246C481.754 326.246 479.898 328.34 477.155 330.854" stroke="#2B3035" stroke-miterlimit="10" stroke-linecap="round" stroke-linejoin="round"/>
<path d="M498.062 330.016C498.062 330.016 491.79 340.112 484.263 344.259" stroke="#2B3035" stroke-miterlimit="10" stroke-linecap="round" stroke-linejoin="round"/>
<path d="M501.872 350.977C501.872 350.977 506.153 351.889 506.893 351.982" stroke="#2B3035" stroke-miterlimit="10" stroke-linecap="round" stroke-linejoin="round"/>
<path d="M506.558 356.333L502.661 355.989" stroke="#2B3035" stroke-miterlimit="10" stroke-linecap="round" stroke-linejoin="round"/>
<path d="M496.807 352.219C496.807 352.219 500.571 353.383 502.661 353.476" stroke="#2B3035" stroke-miterlimit="10" stroke-linecap="round" stroke-linejoin="round"/>
<path d="M493.504 353.99L500.571 355.57" stroke="#2B3035" stroke-miterlimit="10" stroke-linecap="round" stroke-linejoin="round"/>
<path d="M505.554 360.015C505.554 360.015 493.79 358.441 490.157 355.998" stroke="#2B3035" stroke-miterlimit="10" stroke-linecap="round" stroke-linejoin="round"/>
<path d="M488.026 358.084C488.026 358.084 494.031 359.965 496.807 360.178" stroke="#2B3035" stroke-miterlimit="10" stroke-linecap="round" stroke-linejoin="round"/>
<path d="M503.08 364.786C503.08 364.786 499.734 363.735 495.135 362.692" stroke="#2B3035" stroke-miterlimit="10" stroke-linecap="round" stroke-linejoin="round"/>
<path d="M501.407 367.3C501.407 367.3 491.79 363.735 487.608 363.111" stroke="#2B3035" stroke-miterlimit="10" stroke-linecap="round" stroke-linejoin="round"/>
<path d="M496.807 367.719C496.807 367.719 495.971 374.07 481.754 375.259" stroke="#2B3035" stroke-miterlimit="10" stroke-linecap="round" stroke-linejoin="round"/>
<path d="M484.263 373.584C484.263 373.584 490.117 373.931 495.971 367.3" stroke="#2B3035" stroke-miterlimit="10" stroke-linecap="round" stroke-linejoin="round"/>
<path d="M485.517 370.651C487.178 370.795 488.848 370.527 490.38 369.869C491.911 369.211 493.257 368.185 494.298 366.881" stroke="#2B3035" stroke-miterlimit="10" stroke-linecap="round" stroke-linejoin="round"/>
<path d="M485.099 345.935C485.099 345.935 493.751 342.093 499.316 330.854" stroke="#2B3035" stroke-miterlimit="10" stroke-linecap="round" stroke-linejoin="round"/>
<path d="M421.96 362.692C421.96 362.692 421.692 350.053 428.232 345.935" stroke="#2B3035" stroke-miterlimit="10" stroke-linecap="round" stroke-linejoin="round"/>
<path d="M428.232 358.921C428.232 358.921 428.65 349.215 432.831 343.003" stroke="#2B3035" stroke-miterlimit="10" stroke-linecap="round" stroke-linejoin="round"/>
<path d="M500.571 331.692C500.571 331.692 493.462 323.38 479.245 326.246C475.482 327.435 467.955 330.854 467.955 330.854" stroke="#2B3035" stroke-miterlimit="10" stroke-linecap="round" stroke-linejoin="round"/>
<path d="M500.989 332.111C500.989 332.111 495.005 343.907 486.354 348.03" stroke="#2B3035" stroke-miterlimit="10" stroke-linecap="round" stroke-linejoin="round"/>
<path d="M506.843 346.773H503.03" stroke="#2B3035" stroke-miterlimit="10" stroke-linecap="round" stroke-linejoin="round"/>
<path d="M507.679 350.962C507.679 350.962 503.368 349.073 500.571 349.286" stroke="#2B3035" stroke-miterlimit="10" stroke-linecap="round" stroke-linejoin="round"/>
<path d="M488.026 365.205L499.316 368.557" stroke="#2B3035" stroke-miterlimit="10" stroke-linecap="round" stroke-linejoin="round"/>
<path d="M434.086 351.381C434.086 351.381 441.345 340.694 460.011 342.165" stroke="#2B3035" stroke-miterlimit="10" stroke-linecap="round" stroke-linejoin="round"/>
<path d="M434.086 353.894C434.086 353.894 443.854 343.35 462.52 344.678" stroke="#2B3035" stroke-miterlimit="10" stroke-linecap="round" stroke-linejoin="round"/>
<path d="M439.103 386.57L441.612 391.178" stroke="#2B3035" stroke-miterlimit="10" stroke-linecap="round" stroke-linejoin="round"/>
<path d="M419.033 367.719C419.033 367.719 422.248 378.397 426.977 381.124" stroke="#2B3035" stroke-miterlimit="10" stroke-linecap="round" stroke-linejoin="round"/>
<path d="M419.451 366.881C419.451 366.881 421.412 374.489 426.977 377.354" stroke="#2B3035" stroke-miterlimit="10" stroke-linecap="round" stroke-linejoin="round"/>
<path d="M436.594 374.003C436.594 374.003 443.435 373.094 446.63 369.395" stroke="#2B3035" stroke-miterlimit="10" stroke-linecap="round" stroke-linejoin="round"/>
<path d="M436.594 376.097C436.594 376.097 448.035 373.931 452.484 368.557" stroke="#2B3035" stroke-miterlimit="10" stroke-linecap="round" stroke-linejoin="round"/>
<path d="M436.594 379.03C436.594 379.03 455.98 377.559 462.101 368.557" stroke="#2B3035" stroke-miterlimit="10" stroke-linecap="round" stroke-linejoin="round"/>
<path d="M436.176 377.773C436.176 377.773 450.264 376.583 458.338 368.976" stroke="#2B3035" stroke-miterlimit="10" stroke-linecap="round" stroke-linejoin="round"/>
<path d="M434.086 380.286C434.086 380.286 449.139 381.191 457.92 375.678C466.701 370.165 467.955 367.3 467.955 367.3" stroke="#2B3035" stroke-miterlimit="10" stroke-linecap="round" stroke-linejoin="round"/>
<path d="M433.668 366.881C433.668 366.881 456.536 368.343 471.301 365.205" stroke="#2B3035" stroke-miterlimit="10" stroke-linecap="round" stroke-linejoin="round"/>
<path d="M431.995 363.949C431.995 363.949 446.78 364.853 456.665 365.205C466.55 365.557 469.916 365.134 470.882 364.786" stroke="#2B3035" stroke-miterlimit="10" stroke-linecap="round" stroke-linejoin="round"/>
<path d="M416.105 353.057C417.3 352.476 418.565 352.054 419.869 351.8" stroke="#2B3035" stroke-miterlimit="10" stroke-linecap="round" stroke-linejoin="round"/>
<path d="M427.395 345.097C427.395 345.097 418.698 346.077 414.851 347.192" stroke="#2B3035" stroke-miterlimit="10" stroke-linecap="round" stroke-linejoin="round"/>
<path d="M413.597 351.381C413.597 351.381 417.669 348.331 425.723 347.611" stroke="#2B3035" stroke-miterlimit="10" stroke-linecap="round" stroke-linejoin="round"/>
<path d="M405.234 347.192C405.234 347.192 411.259 344.678 417.778 344.259" stroke="#2B3035" stroke-miterlimit="10" stroke-linecap="round" stroke-linejoin="round"/>
<path d="M410.251 340.489C410.251 340.489 406.488 339.949 404.816 340.908" stroke="#2B3035" stroke-miterlimit="10" stroke-linecap="round" stroke-linejoin="round"/>
<path d="M403.561 345.097C407.299 343.396 414.433 342.584 414.433 342.584" stroke="#2B3035" stroke-miterlimit="10" stroke-linecap="round" stroke-linejoin="round"/>
<path d="M392.271 354.313C392.271 354.313 391.08 359.244 391.017 360.597" stroke="#2B3035" stroke-miterlimit="10" stroke-linecap="round" stroke-linejoin="round"/>
<path d="M403.979 345.935C403.979 345.935 413.768 353.924 421.123 354.313" stroke="#2B3035" stroke-miterlimit="10" stroke-linecap="round" stroke-linejoin="round"/>
<path d="M403.143 338.394C403.143 338.394 405.614 337.691 406.906 337.138" stroke="#2B3035" stroke-miterlimit="10" stroke-linecap="round" stroke-linejoin="round"/>
<path d="M398.125 367.3C398.125 367.3 398.61 362.721 396.871 359.759" stroke="#2B3035" stroke-miterlimit="10" stroke-linecap="round" stroke-linejoin="round"/>
<path d="M396.034 366.881C396.034 366.881 396.729 360.731 395.198 357.665" stroke="#2B3035" stroke-miterlimit="10" stroke-linecap="round" stroke-linejoin="round"/>
<path d="M394.362 366.462C394.362 366.462 394.952 360.208 393.108 355.57" stroke="#2B3035" stroke-miterlimit="10" stroke-linecap="round" stroke-linejoin="round"/>
<path d="M388.926 352.219C388.926 352.219 387.53 353.61 387.672 354.313" stroke="#2B3035" stroke-miterlimit="10" stroke-linecap="round" stroke-linejoin="round"/>
<path d="M400.634 324.57C400.634 324.57 390.979 329.941 390.599 346.354" stroke="#2B3035" stroke-miterlimit="10" stroke-linecap="round" stroke-linejoin="round"/>
<path d="M401.889 324.151C401.889 324.151 394.011 329.417 393.526 343.421" stroke="#2B3035" stroke-miterlimit="10" stroke-linecap="round" stroke-linejoin="round"/>
<path d="M396.034 348.03C396.034 348.03 395.474 347.64 393.944 350.543" stroke="#2B3035" stroke-miterlimit="10" stroke-linecap="round" stroke-linejoin="round"/>
<path d="M395.198 345.097C395.198 345.097 392.965 347.012 391.853 349.286" stroke="#2B3035" stroke-miterlimit="10" stroke-linecap="round" stroke-linejoin="round"/>
<path d="M404.816 349.705C404.816 349.705 413.873 357.485 420.287 356.827" stroke="#2B3035" stroke-miterlimit="10" stroke-linecap="round" stroke-linejoin="round"/>
<path d="M406.488 368.976C410.121 370.763 414.268 371.208 418.196 370.232" stroke="#2B3035" stroke-miterlimit="10" stroke-linecap="round" stroke-linejoin="round"/>
<path d="M406.07 367.3C406.07 367.3 413.35 368.9 418.614 368.557" stroke="#2B3035" stroke-miterlimit="10" stroke-linecap="round" stroke-linejoin="round"/>
<path d="M406.07 364.367C410.137 365.564 414.391 365.99 418.614 365.624" stroke="#2B3035" stroke-miterlimit="10" stroke-linecap="round" stroke-linejoin="round"/>
<path d="M405.652 357.665C405.652 357.665 408.437 360.627 419.451 360.597" stroke="#2B3035" stroke-miterlimit="10" stroke-linecap="round" stroke-linejoin="round"/>
<path d="M404.816 353.476C404.816 353.476 413.141 358.951 420.287 358.921" stroke="#2B3035" stroke-miterlimit="10" stroke-linecap="round" stroke-linejoin="round"/>
<path d="M406.07 369.395C406.07 369.395 404.151 364.816 403.979 362.692" stroke="#2B3035" stroke-miterlimit="10" stroke-linecap="round" stroke-linejoin="round"/>
<path d="M402.307 327.921C402.307 327.921 399.238 348.687 403.143 360.178" stroke="#2B3035" stroke-miterlimit="10" stroke-linecap="round" stroke-linejoin="round"/>
<path d="M389.762 348.03C389.762 348.03 392.756 343.555 395.616 341.746" stroke="#2B3035" stroke-miterlimit="10" stroke-linecap="round" stroke-linejoin="round"/>
<path d="M387.672 346.773C387.672 346.773 394.952 351.306 397.707 356.408" stroke="#2B3035" stroke-miterlimit="10" stroke-linecap="round" stroke-linejoin="round"/>
<path d="M386.835 350.543C386.835 350.543 394.011 354.657 401.47 366.462" stroke="#2B3035" stroke-miterlimit="10" stroke-linecap="round" stroke-linejoin="round"/>
<path d="M405.652 360.597C405.652 360.597 402.478 340.099 403.143 334.624C403.808 329.149 403.979 329.178 403.979 329.178" stroke="#2B3035" stroke-miterlimit="10" stroke-linecap="round" stroke-linejoin="round"/>
<path d="M406.488 369.395C406.488 369.395 405.823 364.711 405.652 362.692" stroke="#2B3035" stroke-miterlimit="10" stroke-linecap="round" stroke-linejoin="round"/>
<path d="M401.47 361.435C401.47 361.435 409.9 364.397 418.614 363.111" stroke="#2B3035" stroke-miterlimit="10" stroke-linecap="round" stroke-linejoin="round"/>
<path d="M400.634 359.759C400.634 359.759 411.05 362.826 419.032 361.435" stroke="#2B3035" stroke-miterlimit="10" stroke-linecap="round" stroke-linejoin="round"/>
<path d="M403.979 370.651C403.979 370.651 394.847 359.893 396.035 341.327C396.595 335.014 398.715 327.846 401.889 326.246" stroke="#2B3035" stroke-miterlimit="10" stroke-linecap="round" stroke-linejoin="round"/>
<path d="M401.889 327.502C401.889 327.502 389.934 350.049 406.488 370.232" stroke="#2B3035" stroke-miterlimit="10" stroke-linecap="round" stroke-linejoin="round"/>
<path d="M457.92 340.489C457.92 340.489 446.011 339.32 437.849 345.935" stroke="#2B3035" stroke-miterlimit="10" stroke-linecap="round" stroke-linejoin="round"/>
<path d="M465.865 348.448L454.575 348.03" stroke="#2B3035" stroke-miterlimit="10" stroke-linecap="round" stroke-linejoin="round"/>
<path d="M433.668 356.408C433.668 356.408 435.934 350.677 451.23 348.867" stroke="#2B3035" stroke-miterlimit="10" stroke-linecap="round" stroke-linejoin="round"/>
<path d="M421.96 368.557C421.96 368.557 423.783 364.573 429.486 364.367" stroke="#2B3035" stroke-miterlimit="10" stroke-linecap="round" stroke-linejoin="round"/>
<path d="M470.883 363.949C470.883 363.949 469.498 365.411 453.739 363.53C437.979 361.649 423.365 361.364 420.705 365.624C418.046 369.885 423.921 360.526 422.378 363.949C420.835 367.371 421.123 369.323 426.977 374.003" stroke="#2B3035" stroke-miterlimit="10" stroke-linecap="round" stroke-linejoin="round"/>
<path d="M418.614 367.719C418.614 367.719 422.528 361.221 428.65 360.597C434.771 359.973 461.683 362.34 470.464 361.016" stroke="#2B3035" stroke-miterlimit="10" stroke-linecap="round" stroke-linejoin="round"/>
<path d="M427.814 385.313C427.814 385.313 426.559 374.769 428.232 363.949" stroke="#2B3035" stroke-miterlimit="10" stroke-linecap="round" stroke-linejoin="round"/>
<path d="M430.322 387.827C430.322 387.827 427.128 374.769 430.741 361.854" stroke="#2B3035" stroke-miterlimit="10" stroke-linecap="round" stroke-linejoin="round"/>
<path d="M435.758 389.922L434.922 385.732" stroke="#2B3035" stroke-miterlimit="10" stroke-linecap="round" stroke-linejoin="round"/>
<path d="M432.413 385.313V389.922" stroke="#2B3035" stroke-miterlimit="10" stroke-linecap="round" stroke-linejoin="round"/>
<path d="M431.577 363.111L432.413 384.057" stroke="#2B3035" stroke-miterlimit="10" stroke-linecap="round" stroke-linejoin="round"/>
<path d="M435.34 368.976L436.595 380.705" stroke="#2B3035" stroke-miterlimit="10" stroke-linecap="round" stroke-linejoin="round"/>
<path d="M435.758 342.584C433.139 347.662 431.574 353.22 431.159 358.921" stroke="#2B3035" stroke-miterlimit="10" stroke-linecap="round" stroke-linejoin="round"/>
<path d="M433.249 363.53L434.504 381.124" stroke="#2B3035" stroke-miterlimit="10" stroke-linecap="round" stroke-linejoin="round"/>
<path d="M470.882 369.395C470.882 369.395 459.881 388.87 437.431 386.151C434.394 385.803 431.507 384.646 429.068 382.8" stroke="#2B3035" stroke-miterlimit="10" stroke-linecap="round" stroke-linejoin="round"/>
<path d="M433.668 369.394C433.668 369.394 463.925 369.742 470.882 366.881" stroke="#2B3035" stroke-miterlimit="10" stroke-linecap="round" stroke-linejoin="round"/>
<path d="M418.196 366.881C420.835 363.463 425.175 358.708 432.413 358.921C439.651 359.135 465.317 359.826 469.628 358.503" stroke="#2B3035" stroke-miterlimit="10" stroke-linecap="round" stroke-linejoin="round"/>
<path d="M438.267 342.165C438.267 342.165 433.818 345.302 433.668 358.922" stroke="#2B3035" stroke-miterlimit="10" stroke-linecap="round" stroke-linejoin="round"/>
<path d="M488.026 356.827C488.026 356.827 502.661 350.61 506.007 341.746" stroke="#2B3035" stroke-miterlimit="10" stroke-linecap="round" stroke-linejoin="round"/>
<path d="M468.374 327.084C468.374 327.084 475.771 322.542 481.754 322.894" stroke="#2B3035" stroke-miterlimit="10" stroke-linecap="round" stroke-linejoin="round"/>
<path d="M428.232 339.651C429.198 339.722 441.763 340.975 449.975 336.3" stroke="#2B3035" stroke-miterlimit="10" stroke-linecap="round" stroke-linejoin="round"/>
<path d="M416.105 339.232C416.105 339.232 427.266 344.046 431.159 343.84" stroke="#2B3035" stroke-miterlimit="10" stroke-linecap="round" stroke-linejoin="round"/>
<path d="M414.851 338.394C414.851 338.394 419.601 344.046 424.887 344.259" stroke="#2B3035" stroke-miterlimit="10" stroke-linecap="round" stroke-linejoin="round"/>
<path fill-rule="evenodd" clip-rule="evenodd" d="M402.307 323.732C402.307 323.732 394.78 326.334 391.435 331.273C388.09 336.212 388.211 342.776 387.672 345.097C387.176 347.157 386.896 349.263 386.835 351.381C386.835 353.057 387.672 353.476 387.672 353.476C387.672 353.476 387.479 355.344 388.926 358.084C390.373 360.823 394.17 363.111 394.362 364.367C394.554 365.624 393.526 365.817 394.362 366.462C395.198 367.107 396.26 366.969 396.871 367.3C397.481 367.631 397.097 366.969 398.125 367.719C399.154 368.469 403.369 369.901 404.397 370.651C405.426 371.401 407.743 370.651 407.743 370.651C407.743 370.651 412.568 374.51 419.451 371.489C421.838 379.78 427.621 384.564 428.232 385.313C428.842 386.063 428.98 387.601 429.904 387.827C430.338 387.915 430.759 388.055 431.159 388.246C431.159 388.246 432.743 390.638 434.086 390.759C435.428 390.881 435.758 389.922 435.758 389.922C435.758 389.922 440.165 392.942 442.03 391.597C444.836 392.016 452.396 391.685 457.084 389.084C461.771 386.482 465.865 381.962 465.865 381.962L477.991 377.354C477.991 377.354 491.179 379.118 499.316 368.557C500.763 368.259 500.571 368.138 500.571 368.138C500.571 368.138 506.546 363.199 507.261 351.381C507.976 351.188 508.097 351.381 508.097 351.381L507.679 346.773H506.843L506.425 344.259C506.592 343.85 506.732 343.43 506.843 343.003C506.947 342.512 506.425 342.165 506.425 342.165L506.007 340.489C505.814 339.489 505.534 338.508 505.17 337.557C504.648 336.3 503.882 334.695 503.08 333.786C502.458 333.139 501.755 332.576 500.989 332.111C500.989 332.111 498.028 321.918 480.5 323.732C484.368 321.147 484.263 319.124 484.263 319.124C484.263 319.124 491.476 314.168 489.699 305.719C490.013 300.482 490.222 295.317 487.608 295.246C486.596 292.523 477.468 281.631 471.719 280.583C465.969 279.536 456.699 280.722 446.63 284.773C440.391 287.215 433.249 289.381 433.249 289.381C433.249 289.381 422.62 289.59 411.088 297.34C399.555 305.09 401.123 317.239 402.307 323.732Z" stroke="#2B3035" stroke-miterlimit="10" stroke-linecap="round" stroke-linejoin="round"/>
<path d="M449.557 336.719C449.557 336.719 471.301 341.922 471.301 367.719C471.301 372.151 471.301 377.949 465.865 381.962" stroke="#2B3035" stroke-miterlimit="10" stroke-linecap="round" stroke-linejoin="round"/>
<path d="M449.975 283.516C449.975 283.516 472.555 286.344 472.555 314.097C472.58 317.147 471.916 320.164 470.612 322.921C469.309 325.677 467.4 328.103 465.028 330.016C465.028 330.016 488.026 337.557 488.026 358.503C488.026 366.982 485.141 375.494 478.409 377.354" stroke="#2B3035" stroke-miterlimit="10" stroke-linecap="round" stroke-linejoin="round"/>
<path d="M432.831 289.381C432.831 289.381 456.247 295.279 456.247 320.381C456.247 329.002 450.95 335.357 449.139 336.719" stroke="#2B3035" stroke-miterlimit="10" stroke-linecap="round" stroke-linejoin="round"/>
<path d="M410.251 314.516C410.251 314.516 405.142 304.043 413.597 295.665" stroke="#2B3035" stroke-miterlimit="10" stroke-linecap="round" stroke-linejoin="round"/>
<path d="M410.252 314.097C410.252 314.097 407.095 299.435 427.395 291.056" stroke="#2B3035" stroke-miterlimit="10" stroke-linecap="round" stroke-linejoin="round"/>
<path d="M411.506 314.097C411.506 314.097 408.905 311.437 414.433 307.813" stroke="#2B3035" stroke-miterlimit="10" stroke-linecap="round" stroke-linejoin="round"/>
<path d="M402.307 322.894C402.307 322.894 405.702 336.3 421.123 340.489" stroke="#2B3035" stroke-miterlimit="10" stroke-linecap="round" stroke-linejoin="round"/>
<path d="M409.833 335.881C409.833 335.881 410.022 340.489 411.506 340.908" stroke="#2B3035" stroke-miterlimit="10" stroke-linecap="round" stroke-linejoin="round"/>
<path d="M414.015 338.394C414.015 338.394 412.811 340.342 416.106 342.584" stroke="#2B3035" stroke-miterlimit="10" stroke-linecap="round" stroke-linejoin="round"/>
<path d="M489.699 299.016C489.699 299.016 487.516 308.504 472.137 318.286" stroke="#2B3035" stroke-miterlimit="10" stroke-linecap="round" stroke-linejoin="round"/>
<path d="M489.699 304.043C489.699 304.043 488.633 312.694 470.464 322.475" stroke="#2B3035" stroke-miterlimit="10" stroke-linecap="round" stroke-linejoin="round"/>
<path d="M489.281 307.813C489.281 307.813 488.913 314.231 475.482 321.638" stroke="#2B3035" stroke-miterlimit="10" stroke-linecap="round" stroke-linejoin="round"/>
<path d="M403.979 317.029C403.979 317.029 415.737 319.396 427.395 322.475C439.053 325.554 447.935 328.759 453.32 328.759" stroke="#2B3035" stroke-miterlimit="10" stroke-linecap="round" stroke-linejoin="round"/>
<path d="M404.397 321.219C404.397 321.219 409.047 321.638 419.869 323.732C430.69 325.827 445.146 328.613 453.739 328.759" stroke="#2B3035" stroke-miterlimit="10" stroke-linecap="round" stroke-linejoin="round"/>
<path d="M456.247 317.029C456.247 317.029 452.952 320.8 446.212 325.408" stroke="#2B3035" stroke-miterlimit="10" stroke-linecap="round" stroke-linejoin="round"/>
<path d="M454.993 313.259C454.993 313.259 452.254 317.029 442.031 324.151" stroke="#2B3035" stroke-miterlimit="10" stroke-linecap="round" stroke-linejoin="round"/>
<path d="M441.194 293.151C441.194 293.151 426.049 305.434 419.033 316.192" stroke="#2B3035" stroke-miterlimit="10" stroke-linecap="round" stroke-linejoin="round"/>
<path d="M445.794 296.502C445.325 296.787 421.96 317.448 421.96 317.448" stroke="#2B3035" stroke-miterlimit="10" stroke-linecap="round" stroke-linejoin="round"/>
<path d="M448.721 299.016C448.721 299.016 433.718 315.354 426.559 319.124" stroke="#2B3035" stroke-miterlimit="10" stroke-linecap="round" stroke-linejoin="round"/>
<path d="M451.648 304.043C451.648 304.043 438.735 319.396 432.413 321.219" stroke="#2B3035" stroke-miterlimit="10" stroke-linecap="round" stroke-linejoin="round"/>
<path d="M487.144 296.08C487.144 296.08 476.368 280.018 456.665 285.61" stroke="#2B3035" stroke-miterlimit="10" stroke-linecap="round" stroke-linejoin="round"/>
<path d="M411.924 314.935C411.924 314.935 405.422 311.165 406.488 301.111" stroke="#2B3035" stroke-miterlimit="10" stroke-linecap="round" stroke-linejoin="round"/>
<path d="M403.561 327.921C403.561 327.921 406.676 342.299 437.013 341.746" stroke="#2B3035" stroke-miterlimit="10" stroke-linecap="round" stroke-linejoin="round"/>
<path d="M410.251 331.692L410.67 324.151" stroke="#2B3035" stroke-miterlimit="10" stroke-linecap="round" stroke-linejoin="round"/>
<path d="M412.342 314.516C412.342 314.516 416.014 297.34 429.068 289.8" stroke="#2B3035" stroke-miterlimit="10" stroke-linecap="round" stroke-linejoin="round"/>
<path d="M447.466 333.786C447.466 333.786 431.485 334.477 416.105 325.408" stroke="#2B3035" stroke-miterlimit="10" stroke-linecap="round" stroke-linejoin="round"/>
<path d="M416.524 325.827C416.524 325.827 430.791 337.975 442.03 337.138" stroke="#2B3035" stroke-miterlimit="10" stroke-linecap="round" stroke-linejoin="round"/>
<path d="M416.524 326.665C416.524 326.665 424.937 338.667 435.34 339.232" stroke="#2B3035" stroke-miterlimit="10" stroke-linecap="round" stroke-linejoin="round"/>
<path d="M416.105 325.408C416.105 325.408 417.966 338.248 430.741 340.07" stroke="#2B3035" stroke-miterlimit="10" stroke-linecap="round" stroke-linejoin="round"/>
<path d="M454.993 311.583C454.993 311.583 444.447 321.491 439.103 323.313" stroke="#2B3035" stroke-miterlimit="10" stroke-linecap="round" stroke-linejoin="round"/>
<path d="M454.157 309.489C454.157 309.489 441.52 320.8 437.849 322.475" stroke="#2B3035" stroke-miterlimit="10" stroke-linecap="round" stroke-linejoin="round"/>
<path d="M484.263 319.124L475.064 322.057" stroke="#2B3035" stroke-miterlimit="10" stroke-linecap="round" stroke-linejoin="round"/>
<path d="M469.628 325.408C473.759 322.056 477.343 320.8 483.009 321.638" stroke="#2B3035" stroke-miterlimit="10" stroke-linecap="round" stroke-linejoin="round"/>
<path d="M486.475 297.754C486.475 297.754 482.498 286.867 464.192 290.637" stroke="#2B3035" stroke-miterlimit="10" stroke-linecap="round" stroke-linejoin="round"/>
<path d="M483.462 302.775C483.462 302.775 477.205 297.055 469.628 298.597" stroke="#2B3035" stroke-miterlimit="10" stroke-linecap="round" stroke-linejoin="round"/>
<path d="M489.281 296.083C489.281 296.083 481.386 311.018 472.555 315.773" stroke="#2B3035" stroke-miterlimit="10" stroke-linecap="round" stroke-linejoin="round"/>
<path d="M472.555 315.773C472.555 315.773 485.158 304.146 487.479 295.076" stroke="#2B3035" stroke-miterlimit="10" stroke-linecap="round" stroke-linejoin="round"/>
<path d="M403.979 313.259C403.979 313.259 419.777 316.611 425.723 319.124C431.669 321.638 435.808 322.894 443.285 324.57C450.761 326.246 455.411 326.246 455.411 326.246" stroke="#2B3035" stroke-miterlimit="10" stroke-linecap="round" stroke-linejoin="round"/>
<path d="M405.234 323.313C405.234 323.313 417.13 325.542 427.814 327.502C438.497 329.463 451.556 329.731 454.157 328.759" stroke="#2B3035" stroke-miterlimit="10" stroke-linecap="round" stroke-linejoin="round"/>
<path d="M414.851 335.881C414.851 335.881 415.177 313.812 422.378 303.624C429.578 293.436 435.758 290.638 435.758 290.638" stroke="#2B3035" stroke-miterlimit="10" stroke-linecap="round" stroke-linejoin="round"/>
<path d="M407.324 300.273C403.699 308.563 402.808 317.7 403.979 320.8C405.15 323.9 408.579 333.229 416.942 336.719C425.305 340.208 436.248 341.302 442.867 336.719C449.486 332.136 453.738 330.435 453.738 330.435" stroke="#2B3035" stroke-miterlimit="10" stroke-linecap="round" stroke-linejoin="round"/>
<path d="M402.307 323.313C402.629 324.532 401.291 324.888 403.143 327.502C404.995 330.117 405.472 331.591 406.07 334.205C406.668 336.819 407.283 337.875 410.251 340.07C413.22 342.265 413.973 341.084 414.851 342.165C415.729 343.245 419.965 344.854 424.05 344.678C428.135 344.502 429.486 344.678 429.486 344.678" stroke="#2B3035" stroke-miterlimit="10" stroke-linecap="round" stroke-linejoin="round"/>
<path d="M419.451 371.489C418.936 370.333 418.435 370.689 418.614 368.138C418.794 365.586 418.614 365.624 418.614 365.624C418.614 365.624 419.547 350.3 429.486 344.678C430.92 344.64 431.159 344.259 431.159 344.259C431.159 344.259 431.673 343.321 432.413 343.421C433.153 343.522 433.488 342.483 434.504 342.584C435.52 342.684 435.758 343.002 435.758 343.002C435.854 342.749 436.026 342.532 436.251 342.382C436.476 342.232 436.742 342.156 437.013 342.165C438.029 342.127 438.267 342.584 438.267 342.584C438.267 342.584 446.726 338.013 449.139 336.719C451.552 335.424 475.996 325.307 480.082 323.732" stroke="#2B3035" stroke-miterlimit="10" stroke-linecap="round" stroke-linejoin="round"/>
<path d="M112.88 365.624C99.0808 356.064 87.9539 340.64 89.614 321.273C93.256 278.736 128.535 261.812 153.511 261.313C158.553 261.213 169.651 262 179.854 266.759C189.053 271.045 205.779 286.415 205.779 316.192C205.779 329.773 195.743 347.192 195.743 347.192" stroke="#2B3035" stroke-miterlimit="10" stroke-linecap="round" stroke-linejoin="round"/>
<path fill-rule="evenodd" clip-rule="evenodd" d="M147.448 300.407C157.985 298.928 166.523 306.297 166.523 316.862C166.523 327.427 157.981 337.196 147.448 338.679C136.914 340.162 128.372 332.789 128.372 322.224C128.372 311.659 136.898 301.886 147.448 300.407Z" stroke="#2B3035" stroke-miterlimit="10" stroke-linecap="round" stroke-linejoin="round"/>
<path fill-rule="evenodd" clip-rule="evenodd" d="M147.586 297.759C159.641 296.083 169.413 304.462 169.413 316.481C169.413 328.5 159.641 339.618 147.586 341.298C135.531 342.977 125.758 334.595 125.758 322.576C125.758 310.557 135.531 299.456 147.586 297.759Z" stroke="#2B3035" stroke-miterlimit="10" stroke-linecap="round" stroke-linejoin="round"/>
<path d="M204.943 305.3C204.943 305.3 217.616 311.403 233.794 319.543" stroke="#2B3035" stroke-miterlimit="10" stroke-linecap="round" stroke-linejoin="round"/>
<path d="M250.938 355.57C250.938 355.57 209.396 334.41 203.27 330.854" stroke="#2B3035" stroke-miterlimit="10" stroke-linecap="round" stroke-linejoin="round"/>
<path d="M327.041 361.854C323.319 363.743 268.597 366.387 260.138 364.786C251.678 363.186 235.701 350.329 225.431 356.827C215.162 363.324 216.885 365.411 221.25 368.976" stroke="#2B3035" stroke-miterlimit="10" stroke-linecap="round" stroke-linejoin="round"/>
<path d="M321.605 347.611C316.073 348.524 312.64 348.373 301.116 341.746C289.592 335.118 263.579 322.262 248.848 329.597C234.116 336.932 240.999 358.921 265.573 358.921C290.148 358.921 324.072 348.092 328.295 351.381" stroke="#2B3035" stroke-miterlimit="10" stroke-linecap="round" stroke-linejoin="round"/>
<path d="M146.82 247.489L177.419 265.619M185.893 270.64C185.893 270.64 194.844 277.395 206.615 293.989C218.386 310.582 237.633 327.247 261.392 326.246C285.151 325.245 326.811 313.695 332.013 332.203" stroke="#2B3035" stroke-miterlimit="10" stroke-linecap="round" stroke-linejoin="round"/>
<path fill-rule="evenodd" clip-rule="evenodd" d="M9.66852 263.827C9.66852 263.827 90.5795 346.354 105.006 358.921C119.431 371.489 127.794 378.192 148.911 376.516C170.027 374.84 189.262 358.921 195.743 346.773C205.36 353.476 218.95 368.347 222.504 370.232C226.058 372.117 233.794 372.536 253.029 370.232C272.263 367.928 319.723 363.949 324.95 362.692C330.176 361.435 332.685 354.104 327.458 350.962C322.232 347.82 321.604 347.611 321.604 347.611C321.604 347.611 332.476 343.212 332.476 335.462C332.476 327.712 327.668 325.617 321.186 322.475C314.705 319.334 158.528 247.07 158.528 247.07C158.528 247.07 154.142 243.392 147.238 247.908C137.408 241.951 59.4277 195.543 59.4277 195.543C59.4277 195.543 30.5758 183.905 7.15965 215.651C-1.62975 227.498 -1.20324 253.982 9.66852 263.827Z" stroke="#2B3035" stroke-miterlimit="10" stroke-linecap="round" stroke-linejoin="round"/>
<path d="M577.509 237.854C577.158 239.337 574.582 239.11 574.582 239.11" stroke="#2B3035" stroke-miterlimit="10" stroke-linecap="round" stroke-linejoin="round"/>
<path d="M575.419 245.394C574.845 244.334 574.142 243.349 573.328 242.462" stroke="#2B3035" stroke-miterlimit="10" stroke-linecap="round" stroke-linejoin="round"/>
<path d="M566.219 219.002C566.219 219.002 572.216 222.772 573.328 227.381C574.44 231.989 573.575 238.046 572.91 239.11C572.245 240.174 572.111 241.293 571.655 242.462C571.199 243.63 567.511 248.833 563.292 250.84C559.073 252.847 555.766 251.678 555.766 251.678" stroke="#2B3035" stroke-miterlimit="10" stroke-linecap="round" stroke-linejoin="round"/>
<path fill-rule="evenodd" clip-rule="evenodd" d="M561.202 220.678C559.282 221.935 560.089 224.955 558.275 225.705C556.46 226.455 556.326 223.698 554.929 226.124C553.533 228.549 551.831 231.239 551.584 233.664C551.338 236.09 549.322 239.198 549.912 240.367C550.501 241.536 551.308 240.455 551.584 242.881C551.86 245.306 551.099 247.158 552.839 248.745C554.578 250.333 555.072 252.29 557.438 253.354C559.805 254.418 560.194 252.604 562.038 252.516C563.882 252.428 564.689 254.698 566.638 253.354C568.586 252.009 568.557 251.033 570.819 250.002C573.081 248.972 575.979 246.739 575.419 243.718C574.858 240.698 576.397 241.712 577.509 239.11C578.622 236.509 578.697 231.658 578.346 230.313C577.994 228.968 577.129 229.056 576.255 227.381C575.381 225.705 576.083 224.746 574.582 224.029C573.081 223.313 572.634 224.536 572.073 223.61C571.513 222.684 572.947 219.928 571.655 219.002C570.363 218.076 568.243 219.3 567.474 219.002C566.704 218.705 568.034 218.583 565.801 218.583C563.568 218.583 563.121 219.421 561.202 220.678Z" stroke="#2B3035" stroke-miterlimit="10" stroke-linecap="round" stroke-linejoin="round"/>
<path d="M582.651 150.005C565.996 147.211 530.262 152.028 511.567 188.546C492.871 225.063 491.496 244.191 491.496 258.924C491.496 273.658 509.337 319.523 548.599 320.516" stroke="#2B3035" stroke-miterlimit="10" stroke-linecap="round" stroke-linejoin="round"/>
<path d="M415.269 265.083L453.337 282.356M489.837 299.376L517.296 312.002C517.296 312.002 536.916 324.185 560.783 319.124" stroke="#2B3035" stroke-miterlimit="10" stroke-linecap="round" stroke-linejoin="round"/>
<path d="M490.054 308.111C491.895 309.363 493.598 310.808 495.135 312.421C497.259 314.759 508.515 327.502 519.805 327.502M411.924 266.34C411.924 266.34 429.235 274.915 447.366 284.354L411.924 266.34Z" stroke="#2B3035" stroke-miterlimit="10" stroke-linecap="round" stroke-linejoin="round"/>
<path d="M346.275 274.719C346.275 274.719 379.785 291.894 403.9 304.206" stroke="#2B3035" stroke-miterlimit="10" stroke-linecap="round" stroke-linejoin="round"/>
<path d="M572.491 221.097C574.783 222.249 575.803 221.788 576.255 222.772C576.706 223.757 576.138 224.867 577.927 227.381C579.717 229.894 578.764 231.57 578.764 231.57" stroke="#2B3035" stroke-miterlimit="10" stroke-linecap="round" stroke-linejoin="round"/>
<path d="M550.33 234.921C550.531 232.052 549.377 231.926 550.33 229.056C551.283 226.187 552.387 223.464 554.511 223.191C556.635 222.919 557.321 222.123 557.856 220.678C558.392 219.233 561.754 217.85 565.383 217.326C569.013 216.803 570.535 218.52 571.655 219.002" stroke="#2B3035" stroke-miterlimit="10" stroke-linecap="round" stroke-linejoin="round"/>
<path d="M564.547 253.773C562.908 253.081 562.757 252.872 561.202 253.773C559.646 254.673 558.576 256.139 556.602 255.029C554.628 253.919 553.642 251.699 552.002 250.421C550.363 249.143 549.209 247.175 549.494 245.394C549.778 243.614 548.54 243.656 547.821 241.624C547.102 239.592 551.133 235.529 551.166 233.664" stroke="#2B3035" stroke-miterlimit="10" stroke-linecap="round" stroke-linejoin="round"/>
<path d="M585.454 152.394C585.454 152.394 630.091 166.558 626.432 230.313C622.773 294.068 566.742 317.867 554.511 317.867" stroke="#2B3035" stroke-miterlimit="10" stroke-linecap="round" stroke-linejoin="round"/>
<path d="M255.538 291.894C255.538 291.894 280.208 288.124 290.662 279.746C301.116 271.367 305.088 260.056 311.569 260.056C318.051 260.056 319.932 261.313 319.932 261.313L346.275 274.719C346.275 274.719 352.757 269.273 352.548 260.475C352.338 251.678 358.611 243.09 365.092 244.975C371.573 247.698 411.924 266.34 411.924 266.34L416.105 265.502L407.324 261.313C407.324 261.313 369.378 243.614 368.437 197.218C367.496 150.823 407.437 117.205 442.867 117.205C449.662 117.205 453.32 118.461 453.32 118.461L583.781 149.88C583.781 149.88 628.523 158.678 628.523 223.191C628.314 276.813 590.89 310.955 562.456 318.705C539.04 325.198 531.304 327.712 518.551 327.502C514.399 327.377 498.898 320.883 487.19 315.731M387.948 354.565C375.649 356.378 363.526 359.237 351.711 363.111C341.467 355.78 325.368 345.516 325.368 345.516" stroke="#2B3035" stroke-miterlimit="10" stroke-linecap="round" stroke-linejoin="round"/>
<path d="M274.653 208.426C274.653 208.426 278.151 207.976 279.79 206.853" stroke="#2B3035" stroke-miterlimit="10" stroke-linecap="round" stroke-linejoin="round"/>
<path d="M271.634 211.445C273.972 210.607 275.224 207.419 275.191 206.435" stroke="#2B3035" stroke-miterlimit="10" stroke-linecap="round" stroke-linejoin="round"/>
<path d="M275.191 203.502C275.191 203.502 279.431 204.138 279.397 204.976" stroke="#2B3035" stroke-miterlimit="10" stroke-linecap="round" stroke-linejoin="round"/>
<path d="M276.863 200.57C276.863 200.57 281.985 201.525 281.985 203.682" stroke="#2B3035" stroke-miterlimit="10" stroke-linecap="round" stroke-linejoin="round"/>
<path d="M296.934 208.529C293.974 208.244 286.899 211.043 286.899 211.043L278.536 206.016C278.536 206.016 285.536 198.475 297.352 204.34" stroke="#2B3035" stroke-miterlimit="10" stroke-linecap="round" stroke-linejoin="round"/>
<path d="M295.68 201.826C295.228 202.518 297.524 204.206 299.025 206.435C300.526 208.663 300.451 212.865 295.262 213.556C290.072 214.247 290.553 215.517 287.735 216.07C284.917 216.623 280.477 214.786 277.241 215.758" stroke="#2B3035" stroke-miterlimit="10" stroke-linecap="round" stroke-linejoin="round"/>
<path d="M293.171 198.056C293.171 198.056 295.571 201.973 300.279 200.989" stroke="#2B3035" stroke-miterlimit="10" stroke-linecap="round" stroke-linejoin="round"/>
<path d="M284.808 195.124C286.727 197.072 289.997 197.922 292.335 197.637C294.672 197.352 294.844 197.218 294.844 197.218" stroke="#2B3035" stroke-miterlimit="10" stroke-linecap="round" stroke-linejoin="round"/>
<path d="M271.846 207.691C273.209 204.474 277.871 199.598 278.536 198.056C279.201 196.515 279.79 196.38 279.79 196.38C281.397 195.731 283.085 195.308 284.808 195.124C287.146 194.977 290.244 194.705 290.244 194.705" stroke="#2B3035" stroke-miterlimit="10" stroke-linecap="round" stroke-linejoin="round"/>
<path d="M271.009 216.489L270.173 213.556C270.173 213.556 271.879 212.446 271.846 209.786C271.812 207.126 271.461 207.419 271.846 205.597C272.23 203.774 274.664 197.365 276.445 195.543C278.226 193.72 281.772 189.824 286.899 190.516C292.025 191.207 293.898 192.61 296.098 193.448C298.297 194.286 301.567 195.27 302.37 199.313C303.173 203.355 302.96 206.3 302.788 208.948C302.617 211.596 302.261 208.814 301.116 214.394C299.97 219.974 300.451 221.097 297.352 221.935C294.254 222.772 292.753 222.772 292.753 222.772" stroke="#2B3035" stroke-miterlimit="10" stroke-linecap="round" stroke-linejoin="round"/>
<path d="M286.481 231.989C286.481 231.989 267.137 237.435 260.974 222.354C254.81 207.272 265.047 189.824 269.337 184.651C273.627 179.477 291.39 175.719 301.534 181.299C311.678 186.879 312.857 198.622 310.315 208.529C307.773 218.437 303.516 230.598 292.753 237.016C287.283 240.367 277.453 241.071 274.354 242.043C271.256 243.015 269.926 245.541 267.664 244.137C265.402 242.734 255.011 239.11 250.938 224.867C246.866 210.624 251.946 166.637 285.226 166.637C318.506 166.637 318.711 184.936 319.514 193.029" stroke="#2B3035" stroke-miterlimit="10" stroke-linecap="round" stroke-linejoin="round"/>
<path d="M318.109 236.497C318.109 236.497 353.593 251.468 354.22 251.678" stroke="#2B3035" stroke-miterlimit="10" stroke-linecap="round" stroke-linejoin="round"/>
<path d="M325.953 199.732C325.953 189.393 324.285 152.394 286.899 152.394C249.512 152.394 235.638 192.057 234.631 210.205C233.623 228.352 240.376 255.867 263.064 256.705" stroke="#2B3035" stroke-miterlimit="10" stroke-linecap="round" stroke-linejoin="round"/>
<path d="M314.496 198.894C314.496 210.477 312.021 228.218 297.771 241.205C294.81 244.137 283.725 248.193 280.627 249.583C277.528 250.974 279.544 251.544 276.445 252.097C273.347 252.65 271.879 251.125 269.755 251.259C267.631 251.393 242.329 253.354 239.648 221.097C238.779 201.96 245.812 162.448 284.39 156.583C304.846 153.366 320.384 170.554 323.696 181.718C327.007 192.882 325.786 204.759 325.786 204.759" stroke="#2B3035" stroke-miterlimit="10" stroke-linecap="round" stroke-linejoin="round"/>
<path d="M217.069 273.881C217.069 273.881 233.13 264.246 243.412 264.246" stroke="#2B3035" stroke-miterlimit="10" stroke-linecap="round" stroke-linejoin="round"/>
<path d="M212.469 271.786C221.607 267.289 231.57 264.723 241.739 264.245C258.185 263.617 266.481 267.597 284.808 261.313C303.135 255.029 319.857 244.067 324.804 211.391" stroke="#2B3035" stroke-miterlimit="10" stroke-linecap="round" stroke-linejoin="round"/>
<path d="M135.112 201.407C135.112 201.407 152.708 206.259 163.964 211.88C175.221 217.502 201.773 229.442 209.542 232.408C217.311 235.374 221.844 235.445 228.777 240.367C235.71 245.289 246.652 259.043 263.483 256.705C279.895 257.3 296.274 251.644 306.552 239.11C316.83 226.576 319.514 210.59 319.514 195.543C319.514 180.495 313.693 162.272 288.571 162.029C263.449 161.786 245.084 186.293 245.084 216.489C245.084 246.684 266.861 249.269 269.755 248.745C272.648 248.222 277.875 247.593 283.972 245.813C290.068 244.033 302.404 239.215 310.733 218.164C315.299 203.816 315.646 198.023 312.824 188.421C310.001 178.819 297.946 173.759 287.735 173.759C277.524 173.759 258.917 177.215 253.029 213.975C250.763 228.671 264.771 236.002 273.936 237.016C283.102 238.029 290.277 236.144 295.262 229.894C300.246 223.644 303.8 218.826 304.043 214.813C304.285 210.8 308.258 201.65 304.461 195.124C300.664 188.597 294.877 185.731 285.644 186.326C276.412 186.921 267.279 194.809 265.155 206.016C263.031 217.222 265.607 223.715 273.518 226.962C281.429 230.208 285.402 231.256 286.063 231.57C286.723 231.884 293.765 227.904 292.753 221.935C291.741 215.965 291.498 216.07 291.498 216.07C289.382 216.958 287.102 217.386 284.808 217.326C281.011 217.222 276.952 213.799 271.203 216.489" stroke="#2B3035" stroke-miterlimit="10" stroke-linecap="round" stroke-linejoin="round"/>
<path d="M388.09 246.651C388.09 246.651 389.949 257.742 404.133 259.594" stroke="#2B3035" stroke-miterlimit="10" stroke-linecap="round" stroke-linejoin="round"/>
<path d="M383.072 240.367C383.072 240.367 382.922 247.87 386.058 254.573" stroke="#2B3035" stroke-miterlimit="10" stroke-linecap="round" stroke-linejoin="round"/>
<path d="M372.984 221.796C372.984 221.796 370.036 235.099 375.681 249.552" stroke="#2B3035" stroke-miterlimit="10" stroke-linecap="round" stroke-linejoin="round"/>
<path fill-rule="evenodd" clip-rule="evenodd" d="M225.056 277.915C225.056 277.915 229.865 272.259 237.182 271.212C244.5 270.165 255.162 272.259 265.616 270.793C276.07 269.327 309.103 259.063 317.466 238.117C325.829 217.171 328.756 190.57 325.411 178.212C322.066 165.854 309.73 151.82 292.795 148.887C275.861 145.955 273.221 150.572 227.644 141.147" stroke="#2B3035" stroke-miterlimit="10" stroke-linecap="round" stroke-linejoin="round"/>
<path d="M227.522 141.083C227.522 141.083 236.721 130.191 248.848 130.191C255.956 130.191 266.828 133.542 266.828 133.542C266.828 133.542 316.587 145.901 324.95 148.205C333.313 150.509 375.545 162.029 375.545 162.029" stroke="#2B3035" stroke-miterlimit="10" stroke-linecap="round" stroke-linejoin="round"/>
<path fill-rule="evenodd" clip-rule="evenodd" d="M582.602 6.53514C588.529 5.68175 597.98 26.51 601.885 53.1147C605.791 79.7195 602.675 101.982 596.738 102.836C590.801 103.689 582.839 82.8304 578.934 56.2563C575.028 29.6821 576.676 7.38853 582.602 6.53514Z" stroke="#171616" stroke-miterlimit="10"/>
<path d="M488.295 86.4174C489.045 82.3793 489.161 78.2506 488.638 74.1775" stroke="#171616" stroke-miterlimit="10"/>
<path d="M483.49 52.0777C483.49 52.0777 486.922 53.8627 487.952 64.6576" stroke="#171616" stroke-miterlimit="10"/>
<path d="M438.191 58.1976C438.191 58.1976 479.887 52.8427 483.833 52.4177C487.78 51.9927 569.833 6.89554 576.49 3.79817C600.749 -7.49312 624.14 108.007 591.59 107.837C578.206 108.772 488.981 86.7574 488.981 86.7574L444.712 93.5573" stroke="#171616" stroke-miterlimit="10"/>
<path d="M429.269 61.2576C429.269 61.2576 428.582 67.9726 431.328 80.6374C431.88 83.1942 432.409 85.2444 432.896 86.89" stroke="#171616" stroke-miterlimit="10"/>
<path d="M431.328 57.5177C431.328 57.5177 436.818 61.6826 438.878 75.8775C440.937 90.0724 440.079 95.8523 437.848 95.9373" stroke="#171616" stroke-miterlimit="10"/>
<path d="M430.47 88.2568C429.694 85.3464 428.956 81.7254 428.239 77.2375C425.322 58.9627 428.239 55.3077 432.014 54.7977C435.789 54.2877 440.422 58.2827 442.996 74.1775C445.569 90.0724 444.025 99.2523 439.221 99.3373C438.237 99.3782 437.258 99.1798 436.369 98.7593" stroke="#171616" stroke-miterlimit="10"/>
<path d="M436.132 163.257V98.9973C436.132 95.6823 439.221 93.5573 439.221 93.5573" stroke="#171616" stroke-miterlimit="10"/>
<path d="M439.976 87.0974H432.711C432.711 87.0974 427.22 88.5423 428.25 93.2173C429.279 97.8922 432.196 98.4022 433.054 105.117C433.912 111.832 433.054 166.997 433.054 166.997M491.383 87.0974C491.383 87.0974 606.175 91.9423 606.347 90.8373C606.518 89.7323 586.099 87.0974 586.099 87.0974H444.324H491.383Z" stroke="#171616" stroke-miterlimit="10"/>
<path d="M442.309 96.9573C442.309 96.9573 482.289 89.7323 485.892 89.4773C489.496 89.2224 577.52 109.962 587.815 111.237C598.11 112.512 617.671 104.692 608.406 51.3977C599.14 -1.89678 581.638 0.143205 575.118 1.75819C568.597 3.37317 486.064 48.5927 482.461 50.3777C478.857 52.1627 435.789 55.8177 435.789 55.8177" stroke="#171616" stroke-miterlimit="10"/>
<path d="M160.906 59.2176C160.906 59.2176 99.9931 56.4127 93.9875 55.4777C87.982 54.5427 81.6333 42.5578 81.6333 42.5578C81.6333 42.5578 66.5336 20.798 55.2089 20.798C43.8841 20.798 34.6184 40.7728 34.6184 61.5976C34.6184 82.4224 40.2808 100.697 50.7476 100.697C61.2144 100.697 75.9709 88.2024 88.8399 71.1175" stroke="#171616" stroke-miterlimit="10"/>
<path d="M167.807 74.9833C166.27 76.9485 164.049 77.6046 162.406 75.8877C158.181 75.8877 94.1448 72.0253 91.3136 73.2221C89.6467 73.9116 88.2006 75.0375 87.1304 76.4793C87.1304 76.4793 68.1563 102.826 51.5844 102.826C35.0125 102.826 32.171 78.9782 32.171 63.454C32.171 38.2636 41.9446 19.7066 54.872 19.0538C69.8687 18.299 87.7035 49.4937 91.5916 52.4177C96.9177 55.0663 163.315 57.5346 163.315 57.5346C163.315 57.5346 166.146 54.4747 168.095 57.8304C170.045 61.1862 170.031 65.2186 169.588 70.2641C169.537 70.857 169.433 71.4441 169.276 72.0185" stroke="#171616" stroke-miterlimit="10"/>
<path d="M34.6184 69.7575C34.6184 69.7575 60.3565 73.4125 92.958 70.4375C118.425 71.6547 152.19 73.4805 162.145 74.0211M165.025 74.1775C165.251 74.141 165.481 74.1285 165.711 74.1401C166.62 74.1809 168.113 74.6025 168.113 76.8975V144.217" stroke="#171616" stroke-miterlimit="10"/>
<path d="M34.2753 69.7575L49.5 69.0975C49.5 69.0975 60.5201 68 91.2422 69.0975C130.5 70.5 148.024 71.2263 161.593 71.6445M165.176 71.7431C166.62 71.7771 167.832 71.7975 168.789 71.7975C171.099 71.7975 170.476 76.2175 170.476 76.2175V140.817" stroke="#171616" stroke-miterlimit="10"/>
<path d="M167.187 58.7178C164.129 58.7178 163.985 74.6977 166.294 74.6977" stroke="#171616" stroke-miterlimit="10"/>
<path d="M163.302 57.5346C163.302 57.5346 161.85 59.8908 161.51 66.4154C161.171 72.9399 162.705 75.8877 162.705 75.8877" stroke="#171616" stroke-miterlimit="10"/>
<path fill-rule="evenodd" clip-rule="evenodd" d="M51.6742 23.178C56.7635 23.178 59.8349 39.7698 58.5377 60.2376C57.2405 80.7054 52.7449 97.2973 47.6591 97.2973C42.5732 97.2973 35.3803 80.7054 36.6775 60.2376C37.9747 39.7698 46.5849 23.178 51.6742 23.178Z" stroke="#171616" stroke-miterlimit="10"/>
</svg>
