<svg width="23" height="23" viewBox="0 0 23 23" fill="none" xmlns="http://www.w3.org/2000/svg">
<path fill-rule="evenodd" clip-rule="evenodd" d="M21.85 13.8001C22.4851 13.8001 23 14.3149 23 14.9501V19.5501C23 20.4651 22.6365 21.3426 21.9895 21.9896C21.3425 22.6366 20.465 23.0001 19.55 23.0001H3.45C2.535 23.0001 1.65746 22.6366 1.01046 21.9896C0.363462 21.3426 -3.99958e-08 20.4651 0 19.5501L2.01072e-07 14.9501C2.28835e-07 14.3149 0.514873 13.8001 1.15 13.8001C1.78513 13.8001 2.3 14.3149 2.3 14.9501L2.3 19.5501C2.3 19.8551 2.42118 20.1476 2.63684 20.3632C2.85251 20.5789 3.145 20.7001 3.45 20.7001H19.55C19.855 20.7001 20.1475 20.5789 20.3632 20.3632C20.5788 20.1476 20.7 19.8551 20.7 19.5501V14.9501C20.7 14.3149 21.2149 13.8001 21.85 13.8001Z" fill="#2B3035"/>
<path fill-rule="evenodd" clip-rule="evenodd" d="M4.93693 7.71318C4.48783 7.26407 4.48783 6.53593 4.93693 6.08683L10.6869 0.336827C11.136 -0.112276 11.8641 -0.112276 12.3132 0.336827L18.0632 6.08683C18.5123 6.53593 18.5123 7.26407 18.0632 7.71318C17.6141 8.16228 16.886 8.16228 16.4369 7.71318L11.5001 2.77635L6.56324 7.71318C6.11414 8.16228 5.38603 8.16228 4.93693 7.71318Z" fill="#2B3035"/>
<path fill-rule="evenodd" clip-rule="evenodd" d="M11.5001 16.1C10.865 16.1 10.3501 15.5851 10.3501 14.95V1.15C10.3501 0.514874 10.865 5.80941e-06 11.5001 5.78165e-06C12.1352 5.75389e-06 12.6501 0.514873 12.6501 1.15V14.95C12.6501 15.5851 12.1352 16.1 11.5001 16.1Z" fill="#2B3035"/>
</svg>
